<svg height="436.90667pt" viewBox="0 0 436.90667 436.90667" width="436.90667pt" xmlns="http://www.w3.org/2000/svg"><path d="m430.078125 81.921875c0 41.472656-33.617187 75.089844-75.089844 75.089844-41.472656 0-75.09375-33.617188-75.09375-75.089844 0-41.476563 33.621094-75.09375 75.09375-75.09375 41.472657 0 75.089844 33.617187 75.089844 75.09375zm0 0" fill="#aaa"/><path d="m430.078125 81.921875h6.828125c-.003906-45.25-36.675781-81.91796875-81.917969-81.921875-45.246093.00390625-81.917969 36.671875-81.921875 81.921875.003906 45.242187 36.675782 81.914063 81.921875 81.917969 45.242188-.003906 81.914063-36.671875 81.917969-81.917969h-13.652344c-.003906 18.871094-7.632812 35.894531-19.996094 48.269531-12.375 12.363282-29.398437 19.992188-48.269531 19.996094-18.875-.003906-35.898437-7.632812-48.273437-19.996094-12.363282-12.375-19.992188-29.398437-19.996094-48.269531.003906-18.875 7.632812-35.898437 19.996094-48.273437 12.375-12.363282 29.398437-19.992188 48.273437-19.996094 18.871094.003906 35.894531 7.632812 48.269531 19.996094 12.363282 12.375 19.992188 29.398437 19.996094 48.273437zm0 0" fill="#54596e"/><path d="m157.011719 81.921875c0 41.472656-33.617188 75.089844-75.089844 75.089844-41.476563 0-75.09375-33.617188-75.09375-75.089844 0-41.476563 33.617187-75.09375 75.09375-75.09375 41.472656 0 75.089844 33.617187 75.089844 75.09375zm0 0" fill="#aaa"/><path d="m157.011719 81.921875h6.828125c-.003906-45.25-36.675782-81.91796875-81.917969-81.921875-45.246094.00390625-81.91796875 36.671875-81.921875 81.921875.00390625 45.242187 36.675781 81.914063 81.921875 81.917969 45.242187-.003906 81.914063-36.671875 81.917969-81.917969h-13.652344c-.003906 18.871094-7.632812 35.894531-19.996094 48.269531-12.375 12.363282-29.398437 19.992188-48.269531 19.996094-18.875-.003906-35.898437-7.632812-48.273437-19.996094-12.363282-12.375-19.992188-29.398437-19.996094-48.269531.003906-18.875 7.632812-35.898437 19.996094-48.273437 12.375-12.363282 29.398437-19.992188 48.273437-19.996094 18.871094.003906 35.894531 7.632812 48.269531 19.996094 12.363282 12.375 19.992188 29.398437 19.996094 48.273437zm0 0" fill="#54596e"/><path d="m54.613281 81.921875c0 18.847656 15.285157 34.132813 34.132813 34.132813 18.851562 0 34.132812-15.285157 34.132812-34.132813" fill="#aaa"/><path d="m47.785156 81.921875c.007813 22.621094 18.339844 40.953125 40.960938 40.957031 22.625-.003906 40.957031-18.335937 40.960937-40.957031 0-3.773437-3.058593-6.828125-6.828125-6.828125-3.769531 0-6.824218 3.054688-6.824218 6.828125-.003907 7.558594-3.046876 14.34375-8 19.304687-4.964844 4.953126-11.746094 7.996094-19.308594 8-7.558594-.003906-14.34375-3.046874-19.308594-8-4.949219-4.960937-7.992188-11.746093-7.996094-19.304687 0-3.773437-3.058594-6.828125-6.828125-6.828125s-6.828125 3.054688-6.828125 6.828125zm0 0" fill="#54596e"/><path d="m314.027344 81.921875c0 18.847656 15.28125 34.132813 34.132812 34.132813 18.851563 0 34.132813-15.285157 34.132813-34.132813" fill="#aaa"/><path d="m307.199219 81.921875c.007812 22.621094 18.335937 40.953125 40.960937 40.957031 22.625-.003906 40.953125-18.335937 40.960938-40.957031 0-3.773437-3.058594-6.828125-6.828125-6.828125s-6.828125 3.054688-6.828125 6.828125c0 7.558594-3.042969 14.34375-7.996094 19.304687-4.964844 4.953126-11.75 7.996094-19.308594 8-7.5625-.003906-14.34375-3.046874-19.308594-8-4.953124-4.960937-7.996093-11.746093-8-19.304687 0-3.773437-3.054687-6.828125-6.824218-6.828125-3.769532 0-6.828125 3.054688-6.828125 6.828125zm0 0" fill="#54596e"/><path d="m218.453125 20.480469c-60.320313 0-109.226563 48.902343-109.226563 109.226562v213.457031c0 14.070313 11.40625 25.476563 25.476563 25.476563h167.5c14.070313 0 25.476563-11.40625 25.476563-25.476563v-213.457031c0-60.324219-48.902344-109.226562-109.226563-109.226562" fill="#999"/><path d="m218.453125 20.480469v-6.828125c-64.09375.003906-116.050781 51.957031-116.050781 116.050781v213.460937c.003906 17.839844 14.460937 32.296876 32.300781 32.300782h167.5c17.847656-.003906 32.300781-14.460938 32.304687-32.300782v-213.457031c-.003906-64.097656-51.957031-116.046875-116.054687-116.054687v13.65625c28.300781 0 53.859375 11.445312 72.40625 29.988281 18.542969 18.554687 29.992187 44.109375 29.992187 72.410156v213.457031c-.019531 10.296876-8.351562 18.628907-18.648437 18.652344h-167.5c-10.296875-.023437-18.632813-8.355468-18.648437-18.652344v-213.457031c.003906-28.296875 11.449218-53.855469 29.988281-72.410156 18.554687-18.542969 44.113281-29.988281 72.410156-29.988281z" fill="#54596e"/><path d="m320.851562 328.578125c-5.265624 3.734375-11.699218 5.925781-18.648437 5.925781h-167.5c-6.945313 0-13.382813-2.195312-18.648437-5.921875v14.582031c.015624 10.296876 8.351562 18.628907 18.648437 18.648438h167.5c10.296875-.019531 18.628906-8.351562 18.648437-18.648438z" fill="#8b8c90"/><path d="m320.851562 302.203125c-.019531 10.296875-8.351562 18.628906-18.648437 18.648437h-167.5c-10.296875-.019531-18.632813-8.351562-18.648437-18.648437v40.960937c.015624 10.296876 8.351562 18.628907 18.648437 18.648438h167.5c10.296875-.019531 18.628906-8.351562 18.648437-18.648438-.019531 10.296876-8.351562 18.628907-18.648437 18.648438h-167.5c-10.296875-.019531-18.632813-8.351562-18.648437-18.648438v-14.582031c5.265624 3.730469 11.699218 5.921875 18.648437 5.921875h167.5c6.949219 0 13.382813-2.195312 18.648437-5.925781z" fill="#8b8c90"/><path d="m327.679688 295.378906c-1.796876 0-3.554688.726563-4.828126 1.996094-1.269531 1.269531-1.996093 3.027344-1.996093 4.828125v40.960937c-.019531 10.296876-8.355469 18.628907-18.652344 18.648438h-167.5c-10.292969-.019531-18.628906-8.351562-18.648437-18.648438v-40.960937c0-1.800781-.730469-3.558594-2-4.828125-1.269532-1.269531-3.027344-1.996094-4.828126-1.996094-1.796874 0-3.554687.726563-4.824218 1.996094-1.273438 1.269531-2 3.027344-2 4.828125v40.960937c.003906 17.839844 14.460937 32.296876 32.300781 32.300782h167.5c17.847656-.003906 32.300781-14.460938 32.304687-32.300782v-40.960937c0-1.800781-.726562-3.558594-1.996093-4.828125-1.273438-1.269531-3.035157-1.996094-4.832031-1.996094" fill="#54596e"/><path d="m245.761719 204.800781v225.277344h-54.613281v-225.277344" fill="#999"/><path d="m238.933594 204.800781v218.453125h-40.960938v-218.453125c0-3.769531-3.054687-6.828125-6.824218-6.828125-3.773438 0-6.828126 3.058594-6.828126 6.828125v225.277344c0 1.800781.726563 3.558594 2 4.828125 1.269532 1.273438 3.027344 2 4.828126 2h54.613281c1.796875 0 3.554687-.726562 4.824219-2 1.269531-1.269531 2-3.027344 2-4.828125v-225.277344c0-3.769531-3.054688-6.828125-6.824219-6.828125-3.773438 0-6.828125 3.058594-6.828125 6.828125zm0 0" fill="#54596e"/><path d="m161.230469 132.039062c-6.25-4.21875-14.734375-2.574218-18.953125 3.675782s-2.574219 14.738281 3.675781 18.957031 14.734375 2.570313 18.953125-3.679687c4.21875-6.246094 2.574219-14.734376-3.675781-18.953126zm0 0" fill="#54596e"/><path d="m290.933594 132.039062c-6.25-4.21875-14.738282-2.570312-18.957032 3.675782-4.21875 6.25-2.570312 14.738281 3.679688 18.957031s14.734375 2.574219 18.953125-3.675781 2.574219-14.738282-3.675781-18.957032zm0 0" fill="#54596e"/><path d="m191.148438 293.546875h-17.070313l-17.066406-27.308594v-68.265625h34.136719zm0 0" fill="#fff"/><path d="m191.148438 293.546875v-6.828125h-13.285157l-14.023437-22.4375v-59.484375h20.480468v88.75h6.828126v-6.828125 6.828125h6.824218v-95.574219c0-1.796875-.726562-3.554687-2-4.828125-1.269531-1.269531-3.027344-1.996093-4.824218-1.996093h-34.136719c-1.796875 0-3.554688.726562-4.824219 1.996093-1.273438 1.273438-2 3.03125-2 4.828125v68.265625c0 1.265625.367188 2.546875 1.035156 3.621094l17.066406 27.304687c1.246094 1.992188 3.441407 3.210938 5.789063 3.210938h17.070313c1.796874 0 3.554687-.730469 4.824218-2 1.273438-1.273438 2-3.03125 2-4.828125zm0 0" fill="#54596e"/><path d="m245.761719 293.546875h17.066406l17.066406-27.308594v-68.265625h-34.132812zm0 0" fill="#fff"/><g fill="#54596e"><path d="m245.761719 293.546875v6.828125h17.066406c2.347656 0 4.542969-1.21875 5.789063-3.210938l17.066406-27.304687c.667968-1.074219 1.035156-2.355469 1.035156-3.621094v-68.265625c0-1.796875-.726562-3.554687-2-4.828125-1.269531-1.269531-3.027344-1.996093-4.824219-1.996093h-34.132812c-1.800781 0-3.558594.726562-4.828125 1.996093-1.273438 1.273438-2 3.03125-2 4.828125v95.574219c0 1.796875.726562 3.554687 2 4.828125 1.269531 1.269531 3.027344 1.996094 4.828125 1.996094v-6.824219h6.824219v-88.75h20.480468v59.484375l-14.023437 22.4375h-13.28125v6.828125h6.824219zm0 0"/><path d="m218.453125 354.988281v-6.828125s-6.113281 0-13.652344 0c-7.539062 0-13.640625 0-13.652343 0-1.800782 0-3.558594.726563-4.828126 2-1.273437 1.269532-2 3.027344-2 4.828125 0 1.796875.726563 3.554688 2 4.824219 1.269532 1.273438 3.027344 2 4.828126 2h13.652343 13.652344c1.796875 0 3.554687-.726562 4.828125-2 1.269531-1.269531 2-3.027344 2-4.824219 0-1.800781-.730469-3.558593-2-4.828125-1.269531-1.273437-3.03125-2-4.828125-2v6.828125-6.828125s-6.113281 0-13.652344 0c-7.539062 0-13.640625 0-13.652343 0-1.800782 0-3.558594.726563-4.828126 2-1.273437 1.269532-2 3.027344-2 4.828125 0 1.796875.726563 3.554688 2 4.824219 1.269532 1.273438 3.027344 2 4.828126 2h13.652343 13.652344c1.796875 0 3.554687-.726562 4.828125-2 1.269531-1.269531 2-3.027344 2-4.824219 0-1.800781-.730469-3.558593-2-4.828125-1.269531-1.273437-3.03125-2-4.828125-2zm0 0"/><path d="m218.453125 314.027344v-6.828125s-6.113281 0-13.652344 0c-7.539062 0-13.640625 0-13.652343 0-1.800782 0-3.558594.726562-4.828126 2-1.273437 1.269531-2 3.027343-2 4.828125 0 1.796875.726563 3.554687 2 4.824218 1.269532 1.273438 3.027344 2 4.828126 2h13.652343 13.652344c1.796875 0 3.554687-.726562 4.828125-2 1.269531-1.269531 2-3.027343 2-4.824218 0-1.800782-.730469-3.558594-2-4.828125-1.269531-1.273438-3.03125-2-4.828125-2v6.828125-6.828125s-6.113281 0-13.652344 0c-7.539062 0-13.640625 0-13.652343 0-1.800782 0-3.558594.726562-4.828126 2-1.273437 1.269531-2 3.027343-2 4.828125 0 1.796875.726563 3.554687 2 4.824218 1.269532 1.273438 3.027344 2 4.828126 2h13.652343 13.652344c1.796875 0 3.554687-.726562 4.828125-2 1.269531-1.269531 2-3.027343 2-4.824218 0-1.800782-.730469-3.558594-2-4.828125-1.269531-1.273438-3.03125-2-4.828125-2zm0 0"/><path d="m218.453125 273.066406v-6.828125s-6.113281 0-13.652344 0c-7.539062 0-13.640625 0-13.652343 0-1.800782 0-3.558594.730469-4.828126 2-1.273437 1.273438-2 3.03125-2 4.828125s.726563 3.554688 2 4.828125c1.269532 1.269531 3.027344 1.996094 4.828126 1.996094h13.652343 13.652344c1.796875 0 3.554687-.726563 4.828125-1.996094 1.269531-1.273437 2-3.03125 2-4.828125s-.730469-3.554687-2-4.828125c-1.269531-1.269531-3.03125-2-4.828125-2v6.828125-6.828125s-6.113281 0-13.652344 0c-7.539062 0-13.640625 0-13.652343 0-1.800782 0-3.558594.730469-4.828126 2-1.273437 1.273438-2 3.03125-2 4.828125s.726563 3.554688 2 4.828125c1.269532 1.269531 3.027344 1.996094 4.828126 1.996094h13.652343 13.652344c1.796875 0 3.554687-.726563 4.828125-1.996094 1.269531-1.273437 2-3.03125 2-4.828125s-.730469-3.554687-2-4.828125c-1.269531-1.269531-3.03125-2-4.828125-2zm0 0"/><path d="m218.453125 232.105469v-6.824219s-6.113281 0-13.652344 0c-7.539062 0-13.640625 0-13.652343 0-1.800782 0-3.558594.726562-4.828126 1.996094-1.273437 1.273437-2 3.03125-2 4.828125s.726563 3.554687 2 4.828125c1.269532 1.269531 3.027344 1.996094 4.828126 1.996094h13.652343 13.652344c1.796875 0 3.554687-.726563 4.828125-1.996094 1.269531-1.273438 2-3.03125 2-4.828125s-.730469-3.554688-2-4.828125c-1.269531-1.269532-3.03125-1.996094-4.828125-1.996094v6.824219-6.824219s-6.113281 0-13.652344 0c-7.539062 0-13.640625 0-13.652343 0-1.800782 0-3.558594.726562-4.828126 1.996094-1.273437 1.273437-2 3.03125-2 4.828125s.726563 3.554687 2 4.828125c1.269532 1.269531 3.027344 1.996094 4.828126 1.996094h13.652343 13.652344c1.796875 0 3.554687-.726563 4.828125-1.996094 1.269531-1.273438 2-3.03125 2-4.828125s-.730469-3.554688-2-4.828125c-1.269531-1.269532-3.03125-1.996094-4.828125-1.996094zm0 0"/></g></svg>