<svg height="430pt" viewBox="-37 0 430 430.07957" width="430pt" xmlns="http://www.w3.org/2000/svg"><path d="m321.886719 198.4375c3.773437-13.160156 5.835937-27.050781 5.835937-41.425781 0-82.949219-67.242187-150.1875-150.1875-150.1875-82.949218 0-150.1875 67.238281-150.1875 150.1875 0 14.375 2.0625 28.265625 5.832032 41.425781-16.640626 13.699219-26.3125 29.917969-26.3125 47.320312 0 49.011719 76.410156 88.746094 170.667968 88.746094 94.257813 0 170.667969-39.734375 170.667969-88.746094 0-17.402343-9.671875-33.621093-26.316406-47.320312" fill="#fff"/><path d="m321.886719 198.4375 6.5625 1.878906c3.941406-13.75 6.097656-28.273437 6.097656-43.304687-.003906-86.71875-70.292969-157.011719-157.011719-157.011719s-157.011718 70.292969-157.011718 157.011719c0 15.03125 2.15625 29.554687 6.097656 43.304687l6.558594-1.875-4.335938-5.273437c-8.835938 7.277343-15.996094 15.347656-21 24.179687-5.003906 8.8125-7.8125 18.433594-7.8007812 28.410156-.0117188 14.070313 5.5390622 27.328126 14.9414062 38.851563 14.140625 17.320313 36.808594 31.292969 64.863281 41.179687 28.070313 9.855469 61.617188 15.539063 97.6875 15.539063 48.09375-.015625 91.683594-10.070313 123.828125-26.761719 16.066407-8.359375 29.308594-18.398437 38.722657-29.957031 9.402343-11.523437 14.953124-24.78125 14.941406-38.851563.007812-9.976562-2.800782-19.597656-7.800782-28.410156-5.007812-8.832031-12.164062-16.902344-21-24.179687l-4.339843 5.269531 6.5625 1.878906-6.5625-1.878906-4.339844 5.269531c7.808594 6.425781 13.804687 13.308594 17.796875 20.367188 3.996094 7.070312 6.023438 14.257812 6.03125 21.683593-.011719 10.4375-4.007812 20.523438-11.878906 30.238282-11.773438 14.53125-32.382813 27.660156-58.804688 36.910156-26.40625 9.28125-58.535156 14.777344-93.15625 14.773438-46.164062.015624-87.902344-9.792969-117.53125-25.226563-14.816406-7.695313-26.566406-16.785156-34.429687-26.457031-7.871094-9.714844-11.867188-19.800782-11.882813-30.238282.011719-7.425781 2.039063-14.613281 6.03125-21.683593 3.992188-7.058594 9.992188-13.941407 17.800782-20.367188 2.09375-1.726562 2.972656-4.535156 2.21875-7.148437-3.597657-12.578125-5.566407-25.824219-5.570313-39.546875.007813-39.609375 16.035156-75.40625 41.992187-101.371094 25.964844-25.953125 61.757813-41.984375 101.371094-41.988281 39.609375.003906 75.402344 16.035156 101.367188 41.988281 25.957031 25.964844 41.988281 61.761719 41.996094 101.371094-.003907 13.722656-1.96875 26.96875-5.574219 39.546875-.75 2.613281.125 5.421875 2.222656 7.148437z" fill="#54596e"/><path d="m14.796875 236.515625c-.652344 2.726563-1.019531 5.476563-1.089844 8.253906v.003907c-.003906.101562-.003906.203124-.007812.308593v.054688c0 .089843-.003907.179687-.003907.273437v.054688.292968c.011719 10.433594 4.007813 20.523438 11.882813 30.234376 7.859375 9.675781 19.609375 18.765624 34.429687 26.457031 29.601563 15.421875 71.289063 25.226562 117.40625 25.226562h.125c34.621094.003907 66.75-5.488281 93.15625-14.769531 26.417969-9.253906 47.027344-22.378906 58.800782-36.914062 7.871094-9.710938 11.871094-19.800782 11.882812-30.234376 0-.097656 0-.195312-.003906-.289062 0-.019531 0-.039062 0-.058594 0-.09375 0-.183594 0-.277344 0-.015624 0-.035156 0-.050781-.054688-2.886719-.421875-5.738281-1.097656-8.570312-12.554688 15.609375-32.128906 28.46875-56.203125 38.152343-29.738281 11.90625-66.582031 18.867188-106.535157 18.878907-39.957031-.007813-76.800781-6.972657-106.542968-18.878907-24.074219-9.683593-43.644532-22.539062-56.199219-38.148437" fill="#dddee2"/><path d="m341.375 245.410156v.058594c0-.019531 0-.039062 0-.058594m-327.679688 0v.058594c0-.019531 0-.039062 0-.058594m327.675782-.324218v.050781c0-.019531 0-.035157 0-.050781m-327.671875-.003907v.054688c0-.019531 0-.039063 0-.054688m.007812-.3125v.003907s0 0 0-.003907" fill="#54596e"/><path d="m341.375 245.46875v.289062c0-.097656 0-.191406 0-.289062m-327.679688 0c0 .097656-.003906.191406-.003906.289062 0-.097656.003906-.191406.003906-.289062m.003907-.332031c0 .09375-.003907.183593-.003907.273437 0-.089844.003907-.183594.003907-.273437m327.671875 0c0 .089843.003906.183593.003906.273437 0-.089844-.003906-.183594-.003906-.273437m-327.664063-.363281c-.003906.101562-.003906.203124-.007812.308593.003906-.105469.003906-.207031.007812-.308593m320.3125-22.917969c-9.601562 15.378906-28.941406 29.734375-55.023437 40.136719-27.828125 11.160156-63.105469 17.90625-101.457032 17.902343-.019531 0-.035156 0-.050781 0-38.335937 0-73.597656-6.75-101.414062-17.902343-26.082031-10.402344-45.421875-24.757813-55.023438-40.136719-.464843.738281-.90625 1.476562-1.324219 2.21875-3.816406 6.757812-5.839843 13.621093-6.019531 20.695312.074219-2.777343.441407-5.527343 1.089844-8.253906 12.554687 15.609375 32.125 28.464844 56.199219 38.148437 29.742187 11.90625 66.585937 18.871094 106.542968 18.882813 39.953126-.011719 76.796876-6.976563 106.535157-18.882813 24.074219-9.683593 43.644531-22.539062 56.203125-38.148437.675781 2.828125 1.042968 5.683594 1.097656 8.570313-.128906-7.1875-2.152344-14.15625-6.027344-21.011719-.421875-.742188-.863281-1.480469-1.328125-2.21875" fill="#dddee2"/><g fill="#54596e"><path d="m341.875 215.074219c-2.503906 0-4.828125 1.386719-6.011719 3.59375-.566406 1.066406-1.183593 2.128906-1.84375 3.1875.464844.738281.90625 1.476562 1.324219 2.21875 3.875 6.855469 5.898438 13.824219 6.027344 21.011719v.050781c0 .089843.003906.183593.003906.273437v.058594.289062c-.011719 10.4375-4.007812 20.523438-11.882812 30.238282-11.773438 14.53125-32.382813 27.660156-58.800782 36.910156-26.40625 9.28125-58.535156 14.777344-93.15625 14.773438-.039062 0-.085937 0-.125 0-46.117187 0-87.804687-9.808594-117.40625-25.226563-14.820312-7.695313-26.570312-16.785156-34.429687-26.457031-7.871094-9.714844-11.871094-19.800782-11.882813-30.238282 0-.097656 0-.191406 0-.289062 0-.019531 0-.039062 0-.058594 0-.089844.003906-.179687.003906-.273437 0-.019531 0-.035157 0-.054688.003907-.101562.003907-.203125.007813-.308593.179687-7.078126 2.199219-13.941407 6.019531-20.699219.417969-.742188.859375-1.480469 1.324219-2.21875-.660156-1.054688-1.277344-2.117188-1.84375-3.183594-1.183594-2.207031-3.507813-3.59375-6.011719-3.59375s-4.828125 1.386719-6.011718 3.59375c-4.535157 8.421875-7.1445318 17.566406-7.1406255 27.089844-.0117187 14.066406 5.5390625 27.324219 14.9414065 38.847656 14.140625 17.320313 36.808593 31.296875 64.867187 41.183594 28.070313 9.855469 61.617188 15.535156 97.683594 15.539062 48.09375-.019531 91.6875-10.074219 123.832031-26.761719 16.0625-8.363281 29.304688-18.402343 38.71875-29.960937 9.402344-11.523437 14.953125-24.78125 14.941407-38.847656.007812-9.523438-2.605469-18.667969-7.136719-27.089844-1.183594-2.207031-3.507813-3.597656-6.011719-3.597656"/><path d="m129.75 109.226562c0 7.539063-6.113281 13.652344-13.65625 13.652344-7.539062 0-13.652344-6.113281-13.652344-13.652344 0-7.542968 6.113282-13.65625 13.652344-13.65625 7.542969 0 13.65625 6.113282 13.65625 13.65625zm0 0"/><path d="m252.628906 109.226562c0 7.539063-6.113281 13.652344-13.652344 13.652344-7.542968 0-13.65625-6.113281-13.65625-13.652344 0-7.542968 6.113282-13.65625 13.65625-13.65625 7.539063 0 13.652344 6.113282 13.652344 13.65625zm0 0"/></g><path d="m286.492188 369.402344-43.644532-191.910156c0-15.082032-14.617187-27.308594-32.65625-27.308594-18.039062 0-32.65625 12.226562-32.65625 27.308594 0-15.082032-14.621094-27.308594-32.65625-27.308594-18.039062 0-32.65625 12.226562-32.65625 27.308594l-43.644531 191.910156c-2.851563 21.441406 17.222656 40.195312 43.027344 40.195312l65.929687 13.652344 65.929688-13.652344c25.804687 0 45.878906-18.753906 43.027344-40.195312zm0 0" fill="#ffd578"/><path d="m286.492188 369.402344 6.65625-1.515625-43.644532-191.910157-6.65625 1.515626h6.828125c.007813-9.808594-4.804687-18.554688-12.011719-24.546876-7.222656-6.027343-16.90625-9.582031-27.46875-9.585937-10.566406.003906-20.25 3.558594-27.472656 9.585937-7.207031 5.992188-12.019531 14.742188-12.011718 24.546876 0 1.796874.726562 3.554687 2 4.824218 1.269531 1.273438 3.027343 2 4.824218 2s3.558594-.730468 4.828125-2c1.269531-1.269531 2-3.027344 2-4.824218.007813-9.808594-4.804687-18.554688-12.011719-24.546876-7.222656-6.027343-16.90625-9.582031-27.46875-9.585937-10.566406.003906-20.25 3.558594-27.472656 9.585937-7.207031 5.992188-12.019531 14.742188-12.011718 24.546876h6.824218l-6.65625-1.515626-43.644531 191.910157-.109375.613281c-.222656 1.664062-.332031 3.316406-.332031 4.960938-.003907 12.113281 5.921875 23.042968 15.019531 30.675781 9.109375 7.664062 21.472656 12.28125 35.105469 12.285156v-6.824219l-1.386719 6.683594 65.933594 13.652344c.933594.195312 1.832031.195312 2.765625 0l65.929687-13.652344-1.382812-6.683594v6.824219c13.632812-.003906 25.996094-4.621094 35.105468-12.285156 9.097657-7.632813 15.023438-18.5625 15.019532-30.675781 0-1.640626-.109375-3.296876-.332032-4.960938l-.109374-.613281-6.65625 1.515625-6.765626.898437c.140626 1.066407.207032 2.121094.207032 3.160157-.003906 7.578124-3.644532 14.71875-10.160156 20.234374-6.496094 5.476563-15.78125 9.082032-26.308594 9.078126l-1.382813.140624-64.546875 13.367188-64.542968-13.367188-1.386719-.140624c-10.527344.003906-19.8125-3.597657-26.3125-9.078126-6.511719-5.515624-10.152344-12.65625-10.15625-20.234374 0-1.039063.066406-2.089844.210937-3.160157l-6.769531-.898437 6.65625 1.515625 43.644531-191.910157.167969-1.515624c.007813-5.273438 2.507813-10.179688 7.117187-14.070313 4.597657-3.855469 11.238282-6.414063 18.714844-6.410156 7.472656-.003907 14.117188 2.554687 18.710938 6.410156 4.613281 3.890625 7.109375 8.796875 7.117187 14.070313 0 1.796874.726563 3.554687 2 4.828124 1.269531 1.269532 3.027344 1.996094 4.824219 1.996094 1.800781 0 3.558594-.726562 4.828125-1.996094 1.273437-1.273437 2-3.03125 2-4.828124.007813-5.273438 2.503906-10.179688 7.117187-14.070313 4.597657-3.855469 11.238282-6.414063 18.714844-6.410156 7.472656-.003907 14.117188 2.554687 18.710938 6.410156 4.613281 3.890625 7.109375 8.796875 7.117187 14.070313l.167969 1.515624 43.644531 191.910157 6.660157-1.515625-6.765626.898437zm0 0" fill="#54596e"/><path d="m217.695312 173.488281c-4.710937-3.128906-12.757812.699219-17.972656 8.550781-5.214844 7.851563-5.625 16.753907-.914062 19.882813 4.710937 3.128906 12.757812-.699219 17.972656-8.550781 5.214844-7.851563 5.625-16.75.914062-19.882813zm0 0" fill="#54596e"/><path d="m155.34375 182.085938c-5.214844-7.851563-13.261719-11.679688-17.972656-8.550782-4.710938 3.132813-4.300782 12.03125.914062 19.882813 5.214844 7.851562 13.261719 11.679687 17.972656 8.550781 4.710938-3.128906 4.300782-12.03125-.914062-19.882812zm0 0" fill="#54596e"/></svg>