<svg height="464pt" viewBox="-18 0 464 464" width="464pt" xmlns="http://www.w3.org/2000/svg"><path d="m423.808594 336.402344-25.449219 55.527344c-2.761719 6.023437-9.882813 8.671874-15.90625 5.910156l-138.179687-63.332032 21.667968-47.273437 149.503906 32.441406c7.492188 1.628907 11.558594 9.761719 8.363282 16.726563zm0 0" fill="#f9a7a7"/><path d="m387.429688 402.929688c-2.230469 0-4.488282-.46875-6.644532-1.453126l-138.179687-63.332031c-.964844-.441406-1.710938-1.25-2.082031-2.246093-.371094-.992188-.328126-2.09375.113281-3.058594l21.664062-47.273438c.785157-1.707031 2.648438-2.636718 4.488281-2.242187l149.503907 32.441406c4.761719 1.035156 8.742187 4.125 10.917969 8.480469 2.175781 4.355468 2.261718 9.394531.234374 13.820312l-25.449218 55.527344c-2.6875 5.867188-8.5 9.335938-14.566406 9.335938zm-137.855469-70.390626 134.542969 61.664063c1.941406.894531 4.117187.976563 6.117187.226563 2.003906-.742188 3.597656-2.222657 4.488281-4.164063l25.449219-55.53125c1.015625-2.210937.972656-4.730469-.117187-6.910156-1.089844-2.175781-3.078126-3.722657-5.457032-4.238281l-146.363281-31.757813zm0 0" fill="#3762cc"/><path d="m212 442.046875v-48.046875h-28v46h-16c-6.628906 0-12 5.371094-12 12 0 4.417969 3.582031 8 8 8h42c5.523438 0 10-4.476562 10-10 0-3.261719-1.585938-6.128906-4-7.953125zm0 0" fill="#f9a7a7"/><path d="m206 464h-42c-6.617188 0-12-5.382812-12-12 0-8.820312 7.179688-16 16-16h12v-42c0-2.207031 1.792969-4 4-4h28c2.207031 0 4 1.792969 4 4v46.246094c2.5625 2.601562 4 6.058594 4 9.753906 0 7.71875-6.28125 14-14 14zm-38-20c-4.410156 0-8 3.589844-8 8 0 2.207031 1.792969 4 4 4h42c3.308594 0 6-2.691406 6-6 0-1.871094-.878906-3.605469-2.410156-4.761719-1-.757812-1.589844-1.9375-1.589844-3.191406v-44.046875h-20v42c0 2.207031-1.792969 4-4 4zm0 0" fill="#3762cc"/><path d="m188 442.046875v-48.046875h-28v46h-16c-6.628906 0-12 5.371094-12 12 0 4.417969 3.582031 8 8 8h42c5.523438 0 10-4.476562 10-10 0-3.261719-1.585938-6.128906-4-7.953125zm0 0" fill="#f9cfcf"/><path d="m182 464h-42c-6.617188 0-12-5.382812-12-12 0-8.820312 7.179688-16 16-16h12v-42c0-2.207031 1.792969-4 4-4h28c2.207031 0 4 1.792969 4 4v46.246094c2.5625 2.601562 4 6.058594 4 9.753906 0 7.71875-6.28125 14-14 14zm-38-20c-4.410156 0-8 3.589844-8 8 0 2.207031 1.792969 4 4 4h42c3.308594 0 6-2.691406 6-6 0-1.871094-.878906-3.605469-2.410156-4.761719-1-.757812-1.589844-1.9375-1.589844-3.191406v-44.046875h-20v42c0 2.207031-1.792969 4-4 4zm0 0" fill="#3762cc"/><path d="m240.996094 403.167969c57.4375-6.765625 102-55.582031 102-114.835938v-28.476562c0-4.339844-3.519532-7.859375-7.855469-7.859375h-6.179687c-17.347657 0-34.410157-5.402344-48.078126-16.089844-.796874-.625-1.582031-1.261719-2.351562-1.910156-26.585938-22.332032-35.144531-56.796875-37.535156-82.6875v-48.925782c0-43.289062-35.09375-78.382812-78.382813-78.382812h-58.953125c-34.609375 0-62.664062 28.054688-62.664062 62.664062v217.335938c0 55.226562 44.773437 100 100 100h86.332031zm0 0" fill="#6bdddd"/><path d="m224.996094 100h-184v-11.714844c0-46.550781 37.734375-84.285156 84.285156-84.285156h143.710938c2.210937 0 4 1.789062 4 4v44c.003906 26.511719-21.488282 48-47.996094 48zm0 0" fill="#a4c9ff"/><path d="m102 127c-8.835938 0-16-7.164062-16-16v-20c0-8.835938 7.164062-16 16-16s16 7.164062 16 16v20c0 8.835938-7.164062 16-16 16zm0 0" fill="#4671c6"/><path d="m227.328125 408h-86.261719c-57.382812 0-104.074218-46.6875-104.074218-104.074219v-217.261719c0-3.59375.304687-7.261718.902343-10.898437 6.085938-43.152344 43.660157-75.765625 87.386719-75.765625h143.640625c4.453125 0 8.070313 3.621094 8.070313 8.074219v43.925781c0 19.980469-11.671876 38.425781-29.742188 46.996094-1.390625.660156-2.257812 1.953125-2.257812 3.371094v37.753906c0 13.496094 1.601562 26.328125 4.75 38.144531 6.011718 22.523437 16.5625 40.246094 31.359374 52.675781 9.214844 7.742188 20.210938 13.480469 32.683594 17.0625h21.277344c6.578125 0 11.929688 5.351563 11.929688 11.925782v28.40625c0 60.640624-45.367188 111.71875-105.53125 118.804687-.089844.011719-.179688.019531-.269532.023437l-13.621094.828126c-.078124.003906-.160156.007812-.242187.007812zm13.667969-4.832031h.023437zm-115.714844-395.167969c-39.765625 0-73.929688 29.652344-79.476562 68.972656-.542969 3.300782-.8125 6.535156-.8125 9.691406v217.261719c.003906 52.976563 43.101562 96.074219 96.074218 96.074219h86.140625l13.4375-.816406c56.078125-6.667969 98.347657-54.300782 98.347657-110.851563v-28.402343c0-2.167969-1.761719-3.929688-3.925782-3.929688h-21.828125c-.371093 0-.761719-.054688-1.117187-.15625-13.773438-3.875-25.945313-10.195312-36.167969-18.78125-16.078125-13.507812-27.496094-32.597656-33.9375-56.738281-3.332031-12.488281-5.023437-26.015625-5.023437-40.207031v-37.734376c-.003907-4.558593 2.617187-8.617187 6.828124-10.617187 15.292969-7.25 25.171876-22.863281 25.171876-39.765625v-43.925781zm0 0" fill="#3762cc"/><path d="m48 152h-32c-6.628906 0-12-5.371094-12-12 0-11.046875 8.953125-20 20-20h24c8.835938 0 16 7.164062 16 16s-7.164062 16-16 16zm0 0" fill="#eaa97d"/><path d="m48 156h-32c-8.820312 0-16-7.179688-16-16 0-13.234375 10.765625-24 24-24h24c11.027344 0 20 8.972656 20 20s-8.972656 20-20 20zm-24-32c-8.820312 0-16 7.179688-16 16 0 4.410156 3.589844 8 8 8h32c6.617188 0 12-5.382812 12-12s-5.382812-12-12-12zm0 0" fill="#3762cc"/><path d="m329.960938 336.992188c-66.960938 38.660156-152.582032 15.71875-191.242188-51.242188l-2-3.464844c-22.09375-38.261718-8.984375-87.1875 29.28125-109.28125s87.191406-8.980468 109.28125 29.28125l62 107.390625c5.523438 9.5625 2.246094 21.796875-7.320312 27.316407zm0 0" fill="#f9a7a7"/><path d="m260.09375 331.773438c-41.382812 0-79.929688-22.234376-100.589844-58.023438l-2.003906-3.46875c-15.4375-26.734375-6.238281-61.054688 20.5-76.492188 8.515625-4.917968 18.171875-7.515624 27.925781-7.515624 19.984375 0 38.597657 10.734374 48.570313 28.011718l57.855468 100.210938c1.171876 2.03125.339844 4.605468-1.769531 5.628906-15.742187 7.640625-33.039062 11.648438-50.488281 11.648438zm0 0" fill="#f9cfcf"/><path d="m260.195312 359.8125c-12.507812 0-25.097656-1.640625-37.503906-4.964844-37.152344-9.957031-68.207031-33.785156-87.4375-67.09375l-2-3.464844c-23.15625-40.113281-9.367187-91.585937 30.746094-114.746093 40.109375-23.160157 91.589844-9.367188 114.746094 30.746093l62 107.386719c6.617187 11.457031 2.675781 26.167969-8.785156 32.785157-22.1875 12.808593-46.8125 19.351562-71.765626 19.351562zm-54.324218-193.511719c-12.886719 0-25.929688 3.273438-37.871094 10.167969-36.292969 20.953125-48.769531 67.523438-27.816406 103.816406l2 3.460938c37.496094 64.945312 120.832031 87.273437 185.777344 49.785156 7.640624-4.414062 10.269531-14.21875 5.855468-21.855469l-62-107.390625c-14.058594-24.351562-39.660156-37.984375-65.945312-37.984375zm124.089844 170.695313h.019531zm0 0" fill="#3762cc"/></svg>