<svg height="432pt" viewBox="-100 0 432 432.94657" width="432pt" xmlns="http://www.w3.org/2000/svg"><path d="m223.601562 156.359375-13.121093-54.507813h-.761719c1.964844-5.4375 3.589844-11.164062 4.613281-17.265624 4.777344-28.5-2.925781-62.40625-18.078125-77.757813-19.085937 8.070313-35.023437 36.945313-39.804687 65.449219-1.707031 10.207031-1.761719 23.621094-.503907 32.988281h-80.523437c1.261719-9.367187 1.210937-22.78125-.5-32.988281-4.777344-28.5-20.722656-57.378906-39.800781-65.449219-15.15625 15.351563-22.863282 49.257813-18.082032 77.757813 1.121094 6.695312 2.90625 12.992187 5.15625 18.875l-12.730468 52.898437c-3.347656 22.617187-2.800782 45.75 1.617187 68.128906l17.558594 123.125h175.78125l17.558594-123.125c4.417969-22.382812 4.96875-45.511719 1.621093-68.128906zm0 0" fill="#bfad88"/><path d="m223.601562 156.359375 6.636719-1.597656-13.117187-54.507813c-.742188-3.066406-3.484375-5.226562-6.640625-5.226562h-.761719v6.824218l6.417969 2.324219c2.078125-5.746093 3.824219-11.882812 4.929687-18.460937 1.019532-6.09375 1.5-12.359375 1.5-18.632813-.003906-12.59375-1.929687-25.214843-5.515625-36.503906-3.609375-11.28125-8.808593-21.28125-15.941406-28.542969-1.96875-1.9960935-4.9375-2.585937-7.515625-1.492187-11.597656 4.980469-21.011719 15.316406-28.484375 27.875-7.4375 12.605469-12.851563 27.632812-15.394531 42.730469-1.015625 6.089843-1.464844 12.933593-1.46875 19.570312 0 5.496094.308594 10.820312.933594 15.457031l6.765624-.910156v-6.824219h-80.527343v6.824219l6.765625.910156c.625-4.640625.933594-9.972656.933594-15.472656-.003907-6.632813-.449219-13.46875-1.464844-19.554687-2.542969-15.097657-7.957032-30.125-15.394532-42.730469-7.472656-12.558594-16.886718-22.894531-28.484374-27.875-2.582032-1.089844-5.546876-.5039065-7.515626 1.492187-7.132812 7.265625-12.332031 17.261719-15.945312 28.542969-3.582031 11.289063-5.507812 23.90625-5.515625 36.5 0 6.273437.484375 12.542969 1.503906 18.640625 1.199219 7.167969 3.113281 13.90625 5.515625 20.183594l6.375-2.441406-6.636718-1.597657-12.730469 52.902344-.117188.597656c-1.492187 10.0625-2.234375 20.222657-2.234375 30.378907 0 13.441406 1.304688 26.878906 3.90625 40.070312l6.699219-1.320312-6.757813.960937 17.558594 123.128906c.480469 3.363281 3.359375 5.859375 6.757813 5.859375h175.78125c3.398437 0 6.277343-2.496094 6.757812-5.859375l17.558594-123.128906-6.757813-.960937 6.695313 1.320312c2.605469-13.195312 3.90625-26.632812 3.90625-40.078125 0-10.152344-.742187-20.308594-2.230469-30.371094l-.113281-.597656-6.632813 1.59375-6.753906 1c1.394532 9.394531 2.085938 18.882813 2.085938 28.371094 0 12.5625-1.21875 25.121093-3.648438 37.433593l-.0625.359376-16.722656 117.261718h-163.9375l-16.722656-117.261718-.0625-.359376c-2.429688-12.3125-3.648438-24.863281-3.648438-37.425781 0-9.488281.695313-18.980469 2.089844-28.378906l-6.753906-1 6.636718 1.597656 12.730469-52.898437c.320313-1.328125.226563-2.761719-.261719-4.035156-2.101562-5.492188-3.761718-11.347657-4.800781-17.5625-.882812-5.28125-1.316406-10.808594-1.316406-16.382813-.003906-11.1875 1.746094-22.546875 4.875-32.363281 3.101563-9.828125 7.648437-18.0625 12.644531-23.089844l-4.855468-4.792969-2.660157 6.285157c7.484375 3.09375 15.585938 11.226562 22.046875 22.25 6.5 10.976562 11.445313 24.636718 13.683594 38.042968.855469 5.066406 1.28125 11.304688 1.28125 17.292969 0 4.96875-.292969 9.796875-.8125 13.65625-.261719 1.957031.324219 3.917969 1.625 5.402344 1.300781 1.488281 3.164062 2.332031 5.140625 2.332031h80.523437c1.976563 0 3.839844-.84375 5.140626-2.332031 1.296874-1.484375 1.890624-3.445313 1.625-5.402344-.519532-3.851563-.8125-8.675781-.8125-13.636719 0-5.996094.429687-12.238281 1.285156-17.316406 2.234375-13.402344 7.179687-27.0625 13.679687-38.039062 6.464844-11.023438 14.5625-19.15625 22.046875-22.25l-2.660156-6.285157-4.855469 4.792969c4.996094 5.023438 9.542969 13.265625 12.648438 23.089844 3.125 9.816406 4.878906 21.183594 4.871093 32.367187 0 5.574219-.429687 11.101563-1.3125 16.375-.945312 5.625-2.449218 10.949219-4.304687 16.074219-.753906 2.082031-.441406 4.429688.832031 6.242188 1.269532 1.8125 3.375 2.90625 5.585938 2.90625h.765625v-6.828126l-6.636719 1.597657 13.121094 54.507812 6.636718-1.597656-6.753906 1zm0 0" fill="#54596e"/><path d="m224.625 346.855469c0-35.816407-48.394531-50.441407-108.089844-50.441407-59.699218 0-108.089844 14.621094-108.089844 50.441407 0 35.816406 48.390626 79.265625 108.089844 79.265625 59.695313 0 108.089844-43.449219 108.089844-79.265625zm0 0" fill="#999"/><path d="m224.625 346.855469h6.824219c.042969-10.507813-3.699219-19.960938-10.128907-27.425781-9.667968-11.242188-24.636718-18.421876-42.644531-23.109376-18.042969-4.660156-39.335937-6.730468-62.144531-6.734374-30.417969.027343-58.113281 3.644531-79.050781 12.3125-10.460938 4.355468-19.316407 10.027343-25.738281 17.53125-6.429688 7.464843-10.167969 16.917968-10.128907 27.425781.011719 10.507812 3.511719 21.078125 9.46875 31.007812 8.964844 14.898438 23.519531 28.53125 41.714844 38.597657 18.195313 10.042968 40.097656 16.480468 63.734375 16.484374 31.523438-.015624 59.921875-11.417968 80.640625-27.652343 10.363281-8.132813 18.835937-17.492188 24.804687-27.425781 5.957032-9.933594 9.460938-20.503907 9.46875-31.011719h-13.648437c.011719 7.402343-2.539063 15.695312-7.519531 23.980469-7.445313 12.4375-20.300782 24.683593-36.609375 33.671874-16.304688 9.007813-35.996094 14.789063-57.132813 14.789063-28.171875.011719-53.816406-10.304687-72.21875-24.75-9.199218-7.207031-16.558594-15.425781-21.523437-23.710937-4.984375-8.285157-7.53125-16.578126-7.519531-23.980469.039062-7.40625 2.347656-13.210938 6.859374-18.558594 6.734376-7.984375 19.179688-14.527344 35.675782-18.757813 16.460937-4.261718 36.761718-6.300781 58.726562-6.296874 29.28125-.027344 55.628906 3.667968 73.808594 11.265624 9.101562 3.777344 16.074219 8.476563 20.59375 13.789063 4.511719 5.347656 6.816406 11.152344 6.859375 18.558594zm0 0" fill="#54596e"/><path d="m75.574219 371.507812c0-18.851562-15.285157-34.132812-34.132813-34.132812" fill="#999"/><path d="m82.398438 371.507812c-.003907-22.625-18.335938-40.957031-40.957032-40.960937-3.769531 0-6.828125 3.054687-6.828125 6.828125 0 3.769531 3.058594 6.824219 6.828125 6.824219 7.558594.003906 14.34375 3.046875 19.304688 8 4.953125 4.960937 7.996094 11.746093 8 19.308593 0 3.769532 3.058594 6.824219 6.828125 6.824219s6.824219-3.054687 6.824219-6.824219zm0 0" fill="#54596e"/><path d="m157.492188 371.507812c0-18.851562 15.285156-34.132812 34.132812-34.132812" fill="#999"/><g fill="#54596e"><path d="m164.320312 371.507812c.003907-7.5625 3.046876-14.347656 8-19.308593 4.960938-4.953125 11.746094-7.996094 19.304688-8 3.773438 0 6.828125-3.054688 6.828125-6.824219 0-3.773438-3.054687-6.828125-6.828125-6.828125-22.621094.003906-40.953125 18.335937-40.957031 40.960937 0 3.769532 3.054687 6.824219 6.824219 6.824219 3.769531 0 6.828124-3.054687 6.828124-6.824219zm0 0"/><path d="m55.09375 204.253906c0 5.65625-4.585938 10.238282-10.242188 10.238282-5.652343 0-10.238281-4.582032-10.238281-10.238282s4.585938-10.242187 10.238281-10.242187c5.65625 0 10.242188 4.585937 10.242188 10.242187zm0 0"/><path d="m198.453125 204.253906c0 5.65625-4.585937 10.238282-10.238281 10.238282-5.65625 0-10.242188-4.582032-10.242188-10.238282s4.585938-10.242187 10.242188-10.242187c5.652344 0 10.238281 4.585937 10.238281 10.242187zm0 0"/><path d="m123.359375 118.917969v-29.535157c0-3.773437-3.054687-6.828124-6.824219-6.828124-3.773437 0-6.828125 3.054687-6.828125 6.828124v29.535157c0 3.773437 3.054688 6.828125 6.828125 6.828125 3.769532 0 6.824219-3.054688 6.824219-6.828125"/></g><path d="m116.535156 50.652344c26.386719 0 47.785156 15.28125 47.785156 34.132812v61.441406l-61.441406-20.480468" fill="#999"/><path d="m116.535156 57.480469c11.875-.015625 22.515625 3.484375 29.820313 8.726562 3.660156 2.609375 6.476562 5.628907 8.335937 8.769531 1.859375 3.15625 2.796875 6.398438 2.800782 9.8125v51.96875l-52.453126-17.488281c-3.578124-1.191406-7.441406.742188-8.636718 4.320313-1.191406 3.578125.742187 7.441406 4.320312 8.636718l61.4375 20.476563c2.078125.695313 4.375.34375 6.152344-.9375s2.835938-3.347656 2.835938-5.539063v-61.441406c.003906-6.011718-1.730469-11.753906-4.710938-16.765625-4.480469-7.539062-11.613281-13.523437-20.21875-17.6875-8.625-4.15625-18.800781-6.503906-29.683594-6.503906-3.773437 0-6.828125 3.054687-6.828125 6.824219 0 3.769531 3.054688 6.828125 6.828125 6.828125zm0 0" fill="#54596e"/><path d="m116.535156 89.382812v-38.730468c-26.394531 0-47.789062 15.285156-47.789062 34.132812v95.574219l54.613281-68.265625" fill="#999"/><path d="m123.359375 89.382812v-38.730468c0-1.796875-.726563-3.554688-2-4.828125-1.269531-1.269531-3.027344-1.996094-4.824219-1.996094-14.515625.011719-27.769531 4.152344-37.761718 11.265625-4.988282 3.566406-9.167969 7.902344-12.144532 12.929688-2.976562 5.011718-4.714844 10.75-4.707031 16.761718v95.574219c0 2.90625 1.824219 5.480469 4.566406 6.441406 2.742188.960938 5.773438.09375 7.589844-2.175781l54.613281-68.269531c2.355469-2.941407 1.878906-7.238281-1.066406-9.59375s-7.238281-1.878907-9.59375 1.066406l-42.457031 53.070313v-76.113282c.007812-3.410156.941406-6.652344 2.800781-9.808594 2.777344-4.710937 7.761719-9.148437 14.40625-12.347656 6.628906-3.203125 14.84375-5.152344 23.753906-5.152344v-6.824218h-6.828125v38.726562c0 3.769532 3.054688 6.824219 6.828125 6.824219 3.769532.003906 6.824219-3.050781 6.824219-6.820313zm0 0" fill="#54596e"/></svg>