<svg height="420pt" viewBox="-1 0 420 420.5295" width="420pt" xmlns="http://www.w3.org/2000/svg"><path d="m252.851562 119.183594c18.847657 14.097656 48.679688 18.703125 78.898438 9.9375 30.21875-8.761719 52.957031-28.617188 61.335938-50.605469-18.84375-14.09375-48.679688-18.703125-78.898438-9.9375l-32.699219 32.238281" fill="#fff35f"/><path d="m248.761719 124.648438c13.804687 10.300781 32.253906 15.742187 52.285156 15.753906 10.558594 0 21.570313-1.523438 32.605469-4.722656 31.945312-9.316407 56.375-30.203126 65.816406-54.734376 1.085938-2.851562.152344-6.070312-2.292969-7.898437-13.800781-10.292969-32.253906-15.738281-52.285156-15.753906-10.554687 0-21.566406 1.523437-32.601563 4.726562-1.074218.3125-2.09375.910157-2.886718 1.695313l-32.703125 32.242187c-2.683594 2.644531-2.714844 6.96875-.066407 9.652344 2.648438 2.683594 6.96875 2.714844 9.652344.070313l32.703125-32.238282-4.792969-4.863281 1.902344 6.554687c9.808594-2.84375 19.554688-4.183593 28.792969-4.183593 17.558594-.011719 33.226563 4.867187 44.113281 13.035156l4.089844-5.464844-6.382812-2.433593c-7.320313 19.453124-28.371094 38.273437-56.859376 46.480468-9.8125 2.847656-19.558593 4.1875-28.800781 4.1875-17.554687.011719-33.222656-4.867187-44.105469-13.035156-3.019531-2.257812-7.296874-1.640625-9.558593 1.378906-2.261719 3.015625-1.644531 7.292969 1.375 9.550782zm0 0" fill="#54596e"/><path d="m412.46875 402.773438h-61.441406v-110.800782c0-32.351562-28.691406-58.679687-61.914063-58.679687h-6.6875v-61.441407h6.6875c68.015625 0 123.355469 53.886719 123.355469 120.121094zm0 0" fill="#ffd578"/><path d="m412.46875 402.773438v-6.828126h-54.613281v-103.972656c0-18.230468-8.101563-34.691406-20.65625-46.453125-12.554688-11.773437-29.65625-19.046875-48.085938-19.054687h-6.6875v6.828125h6.824219v-61.441407h-6.824219v6.828126h6.6875c32.1875 0 61.3125 12.738281 82.421875 33.285156 21.097656 20.5625 34.101563 48.816406 34.105469 80.007812v110.800782h6.828125v-6.828126 6.828126h6.824219v-110.800782c.003906-35.042968-14.660157-66.847656-38.234375-89.789062-23.566406-22.953125-56.121094-37.160156-91.945313-37.15625h-6.6875c-1.796875 0-3.558593.726562-4.828125 1.996094-1.269531 1.273437-2 3.03125-2 4.828124v61.441407c0 1.796875.730469 3.554687 2 4.828125 1.273438 1.269531 3.03125 1.996094 4.828125 1.996094h6.6875c14.792969-.007813 28.652344 5.886718 38.746094 15.359374 10.097656 9.492188 16.339844 22.371094 16.339844 36.496094v110.800782c0 1.796874.730469 3.554687 2.003906 4.824218 1.269531 1.273438 3.027344 2 4.824219 2h61.441406c1.796875 0 3.554688-.726562 4.824219-2 1.273437-1.269531 2-3.027344 2-4.824218zm0 0" fill="#54596e"/><path d="m147.328125 119.183594c-18.84375 14.097656-48.679687 18.703125-78.898437 9.9375-30.21875-8.761719-52.957032-28.613282-61.339844-50.605469 18.847656-14.09375 48.679687-18.703125 78.902344-9.9375l32.699218 32.238281" fill="#fff35f"/><path d="m143.238281 113.71875c-10.882812 8.167969-26.550781 13.046875-44.105469 13.03125-9.238281 0-18.984374-1.339844-28.800781-4.183594-28.484375-8.207031-49.539062-27.027344-56.859375-46.480468l-6.382812 2.429687 4.089844 5.46875c10.886718-8.167969 26.558593-13.050781 44.113281-13.035156 9.238281 0 18.984375 1.335937 28.796875 4.183593l1.90625-6.554687-4.792969 4.859375 32.699219 32.242188c2.683594 2.644531 7.003906 2.613281 9.652344-.070313 2.648437-2.683594 2.617187-7.003906-.066407-9.652344l-32.703125-32.242187c-.796875-.785156-1.8125-1.382813-2.890625-1.691406-11.035156-3.203126-22.046875-4.726563-32.601562-4.726563-20.03125.011719-38.484375 5.457031-52.289063 15.753906-2.445312 1.824219-3.378906 5.046875-2.289062 7.898438 9.4375 24.527343 33.871094 45.414062 65.816406 54.730469 11.035156 3.199218 22.046875 4.722656 32.605469 4.722656 20.03125-.011719 38.480469-5.453125 52.28125-15.753906 3.019531-2.257813 3.636719-6.535157 1.378906-9.554688-2.261719-3.019531-6.539063-3.632812-9.558594-1.375zm0 0" fill="#54596e"/><path d="m199.136719 413.703125c-43.523438 0-78.800781-78.132813-78.800781-121.652344 0-43.523437 35.277343-78.804687 78.800781-78.804687 43.519531 0 78.804687 35.28125 78.804687 78.804687 0 43.519531-35.285156 121.652344-78.804687 121.652344zm0 0" fill="#fff35f"/><path d="m199.136719 413.703125v-6.828125c-8.765625.007812-17.617188-3.941406-26.253907-11.265625-12.925781-10.917969-24.632812-29.1875-32.800781-48.601563-8.21875-19.378906-12.953125-39.980468-12.917969-54.960937 0-19.898437 8.042969-37.847656 21.078126-50.894531 13.046874-13.035156 30.996093-21.078125 50.898437-21.082032 19.894531.003907 37.847656 8.042969 50.894531 21.082032 13.035156 13.046875 21.078125 30.996094 21.082032 50.894531.007812 9.96875-2.066407 22.488281-5.914063 35.429687-5.746094 19.425782-15.488281 39.875-27.375 54.996094-5.933594 7.566406-12.382813 13.785156-18.945313 17.988282-6.578124 4.210937-13.144531 6.410156-19.746093 6.414062v13.65625c12.996093-.011719 24.875-5.824219 35.09375-14.511719 15.359375-13.09375 27.714843-32.890625 36.539062-53.695312 8.777344-20.839844 13.964844-42.609375 13.996094-60.273438-.003906-47.296875-38.335937-85.625-85.628906-85.628906-47.296875.003906-85.625 38.332031-85.632813 85.628906.011719 11.792969 2.347656 25.359375 6.476563 39.308594 6.214843 20.910156 16.457031 42.605469 29.722656 59.542969 6.648437 8.460937 14.066406 15.75 22.3125 21.050781 8.222656 5.285156 17.398437 8.578125 27.117187 8.578125v-6.828125zm0 0" fill="#54596e"/><path d="m247.0625 61.265625h-5.261719v-40.785156c0-7.539063-6.113281-13.652344-13.652343-13.652344-7.539063 0-13.652344 6.113281-13.652344 13.652344v40.78125h-63.28125c-22.03125 0-39.886719 15.882812-39.886719 35.476562l9.007813 210.847657c0 38.710937 35.277343 76.917968 78.800781 76.917968 43.519531 0 78.804687-38.210937 78.804687-76.917968l9.007813-210.847657c0-19.59375-17.863281-35.472656-39.886719-35.472656zm0 0" fill="#ffd578"/><path d="m247.0625 61.265625v-6.828125h-5.261719v6.828125h6.828125v-40.785156c-.007812-11.3125-9.167968-20.47656275-20.480468-20.480469-11.3125.00390625-20.476563 9.167969-20.480469 20.480469v33.957031h-56.453125c-12.660156 0-24.238282 4.554688-32.742188 12.113281-8.5 7.535157-13.980468 18.277344-13.972656 30.1875l.007812.289063 9.003907 210.847656 6.820312-.289062h-6.828125c.027344 21.453124 9.675782 42.238281 25.058594 57.78125 15.382812 15.53125 36.773438 25.957031 60.574219 25.964843 23.796875-.007812 45.183593-10.433593 60.570312-25.964843 15.382813-15.542969 25.03125-36.328126 25.058594-57.78125h-6.824219l6.816406.289062 9.007813-210.847656.007813-.289063c.007812-11.910156-5.472657-22.652343-13.972657-30.1875-8.507812-7.558593-20.082031-12.113281-32.742187-12.113281v13.652344c9.367187-.003906 17.738281 3.386718 23.667968 8.667968 5.9375 5.308594 9.382813 12.304688 9.390626 19.984376h6.828124l-6.820312-.292969-9.003906 210.847656-.007813.292969c.027344 17.253906-7.964843 34.929687-21.105469 48.171875-13.136718 13.25-31.148437 21.925781-50.871093 21.921875-19.726563.003906-37.738281-8.675782-50.875-21.921875-13.140625-13.238281-21.128907-30.917969-21.101563-48.171875l-.007812-.292969-9.003906-210.847656-6.820313.292969h6.828125c.007812-7.679688 3.453125-14.679688 9.390625-19.988282 5.929687-5.277344 14.300781-8.667968 23.667969-8.664062h63.28125c1.796875 0 3.554687-.726563 4.824218-2 1.273438-1.269532 2-3.027344 2-4.824219v-40.785156c.007813-3.765625 3.0625-6.820313 6.828126-6.828125 3.765624.007812 6.820312 3.0625 6.824218 6.828125v40.78125c0 1.796875.730469 3.554687 2 4.828125 1.273438 1.269531 3.03125 1.996094 4.828125 1.996094h5.261719zm0 0" fill="#54596e"/><path d="m262.28125 289.515625c0-39.929687-27.507812-36.875-61.441406-36.875-33.929688 0-61.433594-3.054687-61.433594 36.875 0 39.925781 27.503906 72.296875 61.433594 72.296875 33.933594 0 61.441406-32.371094 61.441406-72.296875zm0 0" fill="#fff35f"/><path d="m173.535156 160.425781c0 5.65625-4.585937 10.242188-10.242187 10.242188-5.652344 0-10.238281-4.585938-10.238281-10.242188s4.585937-10.238281 10.238281-10.238281c5.65625 0 10.242187 4.582031 10.242187 10.238281zm0 0" fill="#54596e"/><path d="m248.628906 160.425781c0 5.65625-4.585937 10.242188-10.242187 10.242188s-10.238281-4.585938-10.238281-10.242188 4.582031-10.238281 10.238281-10.238281 10.242187 4.582031 10.242187 10.238281zm0 0" fill="#54596e"/><path d="m153.054688 75.09375v-54.613281c0-7.539063 6.113281-13.652344 13.652343-13.652344 7.539063 0 13.652344 6.113281 13.652344 13.652344v61.441406" fill="#ffd578"/><path d="m159.882812 75.09375v-54.613281c.003907-3.765625 3.058594-6.820313 6.824219-6.828125 3.765625.007812 6.820313 3.0625 6.828125 6.828125v61.441406c0 3.769531 3.054688 6.824219 6.824219 6.824219 3.773437 0 6.828125-3.054688 6.828125-6.824219v-61.441406c-.003906-11.3125-9.167969-20.47656275-20.480469-20.480469-11.3125.00390625-20.472656 9.167969-20.480469 20.480469v54.613281c0 3.769531 3.058594 6.828125 6.828126 6.828125 3.769531 0 6.828124-3.058594 6.828124-6.828125zm0 0" fill="#54596e"/><path d="m238.386719 307.199219c-5.65625 0-10.238281-4.582031-10.238281-10.238281v-13.652344c0-5.65625 4.582031-10.242188 10.238281-10.242188s10.242187 4.585938 10.242187 10.242188v13.652344c0 5.65625-4.582031 10.238281-10.242187 10.238281zm0 0" fill="#54596e"/><path d="m163.292969 307.199219c-5.65625 0-10.238281-4.582031-10.238281-10.238281v-13.652344c0-5.65625 4.582031-10.242188 10.238281-10.242188s10.242187 4.585938 10.242187 10.242188v13.652344c0 5.65625-4.582031 10.238281-10.242187 10.238281zm0 0" fill="#54596e"/><g fill="#fff35f"><path d="m385.160156 300.375c0 7.539062-6.113281 13.652344-13.652344 13.652344-7.539062 0-13.652343-6.113282-13.652343-13.652344 0-7.542969 6.113281-13.65625 13.652343-13.65625 7.539063 0 13.652344 6.113281 13.652344 13.65625zm0 0"/><path d="m357.855469 225.28125c0 7.539062-6.113281 13.652344-13.65625 13.652344-7.539063 0-13.652344-6.113282-13.652344-13.652344 0-7.542969 6.113281-13.65625 13.652344-13.65625 7.542969 0 13.65625 6.113281 13.65625 13.65625zm0 0"/><path d="m385.160156 354.988281c0 7.539063-6.113281 13.652344-13.652344 13.652344-7.539062 0-13.652343-6.113281-13.652343-13.652344 0-7.542969 6.113281-13.65625 13.652343-13.65625 7.539063 0 13.652344 6.113281 13.652344 13.65625zm0 0"/></g></svg>