<svg height="409pt" viewBox="0 0 409 409.6041" width="409pt" xmlns="http://www.w3.org/2000/svg"><path d="m375.769531 6.832031c20.480469 47.785157-34.132812 136.53125-34.132812 136.53125l-40.960938-61.4375z" fill="#d8d8d8"/><path d="m369.492188 9.519531c2.769531 6.453125 4.046874 14.097657 4.042968 22.5.0625 22.421875-9.253906 49.730469-18.773437 71.050781-4.746094 10.679688-9.507813 19.902344-13.066407 26.433594-1.78125 3.265625-3.261718 5.855469-4.292968 7.621094-.515625.882812-.914063 1.558594-1.1875 2.007812l-.390625.652344 5.8125 3.578125 5.679687-3.785156-37.855468-56.785156 71.132812-71.136719c2.667969-2.664062 2.667969-6.988281 0-9.652344-2.664062-2.667968-6.988281-2.667968-9.652344 0l-75.09375 75.09375c-2.300781 2.300782-2.65625 5.902344-.851562 8.613282l40.960937 61.4375c1.289063 1.9375 3.476563 3.082031 5.804688 3.039062 2.324219-.042969 4.46875-1.265625 5.6875-3.246094.101562-.171875 9.917969-16.117187 19.789062-38.328125 9.839844-22.25 19.890625-50.613281 19.953125-76.597656-.003906-9.75-1.449218-19.238281-5.144531-27.875-1.484375-3.46875-5.5-5.070313-8.964844-3.585937-3.46875 1.484374-5.074219 5.5-3.589843 8.964843zm0 0" fill="#54596e"/><path d="m25.375 6.832031c-20.480469 47.785157 34.132812 136.53125 34.132812 136.53125l40.960938-61.4375z" fill="#d8d8d8"/><path d="m19.101562 4.140625c-3.695312 8.636719-5.144531 18.125-5.148437 27.878906.0625 25.984375 10.113281 54.347657 19.953125 76.597657 9.875 22.207031 19.6875 38.152343 19.789062 38.324218 1.21875 1.984375 3.363282 3.203125 5.691407 3.246094s4.511719-1.101562 5.804687-3.035156l40.957032-61.441406c1.808593-2.710938 1.449218-6.3125-.851563-8.613282l-75.09375-75.09375c-2.667969-2.664062-6.988281-2.664062-9.65625 0-2.664063 2.667969-2.664063 6.988282 0 9.65625l71.136719 71.132813-37.855469 56.78125 5.679687 3.789062 5.8125-3.578125-.394531-.65625c-2.023437-3.367187-11.464843-19.457031-20.320312-40.128906-8.882813-20.636719-17.050781-45.96875-17-66.984375-.003907-8.402344 1.273437-16.046875 4.042969-22.5 1.488281-3.464844-.121094-7.480469-3.585938-8.964844-3.460938-1.480469-7.476562.125-8.960938 3.589844zm0 0" fill="#54596e"/><path d="m326.515625 95.234375c20.199219-16.960937 49.253906-48.316406 49.253906-88.402344l-95.855469 41.9375c-23.085937-17.34375-48.332031-28.285156-74.8125-28.285156-27.445312 0-53.585937 11.695313-77.351562 30.160156l-100.140625-43.8125c0 42.9375 33.328125 75.851563 53.40625 91.792969-45.039063 58.175781-73.886719 133.222656-73.886719 167.617188 0 20.480468 88.632813 81.921874 197.972656 81.921874 109.339844 0 197.972657-61.441406 197.972657-81.921874 0-35.070313-29.992188-112.386719-76.558594-171.007813" fill="#fff"/><path d="m326.515625 95.234375 4.390625 5.226563c10.445312-8.78125 23.214844-21.265626 33.523438-37.019532 10.289062-15.734375 18.164062-34.882812 18.164062-56.609375 0-2.308593-1.15625-4.453125-3.089844-5.714843-1.929687-1.261719-4.363281-1.464844-6.472656-.542969l-95.855469 41.9375 2.738281 6.253906 4.097657-5.457031c-23.859375-17.929688-50.492188-29.644532-78.910157-29.652344-29.445312.007812-57 12.527344-81.539062 31.589844l4.1875 5.398437 2.738281-6.261719-100.144531-43.808593c-2.109375-.921875-4.539062-.71875-6.472656.542969-1.929688 1.261718-3.089844 3.40625-3.089844 5.714843.007812 23.28125 9.027344 43.574219 20.398438 59.917969 11.390624 16.367188 25.203124 28.964844 35.589843 37.222656l4.246094-5.351562-5.398437-4.175782c-22.953126 29.65625-41.660157 63.402344-54.722657 94.246094-6.527343 15.425782-11.644531 30.117188-15.148437 43.273438-3.503906 13.167968-5.429688 24.746094-5.445313 34.277344.105469 5.042968 2.300781 9.128906 5.320313 13.40625 5.398437 7.398437 14.296875 15.382812 26.289062 23.691406 35.902344 24.746094 99.71875 51.59375 173.191406 51.648437 55.960938-.011719 106.375-15.671875 143.042969-34 18.34375-9.179687 33.246094-19.015625 43.832031-28.136719 5.292969-4.570312 9.515626-8.953124 12.605469-13.203124 3.019531-4.277344 5.21875-8.363282 5.320313-13.402344-.015625-9.722656-2.019532-21.566406-5.652344-35.054688-10.941406-40.359375-36.789062-95.328125-72.390625-140.203125l-5.34375 4.246094 4.390625 5.226563-4.390625-5.226563-5.347656 4.246094c22.824219 28.722656 41.722656 62.257812 54.816406 92.78125 6.550781 15.261719 11.648437 29.769531 15.085937 42.492187 3.445313 12.703125 5.191407 23.675782 5.179688 31.492188.097656.078125-.472656 2.390625-2.726562 5.394531-3.832032 5.339844-11.835938 12.792969-22.988282 20.46875-33.542968 23.210937-95.398437 49.285156-165.433594 49.226563-53.378906.015624-101.949218-15.046876-136.9375-32.558594-17.476562-8.738282-31.566406-18.105469-41.019531-26.261719-4.71875-4.070313-8.277343-7.847656-10.464843-10.878906-2.253907-3-2.828126-5.316407-2.726563-5.394531-.011719-7.664063 1.667969-18.371094 4.980469-30.761719 9.910156-37.28125 34.339844-89.921875 67.476562-132.679688 2.285156-2.949219 1.769532-7.207031-1.148437-9.527343-9.695313-7.683594-22.585938-19.511719-32.875-34.324219-10.316407-14.828125-17.957031-32.460938-17.953125-52.117188h-6.824219l-2.738281 6.253907 100.140625 43.808593c2.292969 1.003907 4.945312.671875 6.921875-.863281 22.996094-17.855469 47.722656-28.734375 73.167968-28.722656 24.546876-.007813 48.398438 10.160156 70.710938 26.917968 1.96875 1.476563 4.585938 1.777344 6.839844.796876l95.855468-41.9375-2.738281-6.253907h-6.824219c0 18.355469-6.652343 34.925781-15.941406 49.136719-9.269531 14.1875-21.125 25.859375-30.878906 34.039062-2.839844 2.382813-3.261719 6.566407-.953125 9.472657z" fill="#54596e"/><path d="m18.71875 236.296875c-3.171875 12.046875-4.773438 22.453125-4.761719 29.945313-.101562.078124.472657 2.394531 2.722657 5.398437 2.1875 3.027344 5.746093 6.808594 10.46875 10.875 9.449218 8.15625 23.539062 17.527344 41.019531 26.261719 34.96875 17.503906 83.5 32.558594 136.847656 32.558594h.085937.230469c69.941407 0 131.699219-26.039063 165.203125-49.230469 11.15625-7.675781 19.160156-15.128907 22.988282-20.46875 2.253906-3 2.828124-5.316407 2.726562-5.394531.015625-7.496094-1.59375-17.898438-4.765625-29.941407-27.425781 26.1875-100.519531 64.074219-186.382813 64.074219-85.867187 0-158.957031-37.890625-186.382812-64.078125" fill="#eeeef0"/><path d="m396.949219 230.535156c-1.546875 1.835938-3.375 3.765625-5.464844 5.765625 3.171875 12.046875 4.777344 22.449219 4.765625 29.941407.097656.078124-.472656 2.394531-2.726562 5.394531-3.832032 5.339843-11.835938 12.792969-22.988282 20.46875-33.503906 23.191406-95.261718 49.230469-165.203125 49.230469-.078125 0-.152343 0-.230469 0-.023437 0-.0625 0-.085937 0-53.347656 0-101.878906-15.054688-136.851563-32.558594-17.476562-8.738282-31.566406-18.105469-41.019531-26.261719-4.71875-4.070313-8.277343-7.847656-10.464843-10.878906-2.253907-3-2.828126-5.316407-2.726563-5.394531-.007813-7.496094 1.59375-17.902344 4.765625-29.949219-2.089844-1.996094-3.910156-3.917969-5.457031-5.757813-3.957031 14.097656-6.132813 26.417969-6.132813 35.707032 0 20.480468 88.632813 81.921874 197.972656 81.921874 109.339844 0 197.972657-61.441406 197.972657-81.921874 0-9.292969-2.160157-21.609376-6.125-35.707032" fill="#54596e"/><path d="m157.695312 177.851562c-17.140624 11.773438-28.140624 30.332032-28.734374 52.921876-1.230469 46.53125 13.261718 87.3125 34.921874 110.5625h82.441407c21.660156-23.25 36.160156-64.03125 34.925781-110.5625-.621094-23.234376-12.234375-42.203126-30.21875-53.914063" fill="#d8d8d8"/><path d="m153.828125 172.222656c-18.796875 12.847656-31.089844 33.625-31.691406 58.371094-.050781 1.902344-.074219 3.796875-.074219 5.683594.054688 45.691406 14.484375 85.621094 36.824219 109.710937 1.296875 1.390625 3.09375 2.175781 4.996093 2.175781h82.441407c1.898437 0 3.699219-.785156 4.996093-2.175781 22.335938-24.089843 36.773438-64.023437 36.828126-109.714843 0-1.882813-.027344-3.777344-.074219-5.679688-.628907-25.457031-13.613281-46.699219-33.320313-59.457031-3.160156-2.058594-7.386718-1.164063-9.445312 1.996093-2.058594 3.15625-1.164063 7.386719 1.996094 9.445313 16.265624 10.667969 26.507812 27.363281 27.117187 48.378906.046875 1.777344.070313 3.554688.070313 5.316407.054687 42.773437-13.902344 79.835937-33.167969 100.410156l4.996093 4.652344v-6.824219h-82.4375v6.824219l4.992188-4.652344c-19.265625-20.574219-33.214844-57.636719-33.160156-100.40625 0-1.765625.023437-3.539063.070312-5.324219.585938-20.433594 10.292969-36.773437 25.777344-47.480469 3.105469-2.132812 3.894531-6.382812 1.757812-9.492187-2.132812-3.101563-6.382812-3.890625-9.492187-1.757813zm0 0" fill="#54596e"/><path d="m259.714844 375.472656h-109.226563v-54.613281l54.613281-34.136719 54.613282 34.136719zm0 0" fill="#54596e"/><path d="m216.804688 375.472656c8.617187 0 15.605468-6.988281 15.605468-15.605468 0-8.617188-6.988281-15.605469-15.605468-15.605469-4.6875 0-8.84375 2.109375-11.699219 5.378906-2.863281-3.269531-7.015625-5.378906-11.699219-5.378906-8.621094 0-15.609375 6.988281-15.609375 15.605469 0 8.617187 6.988281 15.605468 15.609375 15.605468zm0 0" fill="#f99"/><path d="m164.140625 354.992188v-40.960938h27.308594zm0 0" fill="#fff"/><path d="m246.0625 354.992188v-40.960938h-27.308594zm0 0" fill="#fff"/><path d="m150.488281 320.859375c30.160157 0 54.613281-24.453125 54.613281-54.617187" fill="#d8d8d8"/><path d="m150.488281 327.683594c33.933594-.003906 61.433594-27.503906 61.441407-61.441406 0-3.769532-3.058594-6.828126-6.828126-6.828126-3.769531 0-6.828124 3.058594-6.828124 6.828126 0 13.21875-5.335938 25.121093-13.996094 33.789062-8.667969 8.660156-20.574219 13.996094-33.789063 13.996094-3.769531 0-6.828125 3.058594-6.828125 6.828125 0 3.773437 3.058594 6.828125 6.828125 6.828125zm0 0" fill="#54596e"/><path d="m259.714844 320.859375c-30.160156 0-54.613282-24.453125-54.613282-54.617187" fill="#d8d8d8"/><g fill="#54596e"><path d="m259.714844 314.03125c-13.214844-.003906-25.121094-5.339844-33.789063-13.996094-8.660156-8.671875-13.992187-20.574218-13.996093-33.792968 0-3.769532-3.058594-6.824219-6.828126-6.824219-3.769531 0-6.828124 3.054687-6.828124 6.824219.003906 33.9375 27.507812 61.4375 61.441406 61.441406 3.769531 0 6.828125-3.054688 6.828125-6.824219 0-3.773437-3.058594-6.828125-6.828125-6.828125zm0 0"/><path d="m252.890625 232.109375c0-15.078125-21.394531-20.480469-47.789063-20.480469-26.394531 0-47.785156 5.402344-47.785156 20.480469 0 15.082031 21.390625 34.132813 47.785156 34.132813 26.394532 0 47.789063-19.050782 47.789063-34.132813zm0 0"/><path d="m143.660156 153.605469c0 5.652343-4.582031 10.238281-10.238281 10.238281s-10.238281-4.585938-10.238281-10.238281c0-5.65625 4.582031-10.242188 10.238281-10.242188s10.238281 4.585938 10.238281 10.242188zm0 0"/><path d="m287.023438 153.605469c0 5.652343-4.585938 10.238281-10.242188 10.238281s-10.238281-4.585938-10.238281-10.238281c0-5.65625 4.582031-10.242188 10.238281-10.242188s10.242188 4.585938 10.242188 10.242188zm0 0"/><path d="m113.300781 135.816406 40.960938 20.480469c.964843.480469 1.972656.71875 3.054687.71875h13.652344c3.769531 0 6.828125-3.054687 6.828125-6.828125 0-3.769531-3.058594-6.824219-6.828125-6.824219h-12.042969l-39.515625-19.761719c-3.375-1.683593-7.476562-.316406-9.160156 3.054688-1.6875 3.375-.320312 7.476562 3.050781 9.160156zm0 0"/><path d="m290.796875 123.605469-39.519531 19.757812h-12.042969c-3.769531 0-6.824219 3.058594-6.824219 6.828125 0 3.769532 3.054688 6.824219 6.824219 6.824219h13.65625c1.078125 0 2.085937-.238281 3.050781-.71875l40.960938-20.480469c3.371094-1.683594 4.738281-5.785156 3.054687-9.160156-1.6875-3.371094-5.789062-4.738281-9.160156-3.050781zm0 0"/></g><path d="m252.890625 375.472656h-95.574219c0 15.078125 12.226563 27.304688 27.304688 27.304688h40.960937c15.082031 0 27.308594-12.226563 27.308594-27.304688zm0 0" fill="#d8d8d8"/><path d="m252.890625 375.472656v-6.828125h-95.574219c-1.796875 0-3.558594.726563-4.828125 2-1.273437 1.269531-2 3.027344-2 4.828125.003907 18.851563 15.28125 34.125 34.132813 34.132813h40.960937c18.855469-.003907 34.128907-15.28125 34.132813-34.132813 0-1.800781-.726563-3.558594-1.996094-4.828125-1.273438-1.273437-3.03125-2-4.828125-2v6.828125h-6.828125c-.019531 11.304688-9.171875 20.457032-20.480469 20.476563h-40.957031c-11.308594-.019531-20.460938-9.171875-20.480469-20.476563h-6.828125v6.824219h95.574219v-6.824219h-6.828125zm0 0" fill="#54596e"/></svg>