<svg height="429pt" viewBox="-41 0 429 429.71661" width="429pt" xmlns="http://www.w3.org/2000/svg"><path d="m53.21875 234.453125c-22.664062 50.75-38.949219 115.746094-46.035156 188.4375h333.394531c-7.085937-72.695313-23.371094-137.6875-46.035156-188.4375 15.476562-8.601563 22.410156-29.191406 11.929687-46.007813l-102.964844-165.171874c-13.667968-21.925782-45.589843-21.925782-59.257812 0l-102.964844 165.171874c-10.476562 16.816407-3.542968 37.40625 11.933594 46.007813zm0 0" fill="#a1b7ff"/><path d="m53.21875 234.453125-6.234375-2.785156c-23.042969 51.617187-39.441406 117.25-46.59375 190.558593-.1875 1.917969.445313 3.824219 1.738281 5.25 1.292969 1.425782 3.132813 2.238282 5.054688 2.238282h333.394531c1.925781 0 3.761719-.8125 5.054687-2.238282 1.296876-1.425781 1.925782-3.332031 1.742188-5.25-7.15625-73.308593-23.554688-138.941406-46.59375-190.558593l-6.234375 2.785156 3.316406 5.96875c12.597657-7.035156 20.417969-20.410156 20.445313-34.75.003906-7.007813-1.921875-14.242187-6.039063-20.839844l-102.964843-165.171875c-8.117188-13.050781-21.875-19.6953122-35.421876-19.660156-13.550781-.0351562-27.304687 6.609375-35.425781 19.660156l-102.960937 165.171875c-4.117188 6.597657-6.046875 13.832031-6.039063 20.839844.023438 14.339844 7.847657 27.714844 20.445313 34.746094l3.316406-5.964844-6.234375-2.785156 6.234375 2.785156 3.316406-5.964844c-8.195312-4.527343-13.449218-13.523437-13.425781-22.8125.007813-4.550781 1.207031-9.171875 3.972656-13.617187l102.960938-165.171875c5.550781-8.875 14.589843-13.199219 23.835937-13.230469 9.25.03125 18.285156 4.351562 23.839844 13.230469l102.960938 165.171875c2.765624 4.445312 3.964843 9.066406 3.972656 13.617187.023437 9.292969-5.234375 18.285157-13.425782 22.8125-3.097656 1.71875-4.359374 5.515625-2.914062 8.75 22.285156 49.882813 38.449219 114.238281 45.46875 186.3125l6.796875-.660156v-6.828125h-333.394531v6.828125l6.792968.660156c7.019532-72.074219 23.1875-136.429687 45.472657-186.3125 1.445312-3.238281.183593-7.03125-2.914063-8.75zm0 0" fill="#54596e"/><path d="m173.878906 272.703125c36.480469 0 68.488282 31.8125 86.621094 79.683594 2.75 7.257812 13.371094 5.769531 14.195312-1.949219 1.039063-9.722656 1.585938-19.730469 1.585938-29.949219 0-94.257812-45.847656-170.667969-102.402344-170.667969-56.550781 0-102.398437 76.410157-102.398437 170.667969 0 10.21875.542969 20.226563 1.582031 29.949219.828125 7.71875 11.449219 9.207031 14.199219 1.949219 18.132812-47.871094 50.136719-79.683594 86.617187-79.683594zm0 0" fill="#54596e"/><path d="m173.878906 272.703125v3.414063c17.21875.003906 33.484375 7.476562 47.851563 20.960937 14.347656 13.480469 26.660156 32.964844 35.578125 56.519531 1.683594 4.578125 5.980468 6.984375 9.945312 6.914063 2.511719-.003907 5.003906-.835938 7.027344-2.5 2.023438-1.648438 3.5-4.207031 3.808594-7.207031 1.050781-9.847657 1.601562-19.972657 1.601562-30.316407-.007812-47.679687-11.566406-90.890625-30.480468-122.433593-9.460938-15.769532-20.777344-28.632813-33.507813-37.609376-12.71875-8.976562-26.90625-14.042968-41.824219-14.035156-14.917968-.007812-29.109375 5.058594-41.824218 14.035156-19.09375 13.472657-35.019532 35.652344-46.25 63.339844-11.222657 27.695313-17.734376 60.941406-17.738282 96.703125 0 10.34375.550782 20.46875 1.601563 30.3125.308593 3.003907 1.785156 5.5625 3.808593 7.210938 2.023438 1.664062 4.515626 2.496093 7.027344 2.5 3.964844.070312 8.261719-2.339844 9.949219-6.914063 8.914063-23.554687 21.226563-43.042968 35.574219-56.519531 14.371094-13.488281 30.632812-20.957031 47.851562-20.964844v-6.824219c-19.261718-.003906-37.238281 8.429688-52.527344 22.816407-15.308593 14.394531-28.066406 34.75-37.28125 59.070312-.753906 1.851563-1.988281 2.445313-3.566406 2.511719-.972656.003906-1.96875-.34375-2.679687-.9375-.714844-.609375-1.214844-1.378906-1.367188-2.671875-1.027343-9.601563-1.5625-19.488281-1.5625-29.589844-.007812-46.574219 11.355469-88.695312 29.503907-118.921875 9.070312-15.117187 19.816406-27.246094 31.589843-35.542968 11.785157-8.296876 24.535157-12.78125 37.890625-12.785157 13.359375.003907 26.109375 4.488281 37.894532 12.785157 17.660156 12.4375 33.003906 33.535156 43.855468 60.328124 10.859375 26.78125 17.238282 59.207032 17.238282 94.140626 0 10.097656-.539063 19.984374-1.5625 29.585937-.15625 1.289063-.65625 2.0625-1.367188 2.671875-.710938.59375-1.707031.941406-2.679688.9375-1.582031-.066406-2.816406-.65625-3.566406-2.511719-9.21875-24.316406-21.976562-44.671875-37.285156-59.070312-15.285156-14.382813-33.265625-22.820313-52.527344-22.8125zm0 0" fill="#fff"/><g fill="#54596e"><path d="m61.242188 201.023438c0-9.425782-3.824219-17.066407-8.535157-17.066407-4.714843 0-8.535156 7.640625-8.535156 17.066407 0 9.425781 3.820313 17.066406 8.535156 17.066406 4.710938 0 8.535157-7.640625 8.535157-17.066406zm0 0"/><path d="m307 201.023438c0-9.425782-3.820312-17.066407-8.53125-17.066407-4.714844 0-8.535156 7.640625-8.535156 17.066407 0 9.425781 3.820312 17.066406 8.535156 17.066406 4.710938 0 8.53125-7.640625 8.53125-17.066406zm0 0"/><path d="m160.226562 61.078125c0 3.769531-3.054687 6.824219-6.828124 6.824219-3.769532 0-6.824219-3.054688-6.824219-6.824219 0-3.773437 3.054687-6.828125 6.824219-6.828125 3.773437 0 6.828124 3.054688 6.828124 6.828125zm0 0"/><path d="m201.1875 61.078125c0 3.769531-3.058594 6.824219-6.828125 6.824219s-6.824219-3.054688-6.824219-6.824219c0-3.773437 3.054688-6.828125 6.824219-6.828125s6.828125 3.054688 6.828125 6.828125zm0 0"/></g><path d="m146.574219 155.96875-28.371094 21.265625-21.132813 30.410156-14.757812 36.390625-8.519531 40.269532-2.273438 40.464843 17.027344-14.519531-16.757813-2.992188 20.171876-14.074218-16.0625-22.394532 26.300781-1.5-17.84375-31.6875 28.085937 21.449219-18.136718-45.964843 18.136718 11.832031-9.3125-27.792969 29.792969 20.964844-10.242187-44.375 23.894531 30.722656v-47.789062l13.652343 34.136718 13.652344-40.960937" fill="#fff"/><path d="m201.222656 155.96875 28.371094 21.265625 21.132812 30.410156 14.761719 36.390625 8.515625 40.269532 2.277344 40.464843-17.03125-14.519531 16.761719-2.992188-20.175781-14.074218 16.066406-22.394532-26.304688-1.5 17.847656-31.6875-28.085937 21.449219 18.132813-45.964843-18.132813 11.832031 9.308594-27.792969-29.789063 20.964844 10.238282-44.375-23.894532 30.722656v-47.789062l-13.652344 34.136718-13.652343-40.960937" fill="#fff"/></svg>