<svg height="402pt" viewBox="-16 0 402 402.77163" width="402pt" xmlns="http://www.w3.org/2000/svg"><path d="m334.644531 320.851562h-273.066406v40.960938l136.535156 27.308594 136.53125-27.308594zm0 0" fill="#fff35f"/><path d="m334.644531 320.851562v-6.824218h-273.066406c-1.796875 0-3.554687.726562-4.828125 1.996094-1.269531 1.273437-1.996094 3.03125-1.996094 4.828124v40.960938c0 3.253906 2.292969 6.054688 5.484375 6.695312l136.535157 27.304688c.890624.179688 1.785156.179688 2.675781 0l136.535156-27.304688c3.191406-.640624 5.484375-3.441406 5.484375-6.695312v-40.960938c0-1.796874-.726562-3.554687-1.996094-4.828124-1.273437-1.269532-3.03125-1.996094-4.828125-1.996094v6.824218h-6.824219v35.367188l-129.710937 25.9375-129.703125-25.941406v-28.539063l266.238281.003907v-6.828126h-6.824219zm0 0" fill="#54596e"/><path d="m362.226562 27.132812-55.019531 68.042969-54.902343-67.34375 98.867187-14.265625c7.972656-2.085937 14.707031 6.171875 11.054687 13.566406zm0 0" fill="#d1bc9d"/><path d="m362.226562 27.132812-5.3125-4.296874-49.730468 61.503906-41.96875-51.476563 86.929687-12.542969.753907-.15625.773437-.105468c.71875 0 1.351563.28125 1.90625.832031.542969.554687.84375 1.292969.835937 1.957031l-.316406 1.269532 6.128906 3.015624-5.3125-4.296874 5.3125 4.296874 6.125 3.011719c1.152344-2.335937 1.722657-4.863281 1.71875-7.296875-.007812-4.464844-1.824218-8.53125-4.734374-11.503906-2.898438-2.972656-7.050782-4.941406-11.660157-4.9375-1.421875 0-2.847656.191406-4.234375.554688l1.730469 6.605468-.976563-6.761718-98.867187 14.265624c-2.4375.351563-4.492187 1.988282-5.386719 4.28125-.894531 2.292969-.484375 4.882813 1.070313 6.792969l54.898437 67.34375c1.296875 1.585938 3.257813 2.515625 5.304688 2.511719 2.050781-.003906 4.007812-.941406 5.296875-2.535156l55.019531-68.042969.816406-1.277344zm0 0" fill="#54596e"/><path d="m236.8125 6.828125h-77.402344c-46.492187 0-84.179687 37.6875-84.179687 84.179687v229.84375l122.882812 20.480469 122.878907-20.480469v-229.84375c0-46.492187-37.6875-84.179687-84.179688-84.179687zm0 0" fill="#bfad88"/><path d="m236.8125 6.828125v-6.828125h-77.402344c-50.265625.00390625-91 40.742188-91.003906 91.007812v229.84375c0 3.339844 2.410156 6.183594 5.703125 6.734376l122.878906 20.480468c.75.121094 1.496094.121094 2.246094 0l122.878906-20.480468c3.292969-.550782 5.703125-3.394532 5.703125-6.734376v-229.84375c0-50.261718-40.738281-91.00390575-91.003906-91.007812v13.652344c21.382812.007812 40.679688 8.648437 54.695312 22.660156 14.011719 14.015625 22.652344 33.3125 22.65625 54.695312v224.0625l-116.050781 19.339844-116.054687-19.339844v-224.0625c.003906-21.382812 8.648437-40.679687 22.65625-54.695312 14.019531-14.011719 33.3125-22.652344 54.699218-22.660156h77.398438zm0 0" fill="#54596e"/><path d="m111.277344 36.648438-96.03125 27.496093c-8.128906 1.367188-10.886719 11.65625-4.527344 16.90625l57.503906 29.113281" fill="#bfad88"/><path d="m109.398438 30.082031-96.03125 27.5 1.878906 6.5625-1.128906-6.730469c-4.1875.683594-7.78125 2.949219-10.125 5.921876-2.359376 2.976562-3.597657 6.613281-3.605469 10.351562-.035157 4.523438 1.972656 9.34375 5.980469 12.625l1.269531.828125 57.503906 29.113281c3.367187 1.703125 7.472656.359375 9.175781-3.007812 1.703125-3.363282.355469-7.46875-3.007812-9.171875l-57.507813-29.117188-3.082031 6.09375 4.351562-5.261719c-.808593-.699218-.996093-1.289062-1.03125-2.105468-.007812-.65625.242188-1.367188.636719-1.851563.410157-.480469.832031-.792969 1.699219-.957031l.75-.171875 96.03125-27.496094c3.625-1.035156 5.722656-4.816406 4.683594-8.441406-1.035156-3.621094-4.816406-5.71875-8.441406-4.683594zm0 0" fill="#54596e"/><path d="m170.804688 139.945312c0 13.199219-10.695313 23.894532-23.890626 23.894532-13.199218 0-23.894531-10.695313-23.894531-23.894532 0-13.195312 10.695313-23.890624 23.894531-23.890624 13.195313 0 23.890626 10.695312 23.890626 23.890624zm0 0" fill="#d1bc9d"/><path d="m273.207031 139.945312c0 13.199219-10.699219 23.894532-23.894531 23.894532s-23.894531-10.695313-23.894531-23.894532c0-13.195312 10.699219-23.890624 23.894531-23.890624s23.894531 10.695312 23.894531 23.890624zm0 0" fill="#d1bc9d"/><g fill="#54596e"><path d="m157.152344 126.292969c0 5.65625-4.585938 10.242187-10.238282 10.242187-5.65625 0-10.242187-4.585937-10.242187-10.242187s4.585937-10.238281 10.242187-10.238281c5.652344 0 10.238282 4.582031 10.238282 10.238281zm0 0"/><path d="m259.550781 126.292969c0 5.65625-4.582031 10.242187-10.238281 10.242187s-10.242188-4.585937-10.242188-10.242187 4.585938-10.238281 10.242188-10.238281 10.238281 4.582031 10.238281 10.238281zm0 0"/><path d="m198.113281 204.800781h6.824219c0-7.539062 0-13.640625 0-13.652343 0-1.800782-.726562-3.558594-1.996094-4.828126-1.273437-1.273437-3.03125-2-4.828125-2s-3.554687.726563-4.828125 2c-1.269531 1.269532-1.996094 3.027344-1.996094 4.828126v13.652343 27.304688c0 1.796875.726563 3.554687 1.996094 4.828125 1.269532 1.269531 3.03125 1.996094 4.828125 1.996094s3.554688-.726563 4.828125-1.996094c1.269532-1.273438 1.996094-3.03125 1.996094-4.828125 0 0 0-19.765625 0-27.304688h-13.652344v27.304688c0 1.796875.730469 3.554687 2 4.828125 1.269532 1.269531 3.027344 1.996094 4.828125 1.996094 1.796875 0 3.554688-.726563 4.824219-1.996094 1.273438-1.273438 2-3.03125 2-4.828125 0 0 0-19.765625 0-27.304688 0-7.539062 0-13.640625 0-13.652343 0-1.800782-.730469-3.558594-2-4.828126-1.269531-1.273437-3.027344-2-4.824219-2s-3.558593.726563-4.828125 2c-1.273437 1.269532-2 3.027344-2 4.828126v13.652343zm0 0"/><path d="m218.59375 211.625h-40.960938c-7.539062 0-13.652343-6.113281-13.652343-13.652344 0-7.539062 6.113281-13.652344 13.652343-13.652344h40.960938c7.539062 0 13.652344 6.113282 13.652344 13.652344 0 7.539063-6.113282 13.652344-13.652344 13.652344zm0 0"/></g><path d="m198.113281 228.691406c0 18.851563 15.277344 34.136719 34.132813 34.136719 18.851562 0 34.132812-15.285156 34.132812-34.136719" fill="#bfad88"/><path d="m191.285156 228.691406c.003906 22.625 18.332032 40.957032 40.960938 40.960938 22.625-.003906 40.953125-18.335938 40.960937-40.960938 0-3.769531-3.058593-6.824218-6.828125-6.824218-3.769531 0-6.828125 3.054687-6.828125 6.824218-.003906 7.5625-3.046875 14.347656-7.996093 19.308594-4.964844 4.953125-11.746094 7.996094-19.308594 8-7.566406-.003906-14.347656-3.046875-19.308594-8-4.953125-4.960938-7.996094-11.746094-8-19.308594 0-3.769531-3.054688-6.824218-6.824219-6.824218s-6.828125 3.054687-6.828125 6.824218zm0 0" fill="#54596e"/><path d="m129.84375 228.691406c0 18.851563 15.28125 34.136719 34.136719 34.136719 18.851562 0 34.132812-15.285156 34.132812-34.136719" fill="#bfad88"/><path d="m123.019531 228.691406c.003907 22.625 18.332031 40.957032 40.960938 40.960938 22.625-.003906 40.953125-18.335938 40.957031-40.960938 0-3.769531-3.054688-6.824218-6.824219-6.824218s-6.828125 3.054687-6.828125 6.824218c-.003906 7.5625-3.046875 14.347656-7.996094 19.308594-4.964843 4.953125-11.746093 7.996094-19.308593 8-7.566407-.003906-14.347657-3.046875-19.3125-8-4.949219-4.960938-7.992188-11.746094-7.996094-19.308594 0-3.769531-3.054687-6.824218-6.828125-6.824218-3.769531 0-6.824219 3.054687-6.824219 6.824218zm0 0" fill="#54596e"/><path d="m68.40625 88.746094v40.960937c0 3.769531 3.054688 6.828125 6.824219 6.828125 3.773437 0 6.828125-3.058594 6.828125-6.828125v-40.960937c0-3.769532-3.054688-6.824219-6.828125-6.824219-3.769531 0-6.824219 3.054687-6.824219 6.824219" fill="#54596e"/><path d="m225.417969 368.640625c0 15.082031-12.226563 27.304687-27.304688 27.304687-15.082031 0-27.308593-12.222656-27.308593-27.304687s12.226562-27.308594 27.308593-27.308594c15.078125 0 27.304688 12.226563 27.304688 27.308594zm0 0" fill="#f99"/><path d="m225.417969 368.640625h6.828125c-.003906-18.855469-15.28125-34.128906-34.132813-34.132813-18.855469.003907-34.128906 15.277344-34.132812 34.132813.003906 18.851563 15.277343 34.128906 34.132812 34.132813 18.851563-.003907 34.128907-15.28125 34.132813-34.132813h-13.652344c-.023438 11.304687-9.175781 20.457031-20.480469 20.480469-11.308593-.023438-20.460937-9.175782-20.480469-20.480469.019532-11.308594 9.171876-20.460937 20.480469-20.480469 11.304688.019532 20.457031 9.171875 20.480469 20.480469zm0 0" fill="#54596e"/></svg>