<svg height="554pt" viewBox="-21 -17 554 554.66901" width="554pt" xmlns="http://www.w3.org/2000/svg"><path d="m436.738281 168.894531c-1.335937 0-2.707031-.316406-3.96875-.992187-4.164062-2.195313-5.761719-7.355469-3.550781-11.515625 15.554688-29.472657 49.820312-102.550781 31.84375-144.5-1.851562-4.324219.152344-9.339844 4.484375-11.195313 4.292969-1.847656 9.332031.148438 11.183594 4.480469 20.121093 46.949219-11.6875 119.878906-32.445313 159.179687-1.527344 2.894532-4.480468 4.542969-7.546875 4.542969zm0 0"/><path d="m68.8125 178.613281c-2.992188 0-5.890625-1.5625-7.445312-4.355469-18.792969-33.535156-60.109376-117.140624-37.839844-169.09375 1.847656-4.324218 6.882812-6.320312 11.1875-4.476562 4.328125 1.859375 6.332031 6.867188 4.476562 11.195312-19.8125 46.246094 23.34375 129.59375 37.046875 154.039063 2.304688 4.109375.839844 9.304687-3.261719 11.605469-1.328124.742187-2.761718 1.085937-4.164062 1.085937zm0 0"/><path d="m164.386719 432.097656c-.664063 0-1.351563-.078125-2.023438-.242187-89.914062-21.910157-162.3124998-72.292969-162.3124998-99.394531 0-43.445313 33.8828128-134.023438 89.0273438-207.9375-26.269531-22.320313-63.453125-63.25-63.453125-115.996094 0-2.878906 1.445312-5.5625 3.855469-7.136719 2.410156-1.574219 5.453125-1.828125 8.078125-.671875l120.457031 52.699219c63.621094-47.410157 128.320313-48.359375 192.277344-2.308594l115.191406-50.390625c2.628906-1.152344 5.671875-.898438 8.078125.675781 2.414062 1.570313 3.863281 4.253907 3.863281 7.132813 0 50.109375-34.101562 89.710937-58.339843 111.523437 55.515624 72.636719 92.433593 167.316407 92.433593 212.410157 0 26.363281-70.683593 76.152343-158.460937 98.4375-4.558594 1.152343-9.195313-1.597657-10.359375-6.164063-1.160157-4.566406 1.605469-9.203125 6.164062-10.359375 92.363281-23.449219 145.609375-71.082031 145.609375-81.914062 0-43.570313-37.671875-137.640626-93.75-208.242188-2.875-3.613281-2.34375-8.859375 1.191406-11.828125 19.730469-16.570313 51.554688-49.105469 57.496094-90.40625l-106.789062 46.71875c-2.796875 1.230469-6.078125.855469-8.535156-.996094-60.484376-45.433593-119.492188-44.480469-179.664063 2.261719-2.464844 1.914062-5.785156 2.328125-8.644531 1.078125l-112.148438-49.066406c6.171875 43.597656 40.976563 77.394531 62.507813 94.492187 3.65625 2.902344 4.296875 8.203125 1.441406 11.894532-54.128906 69.914062-90.480469 161.972656-90.480469 204.09375 0 11.195312 54.589844 59.746093 149.296875 82.828124 4.578125 1.117188 7.382813 5.726563 6.265625 10.304688-.945312 3.894531-4.433594 6.503906-8.273437 6.503906zm0 0"/><path d="m307.257812 520.003906h-102.945312c-2.367188 0-4.628906-.988281-6.234375-2.71875-30.273437-32.492187-47.421875-86.355468-45.894531-144.09375.789062-30.007812 14.84375-55.894531 39.574218-72.890625 3.886719-2.664062 9.183594-1.683593 11.851563 2.195313 2.664063 3.882812 1.683594 9.191406-2.195313 11.851562-20.117187 13.824219-31.542968 34.878906-32.183593 59.285156-1.359375 50.96875 13.476562 100.070313 38.875 129.316407h95.351562c25.398438-29.25 40.242188-78.351563 38.886719-129.308594-.667969-25.175781-12.699219-46.625-33.867188-60.414063-3.945312-2.570312-5.0625-7.847656-2.492187-11.792968 2.566406-3.953125 7.832031-5.058594 11.800781-2.492188 25.621094 16.691406 40.785156 43.753906 41.601563 74.242188 1.527343 57.734375-15.632813 111.605468-45.902344 144.101562-1.597656 1.730469-3.859375 2.71875-6.226563 2.71875zm0 0"/><path d="m187.589844 494.429688c-4.710938 0-8.527344-3.820313-8.527344-8.527344 0-4.707032 3.816406-8.527344 8.527344-8.527344 32.902344 0 59.671875-26.769531 59.671875-59.667969 0-4.710937 3.8125-8.527343 8.523437-8.527343 4.714844 0 8.523438 3.816406 8.523438 8.527343 0 42.304688-34.414063 76.722657-76.71875 76.722657zm0 0"/><path d="m323.984375 494.429688c-42.3125 0-76.722656-34.417969-76.722656-76.722657 0-4.710937 3.8125-8.527343 8.523437-8.527343 4.714844 0 8.523438 3.816406 8.523438 8.527343 0 32.898438 26.773437 59.667969 59.675781 59.667969 4.710937 0 8.519531 3.820312 8.519531 8.527344 0 4.707031-3.808594 8.527344-8.519531 8.527344zm0 0"/><path d="m315.457031 375.082031c0-18.832031-26.714843-25.574219-59.671875-25.574219-32.957031 0-59.671875 6.742188-59.671875 25.574219 0 18.835938 26.714844 42.625 59.671875 42.625 32.957032 0 59.671875-23.789062 59.671875-42.625zm0 0"/><path d="m179.0625 242.953125c0 7.0625-5.726562 12.785156-12.78125 12.785156-7.066406 0-12.792969-5.722656-12.792969-12.785156s5.726563-12.789063 12.792969-12.789063c7.054688 0 12.78125 5.726563 12.78125 12.789063zm0 0"/><path d="m349.550781 242.953125c0 7.0625-5.71875 12.785156-12.78125 12.785156-7.066406 0-12.785156-5.722656-12.785156-12.785156s5.71875-12.789063 12.785156-12.789063c7.0625 0 12.78125 5.726563 12.78125 12.789063zm0 0"/></svg>