<svg height="436pt" viewBox="0 -13 436.90667 436" width="436pt" xmlns="http://www.w3.org/2000/svg"><path d="m375.464844 136.988281h-88.746094c-7.539062 0-13.652344-6.113281-13.652344-13.652343 0-7.539063 6.113282-13.652344 13.652344-13.652344h88.746094c15.058594 0 27.308594-12.25 27.308594-27.308594v-20.480469c0-15.058593-12.25-27.304687-27.308594-27.304687-7.539063 0-13.652344-6.113282-13.652344-13.65625 0-7.539063 6.113281-13.652344 13.652344-13.652344 30.117187 0 54.613281 24.5 54.613281 54.613281v20.480469c0 30.113281-24.496094 54.613281-54.613281 54.613281zm0 0" fill="#fff"/><path d="m375.464844 136.988281v-6.828125h-88.746094c-3.765625-.003906-6.820312-3.058594-6.824219-6.824218.003907-3.765626 3.058594-6.820313 6.824219-6.828126h88.746094c18.839844-.011718 34.125-15.289062 34.136718-34.132812v-20.480469c-.011718-18.84375-15.296874-34.121093-34.136718-34.132812-3.765625-.007813-6.816406-3.058594-6.824219-6.828125.007813-3.765625 3.058594-6.820313 6.824219-6.824219 13.1875.003906 25.09375 5.347656 33.773437 14.015625 8.667969 8.675781 14.011719 20.585938 14.015625 33.773438v20.476562c-.003906 13.1875-5.347656 25.09375-14.015625 33.773438-8.679687 8.667968-20.585937 14.011718-33.773437 14.015624v13.652344c33.898437-.011718 61.429687-27.542968 61.441406-61.441406v-20.480469c-.011719-33.898437-27.542969-61.425781-61.441406-61.441406-11.3125.003906-20.472656 9.167969-20.476563 20.480469.003907 11.316406 9.164063 20.476562 20.476563 20.480468 5.660156.003907 10.738281 2.285157 14.472656 6.007813 3.722656 3.734375 6.003906 8.816406 6.007812 14.476563v20.476562c-.003906 5.660156-2.28125 10.742188-6.007812 14.472656-3.734375 3.722656-8.8125 6.003906-14.472656 6.007813h-88.746094c-11.3125.003906-20.472656 9.167969-20.480469 20.480469.007813 11.3125 9.167969 20.476562 20.480469 20.480468h88.746094zm0 0" fill="#54596e"/><path d="m61.441406 136.988281h88.746094c7.539062 0 13.652344-6.113281 13.652344-13.652343 0-7.539063-6.113282-13.652344-13.652344-13.652344h-88.746094c-15.058594 0-27.308594-12.25-27.308594-27.308594v-20.480469c0-15.058593 12.25-27.304687 27.308594-27.304687 7.539063 0 13.652344-6.113282 13.652344-13.65625 0-7.539063-6.113281-13.652344-13.652344-13.652344-30.117187 0-54.613281 24.5-54.613281 54.613281v20.480469c0 30.113281 24.496094 54.613281 54.613281 54.613281zm0 0" fill="#fff"/><path d="m61.441406 136.988281v6.828125h88.746094c11.3125-.003906 20.472656-9.167968 20.480469-20.480468-.007813-11.3125-9.167969-20.476563-20.480469-20.480469h-88.746094c-5.660156-.003907-10.738281-2.285157-14.472656-6.007813-3.726562-3.734375-6.003906-8.8125-6.007812-14.472656v-20.480469c.003906-5.660156 2.28125-10.738281 6.007812-14.472656 3.734375-3.722656 8.8125-6.003906 14.472656-6.007813 11.3125-.003906 20.472656-9.167968 20.480469-20.480468-.007813-11.3125-9.167969-20.476563-20.480469-20.480469-33.898437.011719-61.4296872 27.542969-61.441406 61.441406v20.480469c.0117188 33.894531 27.542969 61.425781 61.441406 61.4375v-13.652344c-13.1875 0-25.09375-5.34375-33.773437-14.011718-8.667969-8.679688-14.011719-20.585938-14.015625-33.773438v-20.480469c.003906-13.1875 5.347656-25.09375 14.015625-33.773437 8.679687-8.664063 20.585937-14.007813 33.773437-14.011719 3.765625.003906 6.820313 3.058594 6.824219 6.824219-.003906 3.769531-3.058594 6.820312-6.824219 6.828125-18.839844.011719-34.121094 15.289062-34.132812 34.132812v20.480469c.011718 18.84375 15.292968 34.121094 34.132812 34.132812h88.746094c3.765625.007813 6.820312 3.0625 6.824219 6.828126-.003907 3.765624-3.058594 6.820312-6.824219 6.824218h-88.746094zm0 0" fill="#54596e"/><path d="m368.640625 157.46875h-61.441406v40.960938h28.664062c11.316407 0 23.125-8.789063 26.378907-19.640626zm0 0" fill="#aaa" fill-rule="evenodd"/><path d="m368.640625 157.46875v-6.828125h-61.441406c-1.796875 0-3.554688.726563-4.824219 2-1.273438 1.269531-2 3.03125-2 4.828125v40.960938c0 1.796874.726562 3.554687 2 4.824218 1.269531 1.273438 3.027344 2 4.824219 2h28.664062c7.441407-.023437 14.484375-2.796875 20.289063-7.101562 5.789062-4.328125 10.46875-10.28125 12.628906-17.402344l6.398438-21.320312c.621093-2.078126.230468-4.300782-1.0625-6.039063-1.292969-1.734375-3.308594-2.75-5.476563-2.75v6.828125l-6.539063-1.964844-6.394531 21.320313c-1.097656 3.730469-3.949219 7.597656-7.707031 10.378906-3.742188 2.804687-8.257812 4.421875-12.136719 4.398437h-21.835937v-27.308593h54.613281v-6.824219l-6.539063-1.964844zm0 0" fill="#54596e"/><path d="m54.613281 157.46875h61.441407v40.960938h-28.664063c-11.316406 0-23.125-8.789063-26.378906-19.640626zm0 0" fill="#aaa" fill-rule="evenodd"/><path d="m54.613281 157.46875v6.828125h54.613281v27.304687h-21.835937c-3.878906.023438-8.394531-1.59375-12.136719-4.398437-3.761718-2.78125-6.609375-6.648437-7.707031-10.378906l-6.394531-21.320313-6.539063 1.964844v6.828125-6.828125l-6.539062 1.960938 6.398437 21.320312c2.160156 7.121094 6.839844 13.074219 12.628906 17.402344 5.804688 4.304687 12.847657 7.078125 20.289063 7.101562h28.664063c1.796874 0 3.554687-.726562 4.824218-2 1.273438-1.269531 2-3.027344 2-4.824218v-40.960938c0-1.800781-.726562-3.558594-2-4.828125-1.269531-1.269531-3.027344-2-4.824218-2h-61.441407c-2.167969 0-4.183593 1.011719-5.476562 2.753906-1.292969 1.738281-1.683594 3.960938-1.0625 6.035157zm0 0" fill="#54596e"/><path d="m257.757812 102.855469h-92.261718c-27.304688 0-49.441406 22.136719-49.441406 49.445312l-13.65625 148.527344h218.453124l-13.652343-148.527344c0-27.308593-22.136719-49.445312-49.441407-49.445312zm0 0" fill="#999" fill-rule="evenodd"/><path d="m257.757812 102.855469v-6.828125h-92.261718c-31.078125.007812-56.265625 25.191406-56.269532 56.273437h6.828126l-6.800782-.625-13.652344 148.527344c-.175781 1.917969.457032 3.804687 1.753907 5.226563 1.296875 1.421874 3.121093 2.226562 5.042969 2.226562h218.453124c1.925782 0 3.746094-.804688 5.046876-2.226562 1.296874-1.421876 1.929687-3.308594 1.753906-5.226563l-13.65625-148.527344-6.796875.625h6.828125c-.003906-31.082031-25.191406-56.265625-56.269532-56.273437v13.65625c11.789063 0 22.398438 4.757812 30.132813 12.480468 7.722656 7.734376 12.480469 18.34375 12.484375 30.136719l.027344.621094 12.96875 141.078125h-203.488282l12.96875-141.078125.027344-.621094c.003906-11.792969 4.761719-22.402343 12.484375-30.136719 7.730469-7.722656 18.34375-12.480468 30.132813-12.480468h92.261718zm0 0" fill="#54596e"/><path d="m287.023438 389.574219h-150.792969c-22.453125 0-40.65625-18.203125-40.65625-40.65625v-34.738281c0-22.453126 18.203125-40.65625 40.65625-40.65625h150.792969c22.453124 0 40.65625 18.203124 40.65625 40.65625v34.738281c0 22.453125-18.203126 40.65625-40.65625 40.65625zm0 0" fill="#ff927d" fill-rule="evenodd"/><g fill="#54596e"><path d="m287.023438 389.574219v-6.824219h-150.792969c-9.363281-.003906-17.777344-3.777344-23.917969-9.910156-6.132812-6.144532-9.90625-14.558594-9.910156-23.921875v-34.738281c.003906-9.363282 3.777344-17.777344 9.910156-23.921876 6.140625-6.132812 14.554688-9.90625 23.917969-9.910156h150.792969c9.363281.003906 17.777343 3.777344 23.921874 9.910156 6.132813 6.144532 9.90625 14.558594 9.90625 23.921876v34.738281c0 9.363281-3.773437 17.777343-9.90625 23.921875-6.144531 6.132812-14.558593 9.90625-23.921874 9.910156v13.652344c26.226562-.003906 47.480468-21.257813 47.484374-47.484375v-34.738281c-.007812-26.226563-21.257812-47.480469-47.484374-47.484376h-150.792969c-26.226563.003907-47.480469 21.257813-47.480469 47.484376v34.738281c.003906 26.226562 21.253906 47.480469 47.480469 47.484375h150.792969zm0 0"/><path d="m169.117188 314.25c-6.257813-13.722656-18.285157-21.675781-26.859376-17.761719-8.578124 3.914063-10.453124 18.207031-4.195312 31.929688 6.261719 13.722656 18.289062 21.671875 26.863281 17.761719 8.578125-3.914063 10.453125-18.207032 4.191407-31.929688zm0 0" fill-rule="evenodd"/><path d="m280.992188 296.433594c-8.578126-3.914063-20.601563 4.039062-26.863282 17.761718-6.261718 13.71875-4.382812 28.015626 4.191406 31.929688 8.574219 3.910156 20.601563-4.042969 26.863282-17.761719 6.261718-13.722656 4.382812-28.019531-4.191406-31.929687zm0 0" fill-rule="evenodd"/><path d="m184.320312 205.253906c0 7.542969-6.113281 13.65625-13.652343 13.65625-7.542969 0-13.65625-6.113281-13.65625-13.65625 0-7.539062 6.113281-13.652344 13.65625-13.652344 7.539062 0 13.652343 6.113282 13.652343 13.652344zm0 0" fill-rule="evenodd"/><path d="m266.238281 205.253906c0 7.542969-6.109375 13.65625-13.652343 13.65625-7.539063 0-13.652344-6.113281-13.652344-13.65625 0-7.539062 6.113281-13.652344 13.652344-13.652344 7.542968 0 13.652343 6.113282 13.652343 13.652344zm0 0" fill-rule="evenodd"/></g><path d="m147.136719 319.335938c-2.445313 7.039062-3.777344 14.601562-3.777344 22.453124.003906 37.703126 30.5625 68.261719 68.265625 68.265626 37.707031-.003907 68.261719-30.558594 68.269531-68.265626 0-7.84375-1.332031-15.40625-3.777343-22.441406l-12.894532 4.488282c1.953125 5.617187 3.015625 11.648437 3.015625 17.953124 0 15.101563-6.101562 28.710938-15.992187 38.617188-9.90625 9.890625-23.515625 15.992188-38.621094 15.996094-15.101562-.003906-28.710938-6.105469-38.617188-15.996094-9.894531-9.90625-15.992187-23.515625-15.996093-38.617188 0-6.3125 1.066406-12.339843 3.023437-17.964843zm0 0" fill="#fff35f"/></svg>