<svg height="443pt" viewBox="0 -3 443.73333 443" width="443pt" xmlns="http://www.w3.org/2000/svg"><path d="m218.453125 54.976562c-67.867187 0-122.878906 55.015626-122.878906 122.882813v252.582031h115.785156c71.78125 0 129.972656-58.1875 129.972656-129.96875v-122.613281c0-67.867187-55.011719-122.882813-122.878906-122.882813" fill="#999"/><path d="m218.453125 54.976562v-6.824218c-71.640625 0-129.703125 58.066406-129.707031 129.707031v252.582031c0 1.800782.726562 3.558594 2 4.828125 1.273437 1.273438 3.03125 2 4.828125 2h115.785156c75.550781-.003906 136.792969-61.242187 136.800781-136.796875v-122.613281c-.007812-71.640625-58.070312-129.707031-129.707031-129.707031v13.652344c32.070313.003906 61.039063 12.976562 82.0625 33.992187 21.011719 21.023437 33.988281 49.992187 33.992187 82.0625v122.613281c-.003906 34.027344-13.777343 64.769532-36.070312 87.078125-22.308594 22.292969-53.050781 36.0625-87.078125 36.066407h-108.960937v-245.757813c.003906-32.070313 12.980468-61.039063 33.992187-82.0625 21.023437-21.015625 49.992187-33.988281 82.0625-33.992187z" fill="#54596e"/><path d="m129.707031 211.992188h-122.878906c0 37.703124 30.566406 68.265624 68.265625 68.265624h54.613281" fill="#999"/><path d="m129.707031 205.164062h-122.878906c-1.796875 0-3.558594.726563-4.828125 2-1.269531 1.269532-2 3.027344-2 4.828126.00390625 41.472656 33.621094 75.085937 75.09375 75.089843h54.613281c3.769531 0 6.828125-3.054687 6.828125-6.824219 0-3.769531-3.058594-6.828124-6.828125-6.828124h-54.613281c-16.988281-.003907-32.304688-6.863282-43.445312-17.996094-11.128907-11.140625-17.992188-26.457032-17.996094-43.441406h-6.824219v6.824218h122.878906c3.769531 0 6.828125-3.054687 6.828125-6.824218 0-3.773438-3.058594-6.828126-6.828125-6.828126zm0 0" fill="#54596e"/><path d="m368.640625 280.257812h-27.308594v-68.265624h95.574219c0 37.703124-30.566406 68.265624-68.265625 68.265624zm0 0" fill="#aaa"/><path d="m368.640625 280.257812v-6.828124h-20.480469v-54.613282h88.746094v-6.828125h-6.828125c0 16.988281-6.867187 32.304688-17.996094 43.445313-11.136719 11.128906-26.457031 17.992187-43.441406 17.996094v13.652343c41.472656 0 75.085937-33.613281 75.09375-75.089843 0-1.800782-.730469-3.554688-2-4.828126-1.269531-1.269531-3.03125-2-4.828125-2h-95.574219c-1.796875 0-3.554687.726563-4.828125 2-1.269531 1.269532-1.996094 3.027344-1.996094 4.828126v68.265624c0 1.796876.726563 3.554688 1.996094 4.824219 1.273438 1.273438 3.03125 2 4.828125 2h27.308594zm0 0" fill="#54596e"/><path d="m341.332031 157.378906c0-67.867187-122.878906-150.1875-122.878906-150.1875s-122.878906 82.320313-122.878906 150.1875c0 67.863282 55.011719 122.878906 122.878906 122.878906s122.878906-55.015624 122.878906-122.878906zm0 0" fill="#999"/><path d="m341.332031 157.378906h6.828125c-.050781-19.070312-8.441406-37.992187-20.347656-55.886718-17.929688-26.828126-44.230469-51.613282-66.101562-69.914063-21.871094-18.273437-39.320313-29.964844-39.457032-30.058594-2.296875-1.535156-5.308594-1.5390622-7.601562 0-.183594.128907-31.136719 20.851563-62.332032 50.355469-15.597656 14.765625-31.273437 31.71875-43.226562 49.617188-11.90625 17.894531-20.296875 36.816406-20.347656 55.886718.003906 71.632813 58.066406 129.699219 129.707031 129.703125 71.640625 0 129.703125-58.066406 129.707031-129.703125h-13.652344c-.003906 32.066406-12.980468 61.039063-33.992187 82.058594-21.023437 21.011719-49.992187 33.988281-82.0625 33.992188-32.070313-.003907-61.039063-12.976563-82.0625-33.992188-21.011719-21.023438-33.988281-49.992188-33.992187-82.058594-.046876-14.863281 6.921874-31.679687 18.054687-48.308594 16.628906-24.957031 42.171875-49.214843 63.5-67.015624 10.664063-8.910157 20.273437-16.234376 27.199219-21.316407 3.460937-2.542969 6.253906-4.519531 8.171875-5.863281.960937-.671875 1.699219-1.179688 2.199219-1.519531l.730468-.496094-3.800781-5.667969-3.800781 5.671875s.433594.289063 1.308594.890625c6.558593 4.507813 36.691406 25.761719 64.898437 53.496094 14.101563 13.851562 27.707031 29.332031 37.625 44.9375 9.957031 15.609375 16.058594 31.25 16.019531 45.191406zm0 0" fill="#54596e"/><path d="m102.398438 307.5625v116.054688h108.960937c34.027344-.003907 64.769531-13.769532 87.078125-36.066407 18.046875-18.058593 30.511719-41.644531 34.605469-68.023437-8.851563 35.789062-56.785157 63.128906-114.589844 63.128906-64.09375 0-116.054687-33.617188-116.054687-75.09375" fill="#929295"/><g fill="#54596e"><path d="m334.507812 307.5625c0 4.070312-.503906 8.070312-1.464843 11.964844-4.09375 26.378906-16.558594 49.964844-34.605469 68.023437-22.308594 22.292969-53.050781 36.0625-87.078125 36.066407h7.09375c64.09375 0 116.054687-51.960938 116.054687-116.054688"/><path d="m170.667969 150.550781c0 7.539063-6.113281 13.652344-13.65625 13.652344-7.539063 0-13.652344-6.113281-13.652344-13.652344 0-7.539062 6.113281-13.652343 13.652344-13.652343 7.542969 0 13.65625 6.113281 13.65625 13.652343zm0 0"/><path d="m293.546875 150.550781c0 7.539063-6.113281 13.652344-13.652344 13.652344-7.542969 0-13.65625-6.113281-13.65625-13.652344 0-7.539062 6.113281-13.652343 13.65625-13.652343 7.539063 0 13.652344 6.113281 13.652344 13.652343zm0 0"/></g><path d="m218.453125 177.855469-38.613281 13.65625 38.613281 40.957031 38.613281-40.957031zm0 0" fill="#fff35f"/><path d="m218.453125 177.855469-2.273437-6.433594-38.613282 13.652344c-2.175781.769531-3.820312 2.589843-4.359375 4.832031-.542969 2.238281.085938 4.609375 1.667969 6.289062l38.613281 40.957032c1.285157 1.363281 3.089844 2.144531 4.964844 2.144531 1.878906 0 3.679687-.78125 4.96875-2.144531l38.613281-40.957032c1.578125-1.679687 2.210938-4.050781 1.667969-6.289062-.542969-2.242188-2.1875-4.0625-4.359375-4.832031l-38.613281-13.652344c-1.460938-.519531-3.089844-.519531-4.550781 0l2.273437 6.433594-2.273437 6.4375 28.730468 10.160156-26.457031 28.0625-26.457031-28.066406 28.734375-10.15625-2.277344-6.4375-2.273437 6.4375zm0 0" fill="#54596e"/><path d="m98.679688 437.234375c73.976562-1.652344 133.421874-62.125 133.425781-136.496094 0-6.292969-.425781-12.484375-1.246094-18.550781-.503906-3.734375-3.945313-6.355469-7.679687-5.847656-3.738282.503906-6.355469 3.941406-5.847657 7.679687.738281 5.464844 1.121094 11.046875 1.121094 16.714844.007813 66.929687-53.519531 121.367187-120.078125 122.847656-3.769531.085938-6.757812 3.207031-6.671875 6.976563.082031 3.773437 3.207031 6.761718 6.976563 6.675781zm0 0" fill="#54596e"/></svg>