<?xml version="1.0" encoding="iso-8859-1"?>
<!-- Generator: Adobe Illustrator 19.0.0, SVG Export Plug-In . SVG Version: 6.00 Build 0)  -->
<svg version="1.1" id="Capa_1" xmlns="http://www.w3.org/2000/svg" xmlns:xlink="http://www.w3.org/1999/xlink" x="0px" y="0px"
	 viewBox="0 0 512 512" style="enable-background:new 0 0 512 512;" xml:space="preserve">
<path style="fill:#8E4F20;" d="M301.575,45.576c0,7.16-1.659,13.938-4.605,19.975c-4.275,8.746-7.881,17.781-10.796,27.011
	c-3.101,9.848-5.419,19.924-6.923,30.133h-46.595c-1.556-10.188-3.925-20.253-7.036-30.102c-2.967-9.406-6.603-18.615-10.848-27.588
	c-3.06-6.469-4.636-13.774-4.296-21.479c0.999-22.942,19.347-41.815,42.258-43.412C279.375-1.741,301.575,19.327,301.575,45.576z"/>
<path style="fill:#723700;" d="M256,90.574c10.446,0,20.521,0.67,30.174,1.988c-3.101,9.848-5.419,19.924-6.923,30.133h-46.595
	c-1.556-10.188-3.925-20.253-7.036-30.102C235.335,91.254,245.482,90.574,256,90.574z"/>
<path style="fill:#8E4F20;" d="M279.498,426.093l-4.224,16.38l-8.097,31.348c-2.977,11.548-19.378,11.548-22.355,0l-8.097-31.348
	l-4.224-16.38H279.498z"/>
<path style="fill:#723700;" d="M232.502,426.093h46.997l-4.224,16.38c-6.366,1.246-12.805,1.875-19.275,1.875
	c-6.47,0-12.908-0.629-19.275-1.875L232.502,426.093z"/>
<path style="fill:#B77E53;" d="M223.302,415.946l-5.604,20.913l-11.62,43.422C200.875,499.689,183.393,512,164.757,512
	c-6.006,0-12.125-1.277-17.987-3.997c-26.084-12.125-33.007-46.008-13.763-67.384l34.81-38.673l12.455-13.835L223.302,415.946z"/>
<path style="fill:#8E4F20;" d="M180.271,388.111l43.031,27.836l-5.604,20.913c-17.616-6.985-34.47-18.76-49.881-34.913
	L180.271,388.111z"/>
<path style="fill:#B77E53;" d="M365.23,508.003c-5.862,2.72-11.981,3.997-17.987,3.997c-18.636,0-36.118-12.311-41.321-31.719
	l-11.62-43.422l-5.604-20.913l43.031-27.836l12.455,13.835l34.81,38.673C398.237,461.995,391.314,495.878,365.23,508.003z"/>
<path style="fill:#8E4F20;" d="M331.729,388.111l12.455,13.835c-15.411,16.153-32.265,27.928-49.881,34.913l-5.604-20.913
	L331.729,388.111z"/>
<path style="fill:#B77E53;" d="M143.288,153.24l-10.24,96.868c-14.927,3.41-22.942,9.086-28.752,17.05
	c-11.26,15.453-14.196,39.518-42.959,72.298c-43.597,49.686-49.675-36.51-29.401-120.933c14.33-59.678,64.057-67.6,91.964-67.127
	C135.469,151.591,143.288,153.24,143.288,153.24z"/>
<path style="fill:#8E4F20;" d="M123.9,151.396c11.569,0.196,19.388,1.844,19.388,1.844l-10.24,96.868
	c-14.927,3.41-22.942,9.086-28.752,17.05c-1.71-11.342-2.596-22.613-2.596-33.584C101.7,201.627,109.292,173.792,123.9,151.396z"/>
<path style="fill:#B77E53;" d="M450.663,339.455c-28.763-32.78-31.699-56.845-42.959-72.298c-5.81-7.963-13.825-13.64-28.752-17.05
	l-10.24-96.868c0,0,7.819-1.648,19.388-1.844c27.908-0.474,77.634,7.448,91.964,67.127
	C500.338,302.946,494.26,389.141,450.663,339.455z"/>
<path style="fill:#A6F900;" d="M410.3,233.573c0,10.971-0.886,22.242-2.596,33.584c-5.81-7.963-13.825-13.64-28.752-17.05
	l-10.24-96.868c0,0,7.819-1.648,19.388-1.844C402.708,173.792,410.3,201.627,410.3,233.573z"/>
<path style="fill:#8E4F20;" d="M410.3,233.573c0,10.971-0.886,22.242-2.596,33.584c-5.81-7.963-13.825-13.64-28.752-17.05
	l-10.24-96.868c0,0,7.819-1.648,19.388-1.844C402.708,173.792,410.3,201.627,410.3,233.573z"/>
<path style="fill:#A6F900;" d="M396.909,233.574c0,90.295-63.087,197.383-140.909,197.383S115.091,323.869,115.091,233.574
	S178.178,103.969,256,103.969S396.909,143.279,396.909,233.574z"/>
<path style="fill:#6DCC00;" d="M256,412.194c-24.225,0-48.152-10.856-69.193-31.394c-34.316-33.502-57.371-90.008-57.371-140.608
	c0-59.413,30.573-88.078,56.221-101.663c19.753-10.48,43.423-15.797,70.343-15.797s50.589,5.317,70.351,15.801
	c25.64,13.58,56.213,42.245,56.213,101.659c0,50.6-23.055,107.106-57.37,140.607C304.152,401.338,280.225,412.194,256,412.194z"/>
<path style="fill:#B77E53;" d="M316.41,372.112c-16.411,16.061-35.778,26.27-56.742,26.857
	c-23.055,0.639-44.823-10.446-63.232-28.34c-31.575-30.689-53.26-81.395-54.538-127.269
	c-2.019-72.628,47.842-105.655,110.435-107.407c62.594-1.741,114.226,28.464,116.246,101.092
	C369.928,285.35,348.994,340.248,316.41,372.112z"/>
<g>
	<path style="fill:#8E4F20;" d="M316.41,372.112c-16.411,16.061-35.778,26.27-56.742,26.857
		c-23.055,0.639-44.823-10.446-63.232-28.34l24.22-41.939c1.472-2.549,4.193-4.12,7.137-4.12h56.415
		c2.945,0,5.665,1.571,7.138,4.121L316.41,372.112z"/>
	<path style="fill:#8E4F20;" d="M321.948,153.237l-30.6,52.997c-1.472,2.55-4.193,4.121-7.137,4.121h-56.422
		c-2.944,0-5.665-1.571-7.137-4.121l-30.6-52.997l1.774-3.062c18.249-9.682,40.35-14.264,64.174-14.264s45.926,4.582,64.174,14.264
		L321.948,153.237z"/>
</g>
<path style="fill:#E2A67D;" d="M284.215,210.352h-56.43c-2.944,0-5.665,1.571-7.137,4.121l-28.215,48.87
	c-1.472,2.55-1.472,5.692,0,8.241l28.215,48.87c1.472,2.55,4.193,4.121,7.137,4.121h56.43c2.944,0,5.665-1.571,7.137-4.121
	l28.215-48.87c1.472-2.55,1.472-5.692,0-8.241l-28.215-48.87C289.88,211.922,287.159,210.352,284.215,210.352z"/>
<g>
	<path style="fill:#723700;" d="M232.821,53.961c-4.267,0-7.726-3.459-7.726-7.726v-0.686c0-4.267,3.459-7.726,7.726-7.726
		s7.726,3.459,7.726,7.726v0.686C240.547,50.502,237.088,53.961,232.821,53.961z"/>
	<path style="fill:#723700;" d="M281.586,53.961c-4.267,0-7.726-3.459-7.726-7.726v-0.686c0-4.267,3.459-7.726,7.726-7.726
		s7.726,3.459,7.726,7.726v0.686C289.313,50.502,285.854,53.961,281.586,53.961z"/>
</g>
<g>
</g>
<g>
</g>
<g>
</g>
<g>
</g>
<g>
</g>
<g>
</g>
<g>
</g>
<g>
</g>
<g>
</g>
<g>
</g>
<g>
</g>
<g>
</g>
<g>
</g>
<g>
</g>
<g>
</g>
</svg>
