<svg height="441pt" viewBox="-15 0 441 441.214" width="441pt" xmlns="http://www.w3.org/2000/svg"><g fill="#e95947"><path d="m125.671875 279.0625v-18.578125c-36.167969 1.960937-64.894531 31.90625-64.890625 68.582031v8l12.660156-.023437c8.355469-24.371094 30.046875-42.550781 56.363282-45.84375-2.578126-3.367188-4.132813-7.566407-4.132813-12.136719zm0 0"/><path d="m350.609375 329.011719c-.003906-36.671875-28.75-66.621094-64.9375-68.554688v18.601563c0 4.558594-1.539063 8.746094-4.105469 12.109375 26.320313 3.285156 48.019532 21.457031 56.378906 45.835937l12.667969.007813zm0 0"/><path d="m160.757812 61.597656c6.515626-8.863281 13.714844-15.84375 21.414063-20.570312l.027344-.027344c-.019531 0-.019531 0-.019531 0-11.140626 2.859375-23.179688-1.058594-30.417969-10.398438-.019531.039063-.039063.058594-.0625.097657 0 .039062-.039063.0625-.058594.101562 0 .019531 0 .039063-.019531.058594-.21875.421875-.460938.820313-.71875 1.21875-.082032.140625-.179688.28125-.28125.421875-.179688.28125-.378906.539062-.582032.800781-.117187.179688-.257812.339844-.398437.5-.320313.378907-.660156.757813-1.019531 1.121094-.378906.378906-.78125.738281-1.199219 1.078125-.382813.320312-.78125.621094-1.179687.878906-.140626.121094-.28125.222656-.441407.300782-.039062.039062-.101562.082031-.140625.101562-.277344.179688-.578125.359375-.878906.5-.019531.019531-.058594.039062-.101562.058594-.320313.179687-.660157.339844-1 .480468-.199219.101563-.398438.199219-.597657.28125-.140625.058594-.28125.117188-.421875.160157-.058594.039062-.140625.058593-.199218.078125-.140626.058594-.300782.101562-.441407.160156 1.800781 10.617188 9.160157 19.039062 18.738281 22.597656zm0 0"/><path d="m250.558594 61.558594.0625.058594c9.601562-3.519532 17.039062-11.960938 18.820312-22.621094-.140625-.058594-.300781-.097656-.441406-.15625-.417969-.140625-.820312-.320313-1.21875-.523438-.679688-.277344-1.339844-.636718-1.980469-1.039062-.199219-.121094-.398437-.257813-.578125-.398438-.402344-.261718-.800781-.5625-1.183594-.882812-.417968-.339844-.816406-.699219-1.199218-1.078125-.359375-.359375-.699219-.738281-1.019532-1.121094-.121093-.140625-.238281-.277344-.339843-.417969-.257813-.339844-.5-.679687-.71875-1.019531-.0625-.082031-.121094-.140625-.160157-.222656-.179687-.277344-.359374-.578125-.5-.859375-.140624-.21875-.261718-.460938-.378906-.679688-7.300781 9.398438-19.441406 13.320313-30.621094 10.339844l.121094.117188c7.667969 4.722656 14.84375 11.679687 21.335938 20.503906zm0 0"/></g><path d="m250.621094 67.621094c-1.546875 0-3.066406-.601563-4.210938-1.726563-.226562-.222656-.496094-.523437-.683594-.78125-6.117187-8.3125-12.726562-14.6875-19.648437-18.949219-.363281-.222656-.703125-.484374-1.011719-.78125-1.972656-1.894531-2.476562-4.945312-1.132812-7.328124 1.339844-2.382813 4.066406-3.613282 6.710937-2.914063 9.03125 2.414063 18.585938-.816406 24.335938-8.222656 1.242187-1.601563 3.203125-2.464844 5.222656-2.300781 2.019531.164062 3.816406 1.335937 4.785156 3.113281.007813.015625.109375.199219.117188.214843.109375.171876.269531.46875.359375.652344.027344.050782.0625.109375.097656.164063.082031.113281.164062.226562.238281.34375.132813.210937.285157.417969.445313.628906.011718.011719.148437.179687.160156.195313.210938.253906.433594.507812.675781.746093.230469.230469.472657.449219.726563.652344.285156.238281.480468.386719.675781.515625.144531.09375.28125.191406.417969.296875.492187.308594.859375.503906 1.164062.628906.128906.054688.261719.113281.386719.175781.144531.070313.285156.144532.4375.195313.089844.03125.179687.0625.265625.09375.246094.085937.460938.167969.671875.253906 2.527344 1.097657 3.984375 3.777344 3.53125 6.496094-2.082031 12.453125-10.769531 22.898437-22.671875 27.261719-.675781.253906-1.371094.375-2.066406.375zm-4.835938-20.902344c2.269532 2.28125 4.484375 4.757812 6.636719 7.429688 4.59375-2.71875 8.125-6.941407 9.976563-11.921876-.207032-.128906-.429688-.285156-.648438-.449218-.53125-.355469-1.0625-.757813-1.578125-1.191406-.308594-.246094-.640625-.535157-.976563-.847657-3.945312 3.300781-8.527343 5.664063-13.410156 6.980469zm0 0" fill="#1c2d6b"/><path d="m153.585938 22.941406c0 9.355469-7.585938 16.941406-16.941407 16.941406s-16.941406-7.585937-16.941406-16.941406c0-9.355468 7.585937-16.9375 16.941406-16.9375s16.941407 7.582032 16.941407 16.9375zm0 0" fill="#4b67b0"/><path d="m136.644531 45.871094c-5.875 0-11.75-2.234375-16.222656-6.707032-8.941406-8.945312-8.941406-23.5 0-32.445312 4.335937-4.332031 10.09375-6.71875 16.222656-6.71875 6.128907 0 11.886719 2.386719 16.21875 6.71875 4.335938 4.332031 6.71875 10.089844 6.71875 16.21875s-2.386719 11.886719-6.71875 16.222656c-4.46875 4.476563-10.34375 6.710938-16.21875 6.710938zm0-33.867188c-2.921875 0-5.667969 1.136719-7.738281 3.203125-4.261719 4.265625-4.261719 11.207031 0 15.472657 4.265625 4.265624 11.207031 4.265624 15.472656 0 2.066406-2.066407 3.203125-4.8125 3.203125-7.738282 0-2.921875-1.136719-5.667968-3.203125-7.734375-2.0625-2.066406-4.8125-3.203125-7.734375-3.203125zm0 0" fill="#1c2d6b"/><path d="m291.761719 22.941406c0 9.355469-7.585938 16.941406-16.941407 16.941406-9.355468 0-16.9375-7.585937-16.9375-16.941406 0-9.355468 7.582032-16.9375 16.9375-16.9375 9.355469 0 16.941407 7.582032 16.941407 16.9375zm0 0" fill="#4b67b0"/><path d="m274.820312 45.871094c-5.875 0-11.75-2.234375-16.21875-6.707032-4.335937-4.335937-6.71875-10.09375-6.71875-16.222656s2.382813-11.886718 6.714844-16.21875c4.332032-4.335937 10.09375-6.71874975 16.222656-6.71874975 6.125 0 11.886719 2.38671875 16.21875 6.71874975 8.945313 8.945313 8.945313 23.5 0 32.441406-4.46875 4.472657-10.34375 6.707032-16.21875 6.707032zm0-33.867188c-2.921874 0-5.667968 1.136719-7.734374 3.203125-2.066407 2.066407-3.203126 4.8125-3.203126 7.734375s1.136719 5.671875 3.203126 7.738282c4.265624 4.265624 11.203124 4.265624 15.472656 0 4.265625-4.265626 4.265625-11.207032 0-15.472657-2.066406-2.066406-4.816406-3.203125-7.738282-3.203125zm0 0" fill="#1c2d6b"/><path d="m274.652344 185.0625h-137.960938c-4.460937 0-8.753906-1.882812-11.785156-5.164062-3.007812-3.261719-4.53125-7.664063-4.175781-12.074219 6.535156-81.035157 42.257812-139.851563 84.941406-139.851563 42.6875 0 78.410156 58.816406 84.941406 139.851563.359375 4.410156-1.164062 8.8125-4.175781 12.074219-3.027344 3.28125-7.324219 5.164062-11.785156 5.164062zm-68.980469-145.09375c-35.683594 0-67.058594 55.378906-72.980469 128.820312-.117187 1.480469.597656 2.496094 1.039063 2.972657.449219.484375 1.429687 1.296875 2.964843 1.296875h137.957032c1.535156 0 2.515625-.816406 2.964844-1.296875.441406-.476563 1.15625-1.492188 1.039062-2.972657-5.921875-73.4375-37.296875-128.820312-72.984375-128.820312zm0 0" fill="#1c2d6b"/><path d="m177.683594 168.304688c2.175781-76.160157 13.878906-134.335938 27.988281-134.335938-40.320313 0-73.746094 58.175781-79.964844 134.335938-.472656 5.800781 4.214844 10.757812 10.109375 10.757812h45.40625c-2.0625 0-3.703125-4.957031-3.539062-10.757812zm0 0" fill="#ef7f72"/><path d="m285.640625 168.304688c-6.21875-76.160157-39.644531-134.335938-79.964844-134.335938 14.109375 0 25.8125 58.175781 27.988281 134.335938.164063 5.800781-1.476562 10.757812-3.539062 10.757812h45.40625c5.894531 0 10.582031-4.957031 10.109375-10.757812zm0 0" fill="#e8383b"/><path d="m233.660156 168.304688c-2.175781-76.160157-13.875-134.335938-27.988281-134.335938-14.109375 0-25.8125 58.175781-27.988281 134.335938-.164063 5.800781 1.476562 10.757812 3.539062 10.757812h48.902344c2.0625 0 3.703125-4.957031 3.535156-10.757812zm0 0" fill="#e95947"/><path d="m275.53125 185.0625h-139.714844c-4.527344 0-8.875-1.902344-11.929687-5.214844-3-3.257812-4.519531-7.644531-4.160157-12.03125 6.617188-81.03125 42.761719-139.84375 85.945313-139.84375 43.1875 0 79.332031 58.8125 85.949219 139.84375.359375 4.386719-1.15625 8.773438-4.160156 12.03125-3.058594 3.3125-7.402344 5.214844-11.929688 5.214844zm-69.859375-145.09375c-36.179687 0-67.988281 55.382812-73.984375 128.824219-.117188 1.445312.589844 2.449219 1.023438 2.917969.464843.503906 1.484374 1.351562 3.105468 1.351562h139.714844c1.617188 0 2.640625-.847656 3.105469-1.351562.433593-.46875 1.140625-1.472657 1.023437-2.917969-5.996094-73.441407-37.804687-128.824219-73.988281-128.824219zm0 0" fill="#1c2d6b"/><path d="m160.757812 67.601562c-.699218 0-1.40625-.125-2.085937-.378906-11.820313-4.390625-20.464844-14.820312-22.566406-27.21875-.460938-2.722656.996093-5.410156 3.53125-6.507812.214843-.09375.445312-.179688.675781-.257813.085938-.03125.167969-.0625.253906-.089843.15625-.050782.292969-.125.441406-.199219.125-.0625.253907-.121094.386719-.171875.300781-.128906.667969-.324219 1.085938-.582032.132812-.105468.351562-.253906.492187-.34375.195313-.128906.390625-.277343.578125-.4375.351563-.28125.59375-.503906.828125-.734374.238282-.238282.460938-.492188.675782-.746094l.011718.011718c.070313-.097656.136719-.199218.210938-.292968.109375-.140625.207031-.257813.292968-.386719.046876-.078125.113282-.175781.167969-.25l-.042969.085937c.054688-.097656.113282-.191406.171876-.285156.117187-.179687.230468-.359375.332031-.546875.109375-.234375.234375-.460937.371093-.675781.0625-.109375.125-.210938.183594-.300781 1.070313-1.613281 2.847656-2.613281 4.78125-2.683594 1.910156-.09375 3.78125.789063 4.96875 2.320313 5.683594 7.335937 15.191406 10.578124 24.207032 8.261718 2.640624-.675781 5.398437.507813 6.726562 2.882813s.890625 5.351562-1.066406 7.242187c-.3125.304688-.6875.597656-1.058594.828125-6.949219 4.261719-13.582031 10.660157-19.71875 19.011719-1.152344 1.566406-2.964844 2.445312-4.835938 2.445312zm-11.683593-25.378906c1.847656 4.949219 5.347656 9.152344 9.886719 11.882813 2.152343-2.667969 4.367187-5.144531 6.636718-7.421875-4.855468-1.324219-9.410156-3.679688-13.324218-6.953125-.347657.324219-.707032.632812-1.078126.933593-.433593.367188-.953124.757813-1.488281 1.117188-.203125.152344-.417969.296875-.632812.441406zm-8.945313-8.910156c-.003906 0-.007812 0-.007812 0zm.007813-.003906c-.003907 0-.003907.003906-.007813.003906.003906 0 .003906-.003906.007813-.003906zm.050781-.023438c-.015625.007813-.035156.015625-.050781.023438.015625-.007813.03125-.015625.050781-.023438zm6-2.480468 2.664062 2.050781.042969-.03125-2.414062-2.015625zm-1.117188-.863282.585938.453125c.003906-.085937.011719-.171875.019531-.253906l-.464843-.390625c-.050782.058594-.097657.125-.140626.191406zm-.011718.019532s-.003906 0-.003906.003906c0 0 0-.003906.003906-.003906zm2.332031-3.398438s0 .003906-.003906.003906c.003906 0 .003906 0 .003906-.003906zm.007813-.003906s-.003907.003906-.003907.003906.003907-.003906.003907-.003906zm0 0" fill="#1c2d6b"/><path d="m265.671875 179.0625h-43.832031c6.535156 0 11.832031 5.296875 11.832031 11.832031v96.335938c0 6.535156-5.296875 11.832031-11.832031 11.832031h43.832031c11.046875 0 20-8.953125 20-20v-80c0-11.046875-8.953125-20-20-20zm0 0" fill="#e8383b"/><path d="m177.671875 287.226562v-96.335937c0-6.53125 5.300781-11.832031 11.832031-11.832031h-43.832031c-11.042969 0-20 8.957031-20 20v80c0 11.046875 8.957031 20 20 20h43.832031c-6.53125.003906-11.832031-5.292969-11.832031-11.832032zm0 0" fill="#ef7f72"/><path d="m233.671875 287.226562v-96.335937c0-6.53125-5.296875-11.832031-11.832031-11.832031h-32.335938c-6.53125 0-11.832031 5.300781-11.832031 11.832031v96.335937c0 6.535157 5.300781 11.832032 11.832031 11.832032h32.335938c6.539062.003906 11.832031-5.292969 11.832031-11.832032zm0 0" fill="#e95947"/><path d="m177.671875 341.3125v-24.503906c0-9.800782 7.945313-17.75 17.75-17.75h-39.75c-16.566406 0-30 13.433594-30 30 0 16.570312 13.433594 30 30 30h39.75c-9.804687.003906-17.75-7.945313-17.75-17.746094zm0 0" fill="#ef7f72"/><path d="m255.671875 299.0625h-39.746094c9.800781 0 17.746094 7.945312 17.746094 17.746094v24.503906c0 9.804688-7.945313 17.75-17.746094 17.75h39.746094c16.570313 0 30-13.433594 30-30 0-16.570312-13.429687-30-30-30zm0 0" fill="#e8383b"/><path d="m233.671875 341.3125v-24.503906c0-9.800782-7.945313-17.75-17.746094-17.75h-20.503906c-9.804687 0-17.75 7.949218-17.75 17.75v24.503906c0 9.800781 7.945313 17.746094 17.75 17.746094h20.503906c9.800781.003906 17.746094-7.945313 17.746094-17.746094zm0 0" fill="#e95947"/><path d="m169.609375 393.121094 7.957031-27.238282c1.238282-4.242187 3.011719-6.667968 4.871094-6.667968h-47.621094c-5.691406 0-11.113281 2.425781-14.894531 6.667968l-24.3125 27.238282c29.167969 26.148437 67.71875 42.078125 110 42.09375-13.839844-.015625-26.453125-15.945313-36-42.09375zm0 0" fill="#ef7f72"/><path d="m315.609375 393.230469-24.410156-27.347657c-3.785157-4.242187-9.203125-6.667968-14.890625-6.667968h-47.5625c1.863281 0 3.636718 2.425781 4.875 6.667968l7.988281 27.347657c-9.542969 26.089843-22.144531 41.976562-35.96875 41.984375h.03125c42.25 0 80.769531-15.890625 109.9375-41.984375zm0 0" fill="#e8383b"/><path d="m241.609375 393.230469-7.988281-27.347657c-1.238282-4.242187-3.011719-6.667968-4.875-6.667968h-46.304688c-1.863281 0-3.636718 2.425781-4.875 6.667968l-7.957031 27.238282c9.546875 26.148437 22.164063 42.078125 36 42.09375h.035156c13.820313-.007813 26.421875-15.894532 35.964844-41.984375zm0 0" fill="#e95947"/><path d="m265.671875 305.0625h-120c-14.335937 0-26-11.664062-26-26v-80c0-14.335938 11.664063-26 26-26h120c14.335937 0 26 11.664062 26 26v80c0 14.335938-11.660156 26-26 26zm-120-120c-7.71875 0-14 6.28125-14 14v80c0 7.71875 6.28125 14 14 14h120c7.722656 0 14-6.28125 14-14v-80c0-7.71875-6.277344-14-14-14zm0 0" fill="#1c2d6b"/><path d="m255.671875 365.0625h-100c-19.847656 0-36-16.152344-36-36 0-19.851562 16.152344-36 36-36h100c19.851563 0 36 16.148438 36 36 0 19.847656-16.148437 36-36 36zm-100-60c-13.234375 0-24 10.765625-24 24s10.765625 24 24 24h100c13.234375 0 24-10.765625 24-24s-10.765625-24-24-24zm0 0" fill="#1c2d6b"/><path d="m205.671875 441.214844c-42.175781 0-82.6875-15.496094-114.066406-43.625-2.464844-2.210938-2.675781-5.996094-.472657-8.464844l24.308594-27.238281c4.921875-5.511719 11.980469-8.671875 19.375-8.671875h141.492188c7.386718 0 14.449218 3.160156 19.367187 8.671875l24.410157 27.347656c2.203124 2.46875 1.992187 6.257813-.476563 8.464844-31.363281 28.0625-71.828125 43.515625-113.9375 43.515625zm-101.523437-48.648438c28.492187 23.675782 64.3125 36.648438 101.523437 36.648438 37.152344 0 72.921875-12.933594 101.394531-36.542969l-20.339844-22.792969c-2.648437-2.964844-6.445312-4.664062-10.417968-4.664062h-141.492188c-3.976562 0-7.777344 1.699218-10.417968 4.664062zm0 0" fill="#1c2d6b"/><path d="m359.8125 58.515625c-7.664062 38.535156-40.867188 67.867187-81.230469 69.589844 2.402344 10.625 4.242188 21.867187 5.441407 33.578125 43.539062-4.597656 77.464843-41.421875 77.464843-86.175782 0-5.816406-.582031-11.496093-1.675781-16.992187zm0 0" fill="#e95947"/><path d="m51.574219 58.515625c7.664062 38.535156 40.867187 67.867187 81.230469 69.589844-2.402344 10.625-4.242188 21.867187-5.441407 33.578125-43.539062-4.597656-77.464843-41.421875-77.464843-86.175782 0-5.816406.582031-11.496093 1.675781-16.992187zm0 0" fill="#e95947"/><path d="m284.023438 167.683594c-1.371094 0-2.707032-.472656-3.78125-1.339844-1.238282-1.003906-2.027344-2.464844-2.1875-4.050781-1.160157-11.296875-2.949219-22.351563-5.328126-32.863281-.390624-1.734376.007813-3.554688 1.085938-4.96875 1.082031-1.414063 2.734375-2.273438 4.511719-2.347657 37.246093-1.59375 68.335937-28.226562 75.601562-64.769531.558594-2.808594 3.019531-4.828125 5.882813-4.828125 2.863281 0 5.328125 2.019531 5.882812 4.828125 1.191406 5.976562 1.792969 12.089844 1.792969 18.164062 0 47.542969-35.613281 87.15625-82.832031 92.140626-.210938.023437-.417969.035156-.628906.035156zm1.84375-34.148438c1.386718 6.949219 2.535156 14.089844 3.425781 21.339844 33.59375-6.042969 59.375-32.476562 65.035156-65.609375-14.472656 24.1875-39.511719 40.851563-68.460937 44.269531zm0 0" fill="#1c2d6b"/><path d="m348.671875 71.054688c-4.125-12.660157-5.332031-30.847657-3.644531-46.777344l-18.273438-18.277344c-17.964844 17.964844-17.964844 47.089844 0 65.054688 8.980469 8.980468 20.753906 13.472656 32.523438 13.472656-3.839844 0-7.675782-4.492188-10.605469-13.472656zm0 0" fill="#ef7f72"/><path d="m391.804688 6.003906-18.277344 18.273438c1.691406 15.933594.484375 34.121094-3.640625 46.777344-2.929688 8.984374-6.769531 13.476562-10.609375 13.476562 11.773437 0 23.546875-4.492188 32.527344-13.476562 17.964843-17.960938 17.964843-47.089844 0-65.050782zm0 0" fill="#e8383b"/><path d="m369.886719 71.054688c4.125-12.660157 5.332031-30.847657 3.640625-46.777344l-14.25 14.25-14.25-14.25c-1.6875 15.929687-.480469 34.117187 3.644531 46.777344 2.929687 8.980468 6.769531 13.472656 10.605469 13.472656 3.839844 0 7.679687-4.492188 10.609375-13.472656zm0 0" fill="#e95947"/><path d="m359.277344 90.527344c-13.886719 0-26.945313-5.40625-36.769532-15.230469-20.273437-20.273437-20.273437-53.261719 0-73.535156 2.34375-2.347657 6.144532-2.34375 8.484376 0l28.285156 28.28125 28.285156-28.28125c2.34375-2.347657 6.140625-2.34375 8.484375 0 9.820313 9.820312 15.230469 22.878906 15.230469 36.769531s-5.410156 26.945312-15.230469 36.769531c-9.820313 9.820313-22.878906 15.226563-36.769531 15.226563zm-32.207032-75.722656c-11.539062 15.644531-10.230468 37.851562 3.925782 52.007812 7.554687 7.554688 17.597656 11.714844 28.28125 11.714844 10.6875 0 20.730468-4.160156 28.285156-11.714844s11.714844-17.601562 11.714844-28.285156c0-8.65625-2.730469-16.894532-7.785156-23.730469l-27.972657 27.972656c-2.339843 2.34375-6.140625 2.339844-8.484375 0zm0 0" fill="#1c2d6b"/><path d="m127.363281 167.683594c-.207031 0-.421875-.011719-.628906-.035156-47.226563-4.988282-82.835937-44.597657-82.835937-92.140626 0-6.074218.601562-12.1875 1.792968-18.164062.558594-2.808594 3.023438-4.828125 5.882813-4.828125 2.863281 0 5.328125 2.019531 5.886719 4.828125 7.265624 36.542969 38.351562 63.175781 75.601562 64.769531 1.777344.074219 3.429688.933594 4.507812 2.347657 1.082032 1.414062 1.480469 3.234374 1.085938 4.96875-2.375 10.511718-4.167969 21.566406-5.324219 32.863281-.164062 1.585937-.949219 3.042969-2.1875 4.050781-1.074219.867188-2.410156 1.339844-3.78125 1.339844zm-70.304687-78.417969c5.660156 33.132813 31.441406 59.570313 65.035156 65.609375.890625-7.25 2.039062-14.390625 3.421875-21.339844-28.945313-3.417968-53.984375-20.082031-68.457031-44.269531zm0 0" fill="#1c2d6b"/><path d="m62.714844 71.054688c4.125-12.660157 5.332031-30.847657 3.640625-46.777344l18.277343-18.277344c17.964844 17.964844 17.964844 47.089844 0 65.054688-8.980468 8.980468-20.753906 13.472656-32.527343 13.472656 3.839843 0 7.679687-4.492188 10.609375-13.472656zm0 0" fill="#ef7f72"/><path d="m19.582031 6.003906 18.273438 18.273438c-1.6875 15.933594-.484375 34.121094 3.644531 46.777344 2.929688 8.984374 6.769531 13.476562 10.605469 13.476562-11.769531 0-23.542969-4.492188-32.523438-13.476562-17.964843-17.960938-17.964843-47.089844 0-65.050782zm0 0" fill="#e8383b"/><path d="m41.5 71.054688c-4.128906-12.660157-5.332031-30.847657-3.644531-46.777344l14.25 14.25 14.25-14.25c1.691406 15.929687.484375 34.117187-3.640625 46.777344-2.929688 8.980468-6.769532 13.472656-10.609375 13.472656-3.835938 0-7.675781-4.492188-10.605469-13.472656zm0 0" fill="#e95947"/><path d="m52.105469 90.527344c-13.886719 0-26.945313-5.40625-36.765625-15.230469-9.824219-9.820313-15.234375-22.875-15.234375-36.769531 0-13.890625 5.410156-26.949219 15.234375-36.769532 2.339844-2.34375 6.144531-2.34375 8.484375 0l28.28125 28.285157 28.289062-28.285157c2.339844-2.34375 6.140625-2.34375 8.484375 0 20.273438 20.273438 20.273438 53.261719 0 73.539063-9.824218 9.824219-22.882812 15.230469-36.773437 15.230469zm-32.210938-75.726563c-5.054687 6.832031-7.789062 15.070313-7.789062 23.726563 0 10.683594 4.164062 20.730468 11.71875 28.285156 7.554687 7.554688 17.597656 11.714844 28.28125 11.714844 10.683593 0 20.730469-4.160156 28.289062-11.714844 14.152344-14.15625 15.460938-36.363281 3.921875-52.007812l-27.96875 27.96875c-2.339844 2.339843-6.144531 2.339843-8.484375 0zm0 0" fill="#1c2d6b"/><path d="m64.0625 161.683594h-7.046875v8c.003906 37.921875 30.75 68.664062 68.671875 68.660156l-.003906-38.335938c-27.03125.003907-50.421875-15.617187-61.621094-38.324218zm0 0" fill="#e95947"/><path d="m347.316406 161.683594c-11.199218 22.710937-34.582031 38.335937-61.617187 38.339844l.003906 38.332031c37.925781-.003907 68.664063-30.75 68.660156-68.671875v-8zm0 0" fill="#e95947"/><path d="m125.691406 244.347656c-41.171875 0-74.667968-33.496094-74.667968-74.664062v-8c0-1.59375.632812-3.121094 1.757812-4.246094s2.652344-1.753906 4.242188-1.753906h7.046874c2.285157 0 4.371094 1.296875 5.378907 3.34375 10.644531 21.582031 32.195312 34.988281 56.242187 34.988281 3.3125 0 6 2.683594 6 6v38.332031c0 3.3125-2.6875 6-6 6zm-62.621094-72.292968c1.175782 31.453124 25.644532 57.054687 56.621094 60.007812v-26.285156c-23.261718-1.828125-44.011718-14.234375-56.621094-33.722656zm0 0" fill="#1c2d6b"/><path d="m285.703125 244.347656c-3.3125 0-6-2.6875-6-6v-38.332031c0-3.316406 2.6875-6 6-6 24.046875 0 45.597656-13.40625 56.242187-34.988281 1.007813-2.046875 3.09375-3.34375 5.378907-3.34375h7.046875c1.59375 0 3.117187.628906 4.242187 1.753906 1.128907 1.125 1.757813 2.652344 1.757813 4.246094v8c0 41.171875-33.492188 74.664062-74.667969 74.664062zm6-38.566406v26.28125c30.980469-2.953125 55.449219-28.550781 56.625-60.007812-12.609375 19.484374-33.363281 31.894531-56.625 33.726562zm0 0" fill="#1c2d6b"/><path d="m350.601562 343.035156-12.667968-.007812c-2.5625 0-4.839844-1.628906-5.671875-4.054688-7.703125-22.476562-27.902344-38.894531-51.449219-41.832031-2.132812-.265625-3.957031-1.652344-4.789062-3.632813-.832032-1.984374-.539063-4.257812.765624-5.964843 1.886719-2.472657 2.886719-5.402344 2.886719-8.480469v-18.589844c0-1.648437.675781-3.21875 1.875-4.351562 1.191407-1.136719 2.792969-1.726563 4.445313-1.636719 39.59375 2.125 70.609375 34.871094 70.609375 74.550781v8c0 1.59375-.632813 3.117188-1.757813 4.246094-1.128906 1.121094-2.65625 1.753906-4.246094 1.753906zm-8.515624-12.007812 2.515624.003906v-2c0-31.160156-22.785156-57.222656-52.929687-61.910156v11.9375c0 2.640625-.390625 5.21875-1.15625 7.675781 23.082031 5.613281 42.5 22.1875 51.570313 44.292969zm0 0" fill="#1c2d6b"/><path d="m60.773438 343.042969c-1.589844 0-3.113282-.632813-4.242188-1.753907-1.125-1.128906-1.757812-2.65625-1.757812-4.246093v-8c0-39.675781 31-72.429688 70.578124-74.566407 1.628907-.097656 3.253907.503907 4.449219 1.636719 1.195313 1.132813 1.875 2.707031 1.875 4.355469v18.59375c0 3.078125.996094 6.007812 2.886719 8.480469 1.304688 1.707031 1.597656 3.980469.765625 5.960937-.832031 1.980469-2.65625 3.371094-4.789063 3.636719-23.542968 2.941406-43.726562 19.363281-51.429687 41.828125-.832031 2.421875-3.105469 4.050781-5.667969 4.054688l-12.660156.019531c-.003906 0-.003906 0-.007812 0zm58.898437-75.921875c-30.128906 4.699218-52.898437 30.765625-52.898437 61.921875v1.992187l2.503906-.003906c9.070312-22.101562 28.476562-38.675781 51.550781-44.289062-.761719-2.460938-1.15625-5.042969-1.15625-7.679688zm0 0" fill="#1c2d6b"/></svg>