<svg height="475pt" viewBox="-8 0 475 475.736" width="475pt" xmlns="http://www.w3.org/2000/svg"><path d="m304.507812 456.675781 13.054688 13.058594-4.125-13.058594c-4.5625-14.421875-4.5625-37.808593 0-52.234375l4.125-13.058594-13.054688 13.058594c-14.425781 14.425782-14.425781 37.8125 0 52.234375zm0 0" fill="#e8383b"/><path d="m321.691406 456.675781-4.128906 13.058594 13.058594-13.058594c14.425781-14.421875 14.425781-37.808593 0-52.234375l-13.058594-13.058594 4.128906 13.058594c4.5625 14.425782 4.5625 37.8125 0 52.234375zm0 0" fill="#ef7f72"/><path d="m313.433594 456.675781 4.128906 13.058594 4.128906-13.058594c4.558594-14.421875 4.558594-37.808593 0-52.234375l-4.128906-13.058594-4.128906 13.058594c-4.558594 14.425782-4.558594 37.8125 0 52.234375zm0 0" fill="#e95947"/><path d="m317.5625 475.734375c-1.535156 0-3.070312-.585937-4.242188-1.757813l-13.054687-13.054687c-16.738281-16.742187-16.738281-43.980469 0-60.71875l13.054687-13.058594c2.34375-2.34375 6.140626-2.34375 8.484376 0l13.058593 13.058594c8.109375 8.105469 12.578125 18.890625 12.578125 30.359375s-4.46875 22.25-12.578125 30.359375l-13.058593 13.054687c-1.171876 1.171876-2.707032 1.757813-4.242188 1.757813zm0-75.863281-8.816406 8.816406c-12.054688 12.058594-12.054688 31.6875 0 43.75l8.816406 8.816406 8.816406-8.816406c12.0625-12.0625 12.0625-31.691406 0-43.75zm0 0" fill="#1c2d6b"/><path d="m252.273438 404.445312-13.058594-13.058593 13.058594 4.128906c14.421874 4.558594 37.808593 4.558594 52.234374 0l13.054688-4.128906-13.054688 13.058593c-14.425781 14.421876-37.8125 14.421876-52.234374 0zm0 0" fill="#e8383b"/><path d="m252.273438 387.257812-13.058594 4.125 13.058594-13.058593c14.421874-14.421875 37.808593-14.421875 52.234374 0l13.054688 13.058593-13.054688-4.125c-14.425781-4.5625-37.8125-4.5625-52.234374 0zm0 0" fill="#ef7f72"/><path d="m252.273438 395.515625-13.058594-4.128906 13.058594-4.128907c14.421874-4.558593 37.808593-4.558593 52.234374 0l13.054688 4.128907-13.054688 4.128906c-14.425781 4.558594-37.8125 4.558594-52.234374 0zm0 0" fill="#e95947"/><path d="m278.386719 421.242188c-10.992188 0-21.988281-4.1875-30.355469-12.554688l-13.058594-13.058594c-1.125-1.125-1.757812-2.652344-1.757812-4.242187 0-1.59375.632812-3.117188 1.757812-4.246094l13.058594-13.054687c16.738281-16.742188 43.976562-16.738282 60.714844 0l13.058594 13.054687c1.125 1.128906 1.757812 2.652344 1.757812 4.246094 0 1.589843-.632812 3.117187-1.757812 4.242187l-13.058594 13.058594c-8.367188 8.367188-19.363282 12.554688-30.359375 12.554688zm-30.6875-29.859376 8.816406 8.816407c12.058594 12.0625 31.683594 12.058593 43.746094 0l8.8125-8.816407-8.8125-8.8125c-12.058594-12.058593-31.683594-12.0625-43.746094 0zm0 0" fill="#1c2d6b"/><path d="m140.035156 48.335938h-73.332031c0 60.382812 48.949219 109.332031 109.332031 109.332031-19.882812 0-36-48.949219-36-109.332031zm0 0" fill="#ffeca7"/><path d="m212.035156 48.335938c0 60.382812-16.121094 109.332031-36 109.332031 60.382813 0 109.332032-48.949219 109.332032-109.332031zm0 0" fill="#d3ba2a"/><path d="m212.035156 48.335938h-72c0 60.382812 16.117188 109.332031 36 109.332031 19.878906 0 36-48.949219 36-109.332031zm0 0" fill="#eee045"/><path d="m272.820312 99.179688c.066407-.125.132813-.253907.199219-.382813-.070312.128906-.132812.257813-.199219.382813zm0 0" fill="#e95947"/><path d="m266.082031 110.328125c.003907-.003906.003907-.003906.003907-.007813 0 .003907-.003907.003907-.003907.007813zm0 0" fill="#e95947"/><path d="m275.621094 93.449219c.097656-.21875.195312-.433594.292968-.65625-.097656.21875-.195312.4375-.292968.65625zm0 0" fill="#e95947"/><path d="m261.933594 115.929688c.160156-.199219.3125-.398438.46875-.601563-.15625.203125-.308594.402344-.46875.601563zm0 0" fill="#e95947"/><path d="m257.890625 120.78125c.113281-.128906.21875-.253906.328125-.382812-.109375.125-.214844.253906-.328125.382812zm0 0" fill="#e95947"/><path d="m452.367188 228.335938c0-91.566407-73.847657-179.191407-165.230469-179.964844v-.035156h-1.769531c0 13.597656-2.5 26.605468-7.039063 38.613281 105.863281 13.75 146.09375 97.933593 141.707031 166.339843-3.210937 50.058594-42.027344 123.234376-96.113281 136.765626 74.128906-16.824219 128.445313-82.425782 128.445313-161.71875zm0 0" fill="#e8383b"/><path d="m388.523438 288.761719c10.535156-74.03125-39.984376-142.628907-113.296876-154.972657l.011719-.085937-26.464843-3.765625c-19.328126 17.238281-44.804688 27.730469-72.742188 27.730469h46.335938v.089843c74.324218 1.890626 134 62.6875 134 137.460938 0 37.808594-14.113282 71.304688-38.804688 96.167969 27.945312-21.140625 65.636719-65.195313 70.960938-102.625zm0 0" fill="#ef7f72"/><path d="m323.921875 390.054688c-2.109375.476562-4.222656.929687-6.359375 1.328124 2.144531-.339843 4.257812-.804687 6.359375-1.328124zm0 0" fill="#f0f"/><path d="m258.222656 120.398438c1.273438-1.457032 2.511719-2.945313 3.714844-4.46875-1.203125 1.523437-2.441406 3.011718-3.714844 4.46875zm0 0" fill="#f0f"/><path d="m262.402344 115.332031c1.273437-1.632812 2.5-3.296875 3.675781-5.003906-1.175781 1.707031-2.402344 3.371094-3.675781 5.003906zm0 0" fill="#f0f"/><path d="m278.328125 86.949219c-.742187 1.980469-1.554687 3.921875-2.414063 5.84375.859376-1.921875 1.671876-3.863281 2.414063-5.84375zm0 0" fill="#f0f"/><path d="m257.890625 120.78125c-2.859375 3.226562-5.902344 6.285156-9.117187 9.15625 3.21875-2.871094 6.257812-5.929688 9.117187-9.15625zm0 0" fill="#f0f"/><path d="m266.085938 110.320312c2.457031-3.5625 4.703124-7.285156 6.734374-11.140624-2.027343 3.855468-4.277343 7.578124-6.734374 11.140624zm0 0" fill="#f0f"/><path d="m273.015625 98.800781c.917969-1.757812 1.78125-3.542969 2.605469-5.351562-.820313 1.808593-1.6875 3.59375-2.605469 5.351562zm0 0" fill="#f0f"/><path d="m420.035156 253.292969c4.386719-68.410157-35.84375-152.589844-141.707031-166.339844-.746094 1.976563-1.554687 3.921875-2.414063 5.84375-.097656.21875-.195312.433594-.292968.652344-.824219 1.8125-1.6875 3.597656-2.605469 5.351562-.066406.128907-.128906.257813-.195313.382813-2.03125 3.855468-4.277343 7.578125-6.734374 11.140625-.003907.003906-.003907.003906-.007813.007812-1.175781 1.707031-2.40625 3.371094-3.675781 5.003907-.15625.199218-.3125.398437-.46875.601562-1.199219 1.519531-2.4375 3.011719-3.714844 4.464844-.109375.128906-.214844.257812-.328125.382812-2.859375 3.230469-5.902344 6.285156-9.117187 9.15625l26.464843 3.765625-.011719.089844c73.316407 12.339844 123.832032 80.9375 113.300782 154.96875-5.328125 37.429687-43.015625 81.488281-70.960938 102.625 2.136719-.398437 4.25-.851563 6.355469-1.332031 54.085937-13.535156 92.902344-86.710938 96.113281-136.765625zm0 0" fill="#e95947"/><g fill="#1c2d6b"><path d="m176.035156 163.667969c-63.597656 0-115.335937-51.738281-115.335937-115.332031 0-3.316407 2.6875-6 6-6h218.667969c3.316406 0 6 2.683593 6 6 0 63.59375-51.738282 115.332031-115.332032 115.332031zm-103.164062-109.332031c3.121094 54.195312 48.199218 97.332031 103.164062 97.332031 54.960938 0 100.042969-43.136719 103.160156-97.332031zm0 0"/><path d="m317.5625 397.382812c-2.191406 0-4.25-1.203124-5.300781-3.191406-1.226563-2.320312-.804688-5.171875 1.042969-7.035156 24.246093-24.417969 37.0625-56.210938 37.0625-91.9375 0-34.542969-13.289063-67.167969-37.421876-91.871094-24.085937-24.65625-56.308593-38.71875-90.730468-39.59375-.300782-.007812-.597656-.039062-.886719-.089844h-45.292969c-3.3125 0-6-2.683593-6-6 0-3.3125 2.6875-6 6-6 56.976563.003907 103.332032-46.351562 103.332032-103.328124 0-3.316407 2.6875-6 6-6h1.769531c.246093 0 .488281.011718.726562.042968 44.941407.582032 87.757813 21.136719 120.628907 57.929688 31.699218 35.472656 49.875 82.136718 49.875 128.027344 0 40.570312-14.128907 79.828124-39.785157 110.542968-25.378906 30.382813-60.867187 51.125-99.921875 58.402344-.363281.070312-.734375.101562-1.097656.101562zm-90.851562-245.457031c35.984374 1.949219 69.515624 17.132813 94.820312 43.039063 26.332031 26.957031 40.835938 62.5625 40.835938 100.253906 0 31.722656-9.824219 61.566406-27.976563 85.835938 29.171875-9.042969 55.335937-26.347657 74.984375-49.867188 23.855469-28.558594 36.992188-65.085938 36.992188-102.851562 0-90.460938-72.039063-170.601563-155.160157-173.867188-2.253906 42.816406-27.964843 79.515625-64.496093 97.457031zm0 0"/><path d="m291.285156 183.875-1.402344-11.917969c45.761719-5.390625 82.710938-40.941406 89.855469-86.457031l11.855469 1.863281c-7.976562 50.808594-49.222656 90.496094-100.308594 96.511719zm0 0"/><path d="m343.035156 239.339844v-12c40.203125 0 77.058594-23.601563 93.894532-60.125l10.894531 5.023437c-18.785157 40.765625-59.921875 67.101563-104.789063 67.101563zm0 0"/><path d="m369.035156 318.53125c-4.808594 0-9.648437-.300781-14.390625-.890625l1.480469-11.90625c4.253906.53125 8.597656.796875 12.910156.796875 25.929688 0 50.722656-9.644531 69.816406-27.152344l8.109376 8.84375c-21.3125 19.546875-48.988282 30.308594-77.925782 30.308594zm0 0"/><path d="m34.535156 82.335938v-12c12.128906 0 22-9.871094 22-22h12c0 18.746093-15.25 34-34 34zm0 0"/><path d="m90.703125 54.335938h-36c-29.960937 0-54.335937-24.375-54.335937-54.335938h12c0 23.34375 18.992187 42.335938 42.335937 42.335938h36zm0 0"/><path d="m116.367188 104.167969c-11.027344 0-20-8.972657-20-20 0-11.027344 8.972656-20 20-20 11.027343 0 20 8.972656 20 20 0 11.027343-8.972657 20-20 20zm0-28c-4.410157 0-8 3.589843-8 8 0 4.410156 3.589843 8 8 8 4.414062 0 8-3.589844 8-8 0-4.410157-3.585938-8-8-8zm0 0"/></g></svg>