<svg height="436pt" viewBox="0 0 436.90827 436" width="436pt" xmlns="http://www.w3.org/2000/svg"><path d="m232.109375 7.28125h-27.308594c-60.320312 0-109.226562 48.902344-109.226562 109.226562v314.027344h245.761719v-314.027344c-.003907-60.324218-48.90625-109.226562-109.226563-109.226562" fill="#999"/><path d="m232.109375 7.28125v-6.828125h-27.308594c-64.09375.007813-116.050781 51.957031-116.054687 116.054687v314.027344c0 1.796875.730468 3.554688 2 4.828125 1.273437 1.269531 3.03125 1.996094 4.828125 1.996094h245.761719c1.796874 0 3.554687-.726563 4.824218-1.996094 1.273438-1.273437 2-3.03125 2-4.828125v-314.027344c-.003906-64.097656-51.957031-116.046874-116.050781-116.054687v13.65625c28.296875 0 53.855469 11.453125 72.40625 29.992187 18.539063 18.550782 29.988281 44.109376 29.992187 72.40625v307.203126h-232.105468v-307.203126c0-28.296874 11.449218-53.855468 29.992187-72.40625 18.550781-18.539062 44.109375-29.992187 72.40625-29.996093h27.308594z" fill="#54596e"/><path d="m266.238281 96.027344c-22.617187 0-40.957031 18.339844-40.957031 40.960937h-13.652344c0-22.621093-18.339844-40.960937-40.964844-40.960937-22.621093 0-40.960937 18.339844-40.960937 40.960937v286.71875h177.496094v-286.71875c0-22.621093-18.339844-40.960937-40.960938-40.960937" fill="#fff"/><path d="m177.492188 133.574219c0 5.65625-4.582032 10.238281-10.238282 10.238281s-10.238281-4.582031-10.238281-10.238281 4.582031-10.238281 10.238281-10.238281 10.238282 4.582031 10.238282 10.238281zm0 0" fill="#54596e"/><path d="m279.894531 133.574219c0 5.65625-4.585937 10.238281-10.242187 10.238281-5.652344 0-10.238282-4.582031-10.238282-10.238281s4.585938-10.238281 10.238282-10.238281c5.65625 0 10.242187 4.582031 10.242187 10.238281zm0 0" fill="#54596e"/><path d="m218.453125 130.160156-40.960937 34.132813h81.921874zm0 0" fill="#fff35f"/><path d="m218.453125 130.160156-4.371094-5.242187-40.957031 34.132812c-2.203125 1.832031-3.027344 4.871094-2.050781 7.566407.976562 2.695312 3.554687 4.503906 6.417969 4.503906h81.921874c2.867188 0 5.445313-1.808594 6.417969-4.503906.976563-2.695313.15625-5.734376-2.046875-7.566407l-40.960937-34.132812c-2.53125-2.113281-6.207031-2.113281-8.738281 0l4.367187 5.242187-4.371094 5.246094 26.476563 22.0625h-44.210938l26.476563-22.0625-4.371094-5.246094-4.371094 5.246094zm0 0" fill="#54596e"/><path d="m95.574219 260.25h-88.746094l88.746094-67.828125zm0 0" fill="#999"/><path d="m95.574219 260.25v-6.828125h-68.574219l61.746094-47.191406v54.019531h6.828125v-6.828125 6.828125h6.828125v-67.828125c0-2.59375-1.480469-4.972656-3.800782-6.121094-2.324218-1.148437-5.113281-.878906-7.171874.695313l-88.746094 67.828125c-2.328125 1.777343-3.261719 4.839843-2.324219 7.613281.941406 2.773438 3.542969 4.636719 6.46875 4.636719h88.746094c1.796875 0 3.554687-.726563 4.828125-1.996094 1.269531-1.273437 2-3.03125 2-4.828125zm0 0" fill="#54596e"/><path d="m341.335938 259.867188h88.746093l-88.746093-67.824219zm0 0" fill="#999"/><path d="m341.335938 259.867188v6.828124h88.746093c2.925781 0 5.527344-1.867187 6.464844-4.640624.9375-2.773438.003906-5.832032-2.320313-7.609376l-88.746093-67.828124c-2.058594-1.574219-4.847657-1.84375-7.171875-.695313-2.324219 1.148437-3.800782 3.527344-3.800782 6.121094v67.824219c0 1.796874.726563 3.554687 2 4.828124 1.269532 1.269532 3.027344 1.996094 4.828126 1.996094v-6.824218h6.824218v-54.019532l61.746094 47.191406h-68.570312v6.828126h6.824218zm0 0" fill="#54596e"/><path d="m102.402344 307.652344v116.058594h27.304687v-67.664063c-17.039062-13.070313-27.304687-29.957031-27.304687-48.394531m232.105468 0c0 18.4375-10.269531 35.324218-27.304687 48.394531v67.660156h27.304687z" fill="#929295"/><path d="m129.707031 356.046875v67.664063h177.492188v-67.664063c-21.289063 16.332031-53.140625 26.703125-88.746094 26.703125-35.601563 0-67.457031-10.375-88.746094-26.703125" fill="#eeeef0"/></svg>