<?xml version="1.0" encoding="iso-8859-1"?>
<!-- Generator: Adobe Illustrator 19.0.0, SVG Export Plug-In . SVG Version: 6.00 Build 0)  -->
<svg version="1.1" id="Capa_1" xmlns="http://www.w3.org/2000/svg" xmlns:xlink="http://www.w3.org/1999/xlink" x="0px" y="0px"
	 viewBox="0 0 512.001 512.001" style="enable-background:new 0 0 512.001 512.001;" xml:space="preserve">
<g>
	<path style="fill:#E22B71;" d="M329.026,328.208h-21.097c-4.261,0-7.715-3.454-7.715-7.715s3.454-7.715,7.715-7.715h21.097
		c4.261,0,7.715,3.454,7.715,7.715S333.287,328.208,329.026,328.208z"/>
	<path style="fill:#E22B71;" d="M325.056,380.315h-21.097c-4.261,0-7.715-3.454-7.715-7.715s3.454-7.715,7.715-7.715h21.097
		c4.261,0,7.715,3.454,7.715,7.715C332.77,376.861,329.316,380.315,325.056,380.315z"/>
	<path style="fill:#E22B71;" d="M204.073,328.208h-21.097c-4.261,0-7.715-3.454-7.715-7.715s3.454-7.715,7.715-7.715h21.097
		c4.261,0,7.715,3.454,7.715,7.715S208.334,328.208,204.073,328.208z"/>
	<path style="fill:#E22B71;" d="M208.044,380.315h-21.097c-4.261,0-7.715-3.454-7.715-7.715s3.454-7.715,7.715-7.715h21.097
		c4.261,0,7.715,3.454,7.715,7.715C215.758,376.861,212.304,380.315,208.044,380.315z"/>
	<path style="fill:#E22B71;" d="M205.763,263.978c-1.759,4.248-5.596,7.005-9.854,7.571c-2.088,0.278-4.269,0.021-6.347-0.833
		l-11.665-4.814l-47.296-19.493c-14.658-6.038-23.165-21.2-20.675-36.856l0.648-4.104l2.736-17.199
		c1.08-6.768,7.437-11.387,14.205-10.307c6.768,1.07,11.377,7.427,10.307,14.195l-1.903,11.983l-1.481,9.33
		c-0.679,4.259,1.636,8.373,5.616,10.019l40.435,16.674l18.526,7.632C205.351,250.39,208.376,257.642,205.763,263.978z"/>
</g>
<g>
	<path style="fill:#B70F5B;" d="M137.822,192.139l-1.903,11.983c-7.386,1.039-14.39,1.399-20.542,1.399c-0.01,0-0.01,0-0.01,0
		c-1.594,0-3.199-0.021-4.793-0.072l2.736-17.199c1.08-6.768,7.437-11.387,14.205-10.307
		C134.283,179.014,138.892,185.37,137.822,192.139z"/>
	<path style="fill:#B70F5B;" d="M205.763,263.978c-1.759,4.248-5.596,7.005-9.854,7.571c-2.088,0.278-4.269,0.021-6.347-0.833
		l-11.665-4.814c0.648-9.165,1.533-17.744,2.592-25.757l18.526,7.632C205.351,250.39,208.376,257.642,205.763,263.978z"/>
</g>
<path style="fill:#FE4080;" d="M200.702,124.373c-1.841,18.155-7.828,31.558-16.129,41.402c-3.024,3.61-6.367,6.748-9.926,9.463
	c-23.196,17.723-55.546,17.744-71.665,16.407c-5.832-0.483-10.461-5.092-11.047-10.914c-2.572-25.273-2.335-47.183-0.165-66.151
	c0.525-4.588,1.162-8.99,1.903-13.238c11.51-66.223,47.482-92.083,60.823-99.551c2.993-1.687,6.727-1.234,9.299,1.039
	c30.684,27.269,29.316,64.248,28.246,74.565c-0.185,1.759-0.967,3.395-2.181,4.68l-23.926,24.862
	c-6.378,6.635,0.483,17.353,9.175,14.349l15.039-5.215C195.621,114.179,201.288,118.602,200.702,124.373z"/>
<path style="fill:#E22B71;" d="M184.573,165.775c-3.024,3.61-6.367,6.748-9.926,9.463c-23.196,17.723-55.546,17.744-71.665,16.407
	c-5.832-0.483-10.461-5.092-11.047-10.914c-2.572-25.273-2.335-47.183-0.165-66.151c0.525-4.588,1.162-8.99,1.903-13.238
	C143.212,107.349,172.795,146.416,184.573,165.775z"/>
<path style="fill:#FF6EA6;" d="M91.931,180.733c0.586,5.816,5.221,10.432,11.047,10.908c16.119,1.34,48.477,1.32,71.673-16.407
	c-10.402-17.936-37.241-55.256-82.879-60.656C89.599,133.546,89.361,155.462,91.931,180.733z"/>
<path style="fill:#E22B71;" d="M381.401,246.409l-47.296,19.492l-11.665,4.814c-2.078,0.854-4.259,1.111-6.347,0.833
	c-4.259-0.566-8.095-3.322-9.854-7.571c-2.613-6.336,0.411-13.588,6.748-16.201l18.526-7.632l40.435-16.674
	c3.981-1.646,6.295-5.76,5.616-10.019l-1.481-9.33l-1.903-11.983c-1.07-6.768,3.538-13.125,10.307-14.195
	c6.768-1.08,13.125,3.538,14.205,10.307l2.736,17.199l0.648,4.104C404.566,225.209,396.059,240.371,381.401,246.409z"/>
<g>
	<path style="fill:#B70F5B;" d="M401.428,205.449c-1.594,0.051-3.199,0.072-4.793,0.072c-6.161,0-13.166-0.36-20.552-1.399
		l-1.903-11.983c-1.07-6.768,3.538-13.125,10.307-14.195c6.768-1.08,13.125,3.538,14.205,10.307L401.428,205.449z"/>
	<path style="fill:#B70F5B;" d="M334.105,265.902l-11.665,4.814c-2.078,0.854-4.259,1.111-6.347,0.833
		c-4.259-0.566-8.095-3.322-9.854-7.571c-2.613-6.336,0.411-13.588,6.748-16.201l18.526-7.632
		C332.572,248.158,333.457,256.737,334.105,265.902z"/>
</g>
<path style="fill:#FE4080;" d="M420.067,180.731c-0.586,5.822-5.215,10.43-11.047,10.914c-16.119,1.337-48.469,1.317-71.665-16.407
	c-3.559-2.716-6.902-5.853-9.926-9.463c-8.301-9.844-14.288-23.247-16.129-41.402c-0.586-5.77,5.081-10.194,10.554-8.301
	l15.039,5.215c8.692,3.004,15.553-7.715,9.175-14.349l-23.926-24.862c-1.214-1.286-1.996-2.921-2.181-4.68
	c-1.07-10.317-2.438-47.296,28.246-74.565c2.572-2.273,6.305-2.726,9.299-1.039c13.341,7.468,49.312,33.328,60.823,99.551
	c0.741,4.248,1.378,8.651,1.903,13.238C422.402,133.548,422.639,155.458,420.067,180.731z"/>
<path style="fill:#E22B71;" d="M420.067,180.731c-0.586,5.822-5.215,10.43-11.047,10.914c-16.119,1.337-48.469,1.317-71.665-16.407
	c-3.559-2.716-6.902-5.853-9.926-9.463c11.778-19.359,41.361-58.426,90.9-64.433c0.741,4.248,1.378,8.651,1.903,13.238
	C422.402,133.548,422.639,155.458,420.067,180.731z"/>
<path style="fill:#FF6EA6;" d="M420.071,180.733c-0.586,5.816-5.221,10.432-11.047,10.908c-16.119,1.34-48.477,1.32-71.673-16.407
	c10.402-17.936,37.241-55.256,82.879-60.656C422.403,133.546,422.641,155.462,420.071,180.733z"/>
<path style="fill:#FE4080;" d="M304.748,504.729c-11.572,11.572-32.834,9.062-47.502-5.596c-0.422-0.432-0.843-0.864-1.245-1.296
	c-0.401,0.432-0.823,0.864-1.245,1.296c-14.668,14.658-35.93,17.168-47.502,5.596c-11.572-11.572-9.072-32.844,5.596-47.512
	c0.782-0.782,1.584-1.533,2.407-2.242c12.745-11.109,29.45-13.732,40.744-6.779c11.294-6.954,27.999-4.33,40.744,6.779
	c0.823,0.71,1.625,1.461,2.407,2.242C313.82,471.885,316.32,493.157,304.748,504.729z"/>
<path style="fill:#E22B71;" d="M296.745,454.974l-0.288,2.191c-1.44,10.893-10.811,19.112-21.797,19.112h-37.319
	c-10.986,0-20.357-8.219-21.797-19.112l-0.288-2.191c12.745-11.109,29.45-13.732,40.744-6.779
	C267.295,441.242,284,443.865,296.745,454.974z"/>
<path style="fill:#FF6EA6;" d="M293.001,381.314l-2.798,21.118l-1.924,14.576l-2.047,15.429l-3.034,22.979
	c-0.566,4.289-4.217,7.488-8.538,7.488h-37.319c-4.32,0-7.972-3.199-8.538-7.488l-3.034-22.979l-2.047-15.429l-1.924-14.576
	l-2.797-21.118H293.001z"/>
<polygon style="fill:#E22B71;" points="293.001,381.314 290.203,402.432 221.799,402.432 219.001,381.314 "/>
<path style="fill:#FE4080;" d="M312.02,237.892l-5.39,76.767l-4.66,66.388c-0.319,4.516-4.073,8.013-8.589,8.013h-74.76
	c-4.516,0-8.27-3.497-8.589-8.013l-4.66-66.388l-5.39-76.767L312.02,237.892L312.02,237.892z"/>
<path style="fill:#E22B71;" d="M312.02,237.892l-5.39,76.767c-2.222,0.442-4.505,0.669-6.799,0.669
	c-19.328,0-35.045-15.717-35.045-35.045v-8.282c0-4.577-3.724-8.301-8.301-8.301h-0.967c-4.577,0-8.301,3.724-8.301,8.301v8.281
	c0,19.328-15.717,35.045-35.045,35.045c-2.294,0-4.577-0.226-6.799-0.669l-5.39-76.767H312.02V237.892z"/>
<path style="fill:#FE4080;" d="M321.484,279.366c-2.915-66.822-18.362-103.325-26.959-118.739
	c-3.099-5.557-9.001-8.964-15.364-8.964h-46.32c-6.363,0-12.264,3.407-15.364,8.964c-8.597,15.414-24.044,51.917-26.959,118.739
	c-0.537,12.314,9.329,22.589,21.655,22.589l0,0c11.968,0,21.671-9.702,21.671-21.671v-8.287c0-11.968,9.702-21.671,21.671-21.671
	h0.973c11.968,0,21.671,9.702,21.671,21.671v8.287c0,11.968,9.702,21.671,21.671,21.671l0,0
	C312.155,301.955,322.021,291.68,321.484,279.366z"/>
<g>
	<polygon style="fill:#E22B71;" points="288.279,417.007 286.232,432.437 225.77,432.437 223.723,417.007 	"/>
	<path style="fill:#E22B71;" d="M226.143,211.93c-4.261,0-7.715-3.454-7.715-7.715v-0.671c0-4.261,3.454-7.715,7.715-7.715
		s7.715,3.454,7.715,7.715v0.671C233.858,208.476,230.404,211.93,226.143,211.93z"/>
	<path style="fill:#E22B71;" d="M285.859,211.93c-4.261,0-7.715-3.454-7.715-7.715v-0.671c0-4.261,3.454-7.715,7.715-7.715
		s7.715,3.454,7.715,7.715v0.671C293.574,208.476,290.12,211.93,285.859,211.93z"/>
	<path style="fill:#E22B71;" d="M240.892,158.458c-0.411,0-0.827-0.033-1.246-0.1c-4.203-0.683-7.058-4.64-6.381-8.842l0,0
		c0.09-0.562,8.676-57.064-16.77-136.466c-1.3-4.058,0.935-8.401,4.992-9.701c4.06-1.303,8.401,0.935,9.701,4.992
		c26.66,83.19,17.704,141.208,17.309,143.637C247.882,155.766,244.608,158.458,240.892,158.458z"/>
	<path style="fill:#E22B71;" d="M264.751,159.377c-4.137,0-7.56-3.279-7.705-7.447c-0.122-3.492-2.794-86.221,13.108-146.19
		c1.092-4.118,5.316-6.573,9.434-5.48c4.119,1.092,6.572,5.316,5.48,9.434c-15.322,57.781-12.631,140.866-12.602,141.699
		c0.148,4.258-3.184,7.83-7.442,7.978C264.933,159.375,264.842,159.377,264.751,159.377z"/>
	<path style="fill:#E22B71;" d="M377.597,322.969c-2.094,0-4.182-0.848-5.704-2.518c-2.87-3.149-2.643-8.028,0.506-10.899
		l23.674-21.576c3.149-2.868,8.028-2.644,10.899,0.506c2.87,3.149,2.643,8.028-0.506,10.899l-23.674,21.576
		C381.313,322.304,379.452,322.969,377.597,322.969z"/>
</g>
<path style="fill:#FE4080;" d="M329.026,329.227v-17.943c0-4.385,3.555-7.941,7.941-7.941h37.831c4.385,0,7.941,3.555,7.941,7.941
	v12.809c0,3.727-2.592,6.952-6.231,7.754l-37.831,5.134C333.72,338.074,329.026,334.301,329.026,329.227z"/>
<path style="fill:#E22B71;" d="M373.627,375.076c-2.094,0-4.182-0.848-5.704-2.518c-2.87-3.149-2.643-8.028,0.506-10.899
	l23.674-21.576c3.149-2.869,8.029-2.643,10.899,0.506c2.87,3.149,2.643,8.028-0.506,10.899l-23.674,21.576
	C377.342,374.411,375.482,375.076,373.627,375.076z"/>
<path style="fill:#FE4080;" d="M325.056,381.334v-17.943c0-4.385,3.555-7.941,7.941-7.941h37.831c4.385,0,7.941,3.555,7.941,7.941
	V376.2c0,3.727-2.592,6.952-6.231,7.754l-37.831,5.134C329.75,390.18,325.056,386.408,325.056,381.334z"/>
<path style="fill:#E22B71;" d="M134.405,322.969c-1.855,0-3.716-0.665-5.194-2.013l-23.674-21.576
	c-3.149-2.87-3.376-7.75-0.506-10.899c2.871-3.15,7.75-3.375,10.899-0.506l23.674,21.576c3.149,2.87,3.376,7.75,0.506,10.899
	C138.587,322.121,136.499,322.969,134.405,322.969z"/>
<path style="fill:#FE4080;" d="M182.976,329.227v-17.943c0-4.385-3.555-7.941-7.941-7.941h-37.831c-4.385,0-7.941,3.555-7.941,7.941
	v12.809c0,3.727,2.592,6.952,6.231,7.754l37.831,5.134C178.282,338.074,182.976,334.301,182.976,329.227z"/>
<path style="fill:#E22B71;" d="M138.375,375.076c-1.855,0-3.716-0.665-5.194-2.013l-23.674-21.576
	c-3.149-2.87-3.376-7.75-0.506-10.899c2.871-3.15,7.751-3.375,10.899-0.506l23.674,21.576c3.149,2.87,3.376,7.75,0.506,10.899
	C142.557,374.228,140.47,375.076,138.375,375.076z"/>
<path style="fill:#FE4080;" d="M186.946,381.334v-17.943c0-4.385-3.555-7.941-7.941-7.941h-37.831c-4.385,0-7.941,3.555-7.941,7.941
	V376.2c0,3.727,2.592,6.952,6.231,7.754l37.831,5.134C182.252,390.18,186.946,386.408,186.946,381.334z"/>
<g>
</g>
<g>
</g>
<g>
</g>
<g>
</g>
<g>
</g>
<g>
</g>
<g>
</g>
<g>
</g>
<g>
</g>
<g>
</g>
<g>
</g>
<g>
</g>
<g>
</g>
<g>
</g>
<g>
</g>
</svg>
