<svg height="426pt" viewBox="0 -9 426.66831 426" width="426pt" xmlns="http://www.w3.org/2000/svg"><path d="m174.078125 58.625-38.125-41.402344c-6.578125-7.140625-16.101563-10.808594-25.765625-9.929687l-103.359375 9.398437s43.160156 20.84375 59.34375 31.390625c16.1875 10.542969 5.398437 21.089844 10.792969 31.636719 5.394531 10.542969 53.949218 42.179688 53.949218 42.179688z" fill="#ffd578"/><path d="m179.101562 54-38.128906-41.402344c-7.230468-7.851562-17.382812-12.261718-27.953125-12.261718-1.132812 0-2.300781.042968-3.488281.160156l.039062-.003906-103.363281 9.398437c-3.058593.277344-5.546875 2.554687-6.097656 5.578125-.546875 3.023438.984375 6.03125 3.75 7.367188.007813.003906 2.667969 1.289062 6.945313 3.398437 6.417968 3.164063 16.433593 8.15625 26.316406 13.328125 9.859375 5.152344 19.671875 10.542969 25.324218 14.238281 3.339844 2.1875 4.699219 3.929688 5.410157 5.296875.691406 1.378906.921875 2.710938.933593 4.796875.015626 2.050781-.320312 4.6875-.335937 7.902344-.011719 3.191406.433594 7.128906 2.4375 11.027344 1.3125 2.488281 2.996094 4.367187 5.078125 6.519531 3.625 3.675781 8.519531 7.75 13.949219 11.972656 16.242187 12.601563 37.195312 26.242188 37.273437 26.296875 3.109375 2.023438 7.277344 1.191407 9.367188-1.871093l43.164062-63.273438c2.125-3.113281 1.320313-7.359375-1.792968-9.488281-3.113282-2.125-7.359376-1.320313-9.484376 1.792969l-43.167968 63.273437 5.640625 3.851563 3.722656-5.722657s-.730469-.476562-2.054687-1.351562c-4.625-3.0625-16.347657-10.917969-27.382813-19.066407-5.511719-4.070312-10.859375-8.222656-14.988281-11.804687-2.0625-1.785156-3.816406-3.433594-5.089844-4.78125-1.269531-1.316406-2.050781-2.449219-2.082031-2.566406-.695313-1.386719-.925781-2.722657-.9375-4.808594-.015625-2.054687.320312-4.6875.335937-7.902344.011719-3.1875-.429687-7.125-2.433594-11.019531-1.988281-3.902344-5.351562-7.433594-10.109374-10.519531-8.617188-5.597657-23.449219-13.417969-36.371094-20.011719-12.882813-6.5625-23.707032-11.789062-23.734375-11.804688l-2.964844 6.152344.617187 6.796875 103.363282-9.398437.039062-.003906c.699219-.066407 1.421875-.101563 2.167969-.101563 6.769531 0 13.28125 2.828125 17.914063 7.859375l38.128906 41.402344c2.550781 2.773437 6.871094 2.949218 9.644531.398437 2.773437-2.554687 2.953125-6.871093.398437-9.644531zm0 0" fill="#54596e"/><path d="m252.585938 58.625 38.128906-41.402344c6.578125-7.140625 16.097656-10.808594 25.761718-9.929687l103.363282 9.398437s-43.164063 20.84375-59.347656 31.390625c-16.183594 10.542969-5.394532 21.089844-10.792969 31.636719-5.390625 10.542969-53.949219 42.179688-53.949219 42.179688z" fill="#ffd578"/><path d="m257.609375 63.246094 38.125-41.398438c4.636719-5.03125 11.144531-7.859375 17.910156-7.859375.746094 0 1.472657.035157 2.171875.101563l.042969.003906 103.359375 9.394531.621094-6.796875-2.96875-6.148437c-.027344.011719-10.851563 5.238281-23.734375 11.804687-12.921875 6.589844-27.753907 14.410156-36.371094 20.011719-4.753906 3.082031-8.121094 6.613281-10.109375 10.519531-2.003906 3.894532-2.445312 7.828125-2.433594 11.019532.015625 3.210937.351563 5.84375.335938 7.902343-.011719 2.085938-.242188 3.421875-.9375 4.808594-.035156.144531-1.046875 1.5625-2.65625 3.160156-2.824219 2.878907-7.421875 6.753907-12.589844 10.761719-7.769531 6.035156-16.894531 12.476562-24.042969 17.382812-3.578125 2.453126-6.660156 4.523438-8.851562 5.980469-2.1875 1.457031-3.453125 2.28125-3.457031 2.285157l3.726562 5.71875 5.640625-3.847657-43.164063-63.273437c-2.125-3.113282-6.375-3.914063-9.488281-1.789063s-3.917969 6.371094-1.789062 9.488281l43.160156 63.269532c2.089844 3.0625 6.261719 3.894531 9.367187 1.871094.050782-.03125 12.25-7.976563 25.214844-17.3125 6.492188-4.675782 13.164063-9.6875 18.6875-14.3125 2.765625-2.320313 5.242188-4.535157 7.324219-6.648438 2.078125-2.152344 3.761719-4.027344 5.074219-6.515625 2.003906-3.898437 2.445312-7.835937 2.4375-11.027344-.015625-3.214843-.351563-5.847656-.335938-7.902343.011719-2.085938.242188-3.421876.9375-4.796876.707032-1.371093 2.066406-3.109374 5.402344-5.300781 7.566406-4.941406 22.40625-12.820312 35.117188-19.289062 6.371093-3.246094 12.246093-6.167969 16.527343-8.277344 4.277344-2.109375 6.941407-3.394531 6.945313-3.394531 2.765625-1.339844 4.296875-4.347656 3.75-7.367188-.550782-3.023437-3.039063-5.304687-6.097656-5.582031l-103.363282-9.394531.039063.003906c-1.1875-.117188-2.355469-.164062-3.488281-.164062-10.570313 0-20.722657 4.410156-27.953126 12.265624l-38.128906 41.398438c-2.554687 2.773438-2.375 7.089844.398438 9.644531 2.769531 2.554688 7.089844 2.378907 9.644531-.398437zm0 0" fill="#54596e"/><path d="m100.609375 57.691406c-7.535156 12.679688-11.863281 27.496094-11.863281 43.316406v70.675782c0 9.085937 5.578125 17.238281 14.042968 20.527344l13.140626 5.109374 40.757812 159.578126c5.308594 22.550781 23.25 40.667968 46.144531 44.207031 29.554688 4.570312 56.710938-14.386719 63.332031-42.507813l41.160157-161.277344 13.140625-5.109374c8.464844-3.289063 14.039062-11.441407 14.039062-20.527344v-70.675782c0-46.898437-38.019531-84.925781-84.917968-84.925781h-75.914063c-16.242187 0-31.429687 4.566407-44.332031 12.476563z" fill="#ffd578"/><path d="m94.742188 54.207031c-8.144532 13.695313-12.824219 29.730469-12.824219 46.800781v70.675782c.003906 11.898437 7.304687 22.578125 18.398437 26.886718l9.867188 3.84375 39.890625 156.175782 6.613281-1.6875-6.640625 1.5625c5.894531 25.046875 25.828125 45.34375 51.742187 49.390625 3.308594.511719 6.59375.757812 9.832032.757812 29.167968 0 54.503906-20.066406 61.183594-48.453125l-6.644532-1.5625 6.617188 1.683594 40.292968-157.871094 9.863282-3.839844c11.09375-4.3125 18.398437-14.992187 18.398437-26.886718v-70.675782c-.003906-50.671874-41.078125-91.75-91.75-91.75h-75.914062c-17.527344-.003906-33.964844 4.933594-47.898438 13.476563-3.214843 1.972656-4.222656 6.171875-2.253906 9.390625 1.96875 3.214844 6.175781 4.226562 9.386719 2.253906 11.871094-7.277344 25.804687-11.46875 40.765625-11.472656h75.914062c21.585938.007812 41.066407 8.730469 55.21875 22.878906 14.144531 14.152344 22.871094 33.632813 22.878907 55.21875v70.679688c0 6.265625-3.851563 11.894531-9.691407 14.160156l-13.144531 5.113281c-2.0625.804688-3.589844 2.527344-4.140625 4.675781l-41.15625 161.273438-.03125.125c-5.226563 22.214844-25.066406 37.929688-47.894531 37.925781-2.550782 0-5.136719-.195312-7.75-.601562-19.871094-3.027344-35.824219-18.972657-40.539063-39.019531l-.03125-.125-40.753906-159.578126c-.546875-2.121093-2.097656-3.878906-4.144531-4.675781l-13.136719-5.109375c-5.84375-2.265625-9.695313-7.894531-9.695313-14.164062v-70.675782c.003907-14.574218 3.980469-28.164062 10.90625-39.828124 1.925782-3.242188.859376-7.429688-2.382812-9.355469-3.238281-1.925781-7.429688-.859375-9.351562 2.382812" fill="#54596e"/><path d="m275.886719 144.402344c-3.933594 0-7.933594.675781-11.847657 2.101562-15.195312 5.53125-24.132812 20.574219-22.644531 35.957032 6.496094 9.457031 17.277344 15.074218 28.617188 15.074218 3.933593 0 7.933593-.675781 11.847656-2.101562 15.191406-5.53125 24.132813-20.570313 22.640625-35.953125-6.496094-9.460938-17.273438-15.078125-28.613281-15.078125" fill="#e6c377"/><path d="m147.128906 144.402344c-11.339844 0-22.117187 5.617187-28.609375 15.078125-1.496093 15.386719 7.445313 30.421875 22.636719 35.953125 3.914062 1.425781 7.914062 2.101562 11.847656 2.101562 11.339844 0 22.117188-5.617187 28.609375-15.074218 1.5-15.382813-7.445312-30.425782-22.636719-35.957032-3.914062-1.425781-7.914062-2.101562-11.847656-2.101562" fill="#e6c377"/><g fill="#54596e"><path d="m238.933594 355.710938c0-14.140626-12.226563-18.773438-27.308594-18.773438-15.078125 0-27.304688 4.632812-27.304688 18.773438 0 14.140624 20.878907 32.425781 27.304688 32.425781 6.429688 0 27.308594-18.285157 27.308594-32.425781zm0 0"/><path d="m154.402344 168.601562c-6.25-4.21875-14.734375-2.574218-18.953125 3.675782s-2.574219 14.734375 3.675781 18.953125c6.25 4.222656 14.738281 2.574219 18.957031-3.675781s2.570313-14.734376-3.679687-18.953126zm0 0"/><path d="m284.105469 168.601562c-6.25-4.21875-14.734375-2.574218-18.953125 3.675782s-2.574219 14.738281 3.675781 18.957031 14.734375 2.570313 18.953125-3.679687c4.21875-6.246094 2.574219-14.734376-3.675781-18.953126zm0 0"/><path d="m218.453125 398.375v-13.652344c0-3.769531-3.054687-6.824218-6.828125-6.824218-3.769531 0-6.824219 3.054687-6.824219 6.824218v13.652344c0 3.773438 3.054688 6.828125 6.824219 6.828125 3.773438 0 6.828125-3.054687 6.828125-6.828125"/></g></svg>