<svg height="430pt" viewBox="0 -29 430.08471 430" width="430pt" xmlns="http://www.w3.org/2000/svg"><path d="m30.875 21.191406 27.820312 76.949219 61.441407-61.441406-76.945313-27.828125c-7.667968-2.769532-15.089844 4.652344-12.316406 12.320312zm0 0" fill="#d8d8d8"/><path d="m30.875 21.191406-6.417969 2.320313 27.820313 76.949219c.789062 2.1875 2.660156 3.835937 4.933594 4.339843 2.269531.507813 4.664062-.1875 6.3125-1.835937l61.441406-61.4375c1.644531-1.648438 2.339844-4.039063 1.835937-6.3125-.507812-2.269532-2.152343-4.144532-4.34375-4.933594l-76.945312-27.828125c-1.847657-.671875-3.765625-1.003906-5.640625-1.003906-9.085938.078125-16.335938 7.328125-16.417969 16.414062 0 1.871094.332031 3.796875 1 5.648438l6.421875-2.320313 6.421875-2.316406-.1875-1.007812c-.003906-.679688.285156-1.371094.835937-1.925782.558594-.550781 1.246094-.839844 1.925782-.835937l.992187.183593 66.851563 24.175782-46.25 46.25-24.167969-66.84375zm0 0" fill="#54596e"/><path d="m403.890625 19.875-29.199219 78.261719-61.441406-61.4375 78.269531-29.199219c7.71875-2.878906 15.25 4.652344 12.371094 12.375zm0 0" fill="#d8d8d8"/><path d="m403.890625 19.875-6.394531-2.386719-25.488282 68.3125-46.421874-46.417969 68.316406-25.488281 1.023437-.199219c.675781-.003906 1.367188.285157 1.925781.839844.550782.554688.839844 1.246094.839844 1.921875l-.199218 1.042969 12.796874 4.75c.707032-1.898438 1.058594-3.871094 1.054688-5.792969-.082031-9.089843-7.328125-16.332031-16.417969-16.4140622-1.929687-.0039063-3.902343.3515622-5.792969 1.0585932l-78.265624 29.199219c-2.183594.816407-3.789063 2.671875-4.285157 4.945313-.496093 2.273437.199219 4.632812 1.84375 6.277344l61.4375 61.441406c1.648438 1.644531 4.003907 2.335937 6.28125 1.84375 2.273438-.496094 4.132813-2.105469 4.945313-4.285156l29.195312-78.261719zm0 0" fill="#54596e"/><path d="m264.628906 22.375h-99.171875c-63.683593 0-117.007812 44.585938-123.339843 103.132812l-17.914063 114.128907c-4.453125 41.125 40.101563 76.285156 96.652344 76.285156l93.960937-9.074219 94.414063 9.074219c56.554687 0 101.105469-35.164063 96.652343-76.285156l-17.910156-114.128907c-6.335937-58.546874-59.65625-103.132812-123.34375-103.132812zm0 0" fill="#fff"/><path d="m264.628906 22.375v-6.824219h-99.171875c-33.441406 0-64.238281 11.699219-87.554687 31.199219-23.316406 19.480469-39.207032 46.875-42.570313 78.023438l6.785157.734374-6.742188-1.058593-17.914062 114.128906-.042969.320313c-.230469 2.144531-.347657 4.28125-.347657 6.402343-.003906 10.929688 3.066407 21.394531 8.484376 30.75 8.136718 14.046875 21.433593 25.667969 37.890624 33.832031 16.472657 8.152344 36.175782 12.859376 57.414063 12.863282l.65625-.03125 93.3125-9.011719 93.753906 9.011719.652344.03125c28.320313-.011719 53.90625-8.355469 72.742187-22.144532 9.414063-6.898437 17.144532-15.1875 22.5625-24.554687 5.417969-9.351563 8.488282-19.816406 8.484376-30.75 0-2.121094-.117188-4.257813-.347657-6.398437l-.042969-.324219-17.914062-114.125-6.742188 1.058593 6.789063-.734374c-3.367187-31.152344-19.257813-58.542969-42.574219-78.027344-23.316406-19.496094-54.113281-31.199219-87.554687-31.199219v13.652344c30.246093 0 57.953125 10.589843 78.800781 28.023437 20.847656 17.449219 34.785156 41.625 37.753906 69.019532l.042969.324218 17.910156 114.125 6.746094-1.058594-6.785156.734376c.175781 1.65625.265625 3.300781.265625 4.929687-.007813 8.382813-2.3125 16.40625-6.648438 23.917969-6.492187 11.25-17.664062 21.269531-32.132812 28.429687-14.457032 7.164063-32.136719 11.453125-51.351563 11.453125v6.824219l.652344-6.796875-94.414063-9.074219h-1.308593l-93.960938 9.074219.660157 6.796875v-6.824219c-25.621094.011719-48.515626-7.640625-64.671876-19.503906-8.089843-5.925781-14.484374-12.878906-18.816406-20.378906-4.335937-7.507813-6.640625-15.535156-6.648437-23.914063 0-1.628906.089843-3.273437.265625-4.929687l-6.785156-.738282 6.742187 1.058594 17.914063-114.125.042968-.324218c2.96875-27.398438 16.902344-51.570313 37.753906-69.019532 20.847657-17.433594 48.554688-28.023437 78.796876-28.023437h99.175781v-6.824219zm0 0" fill="#54596e"/><path d="m310.617188 281.789062v31.714844c0 18.027344-17.105469 52.132813-36.347657 51.339844-2.949219-.121094-31.125-14.789062-59.226562-14.789062-28.171875 0-56.265625 14.667968-59.222657 14.789062-19.242187.792969-36.347656-33.3125-36.347656-51.339844v-31.714844" fill="#fff"/><path d="m303.792969 281.789062v31.714844c.015625 3.398438-.863281 8.28125-2.566407 13.402344-2.527343 7.707031-6.882812 16.046875-11.902343 22.015625-2.5 2.996094-5.148438 5.378906-7.632813 6.902344-2.507812 1.539062-4.738281 2.199219-6.757812 2.203125l-.558594-.011719-.105469 6.828125.277344-6.824219-.195313 4.824219 1.050782-4.71875-.855469-.105469-.195313 4.824219 1.050782-4.722656-.050782.21875.066407-.214844-.015625-.003906-.050782.21875.066407-.214844c-.285157-.082031-1.261719-.4375-2.507813-.933594-4.472656-1.753906-12.832031-5.253906-23.015625-8.285156-10.210937-3.035156-22.339843-5.671875-34.847656-5.679688-15.265625.015626-29.945313 3.90625-41.25 7.707032-5.644531 1.902344-10.453125 3.804687-13.964844 5.203125-1.75.699219-3.1875 1.277343-4.15625 1.636719l-.996093.351562.042968.144531-.03125-.144531h-.011718l.042968.144531-.03125-.144531 1.046875 4.722656-.195312-4.828125-.851563.105469 1.046875 4.722656-.195312-4.824218.019531-.003907-.40625.011719c-2.664062.011719-5.832031-1.214844-9.285156-4.003906-5.15625-4.117188-10.328125-11.507813-13.914063-19.316406-3.636719-7.761719-5.703125-16.070313-5.660156-21.207032v-31.714844c0-3.769531-3.054687-6.824218-6.824219-6.824218-3.769531 0-6.828125 3.054687-6.828125 6.824218v31.714844c.015625 5.507813 1.226563 11.5 3.25 17.679688 3.066407 9.238281 7.984375 18.804687 14.398438 26.5 3.222656 3.84375 6.828125 7.230468 10.949219 9.773437 4.101562 2.527344 8.824218 4.226563 13.914062 4.222657l.917969-.015626h.019531c1.410156-.09375 1.902344-.304687 2.550781-.472656 1.109375-.34375 2.191407-.761718 3.558594-1.300781 4.695313-1.851563 12.46875-5.097656 21.894531-7.90625 9.398438-2.804687 20.363282-5.109375 30.945313-5.101563 12.871093-.015624 26.332031 3.429688 36.863281 6.992188 5.277344 1.777344 9.816406 3.566406 13.289062 4.949219 1.746094.691406 3.207032 1.285156 4.453126 1.746093.628906.234376 1.195312.433594 1.796874.617188.648438.171875 1.136719.382812 2.546876.476562l.175781.003907.765625.007812c6.816406-.011719 12.851562-2.976562 17.867187-7.03125 7.546875-6.148437 13.429688-14.992187 17.722657-24.195312 4.242187-9.246094 6.875-18.71875 6.921874-26.945313v-31.714844c0-3.773437-3.058593-6.828124-6.828124-6.828124-3.769532 0-6.824219 3.054687-6.824219 6.828124zm0 0" fill="#54596e"/><path d="m296.964844 250.523438c0-47.429688-36.679688-43.800782-81.921875-43.800782-45.246094 0-81.917969-3.628906-81.917969 43.800782 0 47.429687 36.671875 85.878906 81.917969 85.878906 45.242187 0 81.921875-38.449219 81.921875-85.878906zm0 0" fill="#d8d8d8"/><g fill="#54596e"><path d="m215.042969 254.121094 41.808593-27.625c5.855469-3.867188 3.113282-12.976563-3.898437-12.976563h-75.820313c-7.015624 0-9.75 9.109375-3.902343 12.976563zm0 0"/><path d="m217.8125 62.796875 12.636719-33.703125c2.457031-6.554688-2.382813-13.542969-9.386719-13.542969h-12.03125c-7 0-11.847656 6.988281-9.386719 13.542969l12.640625 33.703125c.960938 2.554687 4.566406 2.554687 5.527344 0zm0 0"/><path d="m167.257812 148.667969c0 5.65625-4.585937 10.242187-10.238281 10.242187-5.65625 0-10.242187-4.585937-10.242187-10.242187 0-5.652344 4.585937-10.238281 10.242187-10.238281 5.652344 0 10.238281 4.585937 10.238281 10.238281zm0 0"/><path d="m283.3125 148.667969c0 5.65625-4.585938 10.242187-10.242188 10.242187-5.652343 0-10.238281-4.585937-10.238281-10.242187 0-5.652344 4.585938-10.238281 10.238281-10.238281 5.65625 0 10.242188 4.585937 10.242188 10.238281zm0 0"/><path d="m215.042969 268.136719h6.828125c0-7.539063 0-27.28125 0-27.308594 0-1.796875-.726563-3.554687-1.996094-4.828125-1.273438-1.269531-3.03125-1.996094-4.828125-1.996094s-3.558594.726563-4.828125 1.996094c-1.273438 1.273438-2 3.03125-2 4.828125v27.308594 27.304687c0 1.796875.730469 3.554688 2 4.828125 1.269531 1.269531 3.027344 1.996094 4.828125 1.996094 1.796875 0 3.554687-.726563 4.828125-1.996094 1.269531-1.273437 1.996094-3.03125 1.996094-4.828125 0 0 0-19.765625 0-27.304687h-13.652344v27.304687c0 1.796875.726562 3.554688 1.996094 4.828125 1.273437 1.269531 3.03125 1.996094 4.828125 1.996094 1.800781 0 3.558593-.726563 4.828125-1.996094 1.273437-1.273437 2-3.03125 2-4.828125 0 0 0-19.765625 0-27.304687 0-7.539063 0-27.28125 0-27.308594 0-1.796875-.730469-3.554687-2-4.828125-1.269532-1.269531-3.027344-1.996094-4.828125-1.996094-1.796875 0-3.554688.726563-4.828125 1.996094-1.269532 1.273438-1.996094 3.03125-1.996094 4.828125v27.308594zm0 0"/><path d="m99.011719 244.402344c-.242188-.074219-14.601563-4.617188-36.722657-4.621094-16.589843 0-37.558593 2.558594-60.132812 11.527344-1.753906.695312-2.609375 2.679687-1.914062 4.433594.695312 1.753906 2.679687 2.609374 4.433593 1.914062 21.636719-8.597656 41.71875-11.046875 57.613281-11.046875 10.589844 0 19.316407 1.089844 25.359376 2.175781 3.023437.542969 5.375 1.082032 6.960937 1.480469.792969.199219 1.390625.367187 1.78125.476563l.554687.164062c1.792969.570312 3.714844-.421875 4.285157-2.21875.570312-1.792969-.421875-3.710938-2.21875-4.285156zm0 0"/><path d="m98.324219 261.375c-.074219.015625-17.359375 3.441406-35.855469 9.488281-9.253906 3.027344-18.808594 6.703125-26.761719 11.019531-7.914062 4.363282-14.417969 9.183594-17.230469 15.652344-.730468 1.738282.085938 3.738282 1.824219 4.46875 1.738281.730469 3.742188-.089844 4.472657-1.824218 1.480468-3.773438 6.800781-8.339844 14.195312-12.296876 11.046875-6.015624 26.3125-11.035156 38.722656-14.472656 6.207032-1.722656 11.714844-3.0625 15.660156-3.964844 3.945313-.90625 6.296876-1.371093 6.304688-1.375 1.847656-.371093 3.050781-2.164062 2.683594-4.011718-.371094-1.851563-2.164063-3.050782-4.015625-2.683594zm0 0"/><path d="m333.144531 250.90625.550781-.164062c2.753907-.789063 15.566407-4.136719 34.101563-4.136719 15.894531.003906 35.976563 2.453125 57.613281 11.046875 1.75.695312 3.734375-.160156 4.433594-1.910156.695312-1.75-.160156-3.734376-1.914062-4.433594-22.574219-8.96875-43.542969-11.527344-60.132813-11.527344-22.121094 0-36.476563 4.542969-36.722656 4.621094-1.796875.570312-2.789063 2.488281-2.21875 4.285156.574219 1.796875 2.492187 2.792969 4.289062 2.21875zm0 0"/><path d="m330.433594 268.070312c.003906 0 1.035156.207032 2.910156.613282 6.554688 1.425781 23.171875 5.304687 38.925781 10.992187 7.871094 2.839844 15.523438 6.140625 21.515625 9.71875 6.023438 3.550781 10.21875 7.492188 11.53125 10.777344.730469 1.738281 2.730469 2.554687 4.46875 1.828125 1.738282-.730469 2.558594-2.730469 1.828125-4.46875-2.8125-6.46875-9.316406-11.289062-17.230469-15.652344-11.921874-6.464844-27.480468-11.523437-40.15625-15.046875-12.667968-3.515625-22.40625-5.449219-22.460937-5.460937-1.851563-.367188-3.648437.835937-4.015625 2.683594-.367188 1.851562.832031 3.648437 2.683594 4.015624zm0 0"/><path d="m208.21875 293.734375c.003906 20.738281 16.808594 37.542969 37.546875 37.546875 7.75.003906 15.011719-2.367188 20.996094-6.417969 3.125-2.113281 3.941406-6.355469 1.832031-9.480469-2.113281-3.121093-6.355469-3.945312-9.480469-1.828124-3.816406 2.574218-8.378906 4.070312-13.347656 4.074218-13.195313-.023437-23.871094-10.699218-23.894531-23.894531 0-3.769531-3.054688-6.824219-6.828125-6.824219-3.769531 0-6.824219 3.054688-6.824219 6.824219zm0 0"/><path d="m208.324219 293.734375c-.023438 13.195313-10.699219 23.871094-23.894531 23.894531-4.96875-.003906-9.53125-1.5-13.347657-4.078125-3.125-2.113281-7.371093-1.289062-9.480469 1.832031-2.113281 3.125-1.292968 7.367188 1.832032 9.484376 5.984375 4.046874 13.246094 6.417968 20.996094 6.414062 20.742187-.003906 37.542968-16.808594 37.546874-37.546875 0-3.769531-3.054687-6.824219-6.824218-6.824219-3.773438 0-6.828125 3.054688-6.828125 6.824219zm0 0"/><path d="m133.125 29.203125h27.304688v60.589844c0 2.859375-3.976563 3.558593-4.949219.875zm0 0"/><path d="m296.964844 29.203125h-27.304688v60.589844c0 2.859375 3.976563 3.558593 4.949219.875zm0 0"/><path d="m399.363281 158.894531-13.871093-23.519531-44.613282 26.3125c-2.109375 1.246094-.601562 4.976562 1.871094 4.652344zm0 0"/><path d="m31.664062 158.894531 13.871094-23.519531 43.949219 25.921875c2.074219 1.222656.558594 4.953125-1.886719 4.644531zm0 0"/></g></svg>