<svg height="430pt" viewBox="-18 0 430 430.08" width="430pt" xmlns="http://www.w3.org/2000/svg"><path d="m386.460938 45.570312c4.0625 22.59375-5.699219 49.304688-27.4375 68.507813-21.734376 19.203125-49.441407 25.601563-71.359376 18.789063-4.0625-22.59375 5.699219-49.304688 27.433594-68.507813 21.730469-19.203125 49.4375-25.601563 71.363282-18.789063zm0 0" fill="#aaa"/><path d="m386.460938 45.570312-6.71875 1.207032c.527343 2.9375.792968 5.972656.792968 9.082031.03125 17.832031-8.859375 37.953125-26.035156 53.097656-14.917969 13.199219-32.804688 19.734375-48.859375 19.722657-5.605469 0-10.984375-.789063-15.953125-2.335938l-2.027344 6.519531 6.71875-1.207031c-.527344-2.9375-.792968-5.976562-.792968-9.082031-.03125-17.835938 8.859374-37.960938 26.027343-53.101563 14.917969-13.195312 32.804688-19.738281 48.859375-19.722656 5.609375 0 10.988282.789062 15.957032 2.335938l2.03125-6.515626-6.71875 1.207032 6.71875-1.207032 2.027343-6.519531c-6.382812-1.988281-13.128906-2.953125-20.015625-2.953125-19.714844.015625-40.605468 7.878906-57.898437 23.144532-19.851563 17.566406-30.613281 41.039062-30.640625 63.332031 0 3.882812.332031 7.730469 1.007812 11.5.449219 2.507812 2.261719 4.554687 4.695313 5.3125 6.375 1.976562 13.121093 2.945312 20.003906 2.945312 19.714844-.011719 40.605469-7.875 57.902344-23.140625 19.851562-17.566406 30.613281-41.042968 30.644531-63.332031 0-3.882813-.332031-7.730469-1.007812-11.496094-.449219-2.511719-2.257813-4.558593-4.6875-5.3125zm0 0" fill="#54596e"/><path d="m7.769531 45.570312c-4.0625 22.59375 5.699219 49.304688 27.429688 68.507813 21.734375 19.203125 49.441406 25.601563 71.367187 18.789063 4.058594-22.59375-5.699218-49.304688-27.441406-68.507813-21.730469-19.203125-49.4375-25.601563-71.355469-18.789063zm0 0" fill="#aaa"/><path d="m7.769531 45.570312-6.722656-1.207031c-.675781 3.765625-1.0078125 7.613281-1.0078125 11.496094.03125 22.292969 10.7929685 45.765625 30.6406255 63.332031 17.296874 15.269532 38.1875 23.128906 57.902343 23.144532 6.882813 0 13.628907-.96875 20.007813-2.949219 2.433594-.757813 4.246094-2.804688 4.695312-5.3125.675782-3.769531 1.007813-7.613281 1.007813-11.496094-.03125-22.296875-10.792969-45.769531-30.648438-63.335937-17.292969-15.265626-38.183593-23.128907-57.898437-23.144532-6.882813 0-13.628906.964844-20.007813 2.953125-2.433593.757813-4.238281 2.800781-4.691406 5.308594l6.722656 1.210937 2.027344 6.515626c4.964844-1.542969 10.34375-2.332032 15.953125-2.332032 16.050781-.015625 33.9375 6.523438 48.859375 19.722656 17.171875 15.140626 26.0625 35.265626 26.03125 53.101563 0 3.105469-.265625 6.144531-.792969 9.082031l6.71875 1.207032-2.023437-6.519532c-4.976563 1.542969-10.355469 2.335938-15.960938 2.335938-16.058593.011718-33.945312-6.527344-48.863281-19.722656-17.167969-15.144532-26.054688-35.269532-26.027344-53.101563 0-3.105469.269532-6.144531.796875-9.082031l-6.71875-1.207032 2.027344 6.515626zm0 0" fill="#54596e"/><path d="m375.5625 266.238281c0-98.027343-79.46875-197.972656-177.492188-197.972656-98.027343 0-177.492187 99.949219-177.492187 197.972656 0 98.027344 79.464844 157.015625 177.492187 157.015625 98.023438 0 177.492188-58.988281 177.492188-157.015625" fill="#bfad88"/><path d="m375.5625 266.238281h6.828125c-.03125-50.867187-20.507813-101.746093-53.648437-140.203125-33.117188-38.414062-79.261719-64.578125-130.675782-64.59375-51.410156.015625-97.558594 26.179688-130.675781 64.59375-33.136719 38.457032-53.613281 89.335938-53.644531 140.203125-.054688 50.875 20.828125 92.332031 54.421875 120.492188 33.578125 28.210937 79.535156 43.347656 129.898437 43.347656 50.367188 0 96.324219-15.136719 129.898438-43.347656 33.59375-28.160157 54.480468-69.617188 54.421875-120.492188h-13.652344c-.054687 47.152344-18.90625 84.207031-49.554687 110.042969-30.660157 25.789062-73.449219 40.152344-121.109376 40.144531-47.664062.003907-90.453124-14.355469-121.117187-40.144531-30.644531-25.835938-49.492187-62.886719-49.550781-110.042969-.03125-47.160156 19.226562-95.261719 50.328125-131.285156 31.125-36.070313 73.722656-59.875 120.339843-59.863281 46.613282-.011719 89.210938 23.792968 120.335938 59.863281 31.101562 36.023437 50.355469 84.125 50.328125 131.285156z" fill="#54596e"/><path d="m28.859375 288.21875c4.972656 36.8125 22.382813 66.382812 48.09375 88.0625 30.65625 25.785156 73.4375 40.144531 121.085937 40.144531h.027344c47.664063.007813 90.453125-14.355469 121.113282-40.144531 25.714843-21.675781 43.121093-51.25 48.09375-88.0625-10.972657 23.136719-27.480469 42.511719-47.90625 57.441406-32.628907 23.886719-75.09375 36.628906-121.300782 36.632813-46.207031-.003907-88.671875-12.746094-121.300781-36.632813-20.425781-14.929687-36.929687-34.304687-47.90625-57.441406" fill="#aa9c83"/><path d="m382.371094 263.816406c.011718.804688.015625 1.617188.015625 2.421875 0-.808593-.003907-1.617187-.015625-2.421875m-368.597656-.378906c-.015626.933594-.023438 1.867188-.023438 2.800781 0-.933593.007812-1.867187.023438-2.800781" fill="#dddee2"/><path d="m198.039062 416.425781c-47.648437 0-90.429687-14.359375-121.085937-40.144531-25.714844-21.675781-43.121094-51.25-48.09375-88.0625 10.976563 23.136719 27.480469 42.511719 47.90625 57.441406 32.628906 23.886719 75.09375 36.628906 121.300781 36.632813 46.207032-.003907 88.671875-12.746094 121.300782-36.632813 20.425781-14.929687 36.933593-34.304687 47.90625-57.441406-4.972657 36.8125-22.378907 66.382812-48.09375 88.0625-30.660157 25.789062-73.453126 40.152344-121.113282 40.144531-.007812 0-.019531 0-.027344 0m-168.957031-174.714843c-1.113281 8.15625-1.6875 16.359374-1.683593 24.527343.0625 47.15625 18.910156 84.207031 49.554687 110.042969 30.65625 25.785156 73.4375 40.144531 121.085937 40.144531h.027344c47.664063.007813 90.453125-14.355469 121.113282-40.144531 30.648437-25.835938 49.496093-62.890625 49.554687-110.039062h6.828125-6.828125c.003906-8.171876-.570313-16.371094-1.683594-24.53125-5.765625 39.796874-26.03125 71.121093-55.75 92.933593-29.902343 21.910157-69.519531 34-113.234375 33.996094-.003906 0-.007812 0-.015625 0-43.710937 0-83.324219-12.089844-113.214843-33.996094-29.71875-21.816406-49.988282-53.140625-55.753907-92.933593" fill="#aa9c83"/><path d="m22.222656 235.113281c-.011718 0-.023437 0-.03125 0-3.417968.015625-6.296875 2.550781-6.738281 5.941407-.96875 7.410156-1.5625 14.882812-1.679687 22.382812-.015626.933594-.023438 1.867188-.023438 2.800781-.058594 50.875 20.824219 92.332031 54.417969 120.492188 33.578125 28.210937 79.535156 43.347656 129.902343 43.347656 50.363282 0 96.320313-15.136719 129.898438-43.347656 33.59375-28.160157 54.476562-69.617188 54.421875-120.492188h-13.65625c-.054687 47.152344-18.90625 84.207031-49.554687 110.042969-30.660157 25.789062-73.449219 40.152344-121.109376 40.144531-.007812 0-.019531 0-.03125 0-47.648437 0-90.429687-14.359375-121.085937-40.144531-30.644531-25.835938-49.492187-62.886719-49.550781-110.042969-.007813-8.167969.566406-16.367187 1.683594-24.527343-.035157-.238282-.070313-.476563-.105469-.714844-.46875-3.375-3.351563-5.882813-6.757813-5.882813m351.691406 0c-3.40625 0-6.289062 2.507813-6.761718 5.882813-.03125.238281-.066406.476562-.101563.714844 1.113281 8.15625 1.6875 16.359374 1.683594 24.527343h13.652344c0-.804687-.003907-1.617187-.015625-2.421875-.105469-7.628906-.703125-15.226562-1.6875-22.761718-.445313-3.390626-3.320313-5.925782-6.738282-5.9375-.011718-.003907-.023437-.003907-.03125-.003907" fill="#54596e"/><path d="m143.453125 197.972656c0 7.542969-6.109375 13.652344-13.652344 13.652344-7.539062 0-13.652343-6.109375-13.652343-13.652344 0-7.539062 6.113281-13.652344 13.652343-13.652344 7.542969 0 13.652344 6.113282 13.652344 13.652344zm0 0" fill="#54596e"/><path d="m273.160156 348.160156h-150.183594v-57.777344c0-24.644531 19.976563-44.621093 44.625-44.621093h60.933594c24.644532 0 44.625 19.976562 44.625 44.621093zm0 0" fill="#aaa"/><g fill="#54596e"><path d="m273.160156 348.160156v-6.828125h-143.359375v-50.949219c.003907-10.457031 4.222657-19.863281 11.070313-26.726562 6.863281-6.851562 16.269531-11.066406 26.730468-11.070312h60.933594c10.460938.003906 19.867188 4.21875 26.726563 11.070312 6.851562 6.863281 11.070312 16.269531 11.074219 26.726562v57.777344h6.824218v-6.828125 6.828125h6.828125v-57.777344c-.003906-28.417968-23.035156-51.445312-51.453125-51.449218h-60.933594c-28.417968.003906-51.449218 23.03125-51.453124 51.449218v57.777344c0 1.796875.730468 3.554688 2 4.828125 1.273437 1.269531 3.03125 1.996094 4.828124 1.996094h150.1875c1.796876 0 3.554688-.726563 4.824219-1.996094 1.273438-1.273437 2-3.03125 2-4.828125zm0 0"/><path d="m273.160156 197.972656c0 7.542969-6.113281 13.652344-13.652344 13.652344-7.539062 0-13.652343-6.109375-13.652343-13.652344 0-7.539062 6.113281-13.652344 13.652343-13.652344 7.539063 0 13.652344 6.113282 13.652344 13.652344zm0 0"/><path d="m177.589844 283.308594c0-9.425782-4.585938-17.070313-10.242188-17.070313s-10.238281 7.644531-10.238281 17.070313c0 9.421875 4.582031 17.066406 10.238281 17.066406s10.242188-7.644531 10.242188-17.066406zm0 0"/><path d="m239.027344 283.308594c0-9.425782-4.585938-17.070313-10.238282-17.070313-5.65625 0-10.242187 7.644531-10.242187 17.070313 0 9.421875 4.585937 17.066406 10.242187 17.066406 5.652344 0 10.238282-7.644531 10.238282-17.066406zm0 0"/><path d="m314.121094 320.851562c37.707031 0 68.261718-30.558593 68.265625-68.265624 0-3.769532-3.054688-6.824219-6.824219-6.824219s-6.828125 3.054687-6.828125 6.824219c-.003906 15.101562-6.101563 28.714843-15.996094 38.617187-9.902343 9.894531-23.515625 15.992187-38.617187 15.996094-3.769532 0-6.828125 3.058593-6.828125 6.828125 0 3.769531 3.058593 6.824218 6.828125 6.824218zm0 0"/><path d="m13.746094 252.585938c.003906 37.707031 30.5625 68.261718 68.269531 68.265624 3.769531 0 6.824219-3.054687 6.824219-6.824218 0-3.769532-3.054688-6.828125-6.824219-6.828125-15.105469-.003907-28.714844-6.101563-38.621094-15.996094-9.890625-9.902344-15.988281-23.515625-15.996093-38.617187 0-3.769532-3.054688-6.824219-6.824219-6.824219s-6.828125 3.054687-6.828125 6.824219zm0 0"/></g><path d="m129.800781 395.945312v-40.957031h27.308594l-13.65625 40.957031zm0 0" fill="#fff"/><path d="m266.335938 395.945312v-40.957031h-27.308594l13.652344 40.957031zm0 0" fill="#fff"/><path d="m232.203125 6.828125h-61.441406l20.480469 116.050781h20.480468zm0 0" fill="#999"/><path d="m232.203125 6.828125v-6.828125h-61.441406c-2.027344 0-3.929688.886719-5.230469 2.4375s-1.84375 3.582031-1.492188 5.574219l20.480469 116.054687c.574219 3.265625 3.402344 5.640625 6.722657 5.640625h20.480468c3.316406 0 6.144532-2.375 6.722656-5.640625l20.480469-116.054687c.351563-1.992188-.191406-4.023438-1.496093-5.574219-1.300782-1.550781-3.203126-2.4375-5.226563-2.4375v6.828125l-6.722656-1.1875-19.488281 110.414063h-9.023438l-18.070312-102.402344h53.304687v-6.824219l-6.722656-1.1875zm0 0" fill="#54596e"/><path d="m279.140625 177.546875-54.613281 6.824219c-3.742188.46875-6.394532 3.882812-5.925782 7.621094.46875 3.742187 3.878907 6.394531 7.621094 5.929687l54.613282-6.828125c3.738281-.46875 6.394531-3.878906 5.925781-7.621094-.46875-3.738281-3.878907-6.394531-7.621094-5.925781" fill="#54596e"/><path d="m164.78125 184.371094-54.613281-6.824219c-3.742188-.46875-7.152344 2.1875-7.621094 5.925781-.46875 3.742188 2.1875 7.152344 5.929687 7.621094l54.613282 6.828125c3.738281.464844 7.152344-2.1875 7.617187-5.929687.46875-3.738282-2.183593-7.152344-5.925781-7.621094" fill="#54596e"/></svg>