<svg height="395pt" viewBox="0 -8 395.94496 395" width="395pt" xmlns="http://www.w3.org/2000/svg"><path d="m64.414062 19.417969 18.171876 67.839843 61.441406-61.441406-67.835938-18.175781c-7.152344-1.917969-13.691406 4.628906-11.777344 11.777344zm0 0" fill="#aca3d3"/><path d="m64.414062 19.417969-6.59375 1.765625 18.171876 67.835937c.628906 2.355469 2.46875 4.199219 4.824218 4.828125 2.355469.632813 4.871094-.039062 6.59375-1.765625l61.441406-61.4375c1.722657-1.726562 2.398438-4.238281 1.765626-6.597656-.628907-2.355469-2.46875-4.195313-4.824219-4.824219l-67.832031-18.179687c-1.421876-.378907-2.871094-.570313-4.300782-.570313-9.082031.054688-16.355468 7.332032-16.410156 16.410156 0 1.421876.1875 2.875.570312 4.300782l6.59375-1.765625 6.59375-1.761719-.105468-.769531c0-.710938.289062-1.386719.828125-1.933594.546875-.539063 1.21875-.828125 1.929687-.828125l.765625.109375 56.414063 15.113281-44.71875 44.71875-15.113282-56.414062zm0 0" fill="#54596e"/><path d="m328.011719 19.417969-18.179688 67.839843-61.4375-61.441406 67.832031-18.175781c7.152344-1.917969 13.699219 4.628906 11.785157 11.777344zm0 0" fill="#aca3d3"/><path d="m328.011719 19.417969-6.59375-1.765625-15.117188 56.417968-44.722656-44.722656 56.414063-15.113281.765624-.109375c.714844 0 1.390626.292969 1.933594.832031.539063.542969.832032 1.21875.832032 1.929688l-.105469.773437 6.59375 1.757813 6.597656 1.757812c.378906-1.425781.566406-2.878906.566406-4.289062-.058593-9.082031-7.335937-16.359375-16.417969-16.414063-1.429687 0-2.878906.191406-4.300781.570313l-67.832031 18.175781c-2.355469.632812-4.195312 2.472656-4.828125 4.828125-.628906 2.355469.042969 4.871094 1.769531 6.59375l61.4375 61.441406c1.726563 1.722657 4.238282 2.398438 6.597656 1.765625 2.355469-.632812 4.191407-2.472656 4.824219-4.828125l18.179688-67.835937zm0 0" fill="#54596e"/><path d="m323.125 168.503906h-250.304688v-34.132812c0-64.09375 51.953126-116.050782 116.054688-116.050782h18.199219c64.101562 0 116.050781 51.957032 116.050781 116.050782zm0 0" fill="#9b8fc1"/><g fill="#54596e"><path d="m323.125 168.503906v-6.824218h-243.480469v-27.308594c.003907-30.183594 12.214844-57.445313 31.992188-77.234375 19.785156-19.777344 47.046875-31.988281 77.234375-31.992188h18.199218c30.1875.003907 57.449219 12.214844 77.238282 31.992188 19.773437 19.789062 31.984375 47.050781 31.988281 77.234375v34.132812h6.828125v-6.824218 6.824218h6.828125v-34.132812c-.003906-67.867188-55.007813-122.875-122.878906-122.878906h-18.199219c-67.875.003906-122.878906 55.011718-122.882812 122.878906v34.132812c0 1.824219.710937 3.539063 2 4.828125 1.292968 1.289063 3.003906 2 4.828124 2h250.304688c1.824219 0 3.539062-.710937 4.828125-2 1.289063-1.289062 2-3.003906 2-4.828125zm0 0"/><path d="m245.761719 130.960938c0 5.652343-4.585938 10.238281-10.242188 10.238281s-10.238281-4.585938-10.238281-10.238281c0-5.65625 4.582031-10.242188 10.238281-10.242188s10.242188 4.585938 10.242188 10.242188zm0 0"/><path d="m170.667969 130.960938c0 5.652343-4.585938 10.238281-10.242188 10.238281s-10.238281-4.585938-10.238281-10.238281c0-5.65625 4.582031-10.242188 10.238281-10.242188s10.242188 4.585938 10.242188 10.242188zm0 0"/></g><path d="m157.011719 373.308594c-11.3125 0-20.476563-9.171875-20.476563-20.480469v-20.480469h40.957032v20.480469c0 11.308594-9.164063 20.480469-20.480469 20.480469" fill="#fff"/><path d="m157.011719 373.308594v-6.828125c-7.539063-.015625-13.640625-6.121094-13.652344-13.652344v-13.65625h27.308594v13.65625c-.015625 7.53125-6.113281 13.636719-13.65625 13.652344v13.648437c15.085937 0 27.304687-12.222656 27.308593-27.300781v-20.480469c0-1.800781-.726562-3.558594-2-4.832031-1.273437-1.269531-3.03125-1.996094-4.828124-1.996094h-40.957032c-1.800781 0-3.558594.726563-4.828125 1.996094-1.273437 1.273437-2 3.03125-2 4.832031v20.480469c.003907 15.078125 12.21875 27.300781 27.304688 27.300781z" fill="#54596e"/><path d="m238.933594 373.308594c-11.316406 0-20.480469-9.171875-20.480469-20.480469v-20.480469h40.960937v20.480469c0 11.308594-9.167968 20.480469-20.480468 20.480469" fill="#fff"/><path d="m238.933594 373.308594v-6.828125c-7.542969-.015625-13.640625-6.121094-13.652344-13.652344v-13.65625h27.304688v13.65625c-.011719 7.53125-6.109376 13.636719-13.652344 13.652344v13.648437c15.085937 0 27.300781-12.222656 27.304687-27.300781v-20.480469c0-1.800781-.726562-3.558594-2-4.832031-1.265625-1.269531-3.027343-1.996094-4.824219-1.996094h-40.960937c-1.796875 0-3.554687.726563-4.828125 1.996094-1.269531 1.273437-1.996094 3.03125-1.996094 4.832031v20.480469c.003906 15.078125 12.21875 27.300781 27.304688 27.300781z" fill="#54596e"/><path d="m350.554688 346h-305.160157c-21.300781 0-38.566406-17.375-38.566406-38.792969l12.328125-116.265625c1.351562-12.761718 12.050781-22.4375 24.796875-22.4375h308.042969c12.746094 0 23.445312 9.675782 24.796875 22.4375l12.328125 116.265625c0 21.421875-17.269532 38.792969-38.566406 38.792969" fill="#aca3d3"/><path d="m350.554688 346v-6.824219h-305.160157c-8.773437-.011719-16.660156-3.558593-22.429687-9.351562-5.757813-5.800781-9.308594-13.761719-9.3125-22.617188h-6.828125l6.792969.71875 12.324218-116.269531c.988282-9.304688 8.789063-16.332031 18.007813-16.320312h308.042969c9.222656-.011719 17.023437 7.015624 18.007812 16.324218l12.328125 116.265625 6.792969-.71875h-6.828125c-.003907 8.855469-3.554688 16.816407-9.3125 22.617188-5.769531 5.792969-13.65625 9.34375-22.429688 9.351562v13.648438c25.105469-.007813 45.394531-20.449219 45.394531-45.621094l-.042968-.714844-12.320313-116.273437c-1.722656-16.199219-15.324219-28.53125-31.589843-28.539063h-308.039063c-16.269531.007813-29.867187 12.339844-31.589844 28.539063l-12.3242185 116.273437-.0390625.71875c0 25.167969 20.289062 45.609375 45.394531 45.617188h305.160157z" fill="#54596e"/><path d="m15.070312 294.203125-1.414062 13.359375c.097656 8.714844 3.628906 16.535156 9.308594 22.261719 5.769531 5.792969 13.65625 9.34375 22.429687 9.351562h305.160157c8.773437-.011719 16.65625-3.558593 22.429687-9.351562 5.679687-5.726563 9.210937-13.546875 9.308594-22.261719l-1.417969-13.359375c-7.0625 9.027344-18.019531 14.824219-30.320312 14.824219h-305.160157c-12.304687-.003906-23.261719-5.800782-30.324219-14.824219" fill="#a39bc9"/><path d="m389.121094 270.226562c0 9.050782-3.082032 17.378907-8.246094 23.976563l1.417969 13.359375c-.097657 8.714844-3.628907 16.535156-9.308594 22.261719-5.773437 5.792969-13.65625 9.34375-22.429687 9.351562h-305.160157c-8.773437-.011719-16.660156-3.558593-22.429687-9.351562-5.679688-5.726563-9.210938-13.546875-9.308594-22.261719l1.414062-13.359375c-5.164062-6.597656-8.242187-14.925781-8.242187-23.976563v36.980469c0 21.421875 17.265625 38.792969 38.566406 38.792969h305.160157c21.296874 0 38.566406-17.375 38.566406-38.792969z" fill="#54596e"/><path d="m143.359375 229.945312v-44.371093c0-13.199219-10.699219-23.894531-23.894531-23.894531-13.191406 0-23.890625 10.695312-23.890625 23.894531v44.371093" fill="#aca3d3"/><path d="m150.1875 229.945312v-44.371093c-.007812-16.972657-13.753906-30.71875-30.722656-30.722657-16.964844.003907-30.714844 13.75-30.71875 30.722657v44.371093c0 3.769532 3.058594 6.828126 6.828125 6.828126s6.824219-3.058594 6.824219-6.828126v-44.371093c.019531-9.425781 7.648437-17.050781 17.066406-17.070313 9.421875.019532 17.050781 7.644532 17.070312 17.070313v44.371093c0 3.769532 3.054688 6.828126 6.824219 6.828126s6.828125-3.058594 6.828125-6.828126zm0 0" fill="#54596e"/><path d="m119.464844 223.117188c-5.652344 0-10.238282-4.582032-10.238282-10.238282v-27.304687c0-5.65625 4.585938-10.242188 10.238282-10.242188 5.65625 0 10.242187 4.585938 10.242187 10.242188v27.304687c0 5.65625-4.585937 10.238282-10.242187 10.238282zm0 0" fill="#54596e"/><path d="m300.375 229.945312v-44.371093c0-13.199219-10.703125-23.894531-23.894531-23.894531-13.191407 0-23.894531 10.695312-23.894531 23.894531v44.371093" fill="#aca3d3"/><path d="m307.199219 229.945312v-44.371093c-.003907-16.972657-13.753907-30.71875-30.71875-30.722657-16.964844.003907-30.714844 13.75-30.71875 30.722657v44.371093c0 3.769532 3.054687 6.828126 6.824219 6.828126 3.769531 0 6.828124-3.058594 6.828124-6.828126v-44.371093c.015626-9.425781 7.644532-17.050781 17.066407-17.070313 9.421875.019532 17.050781 7.644532 17.066406 17.070313v44.371093c0 3.769532 3.054687 6.828126 6.828125 6.828126 3.769531 0 6.824219-3.058594 6.824219-6.828126zm0 0" fill="#54596e"/><path d="m276.480469 223.117188c-5.652344 0-10.242188-4.582032-10.242188-10.238282v-27.304687c0-5.65625 4.589844-10.242188 10.242188-10.242188 5.652343 0 10.238281 4.585938 10.238281 10.242188v27.304687c0 5.65625-4.585938 10.238282-10.238281 10.238282zm0 0" fill="#54596e"/></svg>