<svg height="459pt" viewBox="-5 0 459 459.91481" width="459pt" xmlns="http://www.w3.org/2000/svg"><path d="m420.171875 22.355469c-1.945313 23.128906-26.046875 26.777343-26.046875 26.777343 20.695312.972657 25.851562 28.117188 25.851562 28.117188.441407-19.351562 26.640626-28.402344 26.640626-28.402344-19.628907-1.175781-26.445313-26.492187-26.445313-26.492187zm0 0" fill="#d7e057"/><path d="m446.796875 45.851562c-17.210937-1.027343-23.664063-24.046874-23.730469-24.28125-.382812-1.40625-1.730468-2.332031-3.164062-2.203124-1.449219.132812-2.597656 1.285156-2.71875 2.734374-1.71875 20.429688-22.625 23.925782-23.507813 24.0625-1.527343.230469-2.625 1.582032-2.546875 3.121094.082032 1.542969 1.316406 2.769532 2.855469 2.84375 18.058594.851563 22.996094 25.4375 23.046875 25.6875.273438 1.421875 1.519531 2.433594 2.945312 2.433594.082032 0 .167969-.003906.25-.011719 1.527344-.128906 2.714844-1.386719 2.75-2.917969.390626-17.015624 24.386719-25.554687 24.625-25.636718 1.351563-.472656 2.1875-1.828125 1.988282-3.246094-.199219-1.417969-1.367188-2.5-2.792969-2.585938zm-27.132813 20.691407c-2.710937-6.257813-7.417968-13.8125-15.175781-17.753907 5.863281-2.804687 12.820313-7.824218 16.40625-16.542968 3.101563 6.140625 8.398438 13.757812 16.667969 17.441406-6.015625 3.28125-13.847656 8.816406-17.898438 16.855469zm0 0" fill="#3a312a"/><path d="m376.777344 56.316406c-1.378906 16.355469-18.429688 18.941406-18.429688 18.941406 14.636719.6875 18.285156 19.886719 18.285156 19.886719.3125-13.6875 18.84375-20.089843 18.84375-20.089843-13.878906-.832032-18.699218-18.738282-18.699218-18.738282zm0 0" fill="#d7e057"/><path d="m395.65625 72.058594c-11.53125-.691406-15.941406-16.371094-15.984375-16.527344-.378906-1.40625-1.703125-2.328125-3.164063-2.203125-1.453124.128906-2.597656 1.28125-2.71875 2.734375-1.160156 13.742188-15.296874 16.132812-15.886718 16.226562-1.527344.230469-2.625 1.578126-2.546875 3.121094.078125 1.539063 1.3125 2.769532 2.855469 2.84375 12.070312.566406 15.445312 17.285156 15.476562 17.449219.273438 1.425781 1.519531 2.441406 2.945312 2.441406.085938 0 .167969 0 .25-.007812 1.53125-.128907 2.714844-1.390625 2.753907-2.925781.257812-11.417969 16.664062-17.265626 16.824219-17.320313 1.351562-.46875 2.1875-1.828125 1.992187-3.246094-.199219-1.417969-1.367187-2.5-2.796875-2.585937zm-19.167969 13.589844c-1.847656-3.773438-4.679687-7.894532-8.894531-10.558594 3.710938-2.085938 7.394531-5.261719 9.742188-9.835938 2.113281 3.75 5.308593 7.910156 9.882812 10.449219-3.699219 2.203125-7.976562 5.480469-10.730469 9.945313zm0 0" fill="#3a312a"/><path d="m376.777344 3c-1.378906 16.355469-18.429688 18.941406-18.429688 18.941406 14.636719.6875 18.285156 19.886719 18.285156 19.886719.3125-13.6875 18.84375-20.089844 18.84375-20.089844-13.878906-.828125-18.699218-18.738281-18.699218-18.738281zm0 0" fill="#d7e057"/><path d="m395.660156 18.746094c-11.53125-.691406-15.945312-16.375-15.988281-16.53125-.378906-1.402344-1.703125-2.324219-3.164063-2.2031252-1.453124.1289062-2.597656 1.2812502-2.71875 2.7343752-1.160156 13.742187-15.296874 16.132812-15.886718 16.230468-1.527344.226563-2.625 1.578126-2.546875 3.117188.078125 1.542969 1.3125 2.769531 2.855469 2.84375 12.070312.566406 15.449218 17.289062 15.476562 17.453125.273438 1.425781 1.519531 2.4375 2.949219 2.4375.082031 0 .164062 0 .25-.007813 1.527343-.128906 2.714843-1.390624 2.75-2.921874.261719-11.417969 16.664062-17.269532 16.824219-17.324219 1.351562-.46875 2.1875-1.828125 1.992187-3.246094-.199219-1.414063-1.367187-2.496094-2.792969-2.582031zm-19.171875 13.589844c-1.847656-3.769532-4.679687-7.894532-8.894531-10.5625 3.714844-2.082032 7.394531-5.257813 9.742188-9.832032 2.117187 3.75 5.308593 7.910156 9.882812 10.449219-3.699219 2.199219-7.976562 5.476563-10.730469 9.945313zm0 0" fill="#3a312a"/><path d="m213.457031 428.914062h-19v-75.539062c-4.71875-1.339844-9.398437-2.820312-14-4.398438v77.378907l-28.898437-9.121094c-3.679688-1.160156-7.601563.878906-8.78125 4.582031-1.160156 3.679688.878906 7.617188 4.578125 8.777344l18.460937 5.820312-18.777344 6.941407c-3.621093 1.320312-5.480468 5.359375-4.140624 8.980469 1.039062 2.820312 3.71875 4.578124 6.558593 4.578124.800781 0 1.621094-.140624 2.421875-.4375l36.820313-13.5625h24.757812c3.859375 0 7-3.140624 7-7 0-3.859374-3.140625-7-7-7zm0 0" fill="#87796f"/><path d="m213.457031 425.914062h-16v-72.539062c0-1.34375-.890625-2.519531-2.179687-2.886719-4.507813-1.28125-9.164063-2.742187-13.84375-4.347656-.917969-.316406-1.929688-.167969-2.71875.394531-.789063.5625-1.253906 1.472656-1.253906 2.441406v20.019532c0 1.660156 1.339843 3 3 3 1.65625 0 3-1.339844 3-3v-15.847656c2.691406.878906 5.363281 1.710937 8 2.480468v73.285156c0 1.660157 1.339843 3 3 3h19c2.203124 0 4 1.792969 4 4 0 2.207032-1.796876 4-4 4h-24.761719c-.355469 0-.703125.0625-1.035157.183594l-36.835937 13.566406c-2.007813.753907-4.371094-.359374-5.113281-2.371093-.375-1.003907-.328125-2.089844.121094-3.058594.449218-.96875 1.242187-1.699219 2.246093-2.0625l18.78125-6.941406c1.203125-.445313 1.988281-1.605469 1.957031-2.886719s-.875-2.402344-2.097656-2.789062l-18.464844-5.820313c-1.019531-.320313-1.851562-1.015625-2.347656-1.964844-.492187-.945312-.589844-2.03125-.269531-3.039062.671875-2.113281 2.921875-3.296875 5.015625-2.632813l28.902344 9.121094c.910156.285156 1.90625.125 2.675781-.441406s1.226563-1.464844 1.226563-2.421875v-28.855469c0-1.65625-1.34375-3-3-3-1.660157 0-3 1.34375-3 3v24.761719l-25-7.886719c-5.238282-1.652344-10.867188 1.277344-12.542969 6.539062-.804688 2.550782-.566407 5.257813.671875 7.628907 1.234375 2.371093 3.320312 4.117187 5.867187 4.914062l10.097657 3.183594-10.542969 3.894531c-2.503907.914063-4.5 2.75-5.621094 5.175782-1.128906 2.433593-1.234375 5.15625-.308594 7.660156 1.445313 3.914062 5.210938 6.542968 9.375 6.542968 1.1875 0 2.359375-.210937 3.457031-.625l36.320313-13.375h24.222656c5.515625 0 10-4.484374 10-10 0-5.511718-4.484375-10-10-10zm0 0" fill="#3a312a"/><path d="m301.457031 428.914062h-19v-63.777343c-4.601562.058593-9.28125 0-14-.203125v61.421875l-28.898437-9.121094c-3.679688-1.160156-7.621094.878906-8.78125 4.582031-1.160156 3.679688.878906 7.617188 4.578125 8.777344l18.460937 5.820312-18.777344 6.941407c-3.621093 1.320312-5.480468 5.359375-4.140624 8.980469 1.039062 2.820312 3.71875 4.578124 6.558593 4.578124.800781 0 1.621094-.140624 2.421875-.4375l36.820313-13.5625h24.757812c3.859375 0 7-3.140624 7-7 0-3.859374-3.140625-7-7-7zm0 0" fill="#87796f"/><path d="m301.457031 425.914062h-16v-60.777343c0-.804688-.320312-1.574219-.890625-2.136719-.574218-.5625-1.335937-.871094-2.148437-.863281-4.632813.0625-9.292969-.007813-13.832031-.199219-.847657-.046875-1.613282.265625-2.203126.832031-.589843.566407-.925781 1.347657-.925781 2.167969v57.324219l-24.996093-7.886719c-2.550782-.804688-5.257813-.5625-7.632813.671875-2.367187 1.234375-4.113281 3.320313-4.910156 5.867187-.804688 2.550782-.566407 5.257813.671875 7.628907 1.234375 2.371093 3.320312 4.117187 5.867187 4.914062l10.097657 3.183594-10.542969 3.894531c-2.503907.914063-4.5 2.75-5.621094 5.175782-1.128906 2.433593-1.234375 5.15625-.308594 7.660156 1.445313 3.914062 5.210938 6.542968 9.375 6.542968 1.1875 0 2.359375-.210937 3.457031-.625l36.320313-13.375h24.222656c5.515625 0 10-4.484374 10-10 0-5.511718-4.484375-10-10-10zm0 14h-24.757812c-.355469 0-.707031.0625-1.039063.183594l-36.835937 13.566406c-2.007813.753907-4.371094-.359374-5.113281-2.371093-.371094-1.003907-.328126-2.089844.121093-3.058594s1.242188-1.699219 2.246094-2.0625l18.777344-6.941406c1.207031-.445313 1.992187-1.605469 1.960937-2.886719s-.875-2.402344-2.097656-2.789062l-18.464844-5.820313c-1.019531-.320313-1.851562-1.015625-2.347656-1.964844-.492188-.945312-.589844-2.03125-.265625-3.054687.320313-1.019532 1.015625-1.855469 1.960937-2.347656.582032-.300782 1.210938-.453126 1.847657-.453126.402343 0 .808593.0625 1.203125.183594l28.898437 9.121094c.910157.285156 1.90625.125 2.675781-.441406.773438-.566406 1.226563-1.464844 1.226563-2.421875v-58.308594c2.644531.078125 5.320313.132813 8 .113281v60.757813c0 1.65625 1.34375 3 3 3h19c2.207031 0 4 1.792969 4 4 0 2.203125-1.789063 3.996093-3.996094 3.996093zm0 0" fill="#3a312a"/><path d="m42.496094 66.554688-39.039063 22.558593 39.039063 22.542969c-4-14.742188-4-30.339844 0-45.101562zm0 0" fill="#87796f"/><path d="m45.394531 110.867188c-3.863281-14.226563-3.863281-29.277344 0-43.527344.316407-1.171875-.105469-2.421875-1.066406-3.160156-.964844-.742188-2.277344-.828126-3.332031-.222657l-39.039063 22.558594c-.925781.539063-1.5 1.527344-1.5 2.597656 0 1.074219.574219 2.0625 1.5 2.597657l39.039063 22.539062c.46875.269531.984375.402344 1.5.402344.648437 0 1.296875-.210938 1.832031-.625.964844-.738282 1.382813-1.988282 1.066406-3.160156zm-7.355469-5.253907-28.582031-16.5 28.582031-16.515625c-2.054687 10.90625-2.054687 22.117188 0 33.015625zm0 0" fill="#3a312a"/><path d="m389.472656 284.675781c-9.105468-6.503906-17.875-14.527343-26.105468-22.898437-23.679688-40.777344-64.488282-84.039063-90.714844-105.988282-20.496094-17.152343-43.433594-30.390624-66.820313-36.765624 11.316407-30.496094 4.742188-66.121094-19.761719-90.628907-33.53125-33.53125-87.898437-33.53125-121.429687 0s-33.53125 87.894531 0 121.429688c7.355469 7.355469 15.714844 13.097656 24.640625 17.222656-20.796875 36.894531-17.730469 84.3125 7.238281 123.039063 42.9375 66.601562 164.738281 85.464843 234.523438 69.996093 39.417969 27.730469 78.128906 40.1875 86.960937 27.820313 4.226563-5.921875.847656-16.472656-8.097656-28.960938 17.546875 6.253906 30.980469 6.796875 35.738281.128906 8.957031-12.546874-16.191406-45.851562-56.171875-74.394531zm0 0" fill="#d7e057"/><path d="m438.304688 326.0625c-10.789063-14.285156-27.511719-29.855469-47.089844-43.828125-7.882813-5.628906-16.210938-12.921875-25.449219-22.292969-23.546875-40.410156-63.738281-83.480468-91.1875-106.453125-20.84375-17.445312-43.199219-30.007812-64.863281-36.476562 10.46875-31.726563 2.195312-67.019531-21.527344-90.742188-16.78125-16.78125-39.097656-26.027343-62.832031-26.027343s-46.050781 9.246093-62.835938 26.027343c-34.644531 34.648438-34.644531 91.023438 0 125.671875 6.683594 6.679688 14.285157 12.199219 22.625 16.429688-19.613281 37.335937-16.324219 84.285156 8.855469 123.335937 19.753906 30.644531 58.460938 54.457031 108.988281 67.058594 43.058594 10.738281 90.558594 12.410156 127.414063 4.523437 26.058594 18.144532 56.34375 32.40625 75.054687 32.402344 6.746094 0 11.996094-1.855468 14.992188-6.050781 4.089843-5.726563 2.878906-14.394531-3.457031-25.3125 15.5 4.246094 26.402343 3.0625 31.097656-3.515625 5.230468-7.328125 1.847656-19.34375-9.785156-34.75zm4.902343 31.261719c-3.667969 5.140625-15.742187 4.6875-32.292969-1.214844-1.234374-.4375-2.613281-.023437-3.402343 1.019531-.789063 1.050782-.808594 2.488282-.042969 3.554688 8.242188 11.503906 11.265625 21.027344 8.09375 25.46875-3.34375 4.6875-14.058594 4.695312-28.652344.015625-16.070312-5.152344-35.296875-15.289063-54.140625-28.546875-.507812-.355469-1.113281-.542969-1.722656-.542969-.21875 0-.433594.023437-.652344.070313-68.347656 15.148437-189.421875-3.65625-231.351562-68.691407-24.605469-38.160156-27.339844-84.117187-7.148438-119.9375.410157-.730469.5-1.597656.242188-2.394531-.257813-.796875-.835938-1.449219-1.597657-1.800781-8.832031-4.089844-16.832031-9.679688-23.777343-16.625-15.648438-15.652344-24.269531-36.460938-24.269531-58.59375 0-22.128907 8.621093-42.941407 24.269531-58.589844 15.648437-15.652344 36.460937-24.269531 58.59375-24.269531 22.132812 0 42.945312 8.617187 58.59375 24.269531 22.832031 22.828125 30.316406 57.160156 19.074219 87.464844-.292969.789062-.238282 1.667969.144531 2.417969.382812.746093 1.066406 1.300781 1.878906 1.523437 21.789063 5.9375 44.503906 18.445313 65.679687 36.167969 27.136719 22.710937 66.886719 65.316406 90.042969 105.195312.128907.21875.28125.417969.457031.597656 9.589844 9.75 18.257813 17.347657 26.503907 23.234376 41.222656 29.425781 62.320312 60.621093 55.476562 70.207031zm0 0" fill="#3a312a"/><path d="m106.410156 45.960938c-6.546875 0-11.851562 5.308593-11.851562 11.855468 0 6.542969 5.304687 11.851563 11.851562 11.851563s11.851563-5.308594 11.851563-11.851563c0-6.546875-5.304688-11.855468-11.851563-11.855468zm0 0" fill="#3a312a"/><path d="m285.046875 228.121094-17.953125-19.09375c-5.835938-5.714844-11.378906-10.683594-16.144531-14.554688-29.417969-23.878906-66.554688-34.941406-96.335938-11.519531-29.785156 23.421875-32.527343 64.804687-11.519531 96.339844 33.34375 50.0625 139.386719 54.636719 169.167969 31.214843 20.332031-15.988281-1.644531-52.835937-27.214844-82.386718zm0 0" fill="#fce8cb"/><path d="m287.3125 226.160156c-1.085938-1.253906-2.980469-1.390625-4.230469-.304687-1.253906 1.082031-1.390625 2.976562-.304687 4.230469 23.242187 26.863281 35.765625 50.738281 34.351562 65.496093-.507812 5.296875-2.707031 9.410157-6.722656 12.570313-14.917969 11.726562-51.347656 16.15625-86.617188 10.519531-36.175781-5.777344-64.679687-20.734375-78.203124-41.039063-21.21875-31.851562-16.644532-70.675781 10.875-92.316406 24.949218-19.621094 59.566406-15.324218 92.59375 11.488282 4.839843 3.929687 10.351562 8.894531 15.9375 14.367187 1.183593 1.160156 3.082031 1.140625 4.242187-.042969s1.140625-3.085937-.042969-4.242187c-5.714844-5.597657-11.371094-10.695313-16.355468-14.738281-35.359376-28.707032-72.773438-33.023438-100.082032-11.550782-30.042968 23.628906-35.160156 65.835938-12.160156 100.359375 8.492188 12.75 30.464844 35.371094 82.25 43.640625 10.722656 1.714844 21.460938 2.539063 31.707031 2.539063 25.457031 0 47.890625-5.089844 59.5625-14.269531 5.300781-4.167969 8.324219-9.789063 8.988281-16.710938 2.148438-22.433594-21.5-53.484375-35.789062-69.996094zm0 0" fill="#3a312a"/><path d="m407.355469 360.515625c-5.878907 1.121094-15.117188-.359375-26.4375-4.402344-1.242188-.4375-2.621094-.019531-3.402344 1.023438-.796875 1.039062-.816406 2.476562-.039063 3.558593 8.019532 11.199219 11.101563 20.539063 8.320313 25.097657.378906.140625.742187.261719 1.121094.382812 14.578125 4.679688 25.300781 4.660157 28.640625-.019531 3.179687-4.441406.160156-13.960938-8.082032-25.460938-.039062-.058593-.078124-.121093-.121093-.179687zm-19.617188-73.402344c-8.261719-5.878906-16.921875-13.476562-26.519531-23.238281-.160156-.160156-.320312-.378906-.441406-.582031-23.160156-39.878907-62.921875-82.5-90.058594-105.199219-21.160156-17.71875-43.882812-30.238281-65.679688-36.179688-.800781-.21875-1.480468-.757812-1.882812-1.519531-.378906-.738281-.417969-1.621093-.140625-2.417969 11.242187-30.300781 3.761719-64.621093-19.058594-87.460937-15.660156-15.640625-36.460937-24.261719-58.601562-24.261719-5.078125 0-10.097657.460938-15 1.359375 16.421875 2.980469 31.542969 10.863281 43.601562 22.902344 22.820313 22.839844 30.300781 57.160156 19.058594 87.460937-.277344.796876-.238281 1.679688.140625 2.417969.402344.761719 1.082031 1.300781 1.882812 1.519531 21.796876 5.941407 44.519532 18.460938 65.679688 36.179688 27.136719 22.699219 66.898438 65.320312 90.058594 105.199219.121094.203125.28125.421875.441406.582031 9.597656 9.761719 18.257812 17.359375 26.519531 23.238281 40.738281 29.101563 61.839844 59.902344 55.679688 69.863281 15.257812 5.078126 26.300781 5.21875 29.78125.339844 6.859375-9.582031-14.242188-40.761718-55.460938-70.203125zm0 0" fill="#b9c239"/></svg>