<svg height="411pt" viewBox="-30 0 411 411.0319" width="411pt" xmlns="http://www.w3.org/2000/svg"><path d="m70.496094 375.800781c-12.292969-10.953125-26.972656-30.707031-39.824219-54.882812-21.902344-41.195313-30.214844-79.609375-18.5625-85.804688 11.652344-6.195312 38.851563 22.175781 60.753906 63.371094 13.339844 25.085937 21.640625 49.144531 23.453125 65.519531l17.066406-7.789062 45.550782 47.789062h-129.699219c-11.316406 0-12.101563-3.832031-1.902344-8.492187zm0 0" fill="#9af43b" fill-rule="evenodd"/><path d="m70.496094 375.800781 4.539062-5.097656c-11.335937-10.054687-25.8125-29.371094-38.335937-52.992187-7.421875-13.953126-13.234375-27.574219-17.152344-39.527344-3.929687-11.921875-5.90625-22.273438-5.882813-29.121094-.007812-3.015625.394532-5.308594.875-6.570312.234376-.636719.464844-1.007813.601563-1.179688l.167969-.171875.007812-.003906.402344-.050781c.882812-.085938 3.921875.816406 7.703125 3.539062 5.722656 3.992188 13.085937 11.4375 20.652344 21.273438 7.589843 9.839843 15.476562 22.082031 22.761719 35.789062 13.054687 24.472656 21.085937 48.128906 22.695312 63.066406.242188 2.175782 1.511719 4.101563 3.417969 5.183594s4.210937 1.183594 6.203125.273438l12.644531-5.769532 31.199219 32.730469h-113.761719c-2.578125.019531-4.34375-.289063-4.695313-.429687l-.046874-.015626-1.230469 3.03125 2.339843-2.195312c-.679687-.699219-1.085937-.816406-1.109374-.835938l-1.226563 3.03125 2.335937-2.195312-3.882812 3.640625h5.296875c.042969-1.433594-.734375-2.992187-1.414063-3.640625l-3.882812 3.640625h5.296875-4.597656l3.851562 2.632813c.210938-.3125.730469-1.183594.742188-2.632813h-4.597657l3.851563 2.632813-1.714844-1.171876 1.542969 1.390626.171875-.21875-1.714844-1.171876 1.542969 1.390626-.296875-.269532.285156.285156.011719-.015624-.296875-.269532.285156.285156c.042969-.105468 1.558594-1.234374 4.082031-2.351562l43.164063-19.707031c2.097656-.960938 3.570313-2.914063 3.917969-5.195313.339844-2.277344-.488282-4.582031-2.210938-6.113281l-4.539062 5.097656-2.839844-6.210937-43.160156 19.710937c-2.726563 1.253907-4.921875 2.476563-6.828125 4-.949219.777344-1.847657 1.632813-2.675781 2.832031-.804688 1.183594-1.625 2.867188-1.636719 5.070313-.003907 1.226563.300781 2.53125.839843 3.617187.964844 1.9375 2.390626 3.074219 3.601563 3.792969 1.859375 1.066407 3.546875 1.46875 5.386719 1.789063 1.828125.296875 3.808594.421875 6.054687.421875h129.695313c2.738281 0 5.195312-1.617188 6.277344-4.136719 1.078124-2.519531.554687-5.417969-1.335938-7.398438l-45.546875-47.785156c-2.003906-2.105468-5.132813-2.710937-7.773437-1.5l-17.066407 7.789063 2.832031 6.210937 6.785157-.753906c-2.019531-17.816406-10.582031-42.273438-24.210938-67.972656-10.167969-19.117188-21.429687-35.550782-32.082031-47.476563-5.339844-5.964843-10.515625-10.8125-15.542969-14.347656-5.046875-3.480469-9.921875-5.929687-15.550781-6.015625-2.269531-.007812-4.671875.5-6.8125 1.648438h.007812c-3.628906 1.914062-5.949218 5.273437-7.179687 8.683593-1.261719 3.460938-1.7070312 7.195313-1.71875 11.296875.0234375 9.230469 2.371094 20.53125 6.5625 33.375 4.207031 12.820313 10.308594 27.082032 18.070313 41.683594 13.183593 24.730469 28.066406 44.929688 41.3125 56.773438l4.535156-5.097657-2.839844-6.210937zm0 0" fill="#54596e"/><path d="m279.59375 375.800781c12.292969-10.953125 26.972656-30.707031 39.824219-54.882812 21.902343-41.195313 30.214843-79.609375 18.5625-85.804688-11.652344-6.195312-38.851563 22.175781-60.753907 63.371094-13.339843 25.085937-21.640624 49.144531-23.457031 65.519531l-17.066406-7.789062-45.546875 47.789062h129.699219c11.316406 0 12.101562-3.832031 1.902343-8.492187zm0 0" fill="#9af43b" fill-rule="evenodd"/><path d="m279.59375 375.800781 4.542969 5.09375c13.242187-11.84375 28.128906-32.042969 41.308593-56.773437 7.761719-14.601563 13.867188-28.863282 18.070313-41.683594 4.191406-12.84375 6.539063-24.144531 6.5625-33.375-.007813-4.101562-.453125-7.835938-1.714844-11.296875-1.234375-3.410156-3.554687-6.769531-7.179687-8.683594l.003906.003907c-2.140625-1.148438-4.542969-1.660157-6.8125-1.652344-5.625.085937-10.503906 2.539062-15.550781 6.015625-7.519531 5.304687-15.460938 13.558593-23.617188 24.109375-8.132812 10.546875-16.386719 23.378906-24.007812 37.71875-13.625 25.695312-22.191407 50.152344-24.214844 67.96875l6.785156.753906 2.835938-6.210938-17.0625-7.789062c-2.648438-1.207031-5.773438-.601562-7.777344 1.5l-45.550781 47.789062c-1.890625 1.980469-2.410156 4.878907-1.332032 7.394532 1.078126 2.519531 3.539063 4.140625 6.277344 4.140625h129.695313c3.433593-.019531 6.191406-.25 8.863281-1.082031 1.339844-.445313 2.730469-1.023438 4.195312-2.3125.71875-.648438 1.445313-1.515626 1.980469-2.609376.542969-1.085937.847657-2.390624.839844-3.617187-.011719-2.203125-.828125-3.886719-1.632813-5.070313-1.253906-1.785156-2.625-2.863281-4.167968-3.921874-1.542969-1.039063-3.296875-1.976563-5.339844-2.910157l-43.160156-19.710937-2.839844 6.210937 4.542969 5.09375-4.542969-5.09375-2.835938 6.207031 43.164063 19.710938c2.058594.929688 3.433594 1.796875 3.910156 2.199219l.175781.152343 1.761719-1.710937-2.148437 1.132813.386718.578124 1.761719-1.710937-2.148437 1.132813 4.332031-2.289063h-4.875c.003906 1.070313.316406 1.867187.539063 2.289063l4.332031-2.289063h-4.871094 5.4375l-4.882813-2.394531c-.351562.699218-.5625 1.597656-.554687 2.394531h5.4375l-4.882813-2.394531 4.0625 1.992187-2.328124-3.957031c-.300782.179688-1.101563.707031-1.734376 1.964844l4.0625 1.988281-2.328124-3.957031.972656 1.652344-.75-1.765626-.222656.113282.972656 1.652344-.75-1.765626-.039063.011719c-.335937.136719-2.109375.449219-4.699219.429688h-113.761718l31.199218-32.734375 12.640626 5.773437c1.992187.910157 4.296874.808594 6.203124-.273437 1.90625-1.082032 3.175782-3.007813 3.417969-5.183594 1.617188-14.941406 9.644531-38.597656 22.699219-63.070312 9.707031-18.273438 20.511719-33.953126 30.207031-44.785157 4.832031-5.417969 9.40625-9.613281 13.207031-12.277343 3.78125-2.722657 6.820313-3.625 7.703126-3.535157l.402343.050781.007813.003907.167968.171875c.203126.246094.625.984375.941407 2.3125.324219 1.316406.539062 3.171875.535156 5.4375.023437 6.847656-1.953125 17.195312-5.882813 29.121094-3.917968 11.949218-9.730468 25.570312-17.148437 39.523437-12.527344 23.621094-27.003906 42.9375-38.339844 52.992187-1.71875 1.53125-2.550781 3.835938-2.207031 6.113282.34375 2.28125 1.816406 4.234375 3.914062 5.191406zm0 0" fill="#54596e"/><path d="m173.78125 404.207031c64.09375 0 116.054688-53.394531 116.054688-117.488281s-51.960938-116.054688-116.054688-116.054688c-64.097656 0-116.050781 51.960938-116.050781 116.054688s51.953125 117.488281 116.050781 117.488281zm0 0" fill="#64f96a" fill-rule="evenodd"/><path d="m173.78125 404.207031v6.824219c67.996094-.050781 122.855469-56.492188 122.878906-124.3125-.003906-67.867188-55.011718-122.875-122.878906-122.878906-67.867188.003906-122.875 55.011718-122.878906 122.878906.023437 67.820312 54.882812 124.261719 122.878906 124.3125v-13.652344c-30.128906-.003906-57.382812-12.53125-77.195312-32.667968-19.800782-20.144532-32.03125-47.808594-32.03125-77.992188.003906-30.183594 12.214843-57.449219 31.992187-77.234375 19.785156-19.777344 47.050781-31.988281 77.234375-31.996094 30.183594.003907 57.445312 12.21875 77.234375 31.996094 19.777344 19.789063 31.988281 47.050781 31.992187 77.234375.003907 30.183594-12.230468 57.847656-32.03125 77.992188-19.8125 20.136718-47.066406 32.664062-77.195312 32.667968zm0 0" fill="#54596e"/><path d="m173.78125 404.207031c-64.097656 0-116.050781-53.394531-116.050781-117.488281s51.953125-116.054688 116.050781-116.054688c64.09375 0 116.054688 51.960938 116.054688 116.054688s-51.960938 117.488281-116.054688 117.488281zm0 0" fill="#9af43b" fill-rule="evenodd"/><path d="m173.78125 404.207031v-6.828125c-30.128906-.003906-57.382812-12.53125-77.195312-32.667968-19.800782-20.144532-32.03125-47.808594-32.03125-77.992188.003906-30.183594 12.214843-57.449219 31.992187-77.234375 19.785156-19.777344 47.050781-31.988281 77.234375-31.996094 30.183594.003907 57.445312 12.21875 77.234375 31.996094 19.777344 19.789063 31.988281 47.050781 31.992187 77.234375.003907 30.183594-12.230468 57.847656-32.03125 77.992188-19.8125 20.136718-47.066406 32.664062-77.195312 32.667968v13.652344c67.996094-.050781 122.855469-56.492188 122.878906-124.3125-.003906-67.867188-55.011718-122.875-122.878906-122.878906-67.867188.003906-122.875 55.011718-122.878906 122.878906.023437 67.820312 54.882812 124.261719 122.878906 124.3125zm0 0" fill="#54596e"/><path d="m286.867188 79.949219c6.09375-7.746094 9.792968-17.773438 9.792968-28.75 0-24.507813-18.339844-44.375-40.957031-44.375-12.992187 0-24.550781 6.574219-32.054687 16.792969-15.355469-6.402344-32.1875-9.964844-49.867188-9.964844-17.675781 0-34.511719 3.5625-49.871094 9.964844-7.5-10.21875-19.058594-16.792969-32.046875-16.792969-22.625 0-40.960937 19.867187-40.960937 44.375 0 10.976562 3.695312 21.003906 9.789062 28.75-10.539062 18.753906-16.617187 40.359375-16.617187 63.410156 0 71.636719 58.070312 129.707031 129.707031 129.707031 71.632812 0 129.707031-58.070312 129.707031-129.707031 0-23.050781-6.078125-44.65625-16.621093-63.410156zm0 0" fill="#9af43b" fill-rule="evenodd"/><g fill="#54596e"><path d="m286.867188 79.949219 5.367187 4.21875c7.03125-8.933594 11.253906-20.449219 11.253906-32.96875 0-13.964844-5.226562-26.707031-13.808593-36.007813-8.558594-9.292968-20.636719-15.1992185-33.976563-15.191406-15.351563-.00390625-28.941406 7.804688-37.558594 19.578125l5.503907 4.042969 2.625-6.300782c-16.160157-6.742187-33.898438-10.492187-52.492188-10.492187-18.597656 0-36.335938 3.753906-52.5 10.492187l2.628906 6.300782 5.5-4.042969c-8.613281-11.773437-22.203125-19.58203125-37.550781-19.578125-13.34375-.0078125-25.421875 5.898438-33.980469 15.191406-8.582031 9.300782-13.804687 22.042969-13.808594 36.007813 0 12.515625 4.222657 24.035156 11.25 32.96875l5.367188-4.21875-5.949219-3.34375c-11.089843 19.726562-17.496093 42.496093-17.492187 66.753906.003906 75.40625 61.125 136.527344 136.53125 136.53125 75.40625-.003906 136.53125-61.121094 136.535156-136.53125 0-24.257813-6.402344-47.03125-17.496094-66.757813l-5.949218 3.347657 5.367187 4.21875-5.367187-4.21875-5.949219 3.34375c9.996093 17.785156 15.742187 38.21875 15.742187 60.066406 0 33.953125-13.742187 64.628906-35.988281 86.890625-22.261719 22.246094-52.9375 35.984375-86.890625 35.988281-33.953125-.003906-64.628906-13.742187-86.890625-35.988281-22.246094-22.261719-35.984375-52.9375-35.988281-86.890625 0-21.847656 5.75-42.28125 15.738281-60.066406 1.355469-2.410157 1.125-5.398438-.582031-7.566407-5.15625-6.558593-8.328125-15.09375-8.328125-24.53125-.003907-10.539062 3.941406-19.980468 10.183593-26.746093 6.265626-6.761719 14.667969-10.792969 23.949219-10.800781 10.628907.003906 20.15625 5.339843 26.546875 14.007812 1.867188 2.542969 5.21875 3.476562 8.128906 2.261719 14.554688-6.066407 30.484376-9.441407 47.242188-9.441407s32.6875 3.375 47.238281 9.441407c2.914063 1.214843 6.265625.28125 8.132813-2.261719 6.390625-8.664062 15.914062-14.003906 26.550781-14.007812 9.277344.007812 17.679687 4.039062 23.945313 10.800781 6.242187 6.761719 10.1875 16.207031 10.1875 26.746093 0 9.4375-3.175782 17.972657-8.332032 24.53125-1.707031 2.167969-1.9375 5.160157-.585937 7.566407zm0 0"/><path d="m119.167969 54.613281c0-17.566406-11.394531-31.808593-25.445313-31.808593-14.054687 0-25.445312 14.242187-25.445312 31.808593 0 17.566407 11.390625 31.804688 25.445312 31.804688 14.050782 0 25.445313-14.238281 25.445313-31.804688zm0 0" fill-rule="evenodd"/><path d="m279.902344 54.613281c0-17.78125-11.527344-32.195312-25.753906-32.195312-14.222657 0-25.753907 14.414062-25.753907 32.195312 0 17.777344 11.53125 32.191407 25.753907 32.191407 14.226562 0 25.753906-14.414063 25.753906-32.191407zm0 0" fill-rule="evenodd"/><path d="m93.980469 201.507812c17.96875 24.738282 47.183593 40.839844 80.109375 40.835938 32.753906.003906 61.839844-15.933594 79.832031-40.453125 2.230469-3.039063 1.578125-7.308594-1.460937-9.539063-3.039063-2.234374-7.3125-1.578124-9.542969 1.460938-15.554688 21.160156-40.5625 34.878906-68.828125 34.878906-28.414063 0-53.53125-13.859375-69.066406-35.210937-2.21875-3.050781-6.488282-3.722657-9.539063-1.507813-3.046875 2.21875-3.722656 6.488282-1.503906 9.535156zm0 0"/></g><path d="m102.410156 40.957031c0 3.773438-3.054687 6.828125-6.824218 6.828125-3.773438 0-6.828126-3.054687-6.828126-6.828125 0-3.769531 3.054688-6.824219 6.828126-6.824219 3.769531 0 6.824218 3.054688 6.824218 6.824219zm0 0" fill="#fff" fill-rule="evenodd"/><path d="m259.425781 40.957031c0 3.773438-3.058593 6.828125-6.828125 6.828125-3.769531 0-6.828125-3.054687-6.828125-6.828125 0-3.769531 3.058594-6.824219 6.828125-6.824219 3.769532 0 6.828125 3.054688 6.828125 6.824219zm0 0" fill="#fff" fill-rule="evenodd"/></svg>