<svg height="409pt" viewBox="0 -24 409.6 409" width="409pt" xmlns="http://www.w3.org/2000/svg"><path d="m208.214844 355.285156c-84.832032 0-153.601563-68.769531-153.601563-153.597656v-174.082031h307.203125v174.082031c0 84.828125-68.773437 153.597656-153.601562 153.597656" fill="#ffd578"/><path d="m208.214844 355.285156v-6.824218c-40.554688-.007813-77.203125-16.421876-103.789063-42.988282-26.570312-26.585937-42.980469-63.234375-42.984375-103.785156v-167.257812h293.542969l.003906 167.257812c-.003906 40.550781-16.417969 77.199219-42.988281 103.785156-26.582031 26.566406-63.234375 42.980469-103.785156 42.988282v13.648437c88.601562 0 160.421875-71.820313 160.425781-160.421875v-174.082031c0-1.796875-.730469-3.558594-2-4.828125-1.273437-1.265625-3.03125-1.996094-4.828125-1.996094h-307.199219c-1.796875 0-3.554687.726562-4.828125 1.996094-1.269531 1.269531-2 3.03125-2 4.828125v174.082031c.003906 88.601562 71.824219 160.421875 160.429688 160.421875z" fill="#54596e"/><path d="m62.019531 214.804688c3.125 35.308593 18.734375 66.984374 42.410157 90.667968 26.582031 26.566406 63.230468 42.980469 103.785156 42.988282 40.550781-.007813 77.203125-16.421876 103.785156-42.988282 23.671875-23.683594 39.285156-55.363281 42.410156-90.667968-19.929687 61.710937-77.851562 106.347656-146.195312 106.347656-68.347656 0-126.265625-44.636719-146.195313-106.347656" fill="#eec877"/><path d="m361.816406 167.554688c0 16.484374-2.597656 32.363281-7.40625 47.25-3.128906 35.304687-18.738281 66.984374-42.410156 90.667968-26.582031 26.566406-63.234375 42.980469-103.785156 42.988282-40.554688-.007813-77.203125-16.421876-103.789063-42.988282-23.675781-23.683594-39.285156-55.359375-42.410156-90.667968-4.804687-14.886719-7.402344-30.765626-7.402344-47.25v34.132812c0 84.828125 68.773438 153.597656 153.601563 153.597656s153.597656-68.769531 153.597656-153.597656v-34.132812" fill="#54596e"/><path d="m211.625 259.570312 37.492188-42.734374c4.011718-4.570313.761718-11.734376-5.316407-11.734376h-64.347656c-6.078125 0-9.324219 7.164063-5.316406 11.734376zm0 0" fill="#54596e"/><path d="m293.546875 61.738281v-16.082031c0-21.28125 17.25-38.53125 38.53125-38.53125h70.695313v109.226562l-54.613282-54.613281" fill="#ffd578"/><path d="m300.375 61.738281v-16.082031c0-8.777344 3.535156-16.660156 9.285156-22.417969 5.757813-5.75 13.640625-9.28125 22.417969-9.285156h63.867187v85.917969l-42.957031-42.960938c-2.667969-2.664062-6.992187-2.664062-9.65625 0-2.664062 2.667969-2.664062 6.992188 0 9.65625l54.613281 54.613282c1.953126 1.953124 4.890626 2.535156 7.441407 1.480468 2.550781-1.058594 4.214843-3.546875 4.214843-6.308594v-109.226562c0-1.796875-.730468-3.554688-2-4.828125-1.273437-1.269531-3.03125-1.996094-4.828124-1.996094h-70.695313c-25.054687.003907-45.355469 20.300781-45.359375 45.355469v16.082031c0 3.773438 3.058594 6.828125 6.828125 6.828125s6.828125-3.054687 6.828125-6.828125zm0 0" fill="#54596e"/><path d="m116.054688 61.738281v-16.082031c0-21.28125-17.25-38.53125-38.53125-38.53125h-70.695313v109.226562l54.613281-54.613281" fill="#ffd578"/><path d="m122.878906 61.738281v-16.082031c-.003906-25.054688-20.304687-45.351562-45.355468-45.355469h-70.695313c-1.796875 0-3.558594.726563-4.828125 1.996094-1.269531 1.273437-2 3.03125-2 4.828125v109.226562c0 2.761719 1.664062 5.25 4.214844 6.308594 2.546875 1.054688 5.484375.46875 7.4375-1.480468l54.613281-54.613282c2.667969-2.664062 2.667969-6.988281 0-9.65625-2.664063-2.664062-6.988281-2.664062-9.652344.003906l-42.960937 42.957032v-85.917969h63.871094c8.777343.003906 16.660156 3.535156 22.417968 9.285156 5.746094 5.757813 9.28125 13.640625 9.285156 22.417969v16.082031c0 3.773438 3.058594 6.828125 6.828126 6.828125 3.769531 0 6.824218-3.054687 6.824218-6.828125zm0 0" fill="#54596e"/><path d="m211.625 321.152344c-15.078125 0-27.304688-12.226563-27.304688-27.304688v-20.480468h54.613282v20.480468c0 15.078125-12.226563 27.304688-27.308594 27.304688zm0 0" fill="#ff7d7d"/><path d="m129.707031 252.886719c0 22.621093 18.339844 40.960937 40.960938 40.960937 22.617187 0 40.957031-18.339844 40.957031-40.960937" fill="#ffd578"/><path d="m122.878906 252.886719c.007813 26.394531 21.394532 47.78125 47.789063 47.785156 26.390625-.003906 47.78125-21.390625 47.785156-47.785156 0-3.773438-3.054687-6.828125-6.828125-6.828125-3.769531 0-6.824219 3.054687-6.824219 6.828125-.003906 9.445312-3.8125 17.933593-10 24.136719-6.195312 6.1875-14.6875 9.992187-24.132812 9.996093-9.449219-.003906-17.9375-3.808593-24.136719-9.996093-6.1875-6.203126-9.996094-14.691407-9.996094-24.136719 0-3.773438-3.058594-6.828125-6.828125-6.828125s-6.828125 3.054687-6.828125 6.828125zm0 0" fill="#54596e"/><path d="m211.625 252.886719c0 22.621093 18.339844 40.960937 40.960938 40.960937 22.621093 0 40.960937-18.339844 40.960937-40.960937" fill="#ffd578"/><path d="m204.800781 252.886719c.003907 26.394531 21.390625 47.78125 47.785157 47.785156 26.394531-.003906 47.78125-21.390625 47.789062-47.785156 0-3.773438-3.058594-6.828125-6.828125-6.828125s-6.828125 3.054687-6.828125 6.828125c-.003906 9.445312-3.808594 17.933593-9.996094 24.136719-6.199218 6.1875-14.691406 9.992187-24.136718 9.996093-9.445313-.003906-17.9375-3.808593-24.136719-9.996093-6.1875-6.203126-9.992188-14.691407-9.996094-24.136719 0-3.773438-3.054687-6.828125-6.828125-6.828125-3.769531 0-6.824219 3.054687-6.824219 6.828125zm0 0" fill="#54596e"/><path d="m191.148438 150.488281c0 22.621094-18.339844 40.957031-40.960938 40.957031s-40.960938-18.335937-40.960938-40.957031c0-22.625 18.339844-40.960937 40.960938-40.960937s40.960938 18.335937 40.960938 40.960937zm0 0" fill="#fff35f"/><g fill="#54596e"><path d="m157.816406 139.164062c-6.25-4.21875-14.734375-2.574218-18.953125 3.675782s-2.574219 14.738281 3.675781 18.957031 14.734376 2.570313 18.953126-3.679687c4.222656-6.246094 2.574218-14.734376-3.675782-18.953126zm0 0"/><path d="m280.691406 139.164062c-6.25-4.21875-14.734375-2.570312-18.953125 3.675782-4.21875 6.25-2.574219 14.738281 3.675781 18.957031s14.738282 2.574219 18.957032-3.675781 2.570312-14.738282-3.679688-18.957032zm0 0"/></g></svg>