<svg height="436pt" viewBox="0 -30 436.90667 436" width="436pt" xmlns="http://www.w3.org/2000/svg"><path d="m430.078125 82.375c0 41.472656-33.617187 75.089844-75.089844 75.089844-41.472656 0-75.09375-33.617188-75.09375-75.089844s33.621094-75.09375 75.09375-75.09375c41.472657 0 75.089844 33.621094 75.089844 75.09375zm0 0" fill="#aaa"/><path d="m430.078125 82.375h6.828125c-.003906-45.25-36.675781-81.917969-81.917969-81.921875-45.246093.003906-81.917969 36.671875-81.921875 81.921875.003906 45.242188 36.675782 81.914062 81.921875 81.917969 45.242188-.003907 81.914063-36.675781 81.917969-81.917969h-13.652344c-.003906 18.871094-7.632812 35.894531-19.996094 48.269531-12.375 12.363281-29.398437 19.992188-48.269531 19.996094-18.875-.003906-35.898437-7.632813-48.273437-19.996094-12.363282-12.375-19.992188-29.398437-19.996094-48.269531.003906-18.875 7.632812-35.898438 19.996094-48.273438 12.375-12.363281 29.398437-19.992187 48.273437-19.996093 18.871094.007812 35.894531 7.632812 48.269531 19.996093 12.363282 12.375 19.992188 29.398438 19.996094 48.273438zm0 0" fill="#54596e"/><path d="m382.292969 99.441406c0 28.277344-22.921875 51.199219-51.199219 51.199219s-51.199219-22.921875-51.199219-51.199219 22.921875-51.203125 51.199219-51.203125 51.199219 22.925781 51.199219 51.203125zm0 0" fill="#999"/><path d="m157.011719 82.375c0 41.472656-33.617188 75.089844-75.089844 75.089844-41.476563 0-75.09375-33.617188-75.09375-75.089844s33.617187-75.09375 75.09375-75.09375c41.472656 0 75.089844 33.621094 75.089844 75.09375zm0 0" fill="#aaa"/><path d="m157.011719 82.375h6.828125c-.003906-45.25-36.675782-81.917969-81.917969-81.921875-45.246094.003906-81.91796875 36.671875-81.921875 81.921875.00390625 45.242188 36.675781 81.914062 81.921875 81.917969 45.242187-.003907 81.914063-36.675781 81.917969-81.917969h-13.652344c-.003906 18.871094-7.632812 35.894531-19.996094 48.269531-12.375 12.363281-29.398437 19.992188-48.269531 19.996094-18.875-.003906-35.898437-7.632813-48.273437-19.996094-12.363282-12.375-19.992188-29.398437-19.996094-48.269531.003906-18.875 7.632812-35.898438 19.996094-48.273438 12.375-12.363281 29.398437-19.992187 48.273437-19.996093 18.871094.007812 35.894531 7.632812 48.269531 19.996093 12.363282 12.375 19.992188 29.398438 19.996094 48.273438zm0 0" fill="#54596e"/><path d="m150.1875 99.441406c0 28.277344-22.925781 51.199219-51.199219 51.199219-28.277343 0-51.203125-22.921875-51.203125-51.199219s22.925782-51.203125 51.203125-51.203125c28.273438 0 51.199219 22.925781 51.199219 51.203125zm0 0" fill="#999"/><path d="m218.453125 20.933594c-60.324219 0-109.226563 48.902344-109.226563 109.226562v129.707032c0 60.324218 48.902344 109.226562 109.226563 109.226562s109.226563-48.902344 109.226563-109.226562v-129.707032c0-60.324218-48.902344-109.226562-109.226563-109.226562zm0 0" fill="#999"/><g fill="#54596e"><path d="m218.453125 20.933594v-6.828125c-64.09375.003906-116.046875 51.957031-116.054687 116.054687v129.707032c.007812 64.09375 51.957031 116.046874 116.054687 116.050781 64.097656-.003907 116.046875-51.957031 116.054687-116.050781v-129.707032c-.007812-64.097656-51.957031-116.050781-116.054687-116.054687v13.65625c28.296875.003906 53.855469 11.449219 72.40625 29.992187 18.542969 18.550782 29.992187 44.109375 29.992187 72.40625v129.707032c0 28.296874-11.449218 53.851562-29.992187 72.40625-18.550781 18.542968-44.109375 29.988281-72.40625 29.992187-28.296875-.003906-53.855469-11.449219-72.40625-29.992187-18.542969-18.554688-29.988281-44.109376-29.992187-72.40625v-129.707032c.003906-28.296875 11.449218-53.855468 29.992187-72.410156 18.550781-18.539062 44.109375-29.988281 72.40625-29.988281zm0 0"/><path d="m150.210938 208.828125c-.242188-.074219-14.597657-4.621094-36.722657-4.621094-16.589843 0-37.558593 2.558594-60.132812 11.527344-1.753907.695313-2.609375 2.679687-1.914063 4.433594.695313 1.75 2.679688 2.609375 4.433594 1.914062 21.636719-8.597656 41.71875-11.046875 57.613281-11.050781 10.59375 0 19.316407 1.09375 25.363281 2.175781 3.023438.542969 5.375 1.085938 6.960938 1.484375.789062.199219 1.386719.363282 1.78125.476563l.550781.164062c1.796875.570313 3.714844-.425781 4.285157-2.21875.570312-1.796875-.421876-3.714843-2.21875-4.285156zm0 0"/><path d="m149.523438 225.800781c-.078126.015625-17.359376 3.441407-35.859376 9.488281-9.253906 3.027344-18.808593 6.703126-26.761718 11.019532-7.917969 4.363281-14.417969 9.183594-17.234375 15.652344-.730469 1.738281.089843 3.738281 1.828125 4.46875 1.738281.730468 3.738281-.089844 4.46875-1.824219 1.484375-3.773438 6.804687-8.339844 14.199218-12.296875 11.046876-6.015625 26.3125-11.035156 38.722657-14.472656 6.210937-1.722657 11.71875-3.0625 15.664062-3.964844 3.945313-.90625 6.296875-1.371094 6.304688-1.375 1.847656-.371094 3.046875-2.164063 2.679687-4.011719-.367187-1.851563-2.164062-3.050781-4.011718-2.683594zm0 0"/><path d="m288.761719 215.332031.550781-.164062c2.753906-.789063 15.570312-4.136719 34.109375-4.136719 15.890625.003906 35.976563 2.453125 57.613281 11.046875 1.75.695313 3.734375-.160156 4.429688-1.910156.699218-1.75-.160156-3.734375-1.910156-4.433594-22.574219-8.96875-43.546876-11.527344-60.132813-11.527344-22.125 0-36.484375 4.546875-36.726563 4.621094-1.796874.570313-2.789062 2.488281-2.21875 4.285156.570313 1.796875 2.492188 2.792969 4.285157 2.21875zm0 0"/><path d="m286.054688 232.492188c.003906.003906 1.039062.207031 2.910156.617187 6.554687 1.421875 23.175781 5.304687 38.925781 10.992187 7.871094 2.835938 15.527344 6.136719 21.519531 9.71875 6.019532 3.550782 10.21875 7.488282 11.53125 10.777344.730469 1.738282 2.730469 2.554688 4.46875 1.824219 1.738282-.726563 2.558594-2.730469 1.828125-4.464844-2.8125-6.46875-9.316406-11.289062-17.234375-15.652343-11.917968-6.464844-27.480468-11.527344-40.15625-15.050782-12.664062-3.511718-22.40625-5.445312-22.460937-5.457031-1.851563-.367187-3.648438.832031-4.011719 2.683594-.371094 1.851562.832031 3.648437 2.679688 4.011719zm0 0"/><path d="m170.667969 154.054688c0 5.652343-4.585938 10.238281-10.242188 10.238281s-10.238281-4.585938-10.238281-10.238281c0-5.65625 4.582031-10.242188 10.238281-10.242188s10.242188 4.585938 10.242188 10.242188zm0 0"/></g><path d="m197.972656 239.386719h40.960938v40.960937h-40.960938zm0 0" fill="#fff"/><path d="m238.933594 280.347656v-6.828125h-34.132813v-27.308593h27.304688v34.136718h6.828125v-6.828125 6.828125h6.828125v-40.960937c0-1.800781-.730469-3.558594-2-4.828125-1.273438-1.269532-3.03125-2-4.828125-2h-40.960938c-1.796875 0-3.554687.726562-4.824218 2-1.273438 1.273437-2 3.03125-2 4.828125v40.960937c0 1.820313.707031 3.535156 2 4.824219 1.289062 1.292969 3.003906 2 4.824218 2h40.960938c1.824218 0 3.535156-.707031 4.828125-1.996094 1.289062-1.292969 2-3.003906 2-4.828125zm0 0" fill="#54596e"/><path d="m286.71875 154.054688c0 5.652343-4.582031 10.238281-10.238281 10.238281s-10.242188-4.585938-10.242188-10.238281c0-5.65625 4.585938-10.242188 10.242188-10.242188s10.238281 4.585938 10.238281 10.242188zm0 0" fill="#54596e"/><path d="m225.28125 273.519531v-27.304687c0-3.773438-3.058594-6.828125-6.828125-6.828125s-6.828125 3.054687-6.828125 6.828125v27.304687c0 3.769531 3.058594 6.828125 6.828125 6.828125s6.828125-3.058594 6.828125-6.828125" fill="#54596e"/><path d="m238.933594 212.078125c0 22.625-18.339844 40.960937-40.960938 40.960937s-40.960937-18.335937-40.960937-40.960937c0-22.621094 18.339843-40.957031 40.960937-40.957031s40.960938 18.335937 40.960938 40.957031zm0 0" fill="#ff927d"/><path d="m279.894531 212.078125c0 22.625-18.339843 40.960937-40.960937 40.960937s-40.960938-18.335937-40.960938-40.960937c0-22.621094 18.339844-40.957031 40.960938-40.957031s40.960937 18.335937 40.960937 40.957031zm0 0" fill="#ff927d"/><path d="m232.105469 198.425781c0 7.542969-6.113281 13.652344-13.652344 13.652344s-13.652344-6.109375-13.652344-13.652344c0-7.539062 6.113281-13.652343 13.652344-13.652343s13.652344 6.113281 13.652344 13.652343zm0 0" fill="#ff927d"/><path d="m232.105469 198.425781h6.828125c-.003906-11.3125-9.167969-20.476562-20.480469-20.480469-11.3125.003907-20.476563 9.167969-20.480469 20.480469.003906 11.3125 9.167969 20.476563 20.480469 20.480469 11.3125-.003906 20.476563-9.167969 20.480469-20.480469h-13.652344c-.007812 3.765625-3.0625 6.820313-6.828125 6.828125-3.765625-.007812-6.820313-3.0625-6.828125-6.828125.007812-3.765625 3.0625-6.820312 6.828125-6.828125 3.765625.007813 6.820313 3.0625 6.828125 6.828125zm0 0" fill="#54596e"/></svg>