<svg height="394pt" viewBox="0 0 394.89196 394" width="394pt" xmlns="http://www.w3.org/2000/svg"><path d="m385.121094 13.488281c8 28.925781-.363282 61.167969-24.363282 82.378907-24.003906 21.210937-57.027343 25.53125-84.75 14.039062-7.996093-28.925781.363282-61.167969 24.367188-82.378906 24.007812-21.207032 57.027344-25.53125 84.746094-14.039063zm0 0" fill="#ffc35a"/><path d="m385.121094 13.488281-6.578125 1.816407c1.800781 6.511718 2.699219 13.207031 2.699219 19.894531-.011719 20.535156-8.417969 40.882812-25.003907 55.546875-14.109375 12.460937-31.542969 18.535156-48.988281 18.542968-9.761719 0-19.511719-1.917968-28.628906-5.695312l-2.613282 6.308594 6.582032-1.816406c-1.796875-6.511719-2.695313-13.210938-2.695313-19.898438.011719-20.539062 8.414063-40.886719 25-55.546875 14.113281-12.460937 31.550781-18.535156 48.992188-18.542969 9.761719 0 19.511719 1.910156 28.621093 5.695313l2.613282-6.304688-6.578125 1.816407 6.578125-1.816407 2.617187-6.304687c-10.789062-4.476563-22.308593-6.738282-33.855469-6.738282-20.613281-.007812-41.363281 7.234376-58.03125 21.96875-19.621093 17.328126-29.625 41.523438-29.613281 65.773438 0 7.90625 1.058594 15.828125 3.1875 23.535156.558594 2.019532 2.03125 3.6875 3.96875 4.488282 10.785157 4.46875 22.304688 6.730468 33.851563 6.730468 20.613281.007813 41.363281-7.230468 58.03125-21.960937 19.621094-17.335938 29.625-41.53125 29.613281-65.777344 0-7.90625-1.058594-15.828125-3.1875-23.535156-.5625-2.019531-2.027344-3.683594-3.964844-4.484375zm0 0" fill="#54596e"/><path d="m9.765625 13.488281c-7.992187 28.925781.363281 61.167969 24.367187 82.378907 24.007813 21.210937 57.03125 25.53125 84.75 14.039062 7.996094-28.925781-.363281-61.167969-24.367187-82.378906-24-21.207032-57.023437-25.53125-84.75-14.039063zm0 0" fill="#ffc35a"/><path d="m9.765625 13.488281-6.578125-1.820312c-2.128906 7.707031-3.1875 15.628906-3.1875 23.53125-.0117188 24.246093 9.992188 48.441406 29.613281 65.78125 16.667969 14.730469 37.421875 21.96875 58.03125 21.960937 11.546875 0 23.066407-2.261718 33.851563-6.730468 1.9375-.800782 3.40625-2.464844 3.96875-4.488282 2.128906-7.707031 3.1875-15.628906 3.1875-23.535156.011718-24.25-9.992188-48.449219-29.613282-65.773438-16.667968-14.734374-37.417968-21.976562-58.027343-21.96875-11.546875 0-23.066407 2.261719-33.859375 6.738282-1.9375.800781-3.40625 2.464844-3.960938 4.484375l6.574219 1.820312 2.617187 6.304688c9.113282-3.785157 18.859376-5.695313 28.625-5.695313 17.445313.007813 34.878907 6.082032 48.988282 18.542969 16.589844 14.660156 24.992187 35.007813 25.003906 55.546875 0 6.6875-.894531 13.386719-2.695312 19.894531l6.578124 1.820313-2.613281-6.308594c-9.113281 3.777344-18.863281 5.695312-28.628906 5.695312-17.441406-.007812-34.878906-6.082031-48.988281-18.542968-16.585938-14.664063-24.992188-35.011719-25-55.546875 0-6.6875.894531-13.382813 2.695312-19.894531l-6.582031-1.816407 2.617187 6.304688zm0 0" fill="#54596e"/><path d="m116.683594 46.964844c-44.195313 0-81.125 32.5-85.242188 75.007812l-15.777344 162.773438c0 21.332031 15.695313 39.65625 37.390626 43.648437l64.117187 7.558594c6.839844 29.933594 34.417969 52.347656 67.457031 52.347656h30.714844c33.039062 0 60.617188-22.414062 67.457031-52.347656l64.117188-7.558594c21.695312-3.992187 37.390625-22.316406 37.390625-43.648437l-15.777344-162.773438c-4.117188-42.507812-41.046875-75.007812-85.242188-75.007812z" fill="#ffd578"/><path d="m116.683594 46.964844v-6.828125c-47.558594-.007813-87.539063 35-92.039063 81.175781l-15.773437 162.769531-.03125.664063c.011718 24.761718 18.191406 45.820312 42.976562 50.363281l.4375.0625 64.117188 7.558594.800781-6.777344-6.652344 1.523437c7.582031 33.121094 37.945313 57.636719 74.109375 57.644532h30.71875c36.164063-.007813 66.527344-24.523438 74.109375-57.644532l-6.652343-1.523437.800781 6.777344 64.117187-7.558594.4375-.0625c24.785156-4.542969 42.964844-25.601563 42.976563-50.363281l-.03125-.664063-15.773438-162.769531c-4.503906-46.175781-44.484375-81.183594-92.039062-81.175781h-166.605469v13.652343h166.605469c40.832031.007813 74.714843 29.996094 78.445312 68.84375l15.777344 162.773438 6.792969-.660156h-6.828125c.015625 17.898437-13.195313 33.496094-31.796875 36.933594l1.238281 6.714843-.800781-6.777343-64.117188 7.558593c-2.871094.335938-5.210937 2.445313-5.859375 5.257813-6.089843 26.742187-30.886719 47.042968-60.796875 47.042968h-30.71875c-29.910156 0-54.710937-20.300781-60.796875-47.042968-.648437-2.8125-2.992187-4.921875-5.859375-5.257813l-64.117187-7.558593-.800781 6.777343 1.234374-6.714843c-18.597656-3.4375-31.808593-19.03125-31.796874-36.933594h-6.824219l6.792969.660156 15.773437-162.773438c3.734375-38.847656 37.621094-68.835937 78.449219-68.84375z" fill="#54596e"/><path d="m285.296875 254.847656c0-62.390625-38.195313-57.613281-85.308594-57.613281-47.117187 0-85.3125-4.777344-85.3125 57.613281 0 62.394532 38.195313 112.96875 85.3125 112.96875 47.113281 0 85.308594-50.574218 85.308594-112.96875" fill="#fff35f"/><path d="m199.988281 251.621094 37.488281-42.734375c4.011719-4.570313.765626-11.734375-5.316406-11.734375h-64.34375c-6.082031 0-9.328125 7.164062-5.316406 11.734375zm0 0" fill="#54596e"/><path d="m159.027344 159.605469c0 5.65625-4.585938 10.238281-10.238282 10.238281-5.65625 0-10.242187-4.582031-10.242187-10.238281s4.585937-10.242188 10.242187-10.242188c5.652344 0 10.238282 4.585938 10.238282 10.242188zm0 0" fill="#54596e"/><path d="m375.363281 263.214844c-6.675781 8.816406-16.660156 15.226562-28.445312 17.398437l-64.117188 7.554688c-1.328125 5.808593-3.4375 11.335937-6.214843 16.46875-13.898438 37.429687-42.976563 63.179687-76.597657 63.179687-33.625 0-62.703125-25.753906-76.601562-63.179687-2.777344-5.132813-4.886719-10.660157-6.214844-16.46875l-64.117187-7.554688c-11.78125-2.171875-21.765626-8.582031-28.441407-17.398437l-2.117187 21.84375c.140625 17.707031 13.214844 33.097656 31.605468 36.585937l63.871094 7.53125c2.871094.335938 5.210938 2.445313 5.859375 5.257813 6.085938 26.742187 30.878907 47.042968 60.789063 47.042968h.007812 30.71875c29.910156 0 54.703125-20.300781 60.796875-47.042968.648438-2.8125 2.992188-4.921875 5.859375-5.257813l63.871094-7.53125c18.390625-3.488281 31.464844-18.878906 31.605469-36.585937z" fill="#eec877"/><path d="m381.214844 252.839844c-1.472656 3.714844-3.449219 7.203125-5.855469 10.375l2.117187 21.84375c-.140624 17.707031-13.214843 33.097656-31.605468 36.585937l-63.871094 7.53125c-2.871094.335938-5.210938 2.445313-5.859375 5.257813-6.089844 26.742187-30.886719 47.042968-60.796875 47.042968h-30.714844-.007812c-29.910156 0-54.703125-20.300781-60.789063-47.042968-.648437-2.8125-2.992187-4.921875-5.859375-5.257813l-63.871094-7.53125c-18.390624-3.488281-31.464843-18.878906-31.605468-36.585937l2.117187-21.84375c-2.40625-3.171875-4.378906-6.660156-5.855469-10.375l-3.089843 31.90625c0 21.332031 15.695312 39.65625 37.386719 43.652344l64.117187 7.554687c6.839844 29.933594 34.417969 52.347656 67.457031 52.347656h30.71875c33.039063 0 60.613282-22.414062 67.457032-52.347656l64.117187-7.554687c21.691406-3.996094 37.386719-22.320313 37.386719-43.652344z" fill="#54596e"/><path d="m123.386719 304.640625c13.898437 37.425781 42.976562 63.179687 76.601562 63.179687 33.621094 0 62.699219-25.753906 76.597657-63.179687-11.535157 21.316406-34.617188 35.871094-61.242188 35.871094h-30.714844c-26.625-.003907-49.703125-14.554688-61.242187-35.871094" fill="#eee361"/><g fill="#54596e"><path d="m261.425781 159.605469c0 5.65625-4.582031 10.238281-10.238281 10.238281s-10.242188-4.582031-10.242188-10.238281 4.585938-10.242188 10.242188-10.242188 10.238281 4.585938 10.238281 10.242188zm0 0"/><path d="m199.988281 251.765625h6.824219c0-7.542969 0-13.640625 0-13.65625 0-1.796875-.726562-3.554687-2-4.828125-1.269531-1.269531-3.027344-1.996094-4.824219-1.996094s-3.558593.726563-4.828125 1.996094c-1.269531 1.273438-2 3.03125-2 4.828125v13.65625 13.652344c0 1.796875.730469 3.554687 2 4.828125 1.273438 1.269531 3.03125 1.996094 4.828125 1.996094s3.554688-.726563 4.824219-1.996094c1.273438-1.273438 2-3.03125 2-4.828125 0 0 0-6.113281 0-13.652344h-13.652344v13.652344c0 1.796875.730469 3.554687 2 4.828125 1.273438 1.269531 3.03125 1.996094 4.828125 1.996094s3.554688-.726563 4.824219-1.996094c1.273438-1.273438 2-3.03125 2-4.828125 0 0 0-6.113281 0-13.652344 0-7.542969 0-13.640625 0-13.65625 0-1.796875-.726562-3.554687-2-4.828125-1.269531-1.269531-3.027344-1.996094-4.824219-1.996094s-3.558593.726563-4.828125 1.996094c-1.269531 1.273438-2 3.03125-2 4.828125v13.65625zm0 0"/><path d="m145.375 326.855469c33.933594-.003907 61.433594-27.503907 61.4375-61.4375 0-3.773438-3.054688-6.828125-6.824219-6.828125s-6.828125 3.054687-6.828125 6.828125c-.003906 13.214843-5.339844 25.121093-13.996094 33.789062-8.667968 8.660157-20.570312 13.992188-33.789062 13.996094-3.769531 0-6.828125 3.054687-6.828125 6.828125 0 3.769531 3.058594 6.828125 6.828125 6.824219zm0 0"/><path d="m254.601562 313.203125c-13.21875-.003906-25.125-5.335937-33.792968-13.996094-8.65625-8.667969-13.992188-20.570312-13.996094-33.789062 0-3.773438-3.054688-6.828125-6.824219-6.828125s-6.828125 3.054687-6.828125 6.828125c.003906 33.933593 27.503906 61.433593 61.441406 61.4375 3.769532 0 6.824219-3.054688 6.824219-6.824219s-3.058593-6.824219-6.824219-6.828125zm0 0"/></g></svg>