<svg height="421pt" viewBox="-6 0 421 421.63542" width="421pt" xmlns="http://www.w3.org/2000/svg"><path d="m7.144531 148.726562v69.039063c0 18.078125 5.6875 35.699219 16.25 50.371094l46.859375 65.058593c8.210938 11.40625 19.09375 20.625 31.6875 26.863282l64.933594 45.804687c24.097656 11.933594 52.386719 11.933594 76.484375 0l64.933594-45.804687c12.597656-6.238282 23.476562-15.457032 31.6875-26.863282l46.863281-65.058593c10.566406-14.671875 16.25-32.292969 16.25-50.371094v-69.039063c0-21.207031-7.816406-41.667968-21.957031-57.472656l-35-39.109375c-12.128907-13.558593-28.234375-22.929687-46.015625-26.773437l-76.792969-16.601563c-12-2.59375-24.417969-2.59375-36.417969 0l-76.789062 16.601563c-17.777344 3.84375-33.886719 13.214844-46.015625 26.773437l-35.003907 39.109375c-14.140624 15.804688-21.957031 36.265625-21.957031 57.472656" fill="#8065c4"/><path d="m7.144531 148.726562h-6.828125v69.039063c0 19.507813 6.136719 38.527344 17.535156 54.359375l46.863282 65.0625c8.863281 12.304688 20.601562 22.257812 34.199218 28.988281l3.027344-6.117187-3.933594 5.578125 64.929688 45.804687.90625.539063c13 6.433593 27.140625 9.660156 41.269531 9.65625 14.136719.003906 28.273438-3.222657 41.273438-9.65625l.90625-.539063 64.933593-45.804687-3.9375-5.578125 3.03125 6.117187c13.589844-6.730469 25.332032-16.683593 34.199219-28.988281l46.859375-65.0625c11.402344-15.832031 17.539063-34.855469 17.539063-54.359375v-69.039063c0-22.890624-8.441407-44.96875-23.699219-62.027343l-35-39.113281c-13.089844-14.625-30.472656-24.742188-49.664062-28.886719l-76.785157-16.601563c-6.476562-1.402344-13.066406-2.097656-19.65625-2.097656-6.585937 0-13.175781.699219-19.652343 2.097656l-76.785157 16.601563c-19.191406 4.144531-36.574219 14.257812-49.664062 28.886719l-34.996094 39.113281c-15.261719 17.058593-23.699219 39.136719-23.699219 62.027343h13.65625c0-19.527343 7.195313-38.367187 20.21875-52.917968l34.992188-39.113282c11.171875-12.484374 26-21.113281 42.371094-24.648437l76.789062-16.605469c5.527344-1.191406 11.152344-1.789062 16.769531-1.789062 5.621094 0 11.242188.597656 16.765625 1.789062l76.792969 16.605469c16.371094 3.535156 31.203125 12.164063 42.371094 24.648437l35 39.113282c13.019531 14.550781 20.21875 33.390625 20.21875 52.917968v69.039063c0 16.640625-5.238281 32.875-14.964844 46.382813l-46.859375 65.058593c-7.5625 10.5-17.582031 18.992188-29.179688 24.734375l-.90625.539063-64.929687 45.804687 3.933594 5.578125-3.027344-6.117187c-11.097656 5.488281-23.15625 8.234375-35.214844 8.238281-12.058593-.003906-24.117187-2.746094-35.210937-8.238281l-3.03125 6.117187 3.9375-5.578125-64.933594-45.804687-.90625-.539063c-11.597656-5.742187-21.613281-14.234375-29.179688-24.734375l-46.859374-65.058593c-9.722657-13.507813-14.957032-29.742188-14.957032-46.382813v-69.039063z" fill="#54596e"/><path d="m396.265625 180.910156c0 17.457032-5.492187 34.464844-15.695313 48.628906l-45.242187 62.816407c-7.929687 11.011719-18.433594 19.921875-30.597656 25.945312l-62.691407 44.21875c-11.632812 5.761719-24.277343 8.640625-36.921874 8.640625-12.644532 0-25.292969-2.878906-36.925782-8.640625l-62.6875-44.21875c-12.164062-6.023437-22.667968-14.933593-30.601562-25.945312l-45.242188-62.816407c-10.199218-14.164062-15.6875-31.167968-15.6875-48.621093v36.847656c0 16.640625 5.234375 32.875 14.960938 46.382813l46.859375 65.058593c7.5625 10.5 17.582031 18.992188 29.179687 24.734375l.90625.539063 64.496094 45.496093c10.96875 5.339844 22.851562 8.003907 34.742188 8.007813 11.890624-.003906 23.773437-2.671875 34.746093-8.011719l64.492188-45.492187.90625-.539063c11.597656-5.742187 21.617187-14.234375 29.179687-24.734375l46.859375-65.058593c9.726563-13.507813 14.964844-29.742188 14.964844-46.382813z" fill="#7c64bb"/><path d="m396.265625 180.910156v36.855469c0 16.640625-5.242187 32.875-14.964844 46.382813l-46.859375 65.058593c-7.5625 10.5-17.582031 18.992188-29.179687 24.734375l-.90625.539063-64.492188 45.492187c-10.972656 5.339844-22.859375 8.007813-34.746093 8.011719-11.890626-.003906-23.773438-2.667969-34.742188-8.007813l-64.496094-45.496093-.90625-.539063c-11.597656-5.742187-21.617187-14.234375-29.179687-24.734375l-46.859375-65.058593c-9.726563-13.507813-14.960938-29.742188-14.960938-46.382813v2.6875c0 17.457031 5.488282 34.472656 15.6875 48.636719l45.242188 62.816406c7.933594 11.011719 18.4375 19.917969 30.601562 25.9375l62.6875 44.222656c11.632813 5.761719 24.28125 8.640625 36.925782 8.640625 12.644531 0 25.289062-2.878906 36.921874-8.640625l62.691407-44.222656c12.164062-6.019531 22.667969-14.925781 30.597656-25.9375l45.242187-62.816406c10.203126-14.164063 15.695313-31.179688 15.695313-48.636719z" fill="#54596e"/><path d="m82.003906 57.796875c-3.21875 14.019531 1.460938 29.285156 13.402344 38.933594 11.945312 9.648437 27.847656 11.023437 40.882812 4.933593 3.214844-14.019531-1.464843-29.28125-13.40625-38.933593-11.941406-9.648438-27.847656-11.023438-40.878906-4.933594zm0 0" fill="#ffc35a"/><path d="m82.003906 57.796875-6.65625-1.527344c-.777344 3.382813-1.160156 6.824219-1.160156 10.261719-.011719 13.269531 5.777344 26.496094 16.929688 35.507812 8.417968 6.808594 18.582031 10.128907 28.621093 10.125 6.679688 0 13.320313-1.460937 19.433594-4.3125 1.902344-.886718 3.300781-2.617187 3.769531-4.660156.777344-3.382812 1.160156-6.828125 1.160156-10.261718.011719-13.273438-5.777343-26.507813-16.929687-35.507813-8.414063-6.808594-18.578125-10.132813-28.617187-10.125-6.679688 0-13.328126 1.457031-19.445313 4.316406-1.898437.890625-3.289063 2.609375-3.761719 4.65625l6.65625 1.527344 2.890625 6.183594c4.289063-2.007813 8.96875-3.035157 13.660157-3.035157 7.0625.007813 14.105468 2.308594 20.035156 7.09375 7.828125 6.328126 11.847656 15.523438 11.859375 24.886719 0 2.417969-.269531 4.835938-.816407 7.210938l6.65625 1.53125-2.886718-6.191407c-4.292969 2.003907-8.976563 3.035157-13.664063 3.035157-7.066406-.007813-14.105469-2.304688-20.039062-7.089844-7.828125-6.332031-11.847657-15.527344-11.855469-24.890625 0-2.414062.269531-4.832031.8125-7.207031l-6.652344-1.527344 2.890625 6.183594zm0 0" fill="#54596e"/><path d="m327.4375 57.796875c3.214844 14.019531-1.464844 29.285156-13.40625 38.933594-11.941406 9.648437-27.847656 11.023437-40.878906 4.933593-3.21875-14.019531 1.460937-29.28125 13.402344-38.933593 11.945312-9.648438 27.847656-11.023438 40.882812-4.933594zm0 0" fill="#ffc35a"/><path d="m327.4375 57.796875-6.65625 1.527344c.546875 2.375.816406 4.792969.816406 7.207031-.011718 9.359375-4.03125 18.558594-11.859375 24.890625-5.925781 4.789063-12.972656 7.082031-20.035156 7.089844-4.691406 0-9.371094-1.03125-13.667969-3.035157l-2.882812 6.191407 6.652344-1.53125c-.542969-2.375-.816407-4.792969-.816407-7.210938.011719-9.363281 4.03125-18.558593 11.855469-24.882812 5.9375-4.792969 12.980469-7.089844 20.042969-7.097657 4.691406 0 9.367187 1.027344 13.65625 3.035157l2.894531-6.183594-6.65625 1.527344 6.65625-1.527344 2.890625-6.183594c-6.121094-2.863281-12.765625-4.316406-19.441406-4.316406-10.042969-.007813-20.207031 3.316406-28.621094 10.125-11.152344 9-16.945313 22.230469-16.929687 35.507813 0 3.433593.382812 6.875 1.160156 10.261718.464844 2.042969 1.867187 3.777344 3.765625 4.660156 6.113281 2.851563 12.757812 4.3125 19.4375 4.3125 10.039062.003907 20.203125-3.316406 28.621093-10.125 11.148438-9.007812 16.9375-22.234374 16.929688-35.507812 0-3.4375-.382812-6.878906-1.160156-10.261719-.46875-2.046875-1.863282-3.769531-3.761719-4.660156zm0 0" fill="#54596e"/><path d="m232.320312 336.050781h-54.40625c-34.9375 0-64.191406-33.53125-67.667968-77.566406l-9.824219-124.46875c-2.445313-30.929687 22-57.378906 53.019531-57.378906l51.550782 6.828125 51.796874-6.828125c31.023438 0 55.46875 26.449219 53.023438 57.378906l-9.828125 124.46875c-3.476563 44.035156-32.730469 77.566406-67.664063 77.566406zm0 0" fill="#ffd578"/><path d="m232.320312 336.050781v-6.828125h-54.40625c-15.222656-.007812-29.394531-7.253906-40.488281-19.933594-11.054687-12.652343-18.75-30.6875-20.375-51.34375l-9.824219-124.46875c-.101562-1.253906-.148437-2.496093-.148437-3.726562 0-12.664062 5.132813-24.210938 13.511719-32.640625 8.390625-8.417969 19.929687-13.644531 32.851562-13.648437v-6.824219l-.894531 6.765625 51.550781 6.828125h1.789063l51.796875-6.828125-.894532-6.765625v6.824219c12.925782.003906 24.460938 5.230468 32.855469 13.648437 8.378907 8.429687 13.511719 19.976563 13.511719 32.640625 0 1.230469-.046875 2.46875-.148438 3.726562l-9.824218 124.46875c-1.625 20.65625-9.320313 38.691407-20.375 51.34375-11.09375 12.679688-25.265625 19.925782-40.488282 19.933594v13.652344c19.714844.007812 37.640626-9.511719 50.773438-24.605469 13.175781-15.121093 21.84375-35.871093 23.699219-59.25l9.828125-124.46875c.125-1.613281.1875-3.210937.1875-4.800781-.003906-32.816406-26.628906-59.925781-60.019532-59.941406l-.890624.058594-50.902344 6.710937-50.65625-6.710937-.898438-.058594c-33.386718.015625-60.011718 27.125-60.015625 59.941406 0 1.589844.0625 3.1875.1875 4.800781l9.828125 124.46875c1.851563 23.378907 10.523438 44.128907 23.695313 59.25 13.136719 15.09375 31.0625 24.613281 50.777343 24.605469h54.40625zm0 0" fill="#54596e"/><path d="m259.730469 315.570312v21.339844c0 13.800782-12.652344 23.769532-25.359375 19.972656l-29.253906-8.722656-29.253907 8.722656c-12.710937 3.796876-25.359375-6.171874-25.359375-19.972656v-21.339844" fill="#ffd578"/><path d="m252.902344 315.570312v21.339844c-.007813 4.09375-1.574219 7.542969-4 10.042969-2.441406 2.492187-5.667969 3.917969-9.027344 3.914063-1.148438 0-2.335938-.164063-3.566406-.527344h.011718l-29.253906-8.726563c-1.277344-.378906-2.625-.378906-3.902344 0l-29.253906 8.726563c-1.214844.363281-2.398437.527344-3.554687.527344-3.359375.003906-6.585938-1.421876-9.027344-3.914063-2.425781-2.5-3.992187-5.949219-4-10.042969v-21.339844c0-3.769531-3.058594-6.824218-6.828125-6.824218s-6.824219 3.054687-6.824219 6.824218v21.339844c.003907 15.4375 12.132813 27.582032 26.679688 27.609375 2.457031.003907 4.972656-.351562 7.457031-1.09375l27.300781-8.144531 27.300781 8.144531.011719.003907c2.46875.730468 4.980469 1.09375 7.445313 1.089843 14.546875-.027343 26.679687-12.167969 26.683594-27.609375v-21.339844c0-3.769531-3.058594-6.824218-6.828126-6.824218-3.765624 0-6.824218 3.054687-6.824218 6.824218zm0 0" fill="#54596e"/><path d="m273.382812 259.015625c0-27.46875-30.5625-25.363281-68.265624-25.363281-37.703126 0-68.269532-2.101563-68.269532 25.363281s30.566406 49.730469 68.269532 49.730469c37.703124 0 68.265624-22.265625 68.265624-49.730469zm0 0" fill="#fff35f"/><path d="m246.28125 184.210938-13.652344 54.613281c-.917968 3.65625 1.308594 7.363281 4.964844 8.277343 3.65625.914063 7.363281-1.308593 8.277344-4.964843l13.65625-54.613281c.914062-3.660157-1.308594-7.367188-4.96875-8.28125-3.65625-.914063-7.363282 1.308593-8.277344 4.96875" fill="#ffc35a"/><path d="m150.707031 187.519531 13.652344 54.613281c.917969 3.660157 4.625 5.882813 8.28125 4.96875 3.65625-.914062 5.878906-4.621093 4.964844-8.28125l-13.652344-54.613281c-.914063-3.660156-4.621094-5.878906-8.277344-4.964843-3.660156.914062-5.882812 4.621093-4.96875 8.277343" fill="#ffc35a"/><g fill="#54596e"><path d="m205.117188 290.179688 42.578124-44.570313c4.296876-4.5 1.109376-11.957031-5.113281-11.957031h-74.933593c-6.222657 0-9.414063 7.457031-5.113282 11.957031zm0 0"/><path d="m170.984375 141.492188c0 5.65625-4.585937 10.238281-10.242187 10.238281s-10.238282-4.582031-10.238282-10.238281 4.582032-10.242188 10.238282-10.242188 10.242187 4.585938 10.242187 10.242188zm0 0"/><path d="m259.730469 141.492188c0 5.65625-4.585938 10.238281-10.242188 10.238281s-10.238281-4.582031-10.238281-10.238281 4.582031-10.242188 10.238281-10.242188 10.242188 4.585938 10.242188 10.242188zm0 0"/><path d="m205.117188 295.089844h6.824218c0-7.539063 0-13.636719 0-13.652344 0-1.796875-.726562-3.554688-2-4.828125-1.269531-1.269531-3.027344-2-4.824218-2-1.796876 0-3.558594.730469-4.828126 2-1.269531 1.273437-2 3.03125-2 4.828125v13.652344 13.65625c0 1.796875.730469 3.554687 2 4.824218 1.273438 1.273438 3.03125 2 4.828126 2 1.796874 0 3.554687-.730468 4.824218-2 1.273438-1.269531 2-3.027343 2-4.824218 0-.003906 0-6.117188 0-13.65625h-13.652344v13.65625c0 1.796875.730469 3.554687 2 4.824218 1.273438 1.273438 3.03125 2 4.828126 2 1.796874 0 3.554687-.730468 4.824218-2 1.273438-1.269531 2-3.027343 2-4.824218 0-.003906 0-6.117188 0-13.65625 0-7.539063 0-13.636719 0-13.652344 0-1.796875-.726562-3.554688-2-4.828125-1.269531-1.269531-3.027344-2-4.824218-2-1.796876 0-3.558594.730469-4.828126 2-1.269531 1.273437-2 3.03125-2 4.828125v13.652344zm0 0"/><path d="m170.984375 342.875c22.621094-.003906 40.953125-18.332031 40.957031-40.957031 0-3.773438-3.054687-6.828125-6.824218-6.828125-3.769532 0-6.828126 3.054687-6.828126 6.828125-.003906 7.558593-3.046874 14.34375-8 19.304687-4.960937 4.953125-11.746093 7.996094-19.304687 8-3.773437 0-6.828125 3.058594-6.828125 6.828125s3.054688 6.828125 6.828125 6.824219zm0 0"/><path d="m239.25 329.222656c-7.5625-.003906-14.34375-3.042968-19.308594-8-4.953125-4.960937-7.996094-11.746094-8-19.304687 0-3.773438-3.054687-6.828125-6.824218-6.828125-3.769532 0-6.828126 3.054687-6.828126 6.828125.003907 22.625 18.335938 40.953125 40.960938 40.957031 3.769531 0 6.824219-3.054688 6.824219-6.824219s-3.054688-6.824219-6.824219-6.828125zm0 0"/></g></svg>