<svg height="436pt" viewBox="-48 0 436 436.90496" width="436pt" xmlns="http://www.w3.org/2000/svg"><path d="m121.503906 116.054688-68.933594-100.269532c-3.863281-5.609375-10.226562-8.957031-17.027343-8.957031-9.628907 0-17.972657 6.640625-20.136719 16.015625l-5.699219 24.695312c-6.945312 30.109376 1.222657 61.710938 21.894531 84.679688l28.460938 31.621094zm0 0" fill="#ffd578"/><path d="m121.503906 116.054688 5.625-3.867188-68.933594-100.273438c-5.136718-7.457031-13.601562-11.914062-22.652343-11.914062-12.804688 0-23.910157 8.832031-26.789063 21.3125l-5.699218 24.6875c-1.746094 7.574219-2.601563 15.230469-2.601563 22.839844 0 24.824218 9.109375 49.097656 26.070313 67.945312l28.460937 31.621094c2.398437 2.664062 6.4375 3.023438 9.265625.820312l61.441406-47.785156c2.84375-2.214844 3.476563-6.285156 1.433594-9.253906l-5.621094 3.867188-4.191406-5.390626-56.425781 43.886719-24.210938-26.902343c-14.683593-16.3125-22.566406-37.320313-22.566406-58.808594 0-6.585938.738281-13.210938 2.25-19.769532l5.703125-24.691406c1.445312-6.28125 7.03125-10.726562 13.480469-10.726562 4.546875 0 8.8125 2.242187 11.402343 6.003906l68.929688 100.265625 5.628906-3.867187-4.191406-5.390626zm0 0" fill="#54596e"/><path d="m218.910156 116.054688 68.933594-100.269532c3.851562-5.609375 10.21875-8.957031 17.027344-8.957031 9.621094 0 17.972656 6.640625 20.132812 16.015625l5.699219 24.695312c6.949219 30.109376-1.226563 61.710938-21.890625 84.679688l-28.464844 31.621094zm0 0" fill="#ffd578"/><path d="m218.910156 116.054688 5.625 3.867187 68.933594-100.269531c2.582031-3.757813 6.839844-6 11.398438-6 6.441406 0 12.039062 4.449218 13.484374 10.722656l5.699219 24.699219c1.511719 6.550781 2.25 13.179687 2.25 19.761719 0 21.488281-7.886719 42.5-22.566406 58.816406l-24.210937 26.898437-56.421876-43.886719-4.191406 5.390626 5.625 3.867187-5.625-3.867187-4.191406 5.386718 61.4375 47.785156c2.828125 2.203126 6.867188 1.84375 9.265625-.820312l28.460937-31.621094c16.960938-18.851562 26.070313-43.125 26.070313-67.949218 0-7.609376-.855469-15.265626-2.597656-22.832032l-5.703125-24.695312c-2.875-12.476563-13.984375-21.30468775-26.785156-21.308594-9.050782 0-17.523438 4.457031-22.652344 11.917969l-68.929688 100.269531c-2.042968 2.96875-1.414062 7.039062 1.433594 9.253906zm0 0" fill="#54596e"/><path d="m258.035156 137.207031h-11.6875c-6.238281-29.636719-32.207031-51.875-63.320312-51.875h-20.652344c-31.113281 0-57.082031 22.238281-63.320312 51.875h-11.6875c-20.734376 0-37.546876 17.03125-37.546876 38.039063 0 21.011718 16.8125 38.042968 37.546876 38.042968h6.824218v101.203126c0 18.59375 18.296875 33.667968 36.648438 33.667968h83.722656c18.351562 0 36.644531-15.070312 36.644531-33.667968v-101.203126h6.828125c20.730469 0 37.546875-17.03125 37.546875-38.042968 0-21.007813-16.8125-38.039063-37.546875-38.039063zm0 0" fill="#f4a14e"/><path d="m258.035156 137.207031v-6.828125h-11.6875v6.828125l6.679688-1.40625c-6.871094-32.695312-35.542969-57.273437-70-57.292969h-20.652344c-34.453125.019532-63.128906 24.597657-70 57.292969l6.679688 1.40625v-6.828125h-11.6875c-12.257813 0-23.410157 5.058594-31.410157 13.175782-8.007812 8.105468-12.96875 19.351562-12.964843 31.691406-.003907 12.34375 4.957031 23.589844 12.964843 31.699218 8 8.113282 19.152344 13.175782 31.410157 13.171876v94.375c.007812 11.601562 5.6875 21.789062 13.734374 28.914062 8.082032 7.140625 18.679688 11.554688 29.738282 11.582031h83.722656c11.054688-.027343 21.65625-4.441406 29.734375-11.582031 8.046875-7.125 13.726563-17.3125 13.738281-28.914062v-94.375c12.257813.003906 23.40625-5.058594 31.40625-13.171876 8.011719-8.109374 12.96875-19.355468 12.964844-31.699218.003906-12.339844-4.953125-23.585938-12.964844-31.691406-8-8.117188-19.152344-13.175782-31.40625-13.175782v13.65625c8.476563.003906 16.097656 3.457032 21.6875 9.109375 5.582032 5.660157 9.03125 13.4375 9.03125 22.101563-.003906 8.667968-3.453125 16.445312-9.03125 22.105468-5.589844 5.652344-13.210937 9.109376-21.6875 9.113282h-6.828125c-1.796875 0-3.554687.726562-4.828125 1.996094-1.269531 1.273437-1.996094 3.03125-1.996094 4.828124v101.203126c.007813 6.992187-3.457031 13.636718-9.144531 18.699218-5.65625 5.046875-13.378906 8.167969-20.675781 8.144532h-83.71875c-7.296875.027343-15.019531-3.097657-20.679688-8.144532-5.6875-5.0625-9.15625-11.707031-9.144531-18.699218v-101.203126c0-1.796874-.726562-3.554687-1.996093-4.828124-1.273438-1.269532-3.03125-1.996094-4.828126-1.996094h-6.824218c-8.476563-.003906-16.101563-3.460938-21.691406-9.113282-5.578126-5.660156-9.027344-13.4375-9.03125-22.105468.003906-8.667969 3.453124-16.441406 9.03125-22.101563 5.589843-5.652343 13.214843-9.105469 21.691406-9.109375h11.6875c3.234375 0 6.011718-2.253906 6.679687-5.421875 5.601563-26.578125 28.863281-46.46875 56.636719-46.453125h20.65625c27.769531-.015625 51.03125 19.875 56.636719 46.453125.667969 3.167969 3.445312 5.421875 6.679687 5.421875h11.6875zm0 0" fill="#54596e"/><path d="m172.703125 317.441406c-20.734375 0-37.546875-16.8125-37.546875-37.546875v-71.679687c0-20.738282 16.8125-37.546875 37.546875-37.546875 20.730469 0 37.546875 16.808593 37.546875 37.546875v71.679687c0 20.738281-16.816406 37.546875-37.546875 37.546875zm0 0" fill="#ffd578"/><path d="m182.941406 266.238281v-10.238281s-9.878906 0-13.652344 0c-3.773437 0-6.820312 0-6.824218 0-2.699219 0-5.335938 1.09375-7.242188 3s-3 4.542969-3 7.238281c0 2.699219 1.09375 5.335938 3 7.242188s4.542969 3 7.242188 3h6.824218 13.652344c2.699219 0 5.335938-1.09375 7.242188-3s3-4.542969 3-7.242188c0-2.695312-1.09375-5.332031-3-7.238281-1.90625-1.910156-4.542969-3-7.238282-3v10.238281-10.238281s-9.878906 0-13.652343 0c-3.773438 0-6.820313 0-6.828125 0-2.695313 0-5.332032 1.09375-7.242188 3-1.90625 1.90625-2.996094 4.542969-2.996094 7.238281 0 2.699219 1.089844 5.335938 2.996094 7.242188s4.546875 3 7.242188 3h6.828125 13.652343c2.695313 0 5.332032-1.09375 7.242188-3 1.90625-1.90625 2.996094-4.542969 2.996094-7.242188 0-2.695312-1.089844-5.332031-2.996094-7.238281-1.90625-1.910156-4.546875-3-7.242188-3v10.238281zm0 0" fill="#54596e"/><path d="m201.527344 208.214844c-12.644532 0-23.480469 7.304687-28.824219 17.863281-5.347656-10.558594-16.179687-17.863281-28.828125-17.863281-17.90625 0-32.429688 14.515625-32.429688 32.425781s14.523438 32.425781 32.429688 32.425781c12.644531 0 23.480469-7.304687 28.828125-17.863281 5.34375 10.558594 16.175781 17.863281 28.824219 17.863281 17.90625 0 32.429687-14.515625 32.429687-32.425781s-14.523437-32.425781-32.429687-32.425781zm0 0" fill="#fff35f"/><path d="m53.234375 180.90625c0 16.964844 13.757813 30.71875 30.722656 30.71875 16.964844 0 30.71875-13.753906 30.71875-30.71875" fill="#999"/><path d="m46.410156 180.90625c.003906 20.738281 16.808594 37.542969 37.546875 37.546875 20.738281-.003906 37.539063-16.808594 37.546875-37.546875 0-3.769531-3.058594-6.828125-6.828125-6.828125s-6.828125 3.058594-6.828125 6.828125c-.023437 13.191406-10.699218 23.871094-23.890625 23.894531-13.195312-.023437-23.871093-10.703125-23.894531-23.894531 0-3.769531-3.054688-6.828125-6.828125-6.828125-3.769531 0-6.824219 3.058594-6.824219 6.828125zm0 0" fill="#54596e"/><path d="m128.328125 170.667969h-75.09375c-3.769531 0-6.824219 3.054687-6.824219 6.824219 0 3.769531 3.054688 6.828124 6.824219 6.828124h75.09375c3.773437 0 6.828125-3.058593 6.828125-6.828124 0-3.769532-3.058594-6.824219-6.828125-6.824219" fill="#54596e"/><path d="m292.167969 180.90625c0 16.964844-13.753907 30.71875-30.71875 30.71875-16.964844 0-30.71875-13.753906-30.71875-30.71875" fill="#999"/><g fill="#54596e"><path d="m285.34375 180.90625c-.023438 13.191406-10.699219 23.871094-23.894531 23.894531-13.195313-.023437-23.867188-10.703125-23.894531-23.894531 0-3.769531-3.054688-6.828125-6.824219-6.828125s-6.828125 3.058594-6.828125 6.828125c.003906 20.738281 16.808594 37.542969 37.546875 37.546875 20.738281-.003906 37.542969-16.808594 37.546875-37.546875 0-3.769531-3.054688-6.828125-6.828125-6.828125-3.769531 0-6.824219 3.058594-6.824219 6.828125zm0 0"/><path d="m217.078125 184.320312h75.089844c3.773437 0 6.828125-3.058593 6.828125-6.828124 0-3.769532-3.054688-6.824219-6.828125-6.824219h-75.089844c-3.773437 0-6.828125 3.054687-6.828125 6.824219 0 3.769531 3.054688 6.828124 6.828125 6.828124"/><path d="m189.769531 218.453125v-6.828125s-7.640625 0-17.066406 0c-9.429687 0-17.050781 0-17.066406 0-1.796875 0-3.558594.730469-4.828125 2-1.273438 1.273438-2 3.03125-2 4.828125s.730468 3.554687 2 4.828125c1.273437 1.269531 3.03125 1.996094 4.828125 1.996094h17.066406 17.066406c1.796875 0 3.554688-.726563 4.828125-1.996094 1.269532-1.273438 2-3.03125 2-4.828125s-.730468-3.554687-2-4.828125c-1.269531-1.269531-3.027344-2-4.828125-2v6.828125-6.828125s-7.640625 0-17.066406 0-17.046875 0-17.066406 0c-1.796875 0-3.554688.730469-4.828125 2-1.269532 1.273438-1.996094 3.03125-1.996094 4.828125s.726562 3.554687 2 4.828125c1.269531 1.269531 3.027344 1.996094 4.824219 1.996094h17.066406 17.066406c1.800781 0 3.558594-.726563 4.828125-1.996094 1.273438-1.273438 2-3.03125 2-4.828125s-.726562-3.554687-2-4.828125c-1.269531-1.269531-3.027344-2-4.824218-2v6.828125zm0 0"/><path d="m182.941406 218.453125h-20.476562v17.066406c0 5.65625 4.585937 10.242188 10.238281 10.242188s10.238281-4.585938 10.238281-10.242188zm0 0"/></g><path d="m114.675781 348.160156h116.054688v81.917969h-116.054688zm0 0" fill="#f4a14e"/><path d="m230.730469 348.160156v-6.828125h-116.054688c-1.796875 0-3.554687.726563-4.828125 2-1.269531 1.269531-2 3.027344-2 4.828125v81.917969c0 1.800781.730469 3.558594 2.003906 4.828125 1.269532 1.273438 3.027344 2 4.824219 2h116.054688c1.796875 0 3.554687-.726562 4.824219-2 1.273437-1.269531 2-3.027344 2-4.828125v-81.917969c0-1.800781-.726563-3.554687-1.996094-4.828125-1.273438-1.273437-3.03125-2-4.828125-2v6.828125h-6.824219v75.09375h-102.402344v-68.265625h109.226563v-6.828125h-6.824219zm0 0" fill="#54596e"/></svg>