<svg height="436pt" viewBox="-6 0 436 436.90667" width="436pt" xmlns="http://www.w3.org/2000/svg"><path d="m225.734375 6.828125h-27.308594c-60.328125 0-109.226562 48.902344-109.226562 109.226563v191.144531c0 67.863281 55.015625 122.878906 122.878906 122.878906 67.867187 0 122.882813-55.015625 122.882813-122.878906v-191.144531c0-60.324219-48.898438-109.226563-109.226563-109.226563" fill="#aca3d3"/><path d="m225.734375 6.828125v-6.828125h-27.308594c-64.101562.0078125-116.050781 51.957031-116.050781 116.054688v191.144531c0 71.636719 58.066406 129.703125 129.703125 129.707031 71.640625-.007812 129.707031-58.070312 129.707031-129.707031v-191.144531c0-64.097657-51.953125-116.0468755-116.050781-116.054688v13.652344c28.300781.003906 53.855469 11.453125 72.410156 29.996094 18.539063 18.550781 29.984375 44.105468 29.988281 72.40625v191.144531c-.003906 32.070312-12.980468 61.042969-33.992187 82.0625-21.019531 21.011719-49.988281 33.988281-82.0625 33.992187-32.066406-.003906-61.035156-12.980468-82.058594-33.992187-21.015625-21.019531-33.988281-49.992188-33.992187-82.0625v-191.144531c.003906-28.300782 11.449218-53.855469 29.992187-72.410157 18.550781-18.539062 44.105469-29.988281 72.40625-29.992187h27.308594z" fill="#54596e"/><path d="m328.132812 307.199219c0 41.476562-51.960937 75.09375-116.054687 75.09375-64.089844 0-116.050781-33.617188-116.050781-75.09375 0 3.257812.132812 6.480469.398437 9.671875 4.621094 56.046875 49.070313 100.800781 104.976563 105.898437 3.515625.320313 7.078125.484375 10.675781.484375 3.382813 0 6.730469-.144531 10.039063-.425781 21.460937-1.839844 41.25-9.515625 57.777343-21.441406 5.070313-3.65625 9.832031-7.714844 14.246094-12.125 4.753906-4.757813 9.097656-9.917969 12.972656-15.433594 11.292969-16.082031 18.613281-35.164063 20.523438-55.804687.328125-3.566407.496093-7.175782.496093-10.824219" fill="#a39bc9"/><path d="m222.117188 422.828125c-3.308594.28125-6.65625.425781-10.039063.425781 3.378906 0 6.730469-.144531 10.039063-.425781m-20.714844-.058594c3.515625.320313 7.078125.484375 10.675781.484375-3.597656 0-7.160156-.164062-10.675781-.484375m92.738281-33.507812c-4.410156 4.410156-9.175781 8.46875-14.242187 12.125 5.066406-3.65625 9.832031-7.714844 14.242187-12.125m12.976563-15.4375c-3.878907 5.515625-8.21875 10.679687-12.976563 15.4375 4.753906-4.753907 9.097656-9.917969 12.976563-15.4375m-211.089844-66.625c0 3.253906.132812 6.484375.398437 9.671875-.265625-3.191406-.398437-6.414063-.398437-9.671875m232.105468 0c0 3.648437-.167968 7.257812-.496093 10.820312.328125-3.5625.496093-7.171875.496093-10.820312" fill="#54596e"/><path d="m171.121094 133.121094c0 24.503906-19.867188 44.371094-44.375 44.371094-24.507813 0-44.371094-19.867188-44.371094-44.371094 0-24.507813 19.863281-44.375 44.371094-44.375 24.507812 0 44.375 19.867187 44.375 44.375zm0 0" fill="#fff35f"/><path d="m171.121094 133.121094h6.824218c-.003906-28.28125-22.917968-51.199219-51.199218-51.199219-28.277344 0-51.195313 22.917969-51.199219 51.199219.003906 28.277344 22.921875 51.195312 51.199219 51.199218 28.28125-.003906 51.195312-22.921874 51.199218-51.199218h-13.652343c-.003907 10.386718-4.191407 19.730468-10.996094 26.546875-6.816406 6.804687-16.160156 10.992187-26.550781 11-10.390625-.003907-19.730469-4.195313-26.546875-11-6.808594-6.816407-10.996094-16.15625-11-26.546875.003906-10.390625 4.191406-19.734375 11-26.550782 6.816406-6.804687 16.15625-10.992187 26.546875-10.996093 10.390625.003906 19.734375 4.191406 26.550781 10.996093 6.804687 6.816407 10.992187 16.160157 10.996094 26.550782zm0 0" fill="#54596e"/><path d="m341.785156 133.121094c0 24.503906-19.863281 44.371094-44.371094 44.371094-24.507812 0-44.375-19.867188-44.375-44.371094 0-24.507813 19.867188-44.375 44.375-44.375 24.507813 0 44.371094 19.867187 44.371094 44.375zm0 0" fill="#fff35f"/><path d="m341.785156 133.121094h6.828125c-.003906-28.28125-22.921875-51.199219-51.199219-51.199219-28.28125 0-51.199218 22.917969-51.199218 51.199219 0 28.277344 22.917968 51.195312 51.199218 51.199218 28.277344-.003906 51.195313-22.921874 51.199219-51.199218h-13.652343c-.003907 10.386718-4.191407 19.730468-11 26.546875-6.816407 6.804687-16.160157 10.992187-26.546876 11-10.390624-.003907-19.734374-4.195313-26.550781-11-6.804687-6.816407-10.992187-16.160157-10.996093-26.546875.003906-10.390625 4.191406-19.734375 10.996093-26.550782 6.816407-6.804687 16.160157-10.992187 26.550781-11 10.390626.003907 19.730469 4.195313 26.546876 11 6.808593 6.816407 10.996093 16.160157 11 26.550782zm0 0" fill="#54596e"/><path d="m136.988281 133.121094c0 5.65625-4.585937 10.238281-10.242187 10.238281s-10.238282-4.582031-10.238282-10.238281 4.582032-10.242188 10.238282-10.242188 10.242187 4.585938 10.242187 10.242188zm0 0" fill="#54596e"/><path d="m307.652344 133.121094c0 5.65625-4.582032 10.238281-10.238282 10.238281s-10.242187-4.582031-10.242187-10.238281 4.585937-10.242188 10.242187-10.242188 10.238282 4.585938 10.238282 10.242188zm0 0" fill="#54596e"/><path d="m212.078125 154.738281-38.613281 43.234375h77.226562zm0 0" fill="#fff35f"/><path d="m212.078125 154.738281-5.089844-4.550781-38.613281 43.238281c-1.796875 2.011719-2.242188 4.875-1.140625 7.335938 1.105469 2.460937 3.535156 4.035156 6.230469 4.035156h77.226562c2.699219 0 5.128906-1.574219 6.234375-4.035156 1.101563-2.460938.65625-5.324219-1.140625-7.335938l-38.613281-43.238281c-1.296875-1.453125-3.140625-2.277344-5.089844-2.277344s-3.792969.824219-5.09375 2.277344l5.089844 4.550781-5.089844 4.542969 28.453125 31.867188h-46.726562l28.457031-31.863282-5.09375-4.546875-5.089844 4.542969zm0 0" fill="#54596e"/><path d="m143.8125 430.078125h-61.4375v-30.71875c0-16.964844 13.753906-30.71875 30.71875-30.71875s30.71875 13.753906 30.71875 30.71875zm0 0" fill="#fff"/><path d="m143.8125 430.078125v-6.824219h-54.613281v-23.894531c.023437-13.195313 10.699219-23.867187 23.894531-23.894531 13.195312.027344 23.867188 10.703125 23.894531 23.894531v30.71875h6.824219v-6.824219 6.824219h6.828125v-30.71875c-.003906-20.738281-16.808594-37.542969-37.546875-37.546875-20.738281.003906-37.542969 16.808594-37.546875 37.546875v30.71875c0 1.800781.730469 3.558594 2 4.828125 1.269531 1.273438 3.03125 2 4.828125 2h61.4375c1.796875 0 3.554688-.726562 4.828125-2 1.269531-1.269531 2-3.027344 2-4.824219h-6.828125zm0 0" fill="#54596e"/><path d="m96.027344 402.773438v27.304687c0 3.773437 3.054687 6.828125 6.824218 6.828125 3.773438 0 6.828126-3.054688 6.828126-6.828125v-27.304687c0-3.769532-3.054688-6.828126-6.828126-6.828126-3.769531 0-6.824218 3.058594-6.824218 6.828126" fill="#54596e"/><path d="m116.507812 402.773438v27.304687c0 3.773437 3.054688 6.828125 6.824219 6.828125s6.828125-3.054688 6.828125-6.828125v-27.304687c0-3.769532-3.058594-6.828126-6.828125-6.828126s-6.824219 3.058594-6.824219 6.828126" fill="#54596e"/><path d="m341.785156 430.078125h-61.4375v-30.71875c0-16.964844 13.753906-30.71875 30.71875-30.71875s30.71875 13.753906 30.71875 30.71875zm0 0" fill="#fff"/><path d="m341.785156 430.078125v-6.824219h-54.613281v-23.894531c.023437-13.195313 10.699219-23.867187 23.894531-23.894531 13.195313.027344 23.871094 10.703125 23.894532 23.894531v30.71875h6.824218v-6.824219 6.824219h6.828125v-30.71875c-.003906-20.738281-16.808593-37.542969-37.546875-37.546875-20.738281.003906-37.542968 16.808594-37.546875 37.546875v30.71875c0 1.800781.730469 3.558594 2 4.828125 1.273438 1.273438 3.03125 2 4.828125 2h61.4375c1.796875 0 3.554688-.726562 4.828125-2 1.269531-1.269531 2-3.027344 2-4.828125zm0 0" fill="#54596e"/><path d="m294 402.773438v27.304687c0 3.773437 3.058594 6.828125 6.828125 6.828125s6.824219-3.054688 6.824219-6.828125v-27.304687c0-3.769532-3.054688-6.828126-6.824219-6.828126s-6.828125 3.058594-6.828125 6.828126" fill="#54596e"/><path d="m314.480469 402.773438v27.304687c0 3.773437 3.054687 6.828125 6.828125 6.828125 3.769531 0 6.824218-3.054688 6.824218-6.828125v-27.304687c0-3.769532-3.054687-6.828126-6.824218-6.828126-3.773438 0-6.828125 3.058594-6.828125 6.828126" fill="#54596e"/><path d="m82.375 163.839844c0 71.636718 58.0625 129.703125 129.703125 129.707031 71.640625-.003906 129.703125-58.070313 129.707031-129.707031 0-3.769532-3.054687-6.828125-6.824218-6.828125-3.769532 0-6.828126 3.058593-6.828126 6.828125-.003906 32.070312-12.980468 61.039062-33.992187 82.0625-21.023437 21.011718-49.992187 33.988281-82.0625 33.992187-32.066406-.003906-61.039063-12.980469-82.0625-33.992187-21.011719-21.023438-33.984375-49.992188-33.988281-82.0625 0-3.769532-3.058594-6.828125-6.828125-6.828125s-6.824219 3.058593-6.824219 6.828125zm0 0" fill="#54596e"/><path d="m89.199219 320.851562v-143.359374h-81.917969v61.441406c0 45.242187 36.679688 81.917968 81.917969 81.917968zm0 0" fill="#8065c4"/><path d="m89.199219 320.851562h6.828125v-143.359374c0-1.796876-.730469-3.554688-2-4.828126-1.273438-1.269531-3.03125-1.996093-4.828125-1.996093h-81.917969c-1.796875 0-3.558594.726562-4.828125 1.996093-1.269531 1.273438-2 3.03125-2 4.828126v61.441406c.003906 49.015625 39.734375 88.742187 88.746094 88.746094 1.796875 0 3.554687-.726563 4.828125-2 1.269531-1.269532 2-3.027344 2-4.828126h-6.828125v-6.824218c-20.753907-.003906-39.488281-8.394532-53.097657-21.996094-13.601562-13.609375-21.992187-32.339844-21.996093-53.097656v-54.617188h68.269531v136.535156h6.824219v-6.824218zm0 0" fill="#54596e"/><path d="m334.960938 320.851562v-143.359374h81.917968v61.441406c0 45.242187-36.679687 81.917968-81.917968 81.917968zm0 0" fill="#8065c4"/><path d="m334.960938 320.851562h6.824218v-136.535156h68.269532v54.617188c-.003907 20.757812-8.394532 39.488281-21.996094 53.097656-13.613282 13.601562-32.34375 21.992188-53.097656 21.996094v6.824218h6.824218-6.824218v6.828126c49.011718-.003907 88.742187-39.730469 88.746093-88.746094v-61.441406c0-1.796876-.730469-3.554688-2-4.828126-1.273437-1.269531-3.03125-1.996093-4.828125-1.996093h-81.917968c-1.796876 0-3.558594.726562-4.828126 1.996093-1.269531 1.273438-2 3.03125-2 4.828126v143.359374c0 1.800782.730469 3.558594 2 4.828126 1.273438 1.273437 3.03125 2 4.828126 2zm0 0" fill="#54596e"/><path d="m212.078125 157.011719 170.667969-109.226563-170.667969 24.371094-170.664063-24.371094zm0 0" fill="#8065c4" fill-rule="evenodd"/><g fill="#54596e"><path d="m212.078125 157.011719 3.679687 5.75 170.667969-109.226563c2.707031-1.734375 3.839844-5.109375 2.722657-8.125-1.121094-3.011718-4.183594-4.835937-7.367188-4.378906l-169.699219 24.226562-169.703125-24.230468c-3.183594-.453125-6.246094 1.367187-7.367187 4.382812-1.117188 3.011719.011719 6.390625 2.722656 8.125l170.667969 109.226563c2.234375 1.429687 5.121094 1.429687 7.355468 0l-3.679687-5.75 3.679687-5.75-144.175781-92.273438 139.535157 19.921875c.632812.089844 1.296874.089844 1.929687 0l139.53125-19.921875-144.175781 92.273438 3.675781 5.75 3.679687-5.75zm0 0"/><path d="m7.28125 218.453125h40.957031c3.773438 0 6.828125-3.054687 6.828125-6.828125 0-3.769531-3.054687-6.824219-6.828125-6.824219h-40.957031c-3.769531 0-6.828125 3.054688-6.828125 6.824219 0 3.773438 3.058594 6.828125 6.828125 6.828125"/><path d="m7.28125 245.761719h40.957031c3.773438 0 6.828125-3.058594 6.828125-6.828125 0-3.769532-3.054687-6.828125-6.828125-6.828125h-40.957031c-3.769531 0-6.828125 3.058593-6.828125 6.828125 0 3.769531 3.058594 6.828125 6.828125 6.828125"/><path d="m375.921875 218.453125h40.957031c3.769532 0 6.828125-3.054687 6.828125-6.828125 0-3.769531-3.058593-6.824219-6.828125-6.824219h-40.957031c-3.773437 0-6.828125 3.054688-6.828125 6.824219 0 3.773438 3.054688 6.828125 6.828125 6.828125"/><path d="m375.921875 245.761719h40.957031c3.769532 0 6.828125-3.058594 6.828125-6.828125 0-3.769532-3.058593-6.828125-6.828125-6.828125h-40.957031c-3.773437 0-6.828125 3.058593-6.828125 6.828125 0 3.769531 3.054688 6.828125 6.828125 6.828125"/></g></svg>