<svg height="384pt" viewBox="-15 0 384 384.91315" width="384pt" xmlns="http://www.w3.org/2000/svg"><path d="m325.511719 272.277344c0-20.75-10.925781-38.90625-27.304688-49.164063v-113.136719c0-44.207031-35.839843-80.046874-80.046875-80.046874h-85.664062c-44.207032 0-80.046875 35.839843-80.046875 80.046874v113.136719c-16.382813 10.257813-27.308594 28.410157-27.308594 49.164063 0 20.75 10.925781 38.90625 27.308594 49.164062v56.648438h245.757812v-56.648438c16.378907-10.257812 27.304688-28.414062 27.304688-49.164062zm0 0" fill="#999"/><path d="m325.511719 272.277344h6.828125c0-23.191406-12.230469-43.515625-30.507813-54.949219l-3.625 5.785156h6.828125v-113.136719c-.007812-47.976562-38.894531-86.867187-86.875-86.871093h-85.664062c-47.980469.003906-86.871094 38.894531-86.875 86.871093v113.136719h6.828125l-3.625-5.785156c-18.277344 11.433594-30.507813 31.757813-30.507813 54.949219 0 23.1875 12.230469 43.515625 30.507813 54.945312l3.625-5.785156h-6.828125v56.652344c0 1.820312.710937 3.535156 2 4.824218 1.292968 1.289063 3.003906 2 4.828125 2h245.757812c1.824219 0 3.539063-.710937 4.828125-2 1.289063-1.289062 2-3.003906 2-4.824218v-56.652344h-6.828125l3.625 5.785156c18.28125-11.429687 30.511719-31.757812 30.511719-54.945312h-13.65625c0 18.308594-9.625 34.296875-24.105469 43.375-1.988281 1.246094-3.203125 3.4375-3.203125 5.789062v49.820313h-232.105468v-49.820313c0-2.351562-1.210938-4.539062-3.203126-5.789062-14.480468-9.078125-24.101562-25.066406-24.101562-43.375 0-18.3125 9.621094-34.300782 24.101562-43.378906 1.992188-1.246094 3.203126-3.4375 3.203126-5.785157v-113.136719c.003906-20.238281 8.183593-38.503906 21.445312-51.777343 13.273438-13.257813 31.535156-21.4375 51.773438-21.445313h85.667968c20.238282.007813 38.5 8.1875 51.773438 21.445313 13.257812 13.273437 21.441406 31.539062 21.445312 51.777343v113.136719c0 2.347657 1.210938 4.535157 3.203125 5.785157 14.480469 9.078124 24.101563 25.066406 24.101563 43.378906zm0 0" fill="#54596e"/><path d="m66.101562 111.851562-57.015624-89.816406c-4.777344-6.714844.546874-15.941406 8.753906-15.15625l83.15625 27.257813-.761719 29.925781" fill="#999"/><path d="m71.863281 108.1875-57.011719-89.8125-.203124-.300781-.539063-1.585938c-.011719-.675781.304687-1.472656.824219-2.011719.539062-.535156 1.078125-.8125 1.929687-.824218l.226563.011718.753906-6.785156-2.128906 6.484375 78.328125 25.675781-.632813 24.851563c-.09375 3.765625 2.882813 6.898437 6.652344 6.996094 3.765625.097656 6.902344-2.882813 6.996094-6.648438l.757812-29.929687c.078125-3.011719-1.835937-5.722656-4.695312-6.660156l-83.152344-27.257813-1.378906-.296875c-.613282-.0703125-1.191406-.09375-1.726563-.09375-4.714843-.015625-8.96875 2.03125-11.824219 5.074219-2.878906 3.039062-4.570312 7.074219-4.582031 11.414062-.011719 3.226563 1 6.613281 3.070313 9.503907l5.5625-3.957032-5.765625 3.660156 57.015625 89.8125c2.019531 3.179688 6.238281 4.125 9.421875 2.105469 3.179687-2.023437 4.121093-6.242187 2.101562-9.425781zm0 0" fill="#54596e"/><path d="m287.933594 111.851562 57.015625-89.816406c4.777343-6.714844-.546875-15.941406-8.753907-15.15625l-83.15625 27.257813.761719 29.925781" fill="#999"/><g fill="#54596e"><path d="m293.699219 115.507812 57.011719-89.8125-5.761719-3.660156 5.558593 3.957032c2.070313-2.890626 3.082032-6.28125 3.070313-9.503907-.011719-4.339843-1.703125-8.375-4.582031-11.414062-2.859375-3.042969-7.113282-5.0859378-11.824219-5.074219-.535156 0-1.113281.0234375-1.730469.09375l-1.375.296875-83.152344 27.257813c-2.863281.9375-4.773437 3.648437-4.699218 6.660156l.757812 29.925781c.09375 3.769531 3.230469 6.746094 6.996094 6.652344 3.769531-.097657 6.75-3.230469 6.652344-6.996094l-.628906-24.855469 78.328124-25.671875-2.128906-6.488281.753906 6.785156.222657-.011718c.851562.015624 1.390625.292968 1.929687.828124.519532.535157.835938 1.332032.828125 2.011719l-.542969 1.585938-.199218.300781-57.015625 89.8125c-2.019531 3.179688-1.078125 7.402344 2.105469 9.421875 3.183593 2.023437 7.402343 1.082031 9.425781-2.101563zm0 0"/><path d="m134.367188 149.398438c0 5.652343-4.585938 10.238281-10.242188 10.238281-5.652344 0-10.238281-4.585938-10.238281-10.238281 0-5.65625 4.585937-10.242188 10.238281-10.242188 5.65625 0 10.242188 4.585938 10.242188 10.242188zm0 0"/><path d="m236.765625 149.398438c0 5.652343-4.582031 10.238281-10.238281 10.238281s-10.242188-4.585938-10.242188-10.238281c0-5.65625 4.585938-10.242188 10.242188-10.242188s10.238281 4.585938 10.238281 10.242188zm0 0"/><path d="m175.328125 227.902344h6.824219c0-7.539063 0-13.640625 0-13.652344 0-1.800781-.726563-3.558594-1.996094-4.828125-1.273438-1.269531-3.03125-2-4.828125-2s-3.554687.726563-4.828125 2c-1.269531 1.269531-2 3.027344-2 4.828125v13.652344 27.308594c0 1.796874.730469 3.554687 2 4.824218 1.269531 1.273438 3.03125 2 4.828125 2s3.554687-.730468 4.828125-2c1.269531-1.269531 1.996094-3.027344 1.996094-4.824218 0-.003907 0-19.769532 0-27.308594h-13.652344v27.308594c0 1.796874.730469 3.554687 2 4.824218 1.269531 1.273438 3.027344 2 4.828125 2 1.796875 0 3.554687-.730468 4.824219-2 1.273437-1.269531 2-3.027344 2-4.824218 0-.003907 0-19.769532 0-27.308594 0-7.539063 0-13.640625 0-13.652344 0-1.800781-.730469-3.558594-2-4.828125-1.269532-1.269531-3.027344-2-4.824219-2s-3.558594.726563-4.828125 2c-1.273438 1.269531-2 3.027344-2 4.828125v13.652344zm0 0"/></g><path d="m113.886719 316.648438h122.878906c22.621094 0 40.960937-18.339844 40.960937-40.957032v-34.136718c0-22.617188-18.339843-40.957032-40.960937-40.957032h-122.878906c-22.621094 0-40.960938 18.339844-40.960938 40.957032v34.136718c0 22.617188 18.339844 40.957032 40.960938 40.957032zm0 0" fill="#aaa"/><path d="m195.808594 227.902344h-40.960938c-7.539062 0-13.652344-6.113282-13.652344-13.652344s6.113282-13.652344 13.652344-13.652344h40.960938c7.539062 0 13.652344 6.113282 13.652344 13.652344s-6.113282 13.652344-13.652344 13.652344zm0 0" fill="#54596e"/><path d="m168.5 251.796875c.003906 22.621094 18.332031 40.953125 40.960938 40.957031 22.625-.003906 40.953124-18.335937 40.960937-40.957031 0-3.773437-3.058594-6.828125-6.828125-6.828125s-6.828125 3.054688-6.828125 6.828125c-.003906 7.558594-3.046875 14.34375-7.996094 19.308594-4.964843 4.949219-11.746093 7.992187-19.308593 7.996093-7.566407-.003906-14.347657-3.042968-19.308594-7.996093-4.953125-4.964844-7.996094-11.75-8-19.308594 0-3.773437-3.054688-6.828125-6.824219-6.828125s-6.828125 3.054688-6.828125 6.828125zm0 0" fill="#54596e"/><path d="m100.234375 251.796875c.003906 22.621094 18.332031 40.953125 40.960937 40.957031 22.625-.003906 40.953126-18.335937 40.957032-40.957031 0-3.773437-3.054688-6.828125-6.824219-6.828125s-6.828125 3.054688-6.828125 6.828125c-.003906 7.558594-3.046875 14.34375-7.996094 19.308594-4.964844 4.949219-11.75 7.992187-19.308594 7.996093-7.566406-.003906-14.347656-3.042968-19.3125-7.996093-4.953124-4.964844-7.992187-11.75-7.996093-19.308594 0-3.773437-3.054688-6.828125-6.828125-6.828125-3.769532 0-6.824219 3.054688-6.824219 6.828125zm0 0" fill="#54596e"/><path d="m168.5 227.902344v34.132812c0 3.769532 3.058594 6.828125 6.828125 6.828125s6.824219-3.058593 6.824219-6.828125v-34.132812c0-3.769532-3.054688-6.824219-6.824219-6.824219s-6.828125 3.054687-6.828125 6.824219" fill="#54596e"/></svg>