<svg height="423pt" viewBox="0 -10 423.25333 423" width="423pt" xmlns="http://www.w3.org/2000/svg"><g fill="#54596e"><path d="m116.054688 61.566406c0 30.164063-24.453126 54.613282-54.613282 54.613282-30.164062 0-54.613281-24.449219-54.613281-54.613282 0-30.160156 24.449219-54.613281 54.613281-54.613281 30.160156 0 54.613282 24.453125 54.613282 54.613281zm0 0"/><path d="m116.054688 61.566406h6.824218c-.003906-33.9375-27.503906-61.4375-61.4375-61.441406-33.9375.003906-61.43749975 27.503906-61.441406 61.441406.00390625 33.9375 27.503906 61.433594 61.441406 61.4375 33.933594-.003906 61.433594-27.5 61.4375-61.4375h-13.652344c-.003906 13.214844-5.339843 25.121094-13.996093 33.789063-8.667969 8.660156-20.574219 13.992187-33.789063 13.996093-13.21875-.003906-25.125-5.335937-33.792968-13.996093-8.65625-8.667969-13.992188-20.570313-13.996094-33.789063.003906-13.21875 5.339844-25.125 13.996094-33.792968 8.667968-8.65625 20.574218-13.988282 33.792968-13.996094 13.214844.007812 25.121094 5.339844 33.789063 13.996094 8.65625 8.667968 13.992187 20.574218 13.996093 33.792968zm0 0"/><path d="m416.425781 61.566406c0 30.164063-24.449219 54.613282-54.613281 54.613282-30.160156 0-54.613281-24.449219-54.613281-54.613282 0-30.160156 24.453125-54.613281 54.613281-54.613281 30.164062 0 54.613281 24.453125 54.613281 54.613281zm0 0"/><path d="m416.425781 61.566406h6.828125c-.003906-33.9375-27.503906-61.4375-61.441406-61.441406-33.933594.003906-61.4375 27.503906-61.4375 61.441406s27.503906 61.433594 61.4375 61.4375c33.9375-.003906 61.4375-27.5 61.441406-61.4375h-13.652344c-.003906 13.214844-5.339843 25.121094-13.996093 33.789063-8.671875 8.660156-20.574219 13.992187-33.792969 13.996093-13.21875-.003906-25.121094-5.335937-33.789062-13.996093-8.660157-8.667969-13.992188-20.570313-13.996094-33.789063.003906-13.21875 5.335937-25.125 13.996094-33.792968 8.667968-8.65625 20.570312-13.988282 33.789062-13.996094 13.21875.007812 25.121094 5.339844 33.792969 13.996094 8.65625 8.667968 13.992187 20.574218 13.996093 33.792968zm0 0"/></g><path d="m380.171875 122.921875c-4.113281-42.507813-41.046875-75.007813-85.242187-75.007813h-166.605469c-44.195313 0-81.125 32.5-85.242188 75.007813l-15.773437 162.769531c0 21.335938 15.691406 39.660156 37.382812 43.65625l61.78125 7.28125c2.613282 64.46875 39.730469 59.347656 85.152344 59.347656 45.417969 0 82.535156 5.121094 85.148438-59.347656l61.785156-7.28125c21.695312-3.996094 37.386718-22.320312 37.386718-43.65625zm0 0" fill="#fff"/><path d="m380.171875 122.921875 6.796875-.65625c-4.5-46.179687-44.484375-81.1875-92.039062-81.179687h-166.605469c-47.558594-.007813-87.539063 35-92.039063 81.179687l-15.773437 162.765625-.03125.660156c.011719 24.765625 18.1875 45.820313 42.976562 50.367188l.4375.066406 61.777344 7.285156.800781-6.78125-6.820312.277344c.589844 14.46875 2.835937 25.941406 6.792968 35.171875 2.960938 6.914063 6.9375 12.546875 11.75 16.890625 7.226563 6.546875 16.066407 10.019531 25.402344 11.828125 9.371094 1.816406 19.398438 2.09375 29.882813 2.097656 5.921875 0 11.984375-.09375 18.144531-.09375 6.152344 0 12.21875.09375 18.140625.09375 9.320313-.003906 18.28125-.226562 26.734375-1.546875 6.339844-.992187 12.417969-2.617187 18.054688-5.347656 8.464843-4.054688 15.78125-10.824219 20.679687-20.574219 4.9375-9.75 7.695313-22.253906 8.359375-38.523437l-6.820312-.273438.800781 6.777344 61.785156-7.28125.4375-.066406c24.789063-4.546875 42.964844-25.605469 42.976563-50.367188l-.03125-.660156-15.773438-162.769531-6.796875.660156-6.792969.660156 15.773438 162.769531 6.792968-.660156h-6.824218c.011718 17.902344-13.199219 33.5-31.796875 36.941406l1.234375 6.714844-.796875-6.78125-61.785157 7.285156c-3.335937.390626-5.886718 3.148438-6.023437 6.503907-.535156 13.347656-2.628906 23.210937-5.695313 30.335937-2.308593 5.359375-5.109374 9.199219-8.367187 12.15625-4.875 4.40625-11.035156 7.019532-18.851563 8.550782-7.78125 1.527343-17.054687 1.855468-27.273437 1.847656-5.769531 0-11.84375-.09375-18.140625-.09375s-12.371094.09375-18.140625.09375c-9.085937.003906-17.417969-.25-24.625-1.382813-5.410156-.84375-10.15625-2.175781-14.210937-4.144531-6.0625-2.988281-10.714844-7.1875-14.460938-14.472656-3.714844-7.28125-6.292969-17.871094-6.894531-32.890625-.136719-3.355469-2.683594-6.113281-6.019531-6.503907l-61.78125-7.285156-.796876 6.78125 1.234376-6.714844c-18.597657-3.441406-31.808594-19.035156-31.792969-36.941406h-6.828125l6.792968.660156 15.773438-162.769531c3.730469-38.84375 37.617188-68.832031 78.449219-68.84375h166.605469c40.828124.011719 74.714843 30 78.449218 68.84375zm0 0" fill="#54596e"/><path d="m143.359375 315.585938c0 64.886718 30.5625 59.921874 68.265625 59.921874 37.707031 0 68.269531 4.964844 68.269531-59.921874 0-64.886719-30.5625-117.484376-68.269531-117.484376-37.703125 0-68.265625 52.597657-68.265625 117.484376zm0 0" fill="#d8d8d8"/><path d="m238.933594 160.554688c0-37.546876 16.808594-37.546876 37.546875-37.546876 20.734375 0 37.546875 16.808594 37.546875 37.546876 0 20.734374-16.8125 37.546874-37.546875 37.546874-20.738281 0-37.546875-16.8125-37.546875-37.546874zm0 0" fill="#54596e"/><path d="m184.320312 160.554688c0-37.546876-16.8125-37.546876-37.546874-37.546876-20.734376 0-37.546876 16.808594-37.546876 37.546876 0 20.734374 16.8125 37.546874 37.546876 37.546874 20.734374 0 37.546874-16.8125 37.546874-37.546874zm0 0" fill="#54596e"/><path d="m170.667969 163.964844c0 7.542968-6.113281 13.65625-13.65625 13.65625-7.539063 0-13.652344-6.113282-13.652344-13.65625 0-7.539063 6.113281-13.652344 13.652344-13.652344 7.542969 0 13.65625 6.113281 13.65625 13.652344zm0 0" fill="#fff"/><path d="m279.894531 163.964844c0 7.542968-6.113281 13.65625-13.65625 13.65625-7.539062 0-13.652343-6.113282-13.652343-13.65625 0-7.539063 6.113281-13.652344 13.652343-13.652344 7.542969 0 13.65625 6.113281 13.65625 13.652344zm0 0" fill="#fff"/><path d="m157.011719 341.457031c33.9375-.003906 61.4375-27.5 61.441406-61.4375 0-3.769531-3.054687-6.828125-6.828125-6.828125-3.769531 0-6.824219 3.058594-6.824219 6.828125-.003906 13.21875-5.339843 25.121094-13.996093 33.789063-8.671876 8.660156-20.574219 13.992187-33.792969 14-3.769531 0-6.824219 3.054687-6.824219 6.824218 0 3.769532 3.054688 6.828126 6.824219 6.824219zm0 0" fill="#54596e"/><path d="m266.238281 327.808594c-13.214843-.007813-25.121093-5.339844-33.789062-14-8.65625-8.667969-13.992188-20.570313-13.996094-33.789063 0-3.769531-3.054687-6.828125-6.828125-6.828125-3.769531 0-6.824219 3.058594-6.824219 6.828125.003907 33.9375 27.503907 61.433594 61.4375 61.4375 3.773438 0 6.828125-3.054687 6.828125-6.824219 0-3.769531-3.054687-6.824218-6.828125-6.824218zm0 0" fill="#54596e"/><path d="m259.414062 245.886719c0-15.082031-21.394531-20.480469-47.789062-20.480469-26.390625 0-47.785156 5.398438-47.785156 20.480469 0 15.078125 21.394531 34.132812 47.785156 34.132812 26.394531 0 47.789062-19.054687 47.789062-34.132812zm0 0" fill="#54596e"/></svg>