<?xml version="1.0" encoding="iso-8859-1"?>
<!-- Generator: Adobe Illustrator 19.0.0, SVG Export Plug-In . SVG Version: 6.00 Build 0)  -->
<svg xmlns="http://www.w3.org/2000/svg" xmlns:xlink="http://www.w3.org/1999/xlink" version="1.1" id="Capa_1" x="0px" y="0px" viewBox="0 0 514.086 514.086" style="enable-background:new 0 0 514.086 514.086;" xml:space="preserve" width="512" height="512">
<g id="XMLID_2462_">
	<g id="XMLID_2463_">
		<path id="XMLID_2464_" style="fill:#B5E5DC;" d="M480.969,294.343c0-122.725-42.597-173.504-51.768-252.201    c-4.225-36.259-76.441-38.86-112.084-30.976l-60.702,13.427c-11.485,2.54-21.339,10.129-26.275,20.806    c-6.465,13.983-20.659,22.732-36.037,22.242l-9.701-0.309c-8.021-0.255-15.187,4.976-17.389,12.692l-0.382,1.34    c-4.553,15.958-22.046,13.076-35.73,26.961c-23.792,24.141-25.175,64.483-22.572,92.521c1.679,18.091-4.615,36.005-17.062,49.24    c-16.878,17.948-37.248,50.695-37.248,104.217c0,83.987,68.328,152.315,152.315,152.315c75.203,0,128.836-54.783,139.232-126.537    c1.854-12.799-7.102-24.667-19.993-25.705c-10.899-0.878-20.561,6.284-23.235,16.69c-10.113,39.356-54.386,69.115-96.004,69.115    c-47.353,0-85.877-38.525-85.877-85.877c0-32.266,17.896-60.42,44.275-75.093l0,0c12.874,11.814,31.761,14.319,47.269,6.269    l29.202-15.159c0.563-0.292,1.13-0.572,1.701-0.841c17.085-8.025,37.448-3.739,50.531,9.866l79.039,82.194    c4.462,4.64,10.16,7.968,16.452,9.33c7.412,1.603,15.154,1.453,22.593-0.514l0,0C436.139,363.846,480.969,324.087,480.969,294.343    z"/>
		<path id="XMLID_2465_" style="fill:#80C1B4;" d="M129.701,393.048c-16.76,5.29-33.31,7.95-49.46,7.95    c-6.51,0-12.96-0.44-19.31-1.31c-4.49-14.34-6.91-29.58-6.91-45.38c0-1.34,0.01-2.67,0.04-3.98c26.43-1.4,50.65-10.44,72.16-26.94    c-3.73,9.6-5.77,20.03-5.77,30.92C120.451,368.238,123.781,381.398,129.701,393.048z"/>
		<path id="XMLID_2468_" style="fill:#E2A67D;" d="M215.071,283.878l-3.07,1.6c-6.06,3.14-12.63,4.68-19.15,4.68    c-9.93,0-19.75-3.55-27.51-10.4c1.13-1.83,2.1-3.49,2.92-4.95l6.33-11.2l11.26,6.2    C195.541,275.138,205.712,279.828,215.071,283.878z"/>
		<path id="XMLID_2471_" style="fill:#E2A67D;" d="M217.811,299.178c-3.27,8.43-7.37,16.74-12.47,24.69    c-11.25,17.54-27.37,33.35-50.29,44.83c-49.23,24.65-88.51,21.83-115.66,12.67c-9.95-3.36-7.4-18.18,3.1-17.9    c59.53,1.62,98.38-31.05,119.82-57.2c8.3-10.12,13.99-19.26,17.27-25.07C191.902,287.978,204.821,293.718,217.811,299.178z"/>
		<path id="XMLID_2474_" style="fill:#B77E53;" d="M217.811,299.178c-3.27,8.43-7.37,16.74-12.47,24.69    c-2.2-0.24-4.37-0.68-6.51-1.31l-19.53-5.79c-6.7-1.98-12.5-5.66-16.99-10.5c8.3-10.12,13.99-19.26,17.27-25.07    C191.902,287.978,204.821,293.718,217.811,299.178z"/>
		<path id="XMLID_2475_" style="fill:#B5E5DC;" d="M164.942,240.978l0.398,39.941c0.108,10.826,7.268,20.315,17.649,23.389    l19.531,5.784c11.012,3.261,22.817-1.515,28.463-11.517l38.565-68.31L164.942,240.978z"/>
		<path id="XMLID_2478_" style="fill:#FE4080;" d="M449.383,287.744c-0.812,17.697-7.825,41.042-40.948,31.429    c-38.642-11.225-72.307-68.824-107.419-95.899c-11.461-8.849-5.86-19.474,2.518-31.441c13.649-19.509,3.93-46.655-19.027-52.986    c-20.862-5.754-32.617-27.97-25.44-48.409c5.613-16.014,17.274-31.899,41.031-37.053c1.577-0.341,3.142-0.694,4.695-1.047    c50.915-11.602,87.874-27.675,103.641,47.867c16.25,77.837,39.995,169.853,39.995,169.853S449.831,278.06,449.383,287.744z"/>
		<path id="XMLID_2481_" style="fill:#FF6EA6;" d="M449.383,287.744c-7.578,18.38-21.992,18.38-26.887,18.38    c-2.754,0-6.048-0.553-9.802-1.647c-19.639-5.695-40.289-28.852-60.269-51.256c-13.532-15.156-27.522-30.841-42.066-42.066    c-0.129-0.094-0.235-0.188-0.329-0.259c0.459-1.459,1.906-4.389,6.036-10.296c9.26-13.238,11.531-30.229,6.06-45.42    c-5.46-15.179-18.003-26.793-33.547-31.076c-6.013-1.659-10.908-5.613-13.802-11.131c-2.859-5.472-3.318-11.673-1.283-17.462    c4.248-12.096,10.108-30.641,31.299-43.172c50.915-11.602,87.874-27.675,103.641,47.867    c16.25,77.837,39.995,169.853,39.995,169.853S449.831,278.06,449.383,287.744z"/>
	</g>
	<g id="XMLID_2482_">
		<path id="XMLID_2483_" d="M457.9,125.371c-9.128-27.793-17.748-54.046-21.251-84.098c-1.192-10.239-6.592-18.843-16.047-25.572    C394.648-2.773,343.517-2.355,315.497,3.842l-60.702,13.427c-13.889,3.072-25.651,12.411-31.463,24.981    c-5.208,11.265-16.595,18.279-28.991,17.894l-9.701-0.309c-11.471-0.371-21.689,7.09-24.84,18.132l-0.382,1.337    c-1.562,5.473-5.146,7.24-13.107,10.713c-6.175,2.695-13.86,6.048-20.752,13.042c-8.427,8.551-14.879,19.51-19.176,32.574    c-1.294,3.935,0.846,8.174,4.781,9.468s8.173-0.846,9.468-4.781c3.569-10.849,8.821-19.843,15.611-26.732    c4.861-4.932,10.558-7.418,16.068-9.823c8.42-3.674,17.964-7.839,21.533-20.347l0.381-1.337c1.261-4.417,5.347-7.403,9.939-7.254    l9.701,0.309c2.623,0.083,5.213-0.064,7.751-0.413c-0.891,1.94-1.754,3.983-2.557,6.123c-8.229,21.917-6.477,43.225,5.068,61.619    c1.424,2.27,3.864,3.514,6.36,3.514c1.362,0,2.741-0.371,3.979-1.148c3.508-2.202,4.567-6.831,2.366-10.339    c-9.014-14.362-10.322-30.496-3.887-47.953c5.038-13.667,13.115-23.065,13.196-23.159c0.11-0.126,0.206-0.258,0.306-0.389    c4.327-4.002,7.923-8.872,10.501-14.446c3.859-8.346,11.742-14.563,21.087-16.631l60.702-13.427    c25.561-5.652,72.157-5.521,93.168,9.433c5.934,4.224,9.154,9.159,9.846,15.088c3.677,31.557,12.527,58.508,21.898,87.042    c14.66,44.642,29.819,90.804,29.819,164.292c0,25.21-41.533,62.857-63.868,68.763c-2.86,0.756-5.827,1.2-8.818,1.319    c-4.139,0.165-7.36,3.654-7.195,7.793c0.161,4.037,3.484,7.201,7.489,7.201c0.101,0,0.202-0.002,0.304-0.006    c4.082-0.163,8.138-0.771,12.055-1.806c13.569-3.588,32.166-15.865,47.38-31.277c10.328-10.463,27.654-31.13,27.654-51.988    C488.469,218.455,472.229,169.002,457.9,125.371z"/>
		<path id="XMLID_2484_" d="M298.84,274.148c-9.607-9.99-22.804-15.756-36.333-16.156l13.572-24.041    c2.036-3.607,0.763-8.182-2.844-10.218c-3.609-2.037-8.183-0.764-10.219,2.844l-38.564,68.31c-3.953,7-12.095,10.296-19.803,8.013    l-19.531-5.784c-7.269-2.152-12.203-8.692-12.279-16.272l-0.398-39.94c-0.041-4.117-3.391-7.425-7.498-7.425    c-0.025,0-0.051,0-0.076,0c-4.142,0.041-7.466,3.432-7.425,7.574l0.336,33.716c-0.489,0.181-0.967,0.414-1.424,0.705    c-21.584,13.728-36.768,35.904-41.658,60.842c-0.092,0.47-0.133,0.937-0.136,1.399c-14.745,8.611-32.375,15.292-53.029,17.513    c-0.002-0.308-0.012-0.615-0.012-0.923c0-50.942,19.147-81.997,35.21-99.078c13.986-14.873,20.936-34.947,19.067-55.074    c-0.894-9.631-1.129-18.926-0.701-27.626c0.204-4.137-2.984-7.656-7.122-7.86c-4.138-0.21-7.656,2.985-7.86,7.122    c-0.464,9.406-0.212,19.416,0.747,29.751c1.471,15.848-4.018,31.671-15.059,43.412c-17.921,19.057-39.283,53.498-39.283,109.354    c0,0.574,0.017,1.144,0.023,1.716c-1.272,0-2.551-0.011-3.844-0.046c-8.429-0.218-15.322,5.411-16.801,13.713    c-1.488,8.357,3.077,16.084,11.102,18.792c4.278,1.444,8.995,2.781,14.129,3.889c14.574,59.418,62.275,105.717,122.289,118.333    c0.52,0.109,1.039,0.162,1.551,0.162c3.472,0,6.589-2.425,7.332-5.958c0.853-4.054-1.743-8.03-5.796-8.882    c-52.33-11.002-94.33-50.265-109.191-101.188c4.092,0.375,8.367,0.586,12.828,0.586c12.046,0,25.414-1.521,39.951-5.351    c2.772,6.666,6.268,12.901,10.384,18.621l-22.781,16.24c-3.373,2.404-4.158,7.088-1.753,10.46    c1.463,2.053,3.771,3.147,6.113,3.147c1.506,0,3.027-0.453,4.347-1.394l23.826-16.985c6.401,6.41,13.689,11.868,21.633,16.186    l-8.549,24.226c-1.378,3.906,0.671,8.19,4.577,9.569c0.826,0.291,1.668,0.429,2.496,0.429c3.091,0,5.985-1.926,7.073-5.006    l8.161-23.126c9.709,3.402,20.064,5.244,30.716,5.244c2.459,0,4.929-0.108,7.402-0.294l7.311,23.783    c0.992,3.226,3.959,5.298,7.167,5.298c0.729,0,1.472-0.107,2.206-0.333c3.959-1.217,6.183-5.414,4.965-9.373l-6.647-21.624    c12.512-2.794,24.813-7.858,36.15-14.942L279,444.413c1.466,1.477,3.394,2.216,5.322,2.216c1.91,0,3.821-0.726,5.284-2.177    c2.939-2.918,2.957-7.667,0.038-10.606L277.24,421.35c16.338-13.409,27.718-30.347,32.36-48.418    c1.798-6.993,8.277-11.654,15.37-11.081c3.975,0.32,7.538,2.22,10.033,5.348c2.608,3.27,3.752,7.573,3.139,11.806    C327.913,449.608,276.015,497.865,209,499.088c-4.142,0.075-7.438,3.494-7.362,7.635c0.075,4.095,3.417,7.363,7.496,7.363    c0.046,0,0.093,0,0.14-0.001c37.378-0.682,70.942-14.259,97.063-39.266c24.769-23.712,41.337-56.976,46.652-93.663    c1.205-8.317-1.076-16.813-6.258-23.31c-5.105-6.402-12.406-10.29-20.555-10.946c-14.421-1.161-27.485,8.219-31.103,22.299    c-8.994,35.004-48.803,63.481-88.74,63.481c-31.214,0-59.436-18.708-71.835-47.059c7.693-2.722,15.67-6.093,23.914-10.222    c25.959-13.001,45.857-32.453,59.219-57.804c8.201-2.127,15.45-7.484,19.884-15.335l16.559-29.332    c0.927,0.27,1.922,0.364,2.94,0.245c11.33-1.289,22.926,2.96,31.013,11.371l76.065,79.102c1.473,1.531,3.438,2.301,5.407,2.301    c1.87,0,3.743-0.695,5.197-2.094c2.986-2.871,3.079-7.619,0.208-10.605L298.84,274.148z M159.671,291.422    c0.474,1.348,1.042,2.651,1.685,3.913c-6.471,8.635-15.531,19.024-27.319,28.75C139.464,311.201,148.334,299.865,159.671,291.422z     M151.696,361.989c-39.075,19.57-76.051,23.701-109.901,12.278c-0.417-0.141-1.393-0.47-1.13-1.949    c0.247-1.385,1.146-1.361,1.627-1.35c66.506,1.819,108.392-37.391,129.095-64.051c2.824,1.99,6.004,3.555,9.473,4.582    l19.531,5.784c0.061,0.018,0.122,0.029,0.182,0.047C188.841,336.601,172.439,351.599,151.696,361.989z"/>
		<path id="XMLID_2488_" d="M171.821,160.553c4.142,0,7.5-3.358,7.5-7.5v-0.719c0-4.142-3.358-7.5-7.5-7.5s-7.5,3.358-7.5,7.5v0.719    C164.321,157.195,167.679,160.553,171.821,160.553z"/>
		<path id="XMLID_2489_" d="M296.436,229.208c12.871,9.926,25.552,24.142,38.976,39.191c22.121,24.799,44.994,50.442,70.933,57.974    c5.863,1.702,11.28,2.552,16.233,2.552c8.616,0,15.83-2.572,21.552-7.703c17.558-15.749,12.343-48.753,11.69-52.465    c-0.034-0.194-0.075-0.386-0.125-0.576c-0.236-0.918-23.89-92.727-39.917-169.514c-6.146-29.445-15.766-47.438-30.272-56.623    c-19.21-12.163-42.774-6.494-70.058,0.071c-5.475,1.317-11.136,2.679-16.934,3.937c-22.536,4.891-38.625,19.383-46.528,41.909    c-4.147,11.82-3.225,24.456,2.596,35.58c5.766,11.018,15.949,19.234,27.936,22.54c8.541,2.355,15.159,8.485,18.159,16.818    c3.011,8.363,1.811,17.343-3.292,24.636C291.129,196.474,278.111,215.077,296.436,229.208z M309.675,196.134    c7.935-11.34,9.8-25.306,5.115-38.317c-4.673-12.98-14.982-22.529-28.284-26.197c-8.113-2.238-14.731-7.577-18.634-15.035    c-3.873-7.401-4.488-15.803-1.732-23.659c6.174-17.596,18.136-28.435,35.556-32.215c5.962-1.294,11.706-2.676,17.261-4.013    c15.095-3.631,28.271-6.801,39.391-6.801c7.269,0,13.66,1.354,19.134,4.82c10.7,6.775,18.424,22.154,23.613,47.015    c15.63,74.882,38.463,163.924,39.997,169.889c1.339,8.065,2.59,29.877-6.992,38.448c-4.896,4.38-12.827,5.02-23.571,1.899    c-21.799-6.33-43.213-30.336-63.922-53.553c-13.29-14.9-27.033-30.307-41.01-41.085    C301.266,213.991,299.146,211.18,309.675,196.134z"/>
	</g>
</g>















</svg>
