<svg height="436pt" viewBox="0 -3 436.90667 436" width="436pt" xmlns="http://www.w3.org/2000/svg"><path d="m68.324219 341.730469c-33.964844 0-61.496094 27.535156-61.496094 61.496093h61.496094zm0 0" fill="#aaa"/><path d="m68.324219 341.730469v-6.828125c-37.738281.003906-68.32031275 30.589844-68.324219 68.324218 0 1.796876.730469 3.554688 2 4.828126 1.273438 1.269531 3.03125 1.996093 4.828125 1.996093h61.496094c1.796875 0 3.554687-.726562 4.824219-1.996093 1.273437-1.273438 2-3.03125 2-4.828126v-61.496093c0-1.800781-.726563-3.558594-2-4.828125-1.269532-1.273438-3.027344-2-4.824219-2v6.828125h-6.828125v54.667969h-54.667969v6.828124h6.824219c.003906-15.117187 6.109375-28.742187 16.011718-38.65625 9.917969-9.90625 23.542969-16.011718 38.660157-16.015624v-6.824219h-6.828125zm0 0" fill="#54596e"/><path d="m293.546875 334.960938h75.035156c33.964844 0 61.496094 27.53125 61.496094 61.496093v6.769531h-136.53125zm0 0" fill="#aaa"/><path d="m293.546875 334.960938v6.824218h75.035156c15.121094.003906 28.742188 6.113282 38.660157 16.015625 9.902343 9.914063 16.007812 23.539063 16.011718 38.65625v6.769531h6.824219v-6.828124h-129.703125v-61.4375h-6.828125v6.824218-6.824218h-6.828125v68.265624c0 1.796876.730469 3.554688 2 4.828126 1.273438 1.269531 3.03125 1.996093 4.828125 1.996093h136.53125c1.800781 0 3.558594-.726562 4.828125-1.996093 1.273438-1.273438 2-3.03125 2-4.828126v-6.769531c-.003906-37.738281-30.585938-68.320312-68.324219-68.324219h-75.035156c-1.796875 0-3.558594.726563-4.828125 2-1.269531 1.269532-2 3.027344-2 4.828126zm0 0" fill="#54596e"/><path d="m211.625 280.347656h-88.6875c-33.964844 0-61.496094 27.53125-61.496094 61.496094v61.382812h150.183594zm0 0" fill="#999"/><path d="m211.625 280.347656v-6.828125h-88.6875c-37.738281.003907-68.320312 30.585938-68.324219 68.324219v61.382812c0 1.796876.730469 3.554688 2 4.828126 1.273438 1.269531 3.03125 1.996093 4.828125 1.996093h150.183594c1.796875 0 3.558594-.726562 4.828125-1.996093 1.269531-1.273438 2-3.03125 2-4.828126v-122.878906c0-1.800781-.730469-3.558594-2-4.828125-1.269531-1.273437-3.03125-2-4.828125-2v6.828125h-6.824219v116.050782h-136.535156v-54.554688c.003906-15.117188 6.109375-28.742188 16.011719-38.65625 9.917968-9.90625 23.542968-16.007812 38.660156-16.015625h88.6875v-6.824219h-6.824219zm0 0" fill="#54596e"/><path d="m348.066406 403.226562h-218.359375v-262.828124c0-73.519532 59.601563-133.117188 133.121094-133.117188s133.117187 59.597656 133.117187 133.117188v214.949218c0 26.441406-21.4375 47.878906-47.878906 47.878906zm0 0" fill="#999"/><path d="m348.066406 403.226562v-6.828124h-211.53125v-256c0-34.894532 14.125-66.425782 36.988282-89.300782 22.875-22.867187 54.40625-36.988281 89.304687-36.992187 34.894531.003906 66.425781 14.125 89.300781 36.988281 22.863282 22.878906 36.988282 54.410156 36.992188 89.304688v214.949218c-.003906 11.355469-4.585938 21.574219-12.023438 29.027344-7.453125 7.4375-17.671875 12.019531-29.03125 12.023438v13.65625c30.21875-.003907 54.703125-24.492188 54.707032-54.707032v-214.949218c-.003907-77.292969-62.652344-139.941407-139.945313-139.945313-77.292969.003906-139.941406 62.652344-139.945313 139.945313v262.828124c0 1.796876.726563 3.554688 2 4.828126 1.269532 1.269531 3.027344 1.996093 4.824219 1.996093h218.359375zm0 0" fill="#54596e"/><path d="m177.492188 423.707031v-197.972656h34.132812zm0 0" fill="#fff"/><path d="m177.492188 423.707031h6.828124v-191.148437h19.203126l-32.757813 189.988281 6.726563 1.160156h6.828124-6.828124l6.730468 1.160157 34.132813-197.976563c.34375-1.992187-.203125-4.007813-1.507813-5.554687-1.304687-1.550782-3.195312-2.429688-5.222656-2.429688h-34.132812c-1.796876 0-3.554688.726562-4.824219 2-1.273438 1.269531-2 3.027344-2 4.828125v197.972656c0 3.542969 2.714843 6.5 6.242187 6.800781 3.53125.300782 6.707032-2.152343 7.3125-5.640624zm0 0" fill="#54596e"/><path d="m348.160156 423.707031v-197.972656h-34.132812zm0 0" fill="#fff"/><path d="m348.160156 423.707031h6.828125v-197.972656c0-1.800781-.730469-3.558594-2-4.828125-1.273437-1.273438-3.03125-2-4.828125-2h-34.132812c-2.023438 0-3.917969.878906-5.222656 2.429688-1.300782 1.546874-1.847657 3.5625-1.503907 5.554687l34.132813 197.976563c.597656 3.488281 3.777344 5.941406 7.308594 5.640624 3.527343-.300781 6.246093-3.261718 6.246093-6.800781h-6.828125l6.726563-1.160156-32.753907-189.988281h19.199219v191.148437h6.828125l6.726563-1.160156zm0 0" fill="#54596e"/><path d="m323.351562 241.128906-60.523437-29.050781-60.523437 29.050781c-11.496094 5.519532-24.8125-2.859375-24.8125-15.609375v-60.429687c0-15.519532 12.585937-28.101563 28.105468-28.101563h114.457032c15.523437 0 28.105468 12.582031 28.105468 28.101563v60.429687c0 12.75-13.316406 21.128907-24.808594 15.609375zm0 0" fill="#aaa"/><g fill="#54596e"><path d="m323.351562 241.128906 2.953126-6.152344-60.523438-29.050781c-1.871094-.898437-4.039062-.898437-5.910156 0l-60.523438 29.050781c-1.542968.738282-3.050781 1.050782-4.535156 1.054688-2.707031.003906-5.382812-1.113281-7.332031-3-1.945313-1.902344-3.148438-4.398438-3.164063-7.507812v-60.429688c.023438-11.75 9.53125-21.257812 21.277344-21.277344h114.460938c11.746093.019532 21.253906 9.527344 21.277343 21.277344v60.429688c-.015625 3.113281-1.21875 5.609374-3.164062 7.511718-1.945313 1.882813-4.621094 3.003906-7.328125 2.996094-1.484375-.003906-2.996094-.316406-4.539063-1.054688l-2.949219 6.152344-2.953124 6.15625c3.378906 1.621094 6.964843 2.398438 10.445312 2.394532 6.386719-.003907 12.375-2.546876 16.8125-6.824219 4.4375-4.261719 7.34375-10.433594 7.332031-17.335938v-60.429687c-.003906-19.296875-15.636719-34.925782-34.929687-34.929688h-114.460938c-19.292968 0-34.925781 15.632813-34.929687 34.929688v60.429687c-.011719 6.902344 2.890625 13.070313 7.332031 17.332031 4.4375 4.28125 10.421875 6.824219 16.8125 6.828126 3.476562.003906 7.0625-.773438 10.445312-2.398438l57.570313-27.628906 57.566406 27.632812zm0 0"/><path d="m276.414062 156.070312 12.980469-14.035156c4.183594-4.527344.972657-11.875-5.195312-11.875h-42.746094c-6.167969 0-9.378906 7.347656-5.195313 11.875l12.980469 14.035156c7.328125 7.921876 19.847657 7.921876 27.175781 0zm0 0"/><path d="m205.601562 91.535156c-6.246093-4.21875-14.734374-2.574218-18.953124 3.675782s-2.574219 14.734374 3.675781 18.953124 14.738281 2.574219 18.957031-3.675781 2.570312-14.734375-3.679688-18.953125zm0 0"/><path d="m335.304688 91.535156c-6.25-4.21875-14.734376-2.574218-18.953126 3.675782s-2.574218 14.738281 3.675782 18.957031 14.734375 2.570312 18.953125-3.679688 2.574219-14.734375-3.675781-18.953125zm0 0"/></g></svg>