<svg height="512pt" viewBox="0 -20 512 512" width="512pt" xmlns="http://www.w3.org/2000/svg"><path d="m41.390625 170.09375c-20.675781-16.777344-33.890625-42.394531-33.890625-71.09375 0-50.535156 40.964844-91.5 91.5-91.5 34.832031 0 65.117188 19.464844 80.578125 48.109375l-112.660156 129.472656zm0 0" fill="#774320"/><path d="m152.128906 67.023438c-10.851562-17.992188-30.585937-30.023438-53.128906-30.023438-34.242188 0-62 27.757812-62 62 0 18.394531 8.011719 34.917969 20.734375 46.273438l50.015625-22.273438zm0 0" fill="#513321"/><path d="m332.363281 55.714844c15.441407-28.703125 45.761719-48.214844 80.636719-48.214844 50.535156 0 91.5 40.964844 91.5 91.5 0 29.003906-13.492188 54.851562-34.542969 71.617188l-84.207031-25.035157zm0 0" fill="#774320"/><path d="m453.917969 145.582031c12.925781-11.363281 21.082031-28.019531 21.082031-46.582031 0-34.242188-27.757812-62-62-62-22.601562 0-42.378906 12.09375-53.214844 30.164062l32.464844 47.835938zm0 0" fill="#513321"/><path d="m491 245c0 129.785156-105.214844 185-235 185s-235-55.214844-235-185c0-90 105.214844-202 235-202s235 112 235 202zm0 0" fill="#916643"/><path d="m490.972656 245.046875c0 129.789063-105.207031 185-235 185-3.347656 0-6.679687-.042969-10-.113281 125.152344-2.789063 225-58.449219 225-184.886719 0-87.683594-99.847656-196.230469-225-201.78125 3.320313-.152344 6.652344-.21875 10-.21875 129.792969 0 235 112 235 202zm0 0" fill="#845939"/><path d="m256 437.5c-4.140625 0-7.5-3.355469-7.5-7.5v-29.5c0-4.144531 3.359375-7.5 7.5-7.5s7.5 3.355469 7.5 7.5v29.5c0 4.144531-3.359375 7.5-7.5 7.5zm0 0" fill="#513321"/><path d="m270.5 400.5h-29c-14.359375 0-26-11.640625-26-26v-2c0-8.285156 6.714844-15 15-15h51c8.285156 0 15 6.714844 15 15v2c0 14.359375-11.640625 26-26 26zm0 0" fill="#2d2d2d"/><path d="m408.5 218.5v2.5c0 17.398438-14.101562 31.5-31.5 31.5s-31.5-14.101562-31.5-31.5v-2.5c0-8.28125 6.71875-15 15-15h33c8.28125 0 15 6.71875 15 15zm0 0" fill="#fff"/><path d="m384.5 203.5v20.25c0 4.140625-3.359375 7.5-7.5 7.5s-7.5-3.359375-7.5-7.5v-20.25zm0 0" fill="#2d2d2d"/><path d="m166.5 218.5v2.5c0 17.398438-14.101562 31.5-31.5 31.5s-31.5-14.101562-31.5-31.5v-2.5c0-8.28125 6.71875-15 15-15h33c8.28125 0 15 6.71875 15 15zm0 0" fill="#fff"/><path d="m142.5 203.5v20.25c0 4.140625-3.359375 7.5-7.5 7.5s-7.5-3.359375-7.5-7.5v-20.25zm0 0" fill="#2d2d2d"/><path d="m318.5 424v5.5c0 19.328125-15.671875 35-35 35h-55c-19.328125 0-35-15.671875-35-35v-5.5zm0 0" fill="#513321"/><path d="m296.5 372.5v2c0 14.359375-11.640625 26-26 26h-20c14.359375 0 26-11.640625 26-26v-2c0-8.28125-6.71875-15-15-15h20c8.28125 0 15 6.71875 15 15zm0 0" fill="#212121"/><path d="m475 99c0 18.5625-8.160156 35.222656-21.078125 46.582031l-.632813-.3125c7.371094-10.199219 11.710938-22.730469 11.710938-36.269531 0-34.238281-27.761719-62-62-62-14.578125 0-27.980469 5.03125-38.558594 13.449219 11.347656-14.289063 28.886719-23.449219 48.558594-23.449219 34.238281 0 62 27.761719 62 62zm0 0" fill="#3d241a"/><path d="m37 98.847656c0 18.558594 8.160156 35.21875 21.078125 46.578125l.632813-.308593c-7.371094-10.199219-11.710938-22.730469-11.710938-36.269532 0-34.242187 27.761719-62 62-62 14.578125 0 27.980469 5.03125 38.558594 13.449219-11.347656-14.289063-28.886719-23.449219-48.558594-23.449219-34.238281 0-62 27.757813-62 62zm0 0" fill="#3d241a"/><path d="m512 99c0-54.589844-44.410156-99-99-99-34.5 0-66.242188 17.859375-84.238281 46.980469-23.800781-7.617188-48.183594-11.480469-72.761719-11.480469s-48.964844 3.863281-72.765625 11.480469c-17.992187-29.117188-49.746094-46.980469-84.234375-46.980469-54.589844 0-99 44.410156-99 99 0 28.183594 11.816406 54.648438 32.59375 73.425781-12.359375 24.210938-19.09375 49.121094-19.09375 72.574219 0 32.5625 6.488281 61.851562 19.28125 87.054688 12.082031 23.804687 29.820312 44.070312 52.722656 60.242187 26.992188 19.058594 61.082032 32.316406 100.550782 39.339844 1.117187 22.445312 19.726562 40.363281 42.445312 40.363281h55c22.71875 0 41.328125-17.917969 42.445312-40.363281 39.46875-7.023438 73.558594-20.28125 100.550782-39.339844 22.902344-16.171875 40.640625-36.4375 52.722656-60.242187 12.792969-25.203126 19.28125-54.492188 19.28125-87.054688 0-23.453125-6.734375-48.367188-19.097656-72.574219 20.789062-18.777343 32.597656-45.195312 32.597656-73.425781zm-99-84c46.316406 0 84 37.683594 84 84 0 22.777344-9.0625 44.167969-25.125 59.914062-2.535156-4.195312-5.238281-8.355468-8.105469-12.472656 11.96875-12.8125 18.730469-29.75 18.730469-47.441406 0-38.320312-31.179688-69.5-69.5-69.5-22.109375 0-43.03125 10.738281-56.039062 28.398438-2.175782-.992188-11.300782-4.847657-13.675782-5.773438 15.527344-23.085938 41.539063-37.125 69.714844-37.125zm14.257812 89.738281c-17.238281-15.910156-36.199218-29.339843-56.574218-40.101562 10.28125-12.726563 25.605468-20.136719 42.316406-20.136719 30.050781 0 54.5 24.449219 54.5 54.5 0 12.953125-4.628906 25.386719-12.882812 35.164062-8.140626-10.253906-17.285157-20.128906-27.359376-29.425781zm-412.257812-5.738281c0-46.316406 37.683594-84 84-84 28.164062 0 54.1875 14.039062 69.714844 37.125-2.375.925781-4.75 1.875-7.113282 2.875-2.199218.933594-4.378906 1.902344-6.550781 2.894531-13.070312-17.886719-33.589843-28.394531-56.050781-28.394531-38.320312 0-69.5 31.179688-69.5 69.5 0 17.667969 6.769531 34.621094 18.734375 47.433594-2.867187 4.117187-5.570313 8.28125-8.105469 12.476562-16.058594-15.75-25.128906-37.171875-25.128906-59.910156zm42.382812 35.160156c-8.25-9.777344-12.882812-22.222656-12.882812-35.160156 0-30.050781 24.449219-54.5 54.5-54.5 16.699219 0 32.03125 7.410156 42.316406 20.136719-20.375 10.761719-39.335937 24.191406-56.574218 40.101562-10.070313 9.296875-19.21875 19.171875-27.359376 29.421875zm226.117188 322.839844h-55c-13.625 0-24.960938-9.960938-27.121094-22.980469 1.210938.160157 2.425782.320313 3.644532.46875.261718.046875.519531.078125.78125.101563 15.992187 1.929687 32.757812 2.910156 50.195312 2.910156 19.054688 0 37.300781-1.179688 54.621094-3.480469-2.160156 13.019531-13.496094 22.980469-27.121094 22.980469zm-42-64c-10.199219 0-18.5-8.300781-18.5-18.5v-2c0-4.136719 3.363281-7.5 7.5-7.5h51c4.136719 0 7.5 3.363281 7.5 7.5v2c0 10.199219-8.300781 18.5-18.5 18.5zm176.34375-12.957031c-21.585938 15.242187-48.191406 26.53125-78.792969 33.625 16.015625-16.039063 22.941407-36.003907 20.050781-57.980469-3.820312-29.035156-15.933593-49.382812-26.621093-67.335938-8.617188-14.480468-16.761719-28.152343-19.527344-44.597656-6.222656-37.023437 4.207031-67.195312 29.371094-84.960937 3.386719-2.390625 4.191406-7.066407 1.804687-10.453125-2.390625-3.382813-7.070312-4.1875-10.453125-1.800782-30.136719 21.273438-42.746093 56.683594-35.511719 99.703126 3.230469 19.214843 12.070313 34.0625 21.429688 49.78125 10.429688 17.523437 21.21875 35.644531 24.636719 61.621093 5.457031 41.457031-34.296875 59.5625-40.554688 62.144531-12.871093 1.523438-26.28125 2.40625-40.175781 2.640626v-14.429688h7c18.472656 0 33.5-15.027344 33.5-33.5v-2c0-12.40625-10.09375-22.5-22.5-22.5h-51c-12.40625 0-22.5 10.09375-22.5 22.5v2c0 18.472656 15.027344 33.5 33.5 33.5h7v14.429688c-13.914062-.234376-27.351562-1.117188-40.238281-2.648438-6.007813-2.527344-45.96875-20.992188-40.554688-62.136719 3.417969-25.972656 14.207031-44.09375 24.640625-61.617187 9.355469-15.722656 18.199219-30.570313 21.429688-49.78125 7.234375-43.023438-5.378906-78.433594-35.515625-99.707032-3.382813-2.390624-8.0625-1.582031-10.453125 1.804688-2.386719 3.382812-1.582032 8.0625 1.804687 10.449219 25.164063 17.765625 35.597657 47.941406 29.371094 84.964843-2.765625 16.441407-10.910156 30.117188-19.527344 44.59375-10.6875 17.953126-22.800781 38.300782-26.621093 67.335938-2.890626 21.96875 4.03125 41.925781 20.035156 57.964844-30.570313-7.09375-57.144532-18.378906-78.714844-33.605469-43.566406-30.765625-65.65625-76.199219-65.65625-135.046875 0-42.539062 24.828125-90.855469 66.417969-129.238281 45.597656-42.085938 102.804687-65.261719 161.082031-65.261719s115.484375 23.175781 161.082031 65.261719c41.589844 38.382812 66.417969 86.699219 66.417969 129.238281 0 58.847656-22.089844 104.28125-65.65625 135.042969zm0 0"/><path d="m393.5 196h-33c-12.40625 0-22.5 10.09375-22.5 22.5v2.5c0 21.503906 17.496094 39 39 39s39-17.496094 39-39v-2.5c0-12.40625-10.09375-22.5-22.5-22.5zm7.5 25c0 13.234375-10.765625 24-24 24s-24-10.765625-24-24v-2.5c0-4.136719 3.363281-7.5 7.5-7.5h9v12.75c0 4.144531 3.359375 7.5 7.5 7.5s7.5-3.355469 7.5-7.5v-12.75h9c4.136719 0 7.5 3.363281 7.5 7.5zm0 0"/><path d="m118.5 196c-12.40625 0-22.5 10.09375-22.5 22.5v2.5c0 21.503906 17.496094 39 39 39s39-17.496094 39-39v-2.5c0-12.40625-10.09375-22.5-22.5-22.5zm40.5 22.5v2.5c0 13.234375-10.765625 24-24 24s-24-10.765625-24-24v-2.5c0-4.136719 3.363281-7.5 7.5-7.5h9v12.75c0 4.144531 3.359375 7.5 7.5 7.5s7.5-3.355469 7.5-7.5v-12.75h9c4.136719 0 7.5 3.363281 7.5 7.5zm0 0"/></svg>